/* XPM */
static char *_df3a10c52104dd4cfded5bef83b0e8bOP32mq61sfjBOjV3[] = {
/* columns rows colors chars-per-pixel */
"32 32 119 2 ",
"   c None",
".  c #000106",
"X  c #05050C",
"o  c #0C0C13",
"O  c #111210",
"+  c #1A1A1F",
"@  c #0C2E01",
"#  c #0F2B0A",
"$  c #112B0C",
"%  c #0D3102",
"&  c #103604",
"*  c #133B06",
"=  c #10300B",
"-  c #163F08",
";  c #183012",
":  c #1A3F14",
">  c #1D1D22",
",  c #2C2C2F",
"<  c #3B2828",
"1  c #343437",
"2  c #363638",
"3  c #3A3A3C",
"4  c #613406",
"5  c #663C1C",
"6  c #164107",
"7  c #174208",
"8  c #19460A",
"9  c #1C4C0C",
"0  c #1F510E",
"q  c #1E4711",
"w  c #1F4C15",
"e  c #20520F",
"r  c #224D14",
"t  c #225511",
"y  c #255A14",
"u  c #285E16",
"i  c #27521B",
"p  c #2A561B",
"a  c #2B5D1A",
"s  c #305E1E",
"d  c #2D641A",
"f  c #2F681B",
"g  c #31691E",
"h  c #304C26",
"j  c #33492C",
"k  c #2F5223",
"l  c #345823",
"z  c #345429",
"x  c #3F4B3B",
"c  c #316323",
"v  c #3F6227",
"b  c #346C21",
"n  c #3C6A21",
"m  c #3C6B29",
"M  c #367123",
"N  c #3A7526",
"B  c #3C762A",
"V  c #3D7A2A",
"C  c #3F6234",
"Z  c #42451E",
"A  c #4F551A",
"S  c #68411C",
"D  c #424E3E",
"F  c #415639",
"G  c #435A3C",
"H  c #417E2D",
"J  c #477435",
"K  c #447F30",
"L  c #547C32",
"P  c #7A6922",
"I  c #3E3E40",
"U  c #484F46",
"Y  c #494849",
"T  c #495046",
"R  c #4F5D4A",
"E  c #525252",
"W  c #5B5A5B",
"Q  c #7B5E54",
"!  c #4C6842",
"~  c #537A46",
"^  c #5A6157",
"/  c #5C625A",
"(  c #60615F",
")  c #636263",
"_  c #676B65",
"`  c #676668",
"'  c #6C6E6B",
"]  c #657360",
"[  c #6F766C",
"{  c #706F70",
"}  c #737C70",
"|  c #7B7B7C",
" . c #A24F0D",
".. c #884229",
"X. c #97602D",
"o. c #8E7C31",
"O. c #837C3C",
"+. c #BA6823",
"@. c #8F7758",
"#. c #8F7858",
"$. c #AF6A68",
"%. c #43812F",
"&. c #458431",
"*. c #4A8936",
"=. c #4D8B39",
"-. c #548044",
";. c #588342",
":. c #549140",
">. c #549240",
",. c #549340",
"<. c #579543",
"1. c #589046",
"2. c #599745",
"3. c #5C9A48",
"4. c #609D4C",
"5. c #619E4D",
"6. c #64A150",
"7. c #848983",
"8. c gray55",
/* pixels */
"                                                                ",
"                          y u u u u y                           ",
"                    9 u B =.&.N N &.=.B u 9                     ",
"                  9 u H 4.6.*.&.&.*.6.4.H u 9                   ",
"                  e u g H >.=.%.%.=.>.H g u e                   ",
"              9 y d N V V V H H H H V V V M d y 9               ",
"              y M v P O.o.A u d d u A o.O.P v M y               ",
"              y N Z  .X.+.4 s 1.1.s 4 +.X. .Z N y               ",
"                u b n L L n c J J c n L L n b u                 ",
"                  * & & i J m m m m J i & & *                   ",
"            e 9 & t y # #.$.< . . < $.@.= y t & 9 e             ",
"          d V M y V H : 5 ..Q O O Q ..S w H V y M V d           ",
"        t =.>.M b >.>.u q l ;.-.-.;.l r d >.>.b M >.=.t         ",
"      % * b %.u d &.=.N 9 # $ ; ; $ # 9 b =.&.d u %.b * %       ",
"    9 t - 8 d y 8 f N f t 9 8 8 8 8 9 e d N f 8 y d 8 - t 9     ",
"    f H c r p y 8 9 u t u d u e e u d u t u y 6 y p r a H f     ",
"  9 g ~ [ _ ^ z 8 8 & t V V M d d M V V t & 8 8 p } ' ^ ! c 9   ",
"  8 C 7.| W ) / h % @ y =.4.<.N N <.4.=.y @ @ G ] 8.` W ) R k   ",
"  z _ W > o 2 ) (   @ t M =.>.H H >.=.M t @   { ' I o > E ` G   ",
"  F ) 1 . . o W )   @ 7 y d d f f d d y 7 @   ` W o . . 1 ` G   ",
"  j W 3 X . + E E   % r g u e 0 0 e u g r %   ) E + . X 3 ) F   ",
"  r U E 3 , Y E x   & d =.H b d d b H =.d &   D E Y , 3 E T r   ",
"    j E E E E x   % 7 t d N M y y M N d t 7 %   D E E E E j     ",
"      j j j j     & 8 u b u t t t t u b u 8 &     j j j j       ",
"                  @ 8 y K &.M y y M &.K y 8 @                   ",
"                % 8 y y y u d d d d u y y y 8 %                 ",
"              & 8 b &.V g d g d d g d g V &.b 8 &               ",
"              & t N 2.3.=.&.&.M M &.&.=.3.2.N t &               ",
"              % 9 d H =.=.=.*.N N *.=.=.=.H d 9 %               ",
"                & 9 u g N &.&.M M &.&.N g u 9 &                 ",
"                  & 8 9 y u f f f f u y 9 8 &                   ",
"                    @ & * 8 t y y t 8 * & @                     "
};
