/* XPM */
static char *_a02d4a9d5204f7df4dd18eb88b4d1665RhYA237T34chmNx[] = {
/* columns rows colors chars-per-pixel */
"48 48 151 2 ",
"   c None",
".  c #000207",
"X  c #010109",
"o  c #000808",
"O  c #061C02",
"+  c #091E07",
"@  c #041007",
"#  c #0A0A12",
"$  c #19191F",
"%  c #082002",
"&  c #072900",
"*  c #0C2C00",
"=  c #0C230E",
"-  c #0E3202",
";  c #113504",
":  c #133B06",
">  c #12320A",
",  c #193F0D",
"<  c #112510",
"1  c #142812",
"2  c #3D2107",
"3  c #3E220F",
"4  c #2C3717",
"5  c #373017",
"6  c #1C1C21",
"7  c #252529",
"8  c #2A2A2D",
"9  c #2F2F32",
"0  c #303034",
"q  c #3A3A3C",
"w  c #53161C",
"e  c #4F2105",
"r  c #4F252B",
"t  c #5D3822",
"y  c #58302E",
"u  c #154007",
"i  c #164208",
"p  c #18440A",
"a  c #1C4C0C",
"s  c #184A07",
"d  c #1F500E",
"f  c #1A4210",
"g  c #20520F",
"h  c #234B15",
"j  c #26481B",
"k  c #28481D",
"l  c #225411",
"z  c #255A13",
"x  c #295E16",
"c  c #2A561C",
"v  c #2C5C1C",
"b  c #2A6017",
"n  c #2D641A",
"m  c #2F681C",
"M  c #30631E",
"N  c #316A1D",
"B  c #264620",
"V  c #2C4A22",
"C  c #2D5220",
"Z  c #35562A",
"A  c #3D4939",
"S  c #3C5A36",
"D  c #356223",
"F  c #3A6224",
"G  c #356E21",
"H  c #3B6E2C",
"J  c #367122",
"K  c #3A7626",
"L  c #3C7827",
"P  c #3B7529",
"I  c #3E7A2A",
"U  c #3D6C30",
"Y  c #414E3C",
"T  c #41563B",
"R  c #46593F",
"E  c #624226",
"W  c #69552D",
"Q  c #566F29",
"!  c #447428",
"~  c #417E2D",
"^  c #57712B",
"/  c #45653A",
"(  c #467A36",
")  c #487F37",
"_  c #487339",
"`  c #726531",
"'  c #647A30",
"]  c #3E3E40",
"[  c #424244",
"{  c #444C41",
"}  c #4C4C4C",
"|  c #4E5C4A",
" . c #475841",
".. c #515D4C",
"X. c #535353",
"o. c #565B54",
"O. c #5C5C5C",
"+. c #585758",
"@. c #744C4B",
"#. c #466240",
"$. c #5D655B",
"%. c #60645E",
"&. c #636363",
"*. c #696A69",
"=. c #686D66",
"-. c #6D726B",
";. c #687165",
":. c #737273",
">. c #797B79",
",. c #737A71",
"<. c #863A03",
"1. c #993A00",
"2. c #943612",
"3. c #FF3A3A",
"4. c #9E4906",
"5. c #B04800",
"6. c #D57522",
"7. c #D9772E",
"8. c #D07A2E",
"9. c #E67724",
"0. c #42812F",
"q. c #458532",
"w. c #488534",
"e. c #498935",
"r. c #4D8C39",
"t. c #578534",
"y. c #518E3C",
"u. c #52903E",
"i. c #569442",
"p. c #5B9545",
"a. c #5B9947",
"s. c #5E9B4A",
"d. c #718F4E",
"f. c #619E4D",
"g. c #729C4F",
"h. c #698955",
"j. c #6A9A50",
"k. c #63A04F",
"l. c #66A252",
"z. c #788474",
"x. c #73AD60",
"c. c #82903E",
"v. c #849342",
"b. c #8C8C8C",
"n. c #868586",
"m. c #899087",
"M. c #908F91",
"N. c #979697",
"B. c #BB8784",
"V. c #D3AB9E",
"C. c #E9B5B1",
/* pixels */
"                                                                                                ",
"                                                                                                ",
"                                      a l b b b b b b l a                                       ",
"                                a z b I e.q.q.G G q.q.e.I b z a                                 ",
"                              a z I i.s.l.e.q.I I q.e.l.s.i.I z a                               ",
"                            a b K e.k.l.l.e.q.e.e.q.e.l.l.k.e.K b a                             ",
"                          a z x N L ~ i.s.r.q.0.0.q.r.s.i.~ L N x z a                           ",
"                        a a l z z z b K q.u.q.I I q.u.q.K b z z z l a a                         ",
"                      a x b N 0.q.q.q.0.K K q.q.q.q.K K 0.q.q.q.J N b x a                       ",
"                    a x N 0.H ^ c.d.v.' D n x l l x n D ' v.d.c.Q H 0.N x a                     ",
"                    a x J U 3 1.9.t 7.5.e x N w.w.N x e 5.7.t 9.1.3 U J x a                     ",
"                      x J ( 5 <.6.E 8.4.2 M ) x.x.) M 2 4.8.E 6.<.5 ( J x                       ",
"                      d x K I ! t.j.g.! N D 1 ( ( 1 D N ! g.j.t.! I K x d                       ",
"                        a a a a l z z m q.0.~ f.f.~ 0.q.m z z l a a a a                         ",
"                                * * p C F F v v v v F F C , - -                                 ",
"                    a : - : d l > @ h.C.B.@.. . . . @.B.C.h.O i l d : - : a                     ",
"                a x N x p a J J x = ` 3.w r X X X X r w 3.` = x J J a p x N x a                 ",
"              a G q.q.I l G e.e.J = 4 2.W V.y o o y V.W 2.4 f J e.e.G l I q.q.G a               ",
"            a G s.s.q.J N I s.s.K h p D ~ p.p.i.i.p.p.~ D p x K s.s.I N J q.s.s.G a             ",
"          * i m y.i.K z n q.i.s.~ N l + < B S #.#.S B < + l N ~ s.i.q.n z K i.y.N i *           ",
"        : * - a m q.K d l J ~ r.q.G l p > % O O O O % > p g n q.r.~ J l d K q.m a - * :         ",
"      a a a - ; a N N a : n N I K n z a a a a a a a a a a z n K I N n : a N N a ; - a a a       ",
"      a N K n p p x n z : a n n n z d z z l a a a a l z z d z n n n g ; z n x p p n K N a       ",
"    a n q.0.D c h h x z a : a x g d x n n n x d d x n n n x d g b x u u z x h h l n 0.0.n a     ",
"    a N K _ -.-.*.%. .a a a a : : x G G G G n z z n G G G G x : : a a a s / >.-.%.$./ P N a     ",
"    a z _ m.n.:.&.&.&.R a i : * : n e.i.i.q.K N N K q.i.i.e.n : * : u a c z.N.>.*.&.&...c a     ",
"    a Z ,.M.b.&.O.&.&.&.T ; * * : n q.a.l.f.i.G G i.f.l.a.q.n : * *   $.;.b.b.*.O.&.&.&.o.T     ",
"    C =.:.&.9 # # q O.&.&.o.& * : b G q.a.f.i.K K i.f.a.q.G b : * &   :.:.*.] # # 8 X.&.&.|     ",
"    | &.&.0 X X . o [ &.&.    * : z n G L K K K K K K L G n z : *   &.*.&.[ o . X X 0 &.&.|     ",
"     .&.&.$ . X X . 0 &.O.      * p g z n n n n n n n n z g p *       &.&.0 . X X . $ &.&.|     ",
"    Y +.O.7 . X X X q &.X.    * - a n g l a a a a a a l g n a - *     &.&.q X X X . 7 O.&...    ",
"    V X.X.} 6 X X 8 } X.}     ; a G u.~ N z z z z z z N ~ u.G a ;     O.X.} 8 X X 6 } X.+.Z     ",
"    a { X.X.} q ] X.X.X.A     * u N r.r.0.I N n n N I 0.r.r.N u *     A X.X.X.] q } X.X.{ a     ",
"    a V X.X.X.X.X.X.X.A h   * : a d b K 0.~ J l l J ~ 0.K b d a : *   h { X.X.X.X.X.X.} k a     ",
"      h A } } } } } A h     : a z x d z z z z a a z z z z d x z a :     h A } } } } } A h       ",
"        h j j j j j h     * - a a n I G l d x d d x d l G I n a a - *     h j j j j j h         ",
"                            * a a b w.s.w.J N d d N J w.s.w.b a a *                             ",
"                          * ; : a l x J L K N x x N J L J x l a u ; *                           ",
"                      * * : z x b x z d l l n N N n l l d z x b x z : * *                       ",
"                      ; p l J q.I G n n n n n n n n n n n n G I q.J l p ;                       ",
"                      i a b 0.i.i.e.I K K K G n n G K K K I e.i.i.0.b a i                       ",
"                    * u g n ~ i.l.f.i.e.e.e.q.N N q.e.e.e.i.f.l.i.~ n g u *                     ",
"                    * * a z N 0.e.p.e.u.r.q.q.G G e.q.r.u.e.p.e.0.N z a * *                     ",
"                      * : g z N K I q.q.q.q.q.G J q.q.q.q.q.I K N z g : *                       ",
"                        * : a l n n G I q.q.I N N I q.q.I G n n l a : *                         ",
"                          * : a a a x b n N N n n N N n b x a a a : *                           ",
"                            * : : p a a a z n n n n z a a a p : : *                             ",
"                                * - - u a a l l l l a a u - - *                                 "
};
