/* XPM */
static char *light061695480475[] = {
/* columns rows colors chars-per-pixel */
"128 128 70 1 ",
"  c #050505",
". c #0E0E0E",
"X c #161515",
"o c #181617",
"O c #191817",
"+ c #171718",
"@ c #181718",
"# c #1C1B1B",
"$ c #201E1F",
"% c #1F1E21",
"& c #211F21",
"* c #242224",
"= c #282526",
"- c #282827",
"; c #272628",
": c #292629",
"> c #2C2A2D",
", c #302E2F",
"< c #2E2D31",
"1 c #302F32",
"2 c #333235",
"3 c #383637",
"4 c #393837",
"5 c #353538",
"6 c #393738",
"7 c #3B3B3B",
"8 c #403F3F",
"9 c #3F3F40",
"0 c #424242",
"q c #484646",
"w c #474748",
"e c #4C4B4B",
"r c #504F4F",
"t c #4F4F51",
"y c #545354",
"u c #585757",
"i c #575758",
"p c #5B5B5B",
"a c #5F5F60",
"s c #636263",
"d c #6D6D6E",
"f c #6F6F70",
"g c #737374",
"h c #767678",
"j c #7B7B7C",
"k c #817F80",
"l c #858484",
"z c #888787",
"x c #898887",
"c c #878788",
"v c #898888",
"b c #939293",
"n c #979798",
"m c #9E9E9E",
"M c #A2A1A1",
"N c #ACACAC",
"B c #B4B4B4",
"V c #B8B8B9",
"C c #C4C3C4",
"Z c #C9C9C9",
"A c #D4D3D4",
"S c #D8D7D8",
"D c #DADADA",
"F c #E3E3E3",
"G c #EDEDED",
"H c #EFEFF0",
"J c #F0EFF0",
"K c #F1F1F1",
"L c #F8F7F7",
"P c #FFFFFF",
/* pixels */
"#:222222222252225222322212222212311111111<1<,,<<<<<<<<<<1111111<;11<<111111122221222222222223,232233122222222211511111111111221&",
"*>21111122222222222222221122<11<11111,11<<<<,,<<<<<<<<<<<<<<<11<><1<1111515121222122222222223,212,1,,11<,,,,,,,,,,11,,,11111121>",
"%>222<<><><<<<<<<<>>>,>:><>>><>>:::::>>>><::>=>=:>>>>>::><><1<21<1111>>>>>11,,,,,,>,1>>,>>,>,>>=>>>>>>>>>>>-=>>>>>::-,:,,,11222>",
"#:221<<>>:&&&&&&&&&&&&&$&&&&&&&&=&*$&&&&&&&&**$$&&&*&&&=:>1111<1>1111><>:*&&&&&$&&&&&&&&&&&&*&$$&&&&&&&&$*$$$*$$$&*&$**->,11212&",
"%;1122<>&&&@###@$@$@$o$Xo$o$$$o$$o$$##O#$#$o$o$Xo###$o#$&=>211<<;<2<1<>;$$$o$$o@O$o#####$$$$oo$o$o$o$o$oOO$OOo#o#oO$OO#$:11111>&",
"%;<<<1<;&#@@XXXXooo@ooX$ooooooXXooXXooooXXo$XXX$oooooooo#$=>><<<;<11<<;&$oXXXXooooooXooXXoX$ooo$XoX$oooooooooooooooooooO&&:>>>1&",
"%%<<<<;%#Xo$&&&&&&&&&&&&$$&**&$&&**&$***&&&$$$$$$=$$$#oooo$;>><<*<21<:%+Xo$$&&&&$**$&&**&&&&$$$$$$*$*$$$$*&&*&$*$*&&$$Oo@$&::<1&",
"%%<<<<%+@@8MAAAAAAAAAAAAAAAAAAAAAAAAAAAAAASAAASSAAAAAm8oooo*:><>&<11<%%Xoo,zZAAAASASAAAAAASAAASAAAAAAAAAAASAAAAAAAAAABu$X@&&><<;",
"%%<<>;%X%0BLPPPPPPPPPPPPPPPPPPPPPPPPPPPPPPPPPPPPLPPPPLN5XooO*>,<%<<<;@++o>bGPPPPPPPPPPPPPPPPPPPPLPPPPPPPPPPPPPPPPPPPPLZp#Xo$-><*",
"%%><;%X+9BKPPPPPPPPPPPPPPPPPPPPPPPPPPPPPPPPPPPPPLPPPPPLN6ooo$:>>%<<>&+++&bJPPPPPPPPPPPPPPPPPPPPPPPPPPPPPPPPPPPPPPPPPPPPZpXo#=>>*",
"%%><;%+wCLPPPPPPPPPPPPPPPPPPPPPPPPPPPPPPPPPPPPPPPPPPPPPJB8oo#:<>%<1<%++<nJPPPPPPPPPPPPPPPPPPPPPPPPPPPPPPPPPPPPPPPPPPPPPPDyo#;>>&",
"%%><;%+MPPPPPPPPPPPPPPPPPPPPPPPPPPPPPPPPPPPPPPPPPPPPPPPPLb*X#:>>%>1>%++fGPPPPPPPPPPPPPPPPPPPPPPPPPPPPPPPPPPPPPPPPPPPPPPPPZ1#;<>&",
"+%>1:%+VPPPPPPPPPPPPPPPPPPPPPPPPPPPPPPPPPPPPPPPPPPPPPPPPPM-o%->>%;<<%+%jJPPPPPPPPPPPPPPPPPPPPPPPPPPPPPPPPPPPPPPPPPPPPPPPPS6#*>:&",
"%%><:%+VPPPPPPPPPPPPPPPPPPPPPPPPPPPPPPPPPPPPPPPPPPPPPPPPPM:o$>>:%><>%++jJPPPPPPPPPPPPPPPPPPPPPPPPPPPPPPPPPPPPPPPPPPPPPPPPS7#*:>%",
"@%>1:%+VPPPPPPPPPPPPPPPPPPPPPPPPPPPPPPPPPPPPPPPPPPPPPPPPPM-o%>>-%><<&#@jJPPPPPPPPPPPPPPPPPPPPPPPPPPPPPPPPPPPPPPPPPPPPPPPPS7#;>;%",
"#%>1>%+VPPPPPPPPPPPPPPPPPPPPPPPPPPPPPPPPPPPPPPPPPPPPPPPPPm-o$-,;%:<<&@@jJPPPPPPPPPPPPPPPPPPPPPPPPPPPPPPPPPPPPPPPPPPPPPPPPS6@;>>%",
"+%;<;%+VPPPPPPPPPPPPPPPPPPPPPPPPPPPPPPPPPPPPPPPPPPPPPPPPPM:+%:<;#><<&#+jHPPPPPPPPPPPPPPPPPPPPPPPPPPPPPPPPPPPPPPPPPPPPPPPPS4%;-;%",
"%%>2<%+VPPPPPPPPPPPPPPPPPPPPPPPPPPPPPPPPPPPPPPPPPPPPPPPPPM:+%<<:#;<<&#%jHPPPPPPPPPPPPPPPPPPPPPPPPPPPPPPPPPPPPPPPPPPPPPPPPD4%;>*%",
"+%;2;%+VPPPPPPPPPPPPPPPPPPPPPPPPPPPPPPPPPPPPPPPPPPPPPPPPPm>+%<1;%-2<%#+jHPPPPPPPPPPPPPPPPPPPPPPPPPPPPPPPPPPPPPPPPPPPPPPPPS7#->;#",
"+%;<<%+VPPPPPPPPPPPPPPPPPPPPPPPPPPPPPPPPPPPPPPPPPPPPPPPPPm>+&<1:%:<<*+%jGPPPPPPPPPPPPPPPPPPPPPPPPPPPPPPPPPPPPPPPPPPPPPPPPS7#->:#",
"+#;<>%%MPPPPPPPPPPPPPPPPPPPPPPPPPPPPPPPPPPPPPPPPPPPPPPPPLb&#%19;%;<<;%+dGPPPPPPPPPPPPPPPPPPPPPPPPPPPPPPPPPPPPPPPPPPPPPPPPC2$:>:*",
"+%;<<;%wCPPPPPPPPPPPPPPPPPPPPPPPPPPPPPPPPPPPPPPPPPPPPPPLVq%&;<<;%;<2<%%<mLPPPPPPPPPPPPPPPPPPPPPPPPPPPPPPPPPPPPPPPPPPPPPPFa&;>>:#",
"##;><<;%9BLPPPPPPPPPPPPPPPPPPPPPPPPPPPPPPPPPPPPPPPPPPPLN7$&><<<<#;122>%%;bHPPPPPPPPPPPPPPPPPPPPPPPPPPPPPPPPPPPPPPPPPPPPAp#;>2>:#",
"O#*<<<<;*0BLPPPPPPPPPPPPPPPPPPPPPPPPPPPPPPPPPPPPPPPPPLN7*;<1911<#*1221<;%<bGPPPPPPPPPPPPPPPPPPPPPPPPPPPPPPPPPPPPPPPPPLZp;->2><>&",
"O#;<<12<>;0NZZZZZZZZZZZZZZZZZZZZZZZZZZZZZZZZZZZZZZZZZM0*%<99;<9<#;222222-*5cCZZZZZZZZZZZZZZZZZZZZZZZZZZZZZZZZZZZZZZZZBa>>,,121>%",
"O#;1212221>5777977777787779979790880090000000000000085>><99:9<1<#;2211252<>2990990090888800808000000000900080880999997<<,22,,1,%",
"##:112222522222222222222512122222221115122222222252552559<9<<9><#>22,22255222222522225555255555552522222222232221212<222322211<*",
"O#>21215525525555555552355555522222315152222225122222212<<;9<1<<%1112255252542422525322222222,2,<2,12112,121,121212222222222211*",
"#&<1112<22,2121,1,,,>>>>>>>>:>:>>>:->>>>>>>>>><>>>>:;::;;;;;>>><*1,,112,1,,,,,,,>>,-----=---====;===;-::>>:,>,>><><:>>>>:;>><11*",
"#&::>;***&$&$$%%%%%%$$$$$$$$&&&$&&$*&&&&&*&&&&&&%%%#%##%%+@%++%%*****&&$$%##################$#$$$$&&$$&*&&&&&&&&&&&&%%%%%%%##%**",
"XX+X+X++XXXXXXXOXOOOoooooooooooo@ooooo@@o@ooX+XXXXXXXXOX+XXXXXXXXXXXXXXXXXXXXXXXXXXXXOXOOXXOooooooo@ooOo@XX#@XXoX+@+XXX++XXXXXX+",
"..XXXXX+XXXOXOXXXXXXXXXXXXoXXXooXoXoooXXXXXXXXXXXXXXXXXX.XXXXXXX..XXXX.XXXXXX+XXXXXOOXOXXOOXXXXOXoOXoXooX@XX@XX+XXXXXXXXXXX+++O.",
"#*:><<<>><>><><>>>><><>>>>>>>>>>>,>>>>>>>:>>&:>:>>=::::::>>;>>&;%::-::::->:::>>>>>>>,,:,>>>>>>>>>>>>>>,>>>>>>>>>>>>>>>>>>,>><<:%",
"#>22111525552522555222552225232211511,,1211<2<11,1,1<<11<<<<>12<:2,222212225515125515222555555555555522222222222,2>21,2,<1,111<*",
"*>221<><<<<11111<<11<<<11><<>>>,<>>>>>>=><<>>>>>::>-::>>>>><<1<<>,2>>><1,,<<,<111,11,1,,<<1,1>>,>>>>>>>>-,,-:>>->>>>>--->>,11<1<",
"#:1<<<>>;>;:;;;;::*=;;;*=;;*::&&&:&:=*=$&&&:&:&&=*=*==&:;;<<111<>2>2>>>::::==:=:==:*===&;;*;==;=;*-=**;;*=**;**=**=*==-->>111<<:",
"%;1111>;:*&#%%###$$#$####$$$$$$$&$$$$$$$$$$$&&$$$$$$#$$$&>>111<<;,,,<>::;*#$$#$$$$$$$$$$#$$#$#$#O$$$#$#$$#$#$#$#$#$$##$=><11<<<;",
"#;<<11<;&&@XX+++ooXoooo#oXXXXXooooX$XXX$XXX$#ooooooooooo&&:><><<;,11<<:&#oooooXoXXXXooXXooooooooooooooXooooooXooooooooo#$:>><<<%",
"#*1<<<>%#@#6weeereereeeererrereeeereeeereereeeeeeeree3#o@#&::><>*<11<:*#ooo>qereerreererererereeeereererrereeeeeeeeee8$o#$*::::;",
"%%1<<>*%@@eVSDDDDDDDDDDDDDDDDDDDDDDDDDDDDDDDDDDDDDDDSBqo@@#&:><>*11><*#ooo3mADDDDDDDDDDDDDDDDDDDDDDDDDDDDDDDDDDDDDDDSCd*oO&;;<<%",
"%%><>;%X@eCLPPPPPPPPPPPPPPPPPPPPPPPPPPPPPPPPPPPPPPPPPLC7ooo#*:<>%><<:%+XX>NKPPPPPPPPPPPPPPPPPPPPPPPPPPPPPPPPPPPPPPPPPPDd$X#*->>*",
"%%><;%X%pAPPPPPPPPPPPPPPPPPPPPPPPPPPPPPPPPPPPPPPPPPPPPPZy#Xo$:<>*><>&#++6BPPPPPPPPPPPPPPPPPPPPPPPPPPPPPPPPPPPPPPPPPPPPPFj$o#*>>*",
"%%>>;%XiAPPPPPPPPPPPPPPPPPPPPPPPPPPPPPPPPPPPPPPPPPPPPPPLZy#X#=>>%>,>%++7NPPPPPPPPPPPPPPPPPPPPPPPPPPPPPPPPPPPPPPPPPPPPPPPGg#O*>>%",
"%%>>;%XNPPPPPPPPPPPPPPPPPPPPPPPPPPPPPPPPPPPPPPPPPPPPPPPPLb;X$=>:%>1;%++fGPPPPPPPPPPPPPPPPPPPPPPPPPPPPPPPPPPPPPPPPPPPPPPPPZ2#*>>%",
"%%><:%XVPPPPPPPPPPPPPPPPPPPPPPPPPPPPPPPPPPPPPPPPPPPPPPPPPM*o#->:%><>%++jJPPPPPPPPPPPPPPPPPPPPPPPPPPPPPPPPPPPPPPPPPPPPPPPPS5#*:;*",
"+%><*%+VPPPPPPPPPPPPPPPPPPPPPPPPPPPPPPPPPPPPPPPPPPPPPPPPPM-o%->-%><>%++jJPPPPPPPPPPPPPPPPPPPPPPPPPPPPPPPPPPPPPPPPPPPPPPPPD4#*>;%",
"#%:<:%+VPPPPPPPPPPPPPPPPPPPPPPPPPPPPPPPPPPPPPPPPPPPPPPPPPM-O%-:;%;<>%++jJPPPPPPPPPPPPPPPPPPPPPPPPPPPPPPPPPPPPPPPPPPPPPPPPS7#::;%",
"#%:<;%+VPPPPPPPPPPPPPPPPPPPPPPPPPPPPPPPPPPPPPPPPPPPPPPPPPM-O$:>;%;<<%+#jJPPPPPPPPPPPPPPPPPPPPPPPPPPPPPPPPPPPPPPPPPPPPPPPPD7#;:*%",
"#%:1>%+VPPPPPPPPPPPPPPPPPPPPPPPPPPPPPPPPPPPPPPPPPPPPPPPPPM;o&>>;#:<>%%+jHPPPPPPPPPPPPPPPPPPPPPPPPPPPPPPPPPPPPPPPPPPPPPPPPD4#;>*%",
"##:1>%+VPPPPPPPPPPPPPPPPPPPPPPPPPPPPPPPPPPPPPPPPPPPPPPPPPM;o&->;#><<%++jHPPPPPPPPPPPPPPPPPPPPPPPPPPPPPPPPPPPPPPPPPPPPPPPPD4#;:;#",
"##;<>%+VPPPPPPPPPPPPPPPPPPPPPPPPPPPPPPPPPPPPPPPPPPPPPPPPPM-#&-,;#;<<%%%jHPPPPPPPPPPPPPPPPPPPPPPPPPPPPPPPPPPPPPPPPPPPPPPPPS7#=-*#",
"+#;<;%+VPPPPPPPPPPPPPPPPPPPPPPPPPPPPPPPPPPPPPPPPPPPPPPPPPM-O&>,-#*<<%%+jHPPPPPPPPPPPPPPPPPPPPPPPPPPPPPPPPPPPPPPPPPPPPPPPPD7#=>;#",
"+#;<>%%bPPPPPPPPPPPPPPPPPPPPPPPPPPPPPPPPPPPPPPPPPPPPPPPPKv=O&><;#:<>*#+sFPPPPPPPPPPPPPPPPPPPPPPPPPPPPPPPPPPPPPPPPPPPPPPPPV,#;>=#",
"+%*<<*%1MKPPPPPPPPPPPPPPPPPPPPPPPPPPPPPPPPPPPPPPPPPPPPPGn2#%:<<>#;<<>%+;hFPPPPPPPPPPPPPPPPPPPPPPPPPPPPPPPPPPPPPPPPPPPPPPC8#*->*#",
"##;;<>%%7mHPPPPPPPPPPPPPPPPPPPPPPPPPPPPPPPPPPPPPPPPPPPKb5#%*<<1<#;>2<;%%;jFPPPPPPPPPPPPPPPPPPPPPPPPPPPPPPPPPPPPPPPPPPPLVe#*:>>:#",
"+#;;<<>%%7mLPPPPPPPPPPPPPPPPPPPPPPPPPPPPPPPPPPPPPPPPPLn5%*;<2<1<#;>52<;&%;jFPPPPPPPPPPPPPPPPPPPPPPPPPPPPPPPPPPPPPPPPPLVe&*:>,,>#",
"+#*><<<<;%1cBBBVBBBBBBBBBBBBBBVVBBBBBBBBBBBBBBBBBBNBBj1*;>22121<#;<2222>;%>dNBBVBBBBBVBBBBBBBBBBBBBBBBBBBBBBBBBBBBBNNb0**<,<<<;#",
"+#*<<221<<>%&*&&*%**&****;********;:*:::::;>:=:::-;;;;;;<2221111#;<222221>***-;-*=------:;-=---=;:;;----==:--:;-***;;*;>,22,,<>%",
"@#*<2111151<<<<<><<<1<1><<<<,<,11<1<111111221211,2221211555511<1#:22112252222211222222,2222,22,22212222231112,2>1,,><<<2222,2>>*",
"##:<112555512225552225225525555555555533555255552552552225525111#>111122265525522522255255525533555222522222222222525255222222>*",
"+#>1125151225222222222222122,1,,<1,,,,,,,<,<1<1111<<<<<<<><<<<<<*<2<1222222222122,1,2,,1>,,,>,,>>>>>>>>-:,,><><<<,1<<1<<<<<1>2>*",
"##><><>>>>>:>;::;;;;;*******&**=*;****&&;;==***=;****&*%&%%%&*;:$:>:>-;;;;---*-*****$*&&$$&$$$$$$*$$&**-*=&=;;***;******&&**;:>*",
"X#######%++@@@@@OOO+o#o#OOO#O#O#O###$o$$o##O##@@OOOO++++OXXX++X+Oo##+#OOOXOXXXXXOOXOOXoOoOOOO$o$$OO$$O###o###@O####O@#@@@@+X++##",
"                                                                                                                                ",
"X@&&;&&&;***;***&;;&&;*&*;*;*****;*&*==&;&&&*&&&&&&&&&&&%&%%&&&&O%&&**$$****%**&***************;**;**;***********;*&&********&&%",
"%:512255255555555555557322252551225251112221111111111111<<<<<1<>;2,21122212222225522225525555555555552525552222112111111111122<;",
"%<11<<<<225122112222221121121<11<<1<<<1>>><>>>>:>><>:>>><>>><<<>>,>,>>11,2,222221251222222225111<<1<2>>1>>>><<>>:><>>>>><>>><<>;",
"%:<<<<>>:;::::::;;:;;;::::;:*::=;***:&:&&;&::*:=:&&::&:&;;>><<<<>,><>>::::-:;---::::;;;:=;;;*===;;*=;*;;===****:=;*;====:><<<<<;",
"%;<<<<>;**&&$$&$%&&&$&$$%%$$$$&$&&&$$$&$&&&&$$&$&&$&&$$&&><<>1>1;,><>>:;=&&$%$$$$$&$$$$$$$$&$$$&$$$$$$$$$$$$$$$$$$$$$$&=:>>1<<<&",
"%*<<<<>&*%@@o@X@@@ooooX@++@ooooo@@@X@Xoo@@@@oooo@@oo@@o@&&&>,>>>;><<>>:*$#OooOoOoooooo@oooooooooooooooooooooooooooXoXXo$&>>>>><&",
"%*<><<<*#@%akklczzzzvvzvvvvvvvvvvvzvvvvvvzzzvvvzzzzzkp$Xo#&<>>>>*<>><:*#ooo0hlxvvvvvvvvvxvxvvvvvzvxxzzzzvvzzzzvvvvvvzd,o&&:;;;<%",
"#%><>>*#@=lJPPPPPPPPPPPPPPPPPPPPPPPPPPPPPPPPPPPPPPPPPGh&oo&&:>>>*,,<>;#@X#pSPPPPPPPPPPPPPPPPPPPPPPPPPPPPPPPPPPPPPPPPPKm3@#&;;<<&",
"%%<:>>%+:lGPPPPPPPPPPPPPPPPPPPPPPPPPPPPPPPPPPPPPPPPPPPFh-oo$*-,:%<<>:%++@pAPPPPPPPPPPPPPPPPPPPPPPPPPPPPPPPPPPPPPPPPPPPKM6@#&=>>&",
"#%>>:%+%vGPPPPPPPPPPPPPPPPPPPPPPPPPPPPPPPPPPPPPPPPPPPPPFj-Xo&->:%><>&@++pSPPPPPPPPPPPPPPPPPPPPPPPPPPPPPPPPPPPPPPPPPPPPPKN,o$=>:&",
"#%><&%+cLPPPPPPPPPPPPPPPPPPPPPPPPPPPPPPPPPPPPPPPPPPPPPPPFh%X#=-:%><;%+XySPPPPPPPPPPPPPPPPPPPPPPPPPPPPPPPPPPPPPPPPPPPPPPPLM*#*::&",
"#%><;%XVPPPPPPPPPPPPPPPPPPPPPPPPPPPPPPPPPPPPPPPPPPPPPPPPPM-X$*>=%><*%++jJPPPPPPPPPPPPPPPPPPPPPPPPPPPPPPPPPPPPPPPPPPPPPPPPA6#*:>&",
"%%:<;%XBPPPPPPPPPPPPPPPPPPPPPPPPPPPPPPPPPPPPPPPPPPPPPPPPPM*X#=-;$><:#++jJPPPPPPPPPPPPPPPPPPPPPPPPPPPPPPPPPPPPPPPPPPPPPPPPS6#*:*&",
"+%>>;%+BPPPPPPPPPPPPPPPPPPPPPPPPPPPPPPPPPPPPPPPPPPPPPPPPPM-O#=:;#:<:#+#jJPPPPPPPPPPPPPPPPPPPPPPPPPPPPPPPPPPPPPPPPPPPPPPPPD6#*:*&",
"%%><%%+VPPPPPPPPPPPPPPPPPPPPPPPPPPPPPPPPPPPPPPPPPPPPPPPPPM-o$-:;%:<:%+#jJPPPPPPPPPPPPPPPPPPPPPPPPPPPPPPPPPPPPPPPPPPPPPPPPD7#*:;%",
"+#><;%+VPPPPPPPPPPPPPPPPPPPPPPPPPPPPPPPPPPPPPPPPPPPPPPPPPM-o%::*%:<:%++jJPPPPPPPPPPPPPPPPPPPPPPPPPPPPPPPPPPPPPPPPPPPPPPPPS7#*:&%",
"+%:<;%+BPPPPPPPPPPPPPPPPPPPPPPPPPPPPPPPPPPPPPPPPPPPPPPPPPm:@$>>*#:<:%++jHPPPPPPPPPPPPPPPPPPPPPPPPPPPPPPPPPPPPPPPPPPPPPPPPD4%;-*#",
"@%;<;%%BPPPPPPPPPPPPPPPPPPPPPPPPPPPPPPPPPPPPPPPPPPPPPPPPPM:@$->*#:<:&%%jHPPPPPPPPPPPPPPPPPPPPPPPPPPPPPPPPPPPPPPPPPPPPPPPPD4#*-*#",
"##=<>%+VPPPPPPPPPPPPPPPPPPPPPPPPPPPPPPPPPPPPPPPPPPPPPPPPPM-#$>:*#:1<%++jHPPPPPPPPPPPPPPPPPPPPPPPPPPPPPPPPPPPPPPPPPPPPPPPPD7#==&#",
"@#;>>%+NPPPPPPPPPPPPPPPPPPPPPPPPPPPPPPPPPPPPPPPPPPPPPPPPPm-o*:>;#:>>&+%hGPPPPPPPPPPPPPPPPPPPPPPPPPPPPPPPPPPPPPPPPPPPPPPPPA5#;>&#",
"@#*>>&+fFPPPPPPPPPPPPPPPPPPPPPPPPPPPPPPPPPPPPPPPPPPPPPPPDs%O&>,;%;<;;%XwCPPPPPPPPPPPPPPPPPPPPPPPPPPPPPPPPPPPPPPPPPPPPPPPLv*#=:*#",
"@#*>:&%%hFPPPPPPPPPPPPPPPPPPPPPPPPPPPPPPPPPPPPPPPPPPPPPFd;O#*>,;+*<<;%%%yZPPPPPPPPPPPPPPPPPPPPPPPPPPPPPPPPPPPPPPPPPPPPPLm-o#=:*#",
"o#*><:%%%dSPPPPPPPPPPPPPPPPPPPPPPPPPPPPPPPPPPPPPPPPPPPDa#%#*-,,:#&<<<%%+#wCLPPPPPPPPPPPPPPPPPPPPPPPPPPPPPPPPPPPPPPPPPPGl*#$;>>*#",
"##&>:<>%#*sAGGHHHHHHHHHHHHHHKHKHJJJJJKJKKKGKKGKKJJJJGZs&*&=-2,<-#*<12>;%%*eBGHKKJJHKHKHHJHHHHHKKKGKKKGKKHGKGGHGKGKGGGDl>#%=>>>*#",
"+#%><<>-*%;tdddddddffdddfdffffddddgddddddffffffffffddt&:&>11<<<<#*<<21<:*&;wdddfdfffdffdddffdfffffddffffddddddffdddddi<&*>>,,>;#",
"++*<<<21<;;%%**********;;;;;---=::::>:>,::-->-->::::&&>&<222<<<<O*<22522<;;*-;-;:;;::-:>>;>>>->-::>->---;;--:-*;-***%**;>,,><>>#",
"+O%<<1112<<;>>>>:>>><><>>>>>>>,,,1,,,11111111121><<<211255121<<:#*<22>1552<1,,1,,21,2,,,>222,22,22,2,222,22,1,,,<>,>>><122,<>1>#",
"OO;<1<1125552222525252255555552352255522525525559<9<9225551911<<#<<<>,12556255555555555345524555555555522555525225522222222,2>>$",
"O#><,1122252225222552222355222222222121211512221<<1911111222521<#>111125225252522223222222222,,2,,,,2,,,,,>1>2,2222,2211<22112>*",
"##><<211<<<<<<<<,,>>>,>:;-==**==;-=;==:=>:=:--;;::::;;;&&&;&&><<%<>>1>1><<>>>>>:>>>-;;--***=****=***&====*==:===-;;;:&:::*;::>:*",
"X#**%&*%*%#%#+##$Oo$$oO$####$$$$$$#$$$$$$$#######%%@@%+%%+++@@%%#*&$$$#######o#oOoOoooOOOO#O#O###$#$$###$$$#$$#$####@%@@%@#+##&#",
"XXXXXXXXXXXXXXXXo.XXXXXXXXXXXo.o.XXX.XX.XXXXXXX+X.XX.XXX..XXX...X.XXXXXXXXX.XXXXXXXXXXXXXXXXXXXXXXXXXXXXo.XXXXXXXXXXXX+XXXX.XXXX",
"XX###+#%%#&#$#%#%#%##$##%%%###%#######%######@#####OOO##$o@@@#%XX#########%#$##$%#$##$#$%%%####$###%##%########################+",
"#&2122225151555532225152222222225151221211<<<<1<<><<<<<<<<<<<<<>&1>><>,,1,2,2221222232222222525223222222235225222221,22,2<1111<*",
"%;211122131555555255555552525122111112<<<<<<1<1><><<>>>><<>>>><>-1,>>215225222555355322332555252253522222,222,<<2><<,>,,>>>,<<>;",
"%>1>>>--><1,>><>><><>>>>>>>>>>>>>>>>;::::;;>:===;;*;;;;;&>&>>>><>>>>::>>,>>,>>>,>>,>>>,,>,>>>>>>-:::>->-====;=-=;;;;=*===:>>><<;",
"&:><1>:;==&==&**************&**&&*$$*&&*&***$*&**&&&%&&*==:>>>><>>>>>:==;;**********&*****&***$&**&&$&*$&&&&&&&&$&&&&&&*=:>1<<>;",
"#*<<>>:;&&$&===*==***===*=*=;;;;==:=====;;*;*=====:=*&#$&&:>><>>;>>,>==&$#O$====-======*===-;===*-=*;=--*==-==-*===*=*$$=>>>:>:;",
"%&<>><>*$#,lmmmmmmmmmmmmmmmmmmmmmmmmmmmmmmmmmmmmmmmmmh>Xo$&>>>>:=,>>>>*$oo*snmmmmmmmmmmmmmmmmmmmmmmmmmmmmmmmmmmmmmmmmx0$$=::;>:;",
"#*>>>>:#o5nKPPPPPPPPPPPPPPPPPPPPPPPPPPPPPPPPPPPPPPPPPGv=X$&&=:>:*>>>>*$#o$gFPPPPPPPPPPPPPPPPPPPPPPPPPPPPPPPPPPPPPPPPPLB0#$***::%",
"#&>:>;%+<mJPPPPPPPPPPPPPPPPPPPPPPPPPPPPPPPPPPPPPPPPPPPGv-oo$*=>:*>>>>%#XXgGPPPPPPPPPPPPPPPPPPPPPPPPPPPPPPPPPPPPPPPPPPPLB8o#*=>:*",
"%&<>>%%5BLPPPPPPPPPPPPPPPPPPPPPPPPPPPPPPPPPPPPPPPPPPPPPKm2oO*=>=$>>>*#+*kKPPPPPPPPPPPPPPPPPPPPPPPPPPPPPPPPPPPPPPPPPPPPPPZ0#$*-;*",
"#%::;%+nPPPPPPPPPPPPPPPPPPPPPPPPPPPPPPPPPPPPPPPPPPPPPPPPJk&o#=::%>>:%+XsFPPPPPPPPPPPPPPPPPPPPPPPPPPPPPPPPPPPPPPPPPPPPPPPPB:#*:;&",
"#%:<%%XVPPPPPPPPPPPPPPPPPPPPPPPPPPPPPPPPPPPPPPPPPPPPPPPPPM-o#*:;%->-@++jJPPPPPPPPPPPPPPPPPPPPPPPPPPPPPPPPPPPPPPPPPPPPPPPPD4#*:;%",
"#%:>;#XVPPPPPPPPPPPPPPPPPPPPPPPPPPPPPPPPPPPPPPPPPPPPPPPPPM-X#*:=%:<;#X+jJPPPPPPPPPPPPPPPPPPPPPPPPPPPPPPPPPPPPPPPPPPPPPPPPD5#*=;&",
"##>>;#+VPPPPPPPPPPPPPPPPPPPPPPPPPPPPPPPPPPPPPPPPPPPPPPPPPM-o#*=*%:>;%++jJPPPPPPPPPPPPPPPPPPPPPPPPPPPPPPPPPPPPPPPPPPPPPPPPD3#$=*#",
"#%:<;%XVPPPPPPPPPPPPPPPPPPPPPPPPPPPPPPPPPPPPPPPPPPPPPPPPPm=X$==*%:>;%++jJPPPPPPPPPPPPPPPPPPPPPPPPPPPPPPPPPPPPPPPPPPPPPPPPS7#*:*&",
"O#:>;+XVPPPPPPPPPPPPPPPPPPPPPPPPPPPPPPPPPPPPPPPPPPPPPPPPPM-o#-=*#*>*%++jJPPPPPPPPPPPPPPPPPPPPPPPPPPPPPPPPPPPPPPPPPPPPPPPPD6#**&%",
"+%;<;%+VPPPPPPPPPPPPPPPPPPPPPPPPPPPPPPPPPPPPPPPPPPPPPPPPPM-o$=:&&=>:%++jHPPPPPPPPPPPPPPPPPPPPPPPPPPPPPPPPPPPPPPPPPPPPPPPPD4%***#",
"+%;>;%+VPPPPPPPPPPPPPPPPPPPPPPPPPPPPPPPPPPPPPPPPPPPPPPPPPM-o$=:&#:<:%+%hHPPPPPPPPPPPPPPPPPPPPPPPPPPPPPPPPPPPPPPPPPPPPPPPPD4#*=*#",
"+#;>;%+BPPPPPPPPPPPPPPPPPPPPPPPPPPPPPPPPPPPPPPPPPPPPPPPPPM-#$>,&%:>:%%%jHPPPPPPPPPPPPPPPPPPPPPPPPPPPPPPPPPPPPPPPPPPPPPPPPS4#*;$#",
"+#;;;%%NPPPPPPPPPPPPPPPPPPPPPPPPPPPPPPPPPPPPPPPPPPPPPPPPPm-O$::*#*>>%++hGPPPPPPPPPPPPPPPPPPPPPPPPPPPPPPPPPPPPPPPPPPPPPPPPS5#*;$#",
"+#*>;%+aAPPPPPPPPPPPPPPPPPPPPPPPPPPPPPPPPPPPPPPPPPPPPPPPZr#o$>>&#*>>&#+9BLPPPPPPPPPPPPPPPPPPPPPPPPPPPPPPPPPPPPPPPPPPPPPPJg##*-*#",
"+#*>>%+%pZLPPPPPPPPPPPPPPPPPPPPPPPPPPPPPPPPPPPPPPPPPPPLCe###$>>*#*>>*@++5NLPPPPPPPPPPPPPPPPPPPPPPPPPPPPPPPPPPPPPPPPPPPPFhoo$*-$#",
"X#*:>;%+*pCPPPPPPPPPPPPPPPPPPPPPPPPPPPPPPPPPPPPPPPPPPPCe%###=>>:#&><>%%%%9NLPPPPPPPPPPPPPPPPPPPPPPPPPPPPPPPPPPPPPPPPPPDg*o#$=>*@",
"o#&:;<%##%yCKHHHKKKKKKKKKKKKKKKKKKKHHHKKKKKKKKKKHHHHGCr&$%**>,>:#&>1<;%%%%0MGKKKKHHHHHHHHKKKKKKKKKKKKKKKKKKKKHHKKKKKGDg;##$=>>*#",
"o#*:><:;%%%6wwwwwwwwwewweeeeweeweeweeeeeeeeeeeeeeeew02****:<1,<:#&<<<<>;&**10wwewweweeeeeeeeeeeeeeeeeeewwewewewewwww05;#$;;>>>*O",
"Xo&:><<<>*%%&%*%*******;***;*;;-:-;-;;-------;;:;;----*-:1511>1>#&><5<2<>;;*--;-------------*--;;;--*--;=;;==*-*********->,>>>-#",
"oo&><<><<<:;**-;-;*;;;;:;;>>>->>:>>><><>>1>><<<>>>>><>>,1322>>,>O*<1<<<21<>>>>>>>>>>><><>><><<>,>>,<<>>>>>>>>>-->---;;:,2,,>>>-#",
"X#*><<<<122<22222122221222212222322222252225555555552224555211>>#;<<<<<25522552252522255555555556555455552322252252,22152,2<,>:$",
"@@&<<<<<222522522222552522552225235522222222222252252252521221<>#:<><<222424555525554252222232332323222233,12222222251515111,>>&",
"@$:<<<11221122112<222,,11,,,1>>1,,>>,>,,1>>1>><>>><>>>>>>:>>>1>>#>>><1<2<<<<<<1<<2<,,>2,<<<>,--:>>->->>>>--,->>>>>>>>,>>>>>1>,>&",
"@$::>>>>:>=-;;;*;;**=&***&*&***&*&&&&*&**********%&*&&%%%#%#&&*;*:::>-->-*--****&**&$$$$&&%%$$$$#$&$$$%$$&&**&*&***&&&&&&&&&*=:&",
"@@#%###%#####o#OO+++OO#O#OO#O+##OO$O####+#O+#OOOO##+++++@@@+++o#O#####OO++OO++++OOOOOOO#OOOO#O#O##O#####$O$O####O#OO@##@@@@@@@##"
};
