/* XPM */
static char *pezbrick1695480475[] = {
/* columns rows colors chars-per-pixel */
"128 128 87 1 ",
"  c #0F0C0B",
". c #140E0D",
"X c #180F0E",
"o c #16120E",
"O c #19130F",
"+ c #130F13",
"@ c #161414",
"# c #1C1514",
"$ c #1D1815",
"% c #161518",
"& c #1A1619",
"* c #1B191A",
"= c #211614",
"- c #231916",
"; c #201619",
": c #261B19",
"> c #281D1C",
", c #25211C",
"< c #2A211D",
"1 c #1D1A21",
"2 c #221D23",
"3 c #281E22",
"4 c #231E29",
"5 c #242323",
"6 c #2D2422",
"7 c #2E2824",
"8 c #25242C",
"9 c #2B252B",
"0 c #2C2A2B",
"q c #302726",
"w c #312926",
"e c #312629",
"r c #342C2B",
"t c #37312E",
"y c #39312F",
"u c #272332",
"i c #2B2633",
"p c #2D2935",
"a c #2F2B3A",
"s c #342D33",
"d c #392F32",
"f c #322D3B",
"g c #363132",
"h c #3C3533",
"j c #3E3936",
"k c #35313D",
"l c #3C353B",
"z c #3E3B3A",
"x c #413A37",
"c c #433D3B",
"v c #46413E",
"b c #48433F",
"n c #332F41",
"m c #363342",
"M c #3B3644",
"N c #3E3A44",
"B c #3D394A",
"V c #433D44",
"C c #443E4B",
"Z c #464343",
"A c #4A4543",
"S c #4D4946",
"D c #46424C",
"F c #4A454A",
"G c #4D4A49",
"H c #504B47",
"J c #514D4B",
"K c #54504D",
"L c #4C4753",
"P c #4C4952",
"I c #514D51",
"U c #555251",
"Y c #595553",
"T c #5B5955",
"R c #545259",
"E c #595659",
"W c #5D5B5A",
"Q c #615E5D",
"! c #64615F",
"~ c #5F5D60",
"^ c #625F61",
"/ c #656462",
"( c #686666",
") c #6A6867",
"_ c #686768",
"` c #6C6A69",
"' c #706F6E",
/* pixels */
"*&*%****#$**,*5*5555555555500050we7000000000i000800800088888885*%*%***********5555555555505000505000000000000ii0080008880888881*",
"tgttgggjxxjjzzzzzzzzvzZZZZZGZZGGAcGGGGGGGGPIGGGPPFZFDDZDDZZVNk80gggggjtjjjjjzzzzzzzzZZZZZZZZZGSSGGGGKGGGFHJPGGGGFPZDZDFZCCZNNg00",
"ZSGGGGKGJKKKKUUUUTTUTTTTTTTTTWTTQQQQ~WW~W~~WWWWWWWWEWWWREEEEGm05SGGGKGKKGKKKKUUUYYUYUTTTTTWWQTWWTWWWWW~~QEQQWWWWWWWWEWWETRERGm50",
"zSGGGGGKJJKYUUKUUUUUKTTTTTTTWWTTQYQQWWWWWWWWWWWQWWWWWWWWWWEIDm01ZGGGbKHKGKKKKUUUUYUUUTUTTTTTTTTTWTWWWWWWYQQQWWW~WWWWWWWWWWTINm5*",
"tvbbSvvSccVHHHHVGGSSSGbKGKHHGGKGKHKYKKKKUKKKKKKUUKUKUUUUUUUGNm8*tvSbbSbbbSSSGGGSGSSHHHHHGKKGKGKHKKKKKKKKYKKKKYKKIIKUUKJUUUUGNk5*",
",txjvvjvxxcccccxvvzvvvvvvbbvZZZZcxcccbbcZvbvbbZZAAZbZZZZZZACBM8,5jjjjvvjvvjjvzvvccvvcvbcvvbbbbbbbbbbZZZZbcbbbbbbZZZAAZAAZZDNBm5*",
",tjjjjjjxxxxxxxxjjjjjjjjjjjjjjvjxxxxxxxxzzvvcjcxxcxxzjzzccvVNB8*7tjjjjjjjjjjjjjjjxxxxxxxjzjjjjvjzjjjzjjjxxxxxxxxczjjxcxxzvNZNn1*",
",7ttttt0xe>xqxexttttttttttttttttxwxwyxyxttwtttrtrrttttttghjNNm8*,7tjttt7t7tt7tt0ttrryryy0tttttrtttttttttrrwxrxyyttttytrdgjNZmk5*",
",7ttrq66663q>66q>qq<>666,7<<6<66<<<<<<<<<<<<<<<<<<<<<<7wyxxxNmu@<6reeq66,77<<7<<q66666<<<66<7<<q<<<6<<<<<<<<<<<<<<<<<<7wgjzVBm1*",
",777q66>66<>66>>>>>>>>:>,,<:<::<<:<<><::>>>><:<:>>:>,-<7txxxNm8*<qr6q6337,7<<<<<3>>>>:>>>>>>>>>>,,<,<>>>>>>>>><-<:::><<wthzBMm2*",
",7t7eqqq66<633>6<6>66>>>,,<<>>><:>:>::::>->:::>:-:::--,7dgjVNm8@<7wxee66,7,<<<<<6>3>>>>>>>>>>>>:::<:>->:::::>->>--:-:-,wthzVNm1*",
",77trree66>>6>>>>>>>>>>>,,:>:::::>::>:>->>-:-:-----=--,wrdhVNm8@<7qqxeee7,<<<<<<>>>>>><>>>>>:::>:<::>>-:::::->------=-<wttzNMm*@",
"$7ttt7rse63<<<>>>>3>>>>:>>>>>:>::::::----->-------==$=<wwylVMn8@,7rreded6:>><<<<>>>>>:>>>>>>>::::::>:::::::::-----==$-<wrhlVMn1@",
"$7wttwttde66666666666>66<<<<<<<><<<><<<>>>>>:<>>>:-O$$<rwddVMm4@:7rteedsexqq666<66666q><<<>6<<<>:<>,><::>:::>:-:<-==O,wwrglVMm*@",
"$,ttttttdeeqq666666666666<<66<<<<<<><<>><:>>,,,,><-O--<7wtxVMm4@:7ryexddxeq6q66qq<q>q>636<66<<<<<<<<<,<>>>>>::::,:=O$-qwrdkcMn*%",
"$77twtyydseeqqqqqq66q<qq<q<66<6<<<<<<<<<<<<:,<,,::==$-<rrtdVMn4@:7wyedssxeqqq6qqq<qqqq6663666<6<<6<<<<<,<<>><<<<,-=-=:qrqtjMMn*@",
"$<wyrdksddeew7eeqqqq7777q7767<76<7<<7<<<<<<<,7,<,,-$O,7weddVnn4X-7rttyghdseewwwwe7q77q7q77676666w<<<<<<<<,<<<<,,,,---,7t7yhzkk*%",
"$<wyddhdkgrrwrerqeeqw7qeq7ww76777w77<7777<67<,<<<,-$-,7teedknn4+-<rytyghgdrewrwrwewwqqqw777q777777777777777<7<<<<,-O,,7wwthjkf%@",
"$<rytgdlhdrrrrrrrrer7re7qwqww7qq7777w77<q<7<<77,<<---,7wrrdVkf1 -7ryddkggdyrrrrrrrerwwwq7rw77qq7777<7777<7<77<<7<<,--,7twyxjnf%@",
"$<wtghldlggtrrrrrrrrrrrrwrwewwwqw7777777w777777777,-,,7wrrdxff4 -<ryghjllgrrrrrrerrrrrrrr7r7qrwqww777777777777777,---,77twyjfa%o",
"O<rtyhxlllgttrgrrysrttrttrt0rrrrwt777rrwwwr77r0777<,,<7rrrddxa1X-<ryhhxllggstsdrtgtttrtrtt0ttrrrrrrr77t7w7777t77777,,,7tdedlfa&.",
"$,wthjxMlczzxxzjxxjjjhjhhjjjhjhjjyjhyjhyjyythttttyt,,<7trrdlfa1+$7wthlxllccjjjzxjjhjhjljhhjjhhjhhhhhhhhtyjtjytttyt7,,,7trdssfa&.",
"O,wthlccVZZcAVbcccvvVvcvcvvccvccvzzvvzccjjczzzjjxjj7w<qrrrrsaa1+=<whxxVVVZZZZZcAZvbvvZccvvcvccvcccjvzvzjzzczjjxxvjj7777tdessaa&.",
"O,wthcVZAFAAAAAAAAAZZZZZvZZZvvZvvvvvvvvvbvvvvvvvvxvvywwrydssaa1 $<rddxVVAAAAAAAAZZZZZZZZZbZZvvbbvvvvbbbvbvvbvvvcvjvyttwtrrdsap%.",
"O,7txxcbSAAHAAAAASSbAAAbZAbZbbbbAvbbvAbvbbcxbccxvvvvjtttrrydfp1 $<ryhcvAASAASSASZAAAbAAbAAbAAbZZvbvvvvvvccbbcbcbcbcxxxwqtrdefi& ",
"o,7ttxcvcccccVccccccvccvvvvvvvcvccxcccxxxccxccxxxxvvjjytrdessa2 #,wthxccvcVcccccvcZccvvcvccvccccccvvvvvxxxcxccxxxxxxxxxxtrdffi& ",
"O,<wyhyhxyxxxxyxxhxyxyxyyjyyhyhhxyyxyxyxxxxxxxxxjjyjyxtteddsaa; #,7wyyyxyxxhxyyxhhhhxyyxyxhyxyyxjjhjxytyxxxxxxyxxxxxexxqrrdsap+.",
"O-<7rwwwqqqeqrqqwwwwwwwwr7rwrwr7wqqrwwwww6wwq6ww77w7ww776eeesi1 $,<wwwwwwwwwwwwwwwwwwwwwwrwwwwww7777wwwwqq6rqwqww6wwq6eqqeeeii+ ",
"O--:,,<>>>>>>>>>>>>,>><<<,>>,,,<>>>>>>>6<<<<66<66<6<<7<<3qesai& O::,,>,<>>>>>>>:,>,<,><,<,>><>,,,<>><<<<<6>3<6<6<<6<66<636essi& ",
"O---:-::::::>:::>::>::>:>>>>,>>>>>>>><>3><<<>>>6<<<<<<7<66qesi1 O=--::::>>:::>>:>>:>:>::><>:>>>>>>>><<:<>6>6><<<<<<6<<6<6eeeii+ ",
"o$=$=====-------=:-:-:::::::::::>>:>>>>>:><>>>>><<<<<<<<3>3e9i;.O$=====-==---=-==::-:---:-::::>::>>>:>::3<>>>>>>>><<3>6>3>3eiuX.",
"$===$=O==OOOOO#O=OO==O=O==========--;=-=--=::=:=::------>;;;33=X-$=$==OOO=OOO####OO================-=-=-===;>==:::-->==;:;;:34+ ",
"rtttrrrrrrrrr0r0ereeee99e9790*,007rrrrttrtttttttxexexexxexxxcccVjccxjhghytrrrwwysrrsdeeyprr0t097qq<77770qqx6qewrrryryrrttrtthjj0",
"!``))////^^^^//^QQQQ^QE~WEEEDk0ZW!!!!!!!Q!!!!!!!!!QQ!!!!QQ^^(!/)///////(!!))))))(__)_))^(____WGUYYTTTWWWQ!YQQQQQ!!!Q!!!(!!(``')(",
"'''`'())__(__//_///!^^^^^^~RDf5gY!!!!)!!!!!!!!!)!))!/(!(/QQQ!QQ!QQQQQQQQ)!)))))))))`)`''_`_`_RzITT!WQQ!!!!!!Q!!!!!((!)!(`(``'''`",
"!!!!QQQQ~WQQQQ~WQQQQQWQWWWEPBk57jKTQ!TT!TTTTTTTTQYYYTTTYYYIJKJHCJJJJJKKYYQTT!T!T!WQQQ^QQ^^~/ELgzJYYYYYTTTTTTQTQQQTQQQQQQW!!!!!//",
"KKKJKJJJKKKKJUUKKKKYKYKKIIPCBf55tjbbKbbbAbbbbbbHAAHHHHHAVVxcccxxccccxcbbbbHHbHHHJGJJJKJYJKUYIC07xbHbHbHHVHJKJKJCHJJJKJKJKKJJKKKK",
"vbvvcAvvcbvvVccccxccccbxcAVVBf,5ttjxbbxvxxxxjjjjxxxxxxxxxxxxxxxxttyhyxxyxxxxxbbxxcxccccccAVAAD06wxbxvvvvxxcccccxcbccccvccccccvbc",
"hhhhxjhhxxyhxyxxxxxxxxxyjhcVMf267ttjjttwqwwqww7werreeeeexqqq:66qq<q6q<6qwwrrwywwwrrrdrxdxxxcDD077rxxtxhyxxxxxxxxxhyxxxxyxxhxhhxx",
"wwwwqqqq<qqqqqqqq6<qq<wydglBMf*5tttttt776q66666666q66666:>>>>>>><<6><<<<<6<6666<<6<6>6666exxZD867rtyrw7wqq>qq6eeqqwwqqqqqqqqqqqq",
">>>>><><><<<>><<<<>><<wwrgjNBf*,wrreeeee6666e666<6636666<<<6<<<><6><<<>><-<-<<<-,>>:::<<qryxVC8,<wwye3q666<<6>>6<<>>><>>>><<>>><",
">>>>:::::>:::::::-::::<wrglNBf*,wrrxxdeeqq6636666<6663>666<<6>q6>>>>><>><--<<-->>>:---<<qrhxVC9<7wwwqq6>>>6<>>>>>>>>>>>>>>>>>>:>",
":>>-:-:::::::---------<wrglMma*,6rrreeeseq66666>6666>666<<>6<6>><>>><>>><-<->->>:-----<,qqylVC33<wwweee6>>>>>>>>>>>>>>>>>>:>>::>",
"::>>-::--:----------=-<wrghMma%,7wexedssdeqqee6eq66qe66666>6666>6<66<<66<<-<><<>>>---<<<qqdlVV33<wtyeeeeq>>>>>>>>>>>>>>>::::::::",
":>>:>>->:::::::----O-:6rrdgMmp%,6wryxesseeqqe6e6q666666q66666666<6<6<<<<<<<<<<,,,,--<<<7qwtxVV5:<wwt7weee63363><>>>>>>>>>>>>>>>:",
">>>><<>>>>>:>>>>---=-<qwwtllmp@*66ryssxasxqqqqeeqwewqqqqqq666766666<6666<<<<<<7<7,--,<w7qwtxVM5-<wttwwdeee666666q6666>q><<6>><><",
"6<<<<<<<><<<<>>>-,-=-<rweddMki@:<7rxxexfsd6qxeeerwq6eweqq>qq7wr7wqq6qqqq<77<777<<<--<7wwqqshNM5-<7twwrysdee666666666>q6666>q6>66",
"<<<<<<<<<<<<<<>><,--,6wwerdkfi@*<<7tssxxsdxe6qqxrew6xeeeqxeqwww7qwqqq66q77777<7<7<,,<7twqqdhcM2-,7ttxwydeeeeqqqe6eq6q6666q666666",
"wq<w<<6<w<7<7<<66,--,7wwetdlfu+*<<wyxxyhkdrrrtrrsrrrsrr0wwrwrr7rwwwww7ww777777777<,,<tt7wwyxcm3@:wyresdddqee6<q6eeeeqqqqqqqqq677",
"www6wwww<77<6w6<<<,-<7wteedfau.-,<wtyxlxlsrsyrrrrrrrrrrrrrrrrrt7ywywrwww7w77r77w77<777wtwwttll2#:qredxkfdxeeexe<eeeerwwqqqqqqq67",
"w<www6ww7<77w6w77<,,<7twrrdkau.&,,wthjzlxlxxhhhhhhghhghgggygttttwxyyytyytttttrttww777twtwwwylk:@-6rxddxdsdqexeqxq>xqwwrerqwwwqww",
"wyywwywwwwr7wwwww7,<<wwteessau.#-,7thllccVVVZZZvZZZvvvvZvvvZvvvvbcbxcvccvcccvjvvvvytt7t7wwtykl*#:7resxmxddxexexxxxqxrxrryryrryrr",
"xxxxxyxyhhhjhyxxyt7<7wyteedipu.@-,6rdhcVFJJHJJJJJJJJGJGJJJJJGGJJbHHHHHHHSHbHbHSSbKbbttrttwwxty&O:7rydxVnVxcxccxcxxcxxxcxjjjjxxjj",
"xbbbbbbbbbbbbcccbbx77wwtrrdsp4.#=:7ygxcVFJIIIKKKIIJKKKKKJJJJKKJJKKKKJJJJKKKKKHKKbKbbxtwwww7xdr*O-<rydxxVVFFCCVVVVcVVAVVcAAVAvvAv",
"bbbbHbHbbbSbAbbAbbbxttyyeesipu @$,qwdxcCFJJKIKKKUKKKUUUIUUUJKKJKKYKKKKKJKKKKKKHKTKbbvyrwtwwyss&.-7ryxcVCHFSHHHHVCHHHHHCHAAASAAAA",
"bHHHHbHHSSSSSHAHHbbbxywyteepi4 o$-<wdhxVFHFFHSFASSSSSAHASSSHASHAbHbHbHHHSbHbbSbbbbbbvvywwwwyss&@-<wtxcVJJJJJJHJHHHHHHJJJHGSGJSHS",
"HbbbcAAbHHbbAbAAbbbbccxrredei8..O-<wyhxcVVVAcccccxccxxxxxxxjxxxxxxxxxxxxvjxxxvjxxxxxxxyyrreysp@o-<wyxxbAcHHHHVAHVHVcHHVcASSSSAAA",
"bcbbxxccxccccxxcbxbbxxyrreeei4 .O-<wryhxxxxxxxxxxxxdyytrrwwewwwrqrrrrrrytryyyyyyrxxxxxxywreers&o-<wyxxccxxccccxxcccxcccxcxxxcccc",
"xxxxrxxrwxxryryyyyttttr7eesii4 .O-<wryyyyytyrrrtrrqeqqq66<<<<q66<<q<<qqq<rwrrrwwrwreqrrrq6rrei&O-,6rrxxrxxrxxxxxxxxxxxxxhydyxrxr",
":<<>666q66666qqq<77<q6q6qqei82  o-<7q<qqqq<qqqqqq<qq6q>6<6<6>6<6<6q<<<33<<<<<<7<q6<6<q<q6<qeep@O-<<<<66<<<<<<>>><>6>>:6<6<<q>666",
"::>>>>>>>>>>>63><<<<<<<6669eu4 .o-::<:::>>>>>>>>>:>>>>>><>>><>>><>>>>>>>>>>>,,>>>>>>3>>>>>6qri#o=->::>:>>>->>>>->>:::>>>>>>3:>>>",
">::>>>>>>>>>>>>><<<,:<><>>e442 .OO--::::::::>:::>>:::>::::--:::-:::::::>:>:>:::>>:>>>>:>>>>6e9@OO-===--:-=>----->>:>:::>>>>>:>>:",
"====-;;;:==--;;:-----::::::344 .OO=============-=-=-==;=====;=;;;=-=;;==-:;;---:;;:;:;;:::::>>oXO=XOOO=================:====----",
"====O==#========----==$$;;;;:&+#O$O==OO==#=#=##$=###&;&;;;**&;$#X#OOX#=#######==#====;;#======OXXXXXXXXXXXXXXXX=X=XXX=XXX=OO=O=X",
"0****,,,5**5,56>555005070000000tg00gggghggggggttpggpppppa0080001dzzzvvzvccjvvvvvccVcVcccHHHHJKYYYJJJJAFSbbHAAAAAADFFFZFDZZDZZMzp",
"tzvzzzzvzZZvZZZbGZGZSSSGGKGGUJIJUUUUPUUUIURUUUIJUUGIIIGGGGPGDNa5ZQ//!!!(//))////)!)))'()//(^!!^((((!/(((!)')```(``````)`_`_`__~h",
"0GKGKGKKKKKUIUYYUUTUTTTTTTTWWWWWWWW~~WWW~~WQW~QQ~WWWWWWWWWTERNk5tH!!!!!!/!!!!!!!!!!!!!!!QQQQQQQQQQQQQWQW!!!!(!(((((((()(`))__/R0",
"5GbGGGbbKGJJIJKYUUUKUUUYUTYYYTTTTTETTWWTTTWEWEQQWTTTWWTWWRERGBk1,jSYTTTTYKKKKUUUYYYYYYYYYYKHJHHVAAcHAHJJKYYYYQQYTWWWWQWQW~^WWRL0",
"5tvvvvbvZbbbccHcSbbGbSSbGSSGHHSHGGGSHHHJGJJJHHHHGGUJJJJJUGGGDMf15tjvbbbbHbbbbbbbxbbcVcHcVcxcxxxxxcxxxxxxbbbxbbbbASAHSHHHJJJJUGD8",
",0jjjvvvjvvvxxccvjvvvvvvvvzvvcvvZvvvvbvvZvvvbxbbZvvvvvAvZZSZVMf*,rthvvvxyyyyttjtxxxxxxxxxxexexqxrrrrryttyyxxxxxxhhhjxxxcxxccDDD5",
",7tjjyyjjjjjxxxxjjjjjjjjjjjjxjjxjjjjhjxhxhjjxxxxjjjjhhjjjzzNNBm*5rtthhtwwwwww777qqqeeqeeqqqq<<666666q<63<wwwywwwwwwwerrydyyxcDD9",
",77tyt7t77776xeer7t7rwwrwrwrrerrr7rrrrrrrtw0wy6yr7t7rrrrtgzcNBf*,rttttw7qq666w<<6q666q66<<<<6<6><<<<<<<<<<<<<<<<<<<<><<<qqrhlVC3",
",,7tt777<6<<6<6<,,<<6<<<<<6<<6<<,<<<<<<<<><<<<<<,<<><<<6rhjcMMm&,wrttreew<66666666666366<6<666<><6>><<<>>>>>>>>><:<:-,::>qytxCC3",
",,77777,3666<<36<<<<<>>>>>:,,:>>,,:<<:::>>->>-::>::>>-<<wyjcCMa&,wwttdrerq66663e6<6366>66<<>><66>><>><<>>>:>>-->-<::---,>qrhxVC4",
"$,77t77766>6<6>><<,>>>>>>>>>>>::,>:::>:>>>-<-:::------:<eyhcBMn*,7wrtdssdeeq6e66666666666<<66>><6><<<<<<>:>>:<<<<-:---:,<qwylVC5",
",,0trt7te6>><>>><<,<>>><3:>>>>:>,::>>-::->---:-::---=$<<eddVVma%,<wrtrrdsseee6e66q6q66636666666666<6<<<6<>>>:<<<<<----,<<wwyjVV3",
"$<wwt7trse6>>>6>6>6><>>>>:>>>>>>:::::::>:-<-:-:----OO$,6wyhlBMa&,77tydrddseqe6qqqqqqw6666666666>6<66>66<<<<<<<<<<<---<<7qqqdhcM3",
"$<wrrrttseeq6666q>q>6666<>6><<><<<<<><>>:::,<:>:::-$O=<6wrgcNMa%,<<wtddkdsdeeeeqqqqqwqwqeqq667qqqqq>66<66<<<<<<<<<<<,,<wwqetlVN2",
"$,wrtrrgdseqqq<q6qq6q<66663666<<<<<<<<<<<,:<<<>-,,-$O-,7rrdcNma%,<7tyydllsdee6x6rqrwewqqwwqqw7w7qqq6q6w6qq66ww<<<7<-,,wwwwetgVM:",
"$,wrdtggsddqeqqqqq<qqq73666666q<<<<<<<<<<<<,<:<,,>----<7eedlMmp@,<<7tdlllsexexeqrrrrrrw6xeeerww7qqx>wqqqq66ww<ww7<<,,<wrwqqdhzN1",
"$,7wdtdkgdreeeww77wqqww7777777q<66667<7<7<<<<<<<<,,---<twwtxMkf@$,<ryyjjlskrrrrrrrrrrrrrrrwwrr7rw7t77rwrw7777w<7777<,777t7wyxxv-",
"$,7tttddhkdrrwwrr7ewew77we7q7776w6777<7<67<77<7<7,,-$,,7wttjlna+$,<7yhhzlldddgsrgrtrsttrrryrrrt7ttw7wwwwr7t7wwwr7w7,77ttt77wyxj$",
"o,<tthlhhldrrdrrrrt7rr7ewwwq777ww7w77w7<77777<7<7,,-$-,7t7tjkfa+$,,7thlzcllxjljjlxjjjjhhxhyxhhhjhhhhyjhhhthtyyyyttt7777twwwtgzt,",
"O,7tgdhlkhsrrrtrtt0trrrrtrwwrrreww7w0777777<w77777,--,,tttttfni%@,,<rhjlcVVFAAAAZZZZZAZZbVAAbZZZvvbZbbbbbbbbbbvvbbbxt7tttwwtgkg$",
"o,<tyjllllgggggyttgtgtttttttttrtttwt7t0r7tt7wwrr7w7,,<6w7rrhsfp+$-,6thxxVHJJIJJJJJJJGKJJJJJJJJHJJGJHHHHHKSHHHHHHbHHbvtt7rrqrgkd*",
"o,<tyhlzzcVccczzczzzzjzjjjjjjjjjjhjyjjjjjtjjjyhhttyt<<7rtrrhsfu+o--wrdlcCHJIIKKKIUUKKKKUJYKKKKKKKKKKKKKKKKKKJKKKKKKHbxt7wwrergs&",
"o-<ryjccZZAAZZZAZvbbbvbbvbvvcvcvvvvvccccvjvzjjzcyvvt777wtttyssu+$$-<rtdcVHJJJJUKIKJUKJKJJJJKJKKKKKKKKKKKKKHHKHJHHHHHHbjtwrrqdsf@",
"o-<ryjcZAAAASAAZSAZAAZbSZZZbZZZZvvvvvvvvvvvvbvvvvvvvvtwwtwryffi+o@-qqddcVAFHFFAAASAAAAAAAAAAAAbbbAZbbSbbbbbbbSbvbbbbbbxttrrerss&",
"o$<ryxxvAAAAAZAAZSbSbZbbbbbbbvvvbbbbvvvvbvvvvvvvccbccxtryrsdsau+oO=<wyyhxVccxccxcxcxxxxxhhxyxxyxjhxyxhxyxxhxhxhxxxxcxcxxyrrrrye;",
"o-<rthxxcccxccccxvcxccxvcvxvccccxcxccxcxjjvvhvvyxxxxxxxxrdeesauXoO:<wyyxxxxxxxxdhhhdytreqqwwqq<q7wwwwwwwwywyywyyyyyyyyhyt7rwerp#",
"o$<wryyxgyyyyhyyyhyhyyhyythyyyggyyyyyyyytjtyxywyxrrxxxrrqredisu .o-<wrrydrrdyrrrrrerrqqq<q<<<6<><<w<<qw6qqqqqqqwwwwwwwqrw66wesp#",
"o$:<<777q7qq766w<w77w66777<w6w7777w<7wqq7777<7776qqq<7qw6qediauX.O-,<6<6>6q><q<<q<6<<6>6q<<<>6q6<<<<<<<<<>>3<,<<<<<<<6q3<<<6eei#",
".O::,:,><::,,:<::,>:>>>>,>,>>>:<,<>>>><6<6<<<<<<66666666<6qeeau .o=-,,,>>>>>>>:>:>>>>>>>:>>>:>:>>>>:>>>>>>:>>>:>>>>>>>>>>>>6eei#",
".O=--:----:,:<:::::>:>::>>>>>><:,,>>>>>>>>>><<<<>3>>>>>><66esp4+.o=---::::--:::::::--:--:-;;:;:;::;:::::::>::::::>:>>>>>:>::3e4#",
"oO$O$O$===$===-O#----;;-------::-;-:;:--::::::::::::>>:>>>>3343XoO$O===O=#=#===#====;#====#===##O=;=====;-==;-;-==-:;;;;;;::-:3#",
"cjcxjjhhhhhjhhhxhlhhhhjgggggp33rzzjzzlxlcjjhxyxxxddddddssdeddlsd<777wwwtrgyhhhhjxjjzcjzzxxllllrgddgggghhhlhlhxjjljjxlxcxcccVcAVV",
"``(!!!!!!QQQQQQQQEQWEEEEEEEPNp0cQ)!!!!!!!!TTTTYKKKKKHJGSHCHHHJJHAVHHJHJYYYYQQ!!!^^//(/(//(/(/EZUTWWWWWW!QQQQQQ!!!!!!!//!!))')')'",
"``)()(!(!!//(!QQQQ^QQQQQWWEFMp,0bQ!!//!!!!!!!!!!!!!!!!!!!!)))))/)``)(//!/!!!!!!)(((/((((__((~PgAYWTQ!W!WQ!QQQQ!!!!///Q/)!)))'``)",
"TT!TTTWTQTTTQQYQTTYYYYYYYYICmp50hbKTTTT!T!T!T!!!!!!!!!(!!!)`````')`)(^!!!!!!!!!TQQQQWWQQEWWWRD0gvKKKYTKYQYYYYYYTYYYTYYYYTYTTQQQQ",
"GHGGHGSGHHbbAHAAHAJFSSSHAHFCmg,5tvbbbKbKKbKKYKYTTQYTT!WWQQQQQ!!QQQ/QQQQQQQQYYYTYUJJJJJHHHGJPGD07yvSAbHbbcHVVbHbHbHHbHHHHHHHHbHHb",
"cccxvxccxxcxbxxbccccccccczNNma55thjvAcccbbbbbKbHJHHJKHJJJJJYKYKHKYJKJKJYHKJKHHHHHHFAvvcvcccAFD97wxccvvvxxxxxxxxxccxxcxxcxxxxcxcc",
"ythtyyyyyxxxyyyytdrxyyyyhlzNmp55thyjxxxxvvvbvbxvccvvvvvvxxcccccxccccxcVccVccbbbxccxxxhyyyhlcDD97wrxxtttwexxxxexxxxwxxxexdyyxxrrx",
"66q66766<<<<<<<<3<q<66rrhlzNmp*5tyyhhdtttttyyxyxxxhyxhxyxxxxxxxxxxxxxxxxxxxxxyxyyxdtrwqqrgxcDD97wrxrt76666e6>666>666:666q6666666",
"q><<><<<<<<<><<<><><>>6yghzZm0,5tyyhyrqq77777w7wqqqqqwwwq66qqqwq6qeeqq>q6qq6w666qqqqqq<qwtlcZZ8<7yttw776666666666666><66>66<<<<<",
">6>><<>>>>>><>><:<:---7rhhlNmp*,tttvw7<66<6<>663>><<>6><><<>>>6>:>>>>>>><<<<<<>>>><<>>><qtxcCV8,7ryweeeqq6666663>6>e66>66666><6>",
"6><>><>>><>><--<:-<,-,7tghlMmp*5wtyytwqq<<<<>>>>>>>>:>>>>>>>>>>:>:>>>::>->::::>>::::::<6rthcCM8,7yyyrsdeq6666666e66>666<6><<6<><",
">>>><<<<>>><<>>>>:--:<wrthkMmp%,7wyytrw6<>3>>>>>>>>>>>::::>>::>::::=::::-<-<::---:==--<7etlxVM4,7tyyrrsdee666636>e66>6<6><<<6>>>",
"6>66<<<<<<><<-<<<---,<rtghzMkp%,wwyytwww63>>>>>>>>>>>:>>>>::::::::>>::=:---------=-=--<6eddcVV3:<wxytsssxeeeqqqqee66e6666666>66q",
"666<6<<<<<<<<<<<<---,7trrgjMmi@,wwtyxeeeee>636>33>>>>>>>>>:>>>>>>>>>:>:>-<-->>----=O--77rrhcVN5,<tyyttgseeeeqeqq6>6e6666666>q>q6",
"6666666<6<<<w<<<<<:-<wttrglkki@,6qryesdeeee66q666qq366636<66<6<6><>>>>>>-<<<--<<---=-<7wwtdxVM2:<wyttykgseeeqeqqeeqqqqqq6q6>q666",
"qq666q6w666<<w<<<<-,<ryyrglkfu+,<qrdssxiee6e73qq6q6qq66q66qqq666<6<<<<>><<-<<<<-<---<<wwwrglNN5$<wytyhjkdsdeererqqee66q6qqqxq6eq",
"wqwwqq666wwww<ww7<-,<wygrglkfu@*66edddsdde6eq7qqqqeeqqeeqqqqqqqq<66<66<<<<<<<<<,<<--:<wwrrylzM2-<tyvyjlhxieeyerrexqq6xq6xeqeq<xq",
"r7r77777777777777<<<<7xyttjgauo*,7ryyhdssreqreqeqreewweew7eerwqwqqq<666666<6<<6<7,--,7wwtttvMM:$,wyxdxxkgstrrtrrxx6qerrrww7rr7rr",
"rrr7wrr7wwww6w7777<<7ttttthjfuo*,<wyyhhhksrrerrrrerrrrreerreqeewqqqqw66766677676<,,-<7wwwttyMl1#<qydldVVldsrdrtrqe6xeqdrrrrr7tr7",
"ttttttttttrtxwttt777ttxyttytauo*,<wyyhjkddrdrrrrrrrrrrrrtrrrrrrrqwwww6ww7w7776777<,,<<wtywtxlm:@:wdxlxVxllgjgjhhxxxxxxxxgyhygttt",
"vvvcvvvvvvxvxvccvvtt7tyy7tyyfu $,<wthhllkgrdyggrsdtggtgrttygrtrtyyrrywwwwwwrwrwww7,,<7twwwrtll*#,wexxVcVvDZAvVAVxccxVcxcvvvvvvvv",
"SGGGHHHSbbHHHHHHbbbxyyyytsssau@%-<wthdxcccclxclxxzxzxlcjzjjjxxxxxxcxxxxyhjjjxyyyjtw77wwwyytyjk*@,7txccVFGJGJJJJHCJJHHHHHJJGJGGGH",
"JJKKHKKKKKKKJJHJKKKbxxjygrsfauo@=,wtxlVcVAHVZDAFAAVAAAZAZZZZVFvvbcbbbcbbvvvbbvbbbbvtyyywwtrhgs*O,6tycVHUKUUIKKUUKKKJJYKJJKKJKKKK",
"KKKKKKKKKKKKYJJJbTKTHbxjyrssau @=,qydxcAGGGJFSGAAFASAFAASSSAAAASbbbbbHbAbbbbHbbbbbvxvvxyyttykf*O<6txcVJJUUUUYKUUYYKYYYKYUIKKKKKK",
"ASASHbHHbHbbHbbcbbbbbbxyysssf8.o#:6tdlcbGJJFJJJJJHJJJJJHJSSJHHHHHHHHHbHHSHHHHbHbbbbvvvxxyyttds;@-6wxccVHSSFHAHAHCHCHVHCHASSASSSA",
"xxxxxxxxxxxxxxxxxxxxxxddtrrfau.X=,6tyxxbccHVAAAAAHSSAAHASSAAAHAAAAAAAAAAbSbbbbbAcccxxxxyrrtsss&.-<ryxvhvxxxcxxxxxxxxxxxxcxxxxxxx",
"wwwwwrwweererrxeerrerrreqrsaa4..O:6rtrrxxxxxxcccxcccccxccxcccxxxccxxccxcvzvvvxxjyxyywwrrq7edss*O,<67www7wrrwwwwrwrwrwrrerwwywwrr",
"666q66<w666666666666<qe3qeespu..O-<<677wqerqrxerdtttryyyttttyryyyyyyyytttttyyrrwqqq6<qq<>6qesf&#--,<<<<<<<<<<<<<<<<<<<6><<<<<6<<",
"6<<<<67<3666666<66666666qqeaa4 .O-:<<<<<<66>6>666<6>6666<q>q6666<<<<q<36<<<7<q<q6>66<<><6<qess&OO<<<<<:,>>>:,<<<<<<<<<6><<6<<<6<",
">>3>>>>3333<66336663333633eiiu..O=--:=:::>>>>:>>>>>:>>>>>>>>>>>>>>>>>>>>>>>><><>>3<6633336>69p&O=-==-----::-:::->>>:>::>:>>>>>>>",
":::;:::::::>=:::>=>>>3>:>>>334 .OO==========;:---:;;--::;::::::;:::-:;:>>::::::>::>::>>>:>:>>6=XOO=OOOO-#======;====;;--;--;-:::",
"==#;=&;#=&==;;&;;;==;;;;;;&;:&..o..OXXOXXXXXOOO#O=##=#==##=#=#####=##;==-==;;;;;;;;-=;;;;;;:;-+.XX....XX+.XXXXX#X#=O#XXO=#O##==O",
"@+@@X@&@@&@&&;&&&&;;*****&***&&@*$@@$#@*&#=:&&&&&&&&&&#&%&&&&@@#@@@#@@@@@#@%@%&#&@&&&&*&&1&&*@*$@@**@$$$*****&****;;&121111111&@"
};
