/* XPM */
static char *tile10061695480481[] = {
/* columns rows colors chars-per-pixel */
"128 128 47 1 ",
"  c #0E0E0E",
". c #130E0E",
"X c #14140E",
"o c #0E0E13",
"O c #130E14",
"+ c #151415",
"@ c #1A1717",
"# c #1B1A17",
"$ c #17151A",
"% c #1A171B",
"& c #1B1B1C",
"* c #211D1D",
"= c #20201D",
"- c #1D1B21",
"; c #221D23",
": c #242324",
"> c #292525",
", c #292826",
"< c #252329",
"1 c #29252B",
"2 c #2B2A2B",
"3 c #312F2F",
"4 c #33312F",
"5 c #2F2C30",
"6 c #322E32",
"7 c #333133",
"8 c #393637",
"9 c #3A3837",
"0 c #373438",
"q c #3A3639",
"w c #3C3B3C",
"e c #403E3E",
"r c #41403F",
"t c #3E3C40",
"y c #413E42",
"u c #443F48",
"i c #454444",
"p c #484747",
"a c #484847",
"s c #454149",
"d c #484648",
"f c #4C4B4B",
"g c #504F4F",
"h c #504F50",
"j c #545454",
"k c #575758",
"l c #585858",
/* pixels */
"wfjjjjjjjjjjkjjjkjkjjjjjjkjjjljkjkkkjkllklljlkllllklllllkkkkkjljljlllljjllllllllllllllllllllllllllllllllllllllllllllllklkkfaisfj",
"wwajjjjjjjjjjjjjjjkjjjjkjjjjjlljkjjkljjljllljlljljjlljljkkkklllllljklllljllllllllllllllllllllllllllllllllllllllllllllklkjfaisrag",
"wwrajkjkjjjkkjjjjjjjjjjjljjjjjjljkkkkllljlljjlllljllllljkkkkkllllllllllllllllllllllllllllllllllkllllllllllllllllllllllkhaiai979a",
"9wwrfhhhjhjkjjjhjjjjjjjjjjjjjjjjjjjjgjjgjjjjjjjjjjjjjjjjjjjjjjjjjljjjjjjjjljjjjjkjjjjjljjljjjjjjjljkkkjjjjjjjjkjkjjjjjhdaiy87470",
"29trafffhffffffffffgfggffgghffggfhfhfgfggfgfggggfgggffgghhhjhhhhggggggjfjffjjjfjhggfhhggjgjgjfhjfjhjjggjhhhhgghhhhhhhhgdit037777",
",2tffffffffffffffffgfffgfffffgffgfhfgfgffggfgfhfggfgggfgfhfffhhfgfgfgfgffjfgffffhffjgfgggfffjfgfggfffgfffghgggggggfggghfr7737777",
"2,wfffffffffffffffffffffgffhgfgfgfggfhfgggggfgfhfhgfgggghffhhfhhgggggfgjfggfgfjfgggfgffgfggjfjfjhfhgghjfhhhfgffhgggggghgw7777797",
",2wfffffffffffffffgffggfgffgfgfgfgffgfggfgfggfgfhfggfgfghfhfhhfhgfgffjffggfjfjfgfgggggggggfggfgffjgfggfgfgggggggggfggfgfw7747779",
"2,rfffffffffffffffhffffhffffhfhffgfggfgfhhfhggfgfgfhffhhhggfhfhffjjffhhffggfgfgggggggffggggggggggggfgggggggffgggghghhhhfw7777707",
"2,wffffafffffffffffffhffgfgffhfggfgffgfgffhhffgfhhggjffhfhghhhfhffffhhfhjfggggfgfgfgggggffgfgfgffggggffgfggggggfgfgfffhhw7575777",
"2,wffaffffffffffffffhfffffffffgffgfggfgffhhfgfgghhfhfhhffhgfhfhfjffjfjhfffffggggggghggggggggfgggfggfggggfggffgfgfghhhhhfw7777777",
"2,wafffffffffffffhfhfffffhgfhgfggfgffgfghffgfgggffhfhhfhhfgghfhhjffjffhhfjggggfggfgffggffggfgggfgggggfgfgggggggggghfhhhfw7577779",
"2,waffffffffffffffffffaaaaffffgfgfgggffgffffdfddhfgfgfhffhhfhghffaaaffjffffffgfjhhggggfffffhggfgggfggggggghfhfdfffgghhhfw7777777",
"2,raffffffffffffffffiit9wwaafhhffgfgfggfhfdyeqeeifgfggfhfhhfhfharrwwwrafjjfjgffffhfhfduw99wifggggfgggfgfgffduwqeraffhfhfw7777779",
"2,rfffffffffffffffpt07522279affhffgfgfgfdt6651227wfggggfhfhhgfiw7722239rafffjfjfhfffyq6522339afgggggggfgfdy0652537rahhhhw7577577",
"2,wafffffffffffffpt752222,,29affgffgfgfuw622522,,3wffgfgfhhffr75<222,,,3rjjfffjfhffy6552122::9igfgfggfjffq611,12,,29afhfw7777797",
"22wfffffffffffffdt7<525221::>wfffhffhfdt1155221<,:2rgffgfhhfs0512222<,::3afgfgffjfi722552,,,:,9ffhfhfffft52222,2,,:,wfgfw7577777",
"2<wafaffffffffffs0<2121<%o+$@4igffhfgfy5<151<%$++&=9fghghhffw1<12<=+o$#=,wggfgjffa7<<2<-++o&==2rhhhhjjfi5<2<:$+X$=:=7aggw7777577",
"2,wffffffffffffft5<<22- o    :rgfgfgfdw1;1<;       2affhhffd0<<<<o      &9aggfgffa2<<:oo     X:whhhfffft<<<+o     +#2ihfw7777779",
"22tafafffffffffay2<<<-       #rffgffffq1<<;o       :ihghhhhd5:<-++       3agfgfjhr2<- oo      #9ffhffjfw<-          :rhfw7777777",
",2wafaffafffffffy5:<-o       &rffgfgfdw<;;O        ,ihfffhfa7<-          7aghfhhft5-$        o+9ffhhfhfw<$o         :rgfw7777777",
"2,wfffffffffaffas0::#o       :iffgffhfy,;-         3ahhghfhaq--         owfgfhffha5&         o=rhhhfhffr<o          2ahfw5777777",
"22wffffafffaffffht<:$       :9fffffffff8;O        2rffffhfhfa5$         7afhhffhffr:         &9fggfhfhhf9          ,rfhfw7777777",
"22wafaffffffffffhf0-+       9fffffggffha5o        ifhfhhfhfhjy%       o=ffhfhhhhfjf9         3hffhfhhhfjf2         9hggfw7777777",
"2,waffffdffffffffffq$      :iffgfgfffgffi,       2afgfhffgfgff9#      +9agfghfhajhha3       =rhhhgfhhffhfi:XXX   o2ihfhft7577777",
",2wafffagdffffffffjjw#@  :7iaffffffgfffghr2&   :wafgfgfggfgffhjf2   +2iagggfhhhhffhhgr=   &9fhhfhfhffjfhfhf9&o X,ifjfhhfw7777570",
",,raafffffgdfffffffjjidgffffffgffgffffgfffhhfffhhfgfgfgffggfhhjkjgffhjhhfhfhhffhhhfhhkjfagjjjffhfhfhgghhhfjjjfffjjjfhfhfw7777777",
"2,wffffafddgffaffffffffhhfgffgfffgfggfdghfhhhjhhhgfgfgfgggfggfffgjjjhggfjfhfhfhhffhhghhjjjhhfhhfhfhffhfghffhgjjjhgfjfhhfw7757777",
"<2tafafffffffffffffffffffffffffgffffffgffhffhfhfgfhfggffgfggfggffgggfgggffhhffhfhfgfgfhgggfhfhhhhfhffhfhgfhhfgfggfgfhhffw7777777",
"22taffaffddyeeeifffafffffffffgfaaiieaaffffhfgffgfhfhffairiidfgfgggfghfhffjffairsaaggggfgfghfjfffffaaraafhffhgghgfgfjfhhfw7577777",
"2,waffffdue06468wiffffffffffffaiw07779wafhffhfgfgfffdy97667wifgffgghffhhffar07577wfgffhggfhhffjfit97779rafhfgffgfgfhhfhfw7755777",
"2,wafafay6552,2,27iffffffffffdw621111239afhffffgfgast55112,,4wfffgffhhfhfi752222<27ifgfhfhhffhar752<22229afhfhggghhfhfhfw7777779",
"2,rafaat0<<555<<::7affffffffdt5225511::>rffgfgffhfs05<15111::2rfhfhfhfhhy02<52<,:::4ihhhhhfhhft5222<22,<,9agggfggggfhfhfw7777777",
"2,rafai0<255<<--$#=wfffffffft7<151<-#$&$9fgffffgffw5<551-%##&=4aghfhfhfa02<2<:&+&==:7agfffhhfs512<:$$$$:=:wffggggfghfhhfw7755777",
"2,wafft5<5<5= oo   7affffffat<<<<-oo    7afffffhfi7<<1;o  o   :rfghfhhfr5<<:+o     +3ifhhhhffw11<$o     #=7agfgffhfhgfhfw7777777",
"22wafat2<<<-   o   7iffffffi0<<<-  o    2agffgfffi5<<-        #rfffhfffw<<:         :rgfhffha0<:ooo       3iggfghfhfhfgfw7777777",
"2,rafaw<:<:        2iffffffi7:<-        :agfgfgffi5<-         +9fgfgfgfw<<oo        :rggfffha0--          3ahffhfhhhhfhfw5377777",
"2,wafar2<:$        2iffffffa9:<&        &igfffgffi5--         &9fhgfggfw2-oo        :rgfhhfhf9;           3aghhhhffhghhfw7777777",
"2,waffa7:<+       o7afffffffr2:$        :ihffffffa0<+         :ifgfggffs5$          7ahfhfhhfy<          +9ffhfhffjhfhhfw7777777",
"2,wafafr<<+       =tffffffffa0-&        2affgfgfffi5+         9fffgffgffw-         =wfgggghffa7         o2ifhfhhjfffhfgaw7777777",
"22tafahhw-&     o$9affffffffga7o      .>rfffggfffgfi=.     o 3sfgffgfgfgf9         9ahfhfgfhhfi2        =rfhhfhfhhfhhfhfw7577777",
"2<waaffhjr:     :waafffffffffjg9   . .3eafgfffgffggga2     #8afgfggggfgfggt+     7ifffhfgfhffhfa9      7ahfhfhfhffhhhfhfw5777577",
"2,tdfaafjja0277riafffffffafffgjji7347rafffffgffffffgjfw077qaffgfgfgffgfgfhjgr777wffhfhfhfggfhfhjjaw77wahhhfhhffhhfffffffw7777777",
"2,tafafafhfaaaaafffaaffffffffafgfaaaaggffffffffggfffgffaaafhfgfgfgfggfgfgfhjgafafggfhfhfggfgfhfhhhfffghhghhffhhffhhfhfhfw7757777",
"229aafaffaafhfahaffffffffffaffaaafffffffffffffffffggfffgfgfffhffgffffgfggfffghghfgfggfgfgfgfgfgfffggfgfgffhfhffghfhhahhfw7777777",
"22waffaffaffaaaafffffaffafahfffffffffffffffffgfggffffgfffffgfffhfggggfgffggfffffgfgffgfhfgfgfgfgfgfgfgfgfhfhghghfhhfhhhaw7577777",
"22wafaaaafafaffafaiaffaafahaffffffffffffffgffgfffffffffffgfgfgfggffffgfggfgfgffgfgfgffgfgffggfgfgfgfgfgfhfhfffffhhhahahaw7777777",
",2wffaffaffffffaartiaairiiafffffffffffffgdddeyriffgfgfgffffffgfhfaiiiafffgfgfggfgfgfhfaairiafgfgfgfgfgfgfhffaiiiaafhfhhaw7777777",
"2,wafafaafafffffafsttt77379iaffffffffffffit07777wafgfffgffffgfsu9q0607eafggfggfgfgffayq0666erfgfgfgfgffhhfst07777riaggffw5777777",
",,wafaaffafsaffffss05<222223rffffffffffau0<5221,27rfgfffgfgffdy6122,,>39pffggfgfghfsw522221>4wagfgfgfhfhfy05222,:27raggfw7777577",
"22wafaafafsfffffas022522:::=2rfffaffffay71252<-;=:7affgfhfffdw51221<;;:>8fffgfffffs0515<:;;>>,wfgfgfgfffy7222<:::,,7iagfw7777777",
"2,waffaaafffafaast2<<<<-  o X7affffffas01<2<-o  . *wfgffffffy6;5<-    .+,rfgfgfgfft51<-o   .+&4ifgfgfgfd0<2-o   XX&=9agfw5757797",
"2,wafafafafaaffau5<<<<oo    o,iffffffft1<<<o      .4pgfffffd01<:+       #8fggggfhaw<<$        >rfffffhft5<-     X  X3agaw5775777",
"2,waafafafaffafft2<<<$ o     &rffffffaq<<<&o       ,rgffhffd7;<$         3affffffa7-&         +qfjfghffw<-          :rgfw7377777",
"2,waaafafasfaffst5-<$        #wffffffaq<--         =rffffffi6;-          3aggfgffs5-o         Xqfggffhfw-o          =rffw7777777",
"2,waffafafaafaafi5::+       o=rfaffffat1:$        .3pffffffd0<$         .7agfffgfi5&          #wfgfgfffw<           :9afw5777777",
"229afffaaafafafaa0<<o        3ifffaffas5:ooo       8ffffffffw<#         &wfgffgffa7$          2yffhfhhfi2o        oo7tafw7577777",
"2,waaffffaafafaffi5-&       $9affffffffw:o        :rffffffffa7oo        3afffffggfi1         .8fgfffffff9o         :wtafw7777577",
"2,wafafaafafaafafhi<  oo    7iaffddfffffw=       =9affffffffff2.      .>rffffgffffar&        7iffffhgfffa9        +ritafw7777777",
",2waafaffaaafaaaffjf7+ o  :9iffffffffffjh9=    $2wfffffffffffgf9&    =7rfffffffgffggi3     ,wffgfhhfffgfffr,    #3ihfiifw7757777",
"2,9aaaaaafafafaffajjfw779wiafffffafffddfhaar77wraffffffffffffggjf978edggdffggfgffgfgjgs979ifgffffffffffgfgjfr979agggfitf77777777",
"22waaaaafafaaaaffaafhffjjjfffaafffaffffffajkjjjjfffffffffffffffgjjjjjjgfggffffgffffffjjkjjjjgfgfgfgggffffffjjkjkkjfffaifw7777777",
"22waaaaaafaffffaaffafaaaaafffffffffffdfffhaafffaffffffffffffffffffgfdfgdffffgffffgfgffffhfffgfgfffffffgffgffffgffffgfaafw7777777",
",,waaaaaaaaasiiffaafaffffafafaafaappaffffafffffffffffffafaffffffffffgfdgdggfdaafaffffggfffffffffgfffifgffgfgffffgffffaafw7777777",
"22wafaddddtt999riafaaffffdffffdsywqq9riffdffffffffffduyqqqqiafffffffffgfffduye8eryafffffgfgfgffffuyw8wyiffffffffgffgffffee666448",
"229aaafast5522233waffdadfffdfdyt6222237rffffffaffffdy0652,239iffffffffffddy0511127rafgfgfffffffde6222237efgffgfgffffgfgde>1e4648",
"2,wafyys052121:-*>9afafadfffdy01221,:-:2tafffffaffdy6122,:==:3ifffffffffye151>;;=:29afffgfgfffs0251:;*;>39ffffgffgfgfffde4667777",
"2,9aastq5122:&   .>efdafdadfs0115<&     7ifffdfffau6;5<% o   =9afffffffae1;1-O..   ,wfffffgffs01;;OO  .+#3rfffffffffffgfe2666747",
"2,9ffdt5<11<      .7iafafdfaw1<1;+      ,ifafdfffi0<<<$       :rfffffffi6<<%.       3affffgdde5<%        #8affffffffffgdw7677478",
"2,9addt5<<<o      .2ifaffafi0<<<%.      :rfffffffy6<<%        &wfffffgfe1<%         ,ifffgdgfq<-.         3iggffffffgfgdw6766783",
"229fadw1<<$o       ,iaafaffi7<<-        =ifffafffy2;-         $9fgfffffq1-          =rffffffd8;O          3pfffgffgfffgdw6777337",
",29addw1<:o        2iafafaas0<:$        #rffffaffy5<$         #9afffffpq<-          :rfffffgd8-.         .3rffffffffffgdw6676748",
"2,waaai3::o        7saaffdfiw1-&        &ifffafffs8:$         =raffffffa1-          2iffffffaw<           7affffffffffffw6057577",
"2,9aaff9<2$       #9aafadfafs7:#        :ifaffaffat,o         3sfffffffh9%          0afffffffr5          =rfffffffffffffw7577707",
"2,9aaaff7:$      X5iaaaffafafr2+       +8ifaffffffaq&        :rafffffffas5         3iffffffffaw&        +9affgffffffffhdw6757777",
"22waaafjf7:      2yafafadfadfhi2+     $8ifffafaffaff9$      :waffffffffffa2      #7iafffffffffat&      &9aaffffffffffffdw6607777",
"22wiaaahjjw2  o<wifdafafafdfahjh7#  #7raaffffffffffhja1  +>9sffffffffffffggw:   3rfgfffffffffffhf8$ $=7affffffffffffffffw7377777",
"220dfaaafjkjgggfafaafadafdfafffjkjfhfgafffdfafafafffhjjfirafffffffaffffaffjlhhgfafffffffffffffffhjjasfjjhfffffffffffffhaw7777377",
",,tidaaaaffhhgffafaffffadfaffaaffhhhffffaffffffaffafffgfffffffffffffffffffffhjhgfffgfffffffffffffdffafgffffffffffffffffaw7777447",
"22tafaaaaaaaaffdppfdadaffafadffaaffffafaffafafffaffffafffdfffadfffafffffffffffffffffffffffffffffffffffffffffffffffgfffff07777777",
"2,waaaaafaaaaaaffadpdffpfafpfafafadfadfadfafafaffffffaffffffffffffaffafffffffaafffffffffffffffffffffffffffffffffffffffffw6606677",
"<,waaaaaaaaffaasdafffaaffaafafaffaaffaafdffaffffffaffffddffpfddffffffffffffffffffffffffffffffffffffffffffffffgfffffffffdw6766747",
",2wafafaaaaafafaafddpapyiippaafaaffaafffffasiiiiaaffffdfpffffffdaaaaaaafffffffffffffffddaaaaafffffffffffffffaaaaaffffffaw7677478",
",29aaaaafafssaaafddut707779tafaffafafdafdiq066779iafaffffffpffuyw00000raafffffffafffsr000799raffffffffffffit007999iaffffw6767774",
"2,9aaaaaafaffafsddy05<<,-&=2yafaafafafdsuq22>;&&:4rffafafadffit5<2-$$=:9iafffffffffyt5<--&&=29afffffffffay02<-$$&>3eaffa97777737",
"2,wiaaaaaaaaaafadt0<27<$    ,raafafafast6;1<*  . #2iffffffffye552-  oo =0affffffffs0<<-o    +,wafffffffat7<-+    +*3efffw5777777",
"2,waaaaaasaaaaaast5<2:o      7afadffddi0;5<+      #9affffffde61;+o      :tafdffffpw2<&o       3ifffffdfi0<-o       #8pfaw7777777",
"2,waaaaafafasafay5<<<o       :radfadfdt<1;$        3ifafpfapq;;%        #7ffffaffs7<-         =wffffffft5$ o        ,igaq7777477",
"220aasaaaaaaaasat2<<&o      o&wafffaaaw<;;         >iafaafai7<-          7affffffp5-o         +9afdfffpw<o          :tfat5757507",
"<2wiaaaffafafaaat5<-+        &wfadafda9<;-         :rffffffs7-+          2afafaffp5-          X9pffffff0:           :tfaq7757777",
"22wafaaaasaaaffar5<<o        :waafadfat<;$         2ifaaffds0<+o         9afffaffa7$          &wffffffdt<           :rfat7777777",
"<20saaaaaafaaaasa9<<&        3ifaaffdai5;-        +9afafaafaw<#         &9afaffffaw-          2rfaafffft2          +7afa07777777",
"22waaafaaaaaaaasfi7<=o      -waaaafafaat2&        ,yfdaffafaa0:         7rfafffaffi2         +9afdafafaa0&         :taff07777737",
"2,9aaasaaaaafaaaahi2&X     #0iafaffaaaffr2       :wafaffafaffa7       o2rffaaffaafft:       o9iaffffffffa9+       :rfdfaw7777577",
"229aasaaaafaaafaafkfw:o   2wsaddfaafafffft1    $7wiaadfifafafffy&o   :9afffffffffafhf9 o   2rfffafpfaffaffr2     9affffa07577777",
"2,9iaaaaassaafaaaagkhrrrriaaafdaafsaafaffaaayyidffffaffdafafafjjfarrafhfffaffaafffffhhairiaggfffffffffffffhgfirifhjffffdw7777777",
",,9aaaaaaaaaaaaaaaaffffjjfffiadffdaafafaafhjjjjhfffpfafpafafaffhjjjjjjffdfdffffffffafgjjjjjjfdffafffdfaffafjjjgjjggdfdffe4066677",
"229aaaaaaaaaaaaaaaaaiadffiaifafiafaaafaaadaaffdddfpfpfpfaafaaafaffgfaaaffdfffafafafffaafffaafffdffffffdffffadfgfdfdffdfde4666077",
"2,wiiiaaaiissiiaaaaaaaaaafifafaaaiisdfaaffadafafddfpaapsaaaaffaffaaddffdffffaiaappfffdfafdffffffafaasifafafffdfaffffffff86667747",
",29aaaaaasy00889iifafddafifaaaisw9880wiaadafaafaffpfait0979riafafdfafdfiaasiw879eeaaffffffdffafdsywq79rsafaffffffafffdfpq6667777",
"22wiaaaai075<<<,2qiaaaafaadfady0551=:,7wadfafafafdasy051:-:,7ifaafaffdfffue65<:-*3eifdfdffdfffduq6<::-,4wafafaffpffffafpq7677777",
"2<wiaiaat2<5,#   2raaaaaafddfd022<%o   7ifaffdaadffu711%    =9affafadfdfgy5<-   ..>efddfdfdfdfft1;O    +7ifffffdfddffafaw6767477",
"2<wiaafi7<<=oo   :wifaaaddddhy11:      ,yaaaadfaffft<<o      3iaafafdfdhh6;%      X8pfafdffdfhd1%       &wdffdffdfddfafaq7777747",
"2<0aaat7<<<       #9iaaffadst5<;+       :9afafpfasq1<%        2rdafafddy0<%.      ..4rfdfdfffy5-         #8iffdafaffaffaq7777477",
"2,waaiw<<<-+       2iaaaaaai0<<-        .8pfddddai5<&o        #9affddfde5-          :eaffpffp8;O          7idfdffafdfafft7777570",
"2<9aaaw<<<+o       2taaadaas7:;$        .8pdfafday5-$         +9ifddfdaw<&          :eafpfpfi8-           2rfafaafafafadt5576777",
"229iaiw2<:+o       2rasadaii0<<$         4ifaadfai5<$         &9ffffafaw<$          :eaffppfi8&           3idffadfaddffd07777777",
",:9aaar72<&        3iaaafafiw2:%        #9afdaaaai7<&        o=tififdfde5&          2iafpfafpq<.         X7iafaffafafadaq7757777",
"229iaaaw<2=       &9saaaaaaas7::        :rafaaapaat2&o        3ifdiffadi9:o        +9ifapfpffy3.         :raafadafaddffa07775777",
"229iaafa9::o      7iaaaaaaaafi2&$      $9iaafddfdaat:        ,raaffaafdfi7         3iaaffpfpdde>        #9aafafadfafaffa07777777",
"2,9aarahf92+    &3raaaaaaaaafha7=     :9saafaaddaaffr2o     2raafifffafffa9#     :8saafapfpffdpe2      :9afaafafaffafafaq7377747",
"2,9aaaahjjaw7227wiaasaaaasaaihjhr92229iaaafiafaafaahhft2,27tafaaafifafdaafgi022,3iffffaffpfdfffgfr7,:29agfaffafafdafafdf07777747",
",,eppppidjjjgggffiaaaaaaaaaaaifkljggggfppfppaadappppgjjjggjgfadffaadfadfafjjjfjafffrffffffffpfpfgjgfegjgfppffpfpafaffaddq7577777",
",>8rppppaifgggfpaaaaisaaaaaaaaaafggggppfppfaaffafpfpdpggjggaddfdaadffdfpapfdhjjfrfffffffrfrffpfpffgffpfpfpfpffpffafaaffaq7777577",
"3,eepipipapiipppppaaaaassaasiadappppppfaapppddfdpppffpfpppfafaaddadffadfadfadaaafffffffrffffpfaffpfpffaffppfpffpfaadadfdq7777777",
"2,eeppppaipipppppppaaaaaaaaaaddaappappppfpfpaaaafapfapapppddaaaadfdddafdaadfffdafrffrfffdrfffpfppfpfpffppffpfppfafaffafdt7757777",
"229ipppiiiaipippppaaaaaaaadaaaddppapffufppaaadaapfppppdpdpafaaaffaaaaddfafffadfargfffuufffffpfpffpfppfpfffrfpffpfafafadd07755777",
",,9iprppdapapippppaasaaaaaidadiapppprrfpfpfdfdfappfafaaffpppfdddaafdfddaaaaddfaffffrffffffppppfaafpffpfppffffppfafdfddda97777777",
"2,qipppiipiappippaaaiaaaddadidaappppfpffppddaaddpppppppfpfpfdaddafadadaaafsaafaagddfrgfdrfppapfffdddpffppffrpfffdddffadaq0777777",
",,9apippppipipppiasiaaiadaaaaadapappppefppaapaddfpfpfppppappafddddaaaafaasfaaaaarfddddddffpfafpddddffdpfdpffppfudfdddffa07577774",
"229rraaaraaaaapppppdpdppiaaaififeuffrfefddapfdddppdddpafddddddpddddddadfaffaaaafddddfddfdgeeffuufdfdfddffffffrufdfffdfddy0505570",
"2249raarrrraraieipiypiiriiaiaiiieeeffreeppiepipypppippppduaaaadyppddaaaisaaaaaaadudddddefeferdueaadyapaauuefffeeadiiadddtt657777",
"34449wrweeeeeeeeeeeeeeeeywwweweweeeeeeeeeeeeeeeeeeeeeeeeeeeeeeeeeeeeeeeettttrrtteeeeeeeeeeeeeeeeeeeeeeeeeeeeeeeeeeeeeyyusstt7777",
"444998898884e4e48884888888998888e3e1ee4e88e48887884884886884e488887008880000077986e4ee44eeeeeee1e488084e1e6eee4e080008qusstt7777",
"444898984e4e9898888e898889898998e3ee4e4eee4e88e88e8888e888ee8e8888e8qqqqqqqq0990e6e46e6eee>ee5eee46ee4eee6e60eq888qqqqqqtssst770",
"44988989e4e489888888889e888888883e3ee4e448e48888888888888878888888888888888899094e6ee4e33e1ee65e6ee64ee6e66e08qq8qeqqqq8wtssut99",
"4e8888984e88e48888888888888888881e6e4e4e844e888788788888888788788888q88q88q88q9056e64e3e1eee1ee1e46e6e6e6ee6e48q8888wqqq0qyssw99",
"9ee8ee9ee9e8eee9e98e9e9e9eww9wwweee4ee8eee8e8eee8ee8ee8e8eee8eee8e8ewwwwwwwwwwwweeee6eeee3eeeeeeeeeee6eee0eeeeqeeeqewwtttyyst09w"
};
