/* XPM */
static char *tile10101695480481[] = {
/* columns rows colors chars-per-pixel */
"128 128 55 1 ",
"  c #040404",
". c #090807",
"X c #0A070C",
"o c #0A080B",
"O c #120F0D",
"+ c #13110F",
"@ c #151312",
"# c #1A1616",
"$ c #1C1917",
"% c #1A151B",
"& c #1E1A1B",
"* c #211C1E",
"= c #23211F",
"- c #1D1722",
"; c #1F1924",
": c #231C23",
"> c #251F28",
", c #262422",
"< c #282525",
"1 c #2A2926",
"2 c #262129",
"3 c #2A252C",
"4 c #2E2A2C",
"5 c #302C2E",
"6 c #32302E",
"7 c #2D2730",
"8 c #2E2931",
"9 c #322C33",
"0 c #362F38",
"q c #363234",
"w c #393536",
"e c #3B3837",
"r c #373138",
"t c #3A353B",
"y c #3E3A3D",
"u c #403C3F",
"i c #42403F",
"p c #3D3740",
"a c #3F3A40",
"s c #423D41",
"d c #464144",
"f c #484447",
"g c #4A4847",
"h c #474248",
"j c #4A4649",
"k c #4E4A4C",
"l c #504D4F",
"z c #52504F",
"x c #4F4C50",
"c c #524E51",
"v c #555253",
"b c #585656",
"n c #595857",
"m c #595758",
"M c #5C5B5B",
/* pixels */
"        oo.oo.ooooo.ooo...oo.o..%XXXXX  .. .o..o.....o..%XXXX. . ...oooo..ooooo.$OOOOOO...........o..o..o.....o.....oooo.       ",
"     @qyiaiiiiiiiidiiahhiiiiidiissssfsddddddgziddihiiddicMssfsdddiiigniddiiiiiiibMfduuiuuiiiiiiiiiiiiiiiaiiiiaaaiiaiiiie=       ",
"    @eznnMnMMMnnMMnMMMMMMMMMMMMMMMmmMMMMnMMMMMMMMMMMMMMMMMMMMMMMnMnMMMMMMMMnMMMMMMMMmMmmMMMMnnMMnnnnMnnnMnnnnnnnnvnnnvnzy=      ",
"   @qknnMnMnMnMMMMnMMMMMMMMMMMMMMMMmmMMMMMMMMMMMMMMMMMMMMMMMMMMMMMMMMMMMMMMMMMMMMMMMMMMMMMMMMMMMMMMnnMMMnnnnnnMnnnnnvnnziq&.    ",
" .@qgvnnMnnMnMMMMMMMMMMMMMMnMMMMmmmmMMMMMMMMMMMMMMMMMMMMMMMMMMMMMMMMMMMMMMMMMMMMMMMMMMMMMMMMMMMMMMMMMMMMMMMMnnmMnnmvMvnxiyq&    ",
" @eigvnnmmMnnnMMMMMMMMMMMMMnMMMMmmmmMMMMMMMMMMMMMMMMMMMMMMMMMMMMMMMMMMMMMMMMMMMMMMMMMMMMMMMMMMMnMMMMMMMMMMMMmMnmnnmvnMMxieeq$   ",
"@wiixvnMmMMMMMMMMMMMMMMmnnnnvvxxxxmMMMMMMMMMMMMMMMMMMMMMMMMMMMMMMMMMMMMMMMMMMMMMMMMMMMMMMMMzbvvnMMnMMnMMMMMMMMMMMMnnnMvxiyteq$  ",
"wiiigznnmnnmmMMMnnmvvvvvvxxxxxgxxxmMMMMMMMMMMMMMMMMMMMMMMMMMMMMMMMMMMMMMMMMMMMMMMMMMMMMMMMMzgzzzzvxvvnnnnnMnnMmmnnnmnxxxapeeqq# ",
"wq6qikxxzxxzvlllvllvcllcvxvzvxzxxccmMMMMMMMMMMMMMMMMMMMMMMMMMMMMMMMMMMMMMMMMMMMMMMMMMMMMMMbglccczvzxccccvccccccczzzxxzxhr6866688",
"1116ixzkzzzxcllclcllccccxxzzzvvxcxcmMMMMMMMMMMMMMMMMMMMMMMMMMMMMMMMMMMMMMMMMMMMMMMMMMMMMMnblcvvczxzvccccxxvxcxxlzxxxxxxgr381332q",
"1116igzkzkkzlllclccclclvvxvzxvxvcmxmMMMMMMMMMMMMMMMMMMMMMMMMMMmmMMMMMMMMMMMMMMMMMMMMMMMMMMbzvcvcxzxvccxcccxvcccczxzxxxxgr833222q",
"1166igkzkxzxlllllclcclclxvxvvxvvccxmMMMMMMMMMMMmMMMMMMMmMMMMmMmmMMMMMMmmMMMMMMMMMMnnMMMMMnbzvvccvvxxcccccccxcckxxxzxxzxgr333212q",
"1616iggzxklzlclvcvlllvlvcccczcccxmxmmmmmMMMMmmmmMMmmmmmmMMmmmmmmMMMmmmmmnnnnMMMMbbbbbbbbbbbzvcccvzxvxxcccccccxxczzxxxxxhr882122r",
"1116izxzkvlkklllcllcccccccvccccvxmxxxmmmMMmmmmmmMMmmmmmmMMmmmmmmMMmmbbbbbbbbMMMMbbbbbbbbbbzbbcccxvvvzvcccxccxcccxxxxxxxgr8281226",
"1116ixxgkkkllkvlllccclkvcvccvxcvxxxxxmmmxmmmbxvvMmmvvvvmmmmmcmmmcbbbvbvvvvnbvvMMbcbbbzbzzbzbbccczxvvcvzcccccccccxzxxxxxh68821226",
"1666egxxkvlllckcllvlcccxvxvccvzcmxxxxxxxmxmxvxvcMMcvxvvxmsmxsmccccccccvvczzzzvvncclccccczzzbccvcxxxvccccccccckckxkxxxxzhr228222r",
"1616sglglkllllllllclcclccccccccccccxxxxxxxxxxxxxccmmxxmscccccccccbcccbccccccccccccllllccllzblccccccccccccckcclckzkxkkckh03433226",
"1116ugkljllllllllclclcccccccvcvcvccsxssxxjjjkxkkscssxxmmcccmcmbmbmmmmmmmmmMmMMmmmmbmbbbbvvbcvcvccvccvccccccxcccxzxkxxkkhr7332326",
"1116ulglllglllllllllcclcccccvcccvcccxccxxxccxxccmmsmccsmcvcccmcmcmmmmmmmmmmmmmmmmmmmbbbbbbbcccccccccccclcccckckckxkxkckhr3333226",
"1115ugllgllklkklllclllccclcccccvcccbccmcbbxvvvcbmcmcmmcmvvcmcccbcccccmcbvvvmbcbbvvvvvbvvcbvvcvvccvcccclvvvccckckzxzkkckj03333326",
"1166uljgllglllllllllllcllcccccccccvcccccxxccccccxxmcmmsccccccccccccbccccccccmsmsclvlczvcccccvclvcccclvvbmmcjgcxcxkkckkkhr3332226",
"1116ugllglkllglllllllllccclclcccccccccccxvcccvcccmmmmmmcccmcccccccccccccvcccmmmmvvlvzzccccvcllvcccccvbMMmvkahkxlkxkxxkkfr3833226",
"1116ugkkkllkklklllllcllcvbccccccccccvcccbcccccccxmmmmmscccccccccbccccccccccmmMmckcccvccccvccccvccccvnMMbvkhtaxclxxkkkkxhr3322226",
"1116ugkkkglklklllllllcvbmmblcccccccccccccccccccbmmmmmsscsccccccccccccccccvmMmmmmslvccccvlvcccvclccvbnbvvxha0skkkkkckkkkhq3733229",
"1116yglkkkkkllklllllxcmmmbvxxccccccccccccczlccvvbcccsssxccccccccccccccclvbbbmcssulcccccccccccccvlcbbbbllhdr8hxkcgxgxgxxhr3333226",
"1116egkkkkkkkklkllklbcmmvcsxcccccccccccccczllcvvbxxxsspxccclcccccccclcvvbbbvmmssulcclccccccclvcllbbbzlljap8rgxxkxxxxxxghr3332236",
"1116ugkgkkkkkllkkklcbcmcxxsscxcxlccccccccczlllccxcxss0sxcccccclllccclzzvbvvvsss0ulclcclcccccvllzvbzvclfsp63axkxxxxxggxxh63323226",
"1116ygkkkkkkkkklkkccccccjspsxcxcccllxcxcllkklzccxsss0psxcckclccccclclzvvvvlkss07sclclccclcccllvzvvvlljsur3rhkxkkxxxgxgghr3332226",
"1116ygkkkkkkkkkggkzzcxxcsstkclcxclcclclllkkkxcxxxssu7sxxcckcxccccllcccvvclcsss0ulccclcclcccclllzvcxxjss083skkxxkkkkkgxghr2122226",
"1116egkkkjkkkkgggkkkxcsss0slxclclclclllllggkxxksss070sxcckcclcklllllllzzlkssuuuslclclccccllclllzlkkxsst83txxxxxkkkkkxxghr8283229",
"1114yggkkkkkkkggkkzkxsss00jllcllllllclllgggkcxssss77sxcxcccccllllllllzllkkuu07uslllclcllllcclkkllgssst9>8hxkkxxkkxkkxhhhr2222228",
"=116yggkkgkkggdggkggsssp7slllxllcllllllligggsssss77ulxcxlkckcllcclsllliluuuu77sslcllllllllllkkkkgfsst0>8dkkxkkkkkkjkhxxhr8813226",
"1116eggkkkkkgddgscscsss70smmcxkckckcllkkukkukuuu03usmcsmcmcccxcxclsllksssuu77usllcllllllclllgkkkssut7>7scsccsccscccscsmss033>>>9",
"1116ygkjjkkgdidgssssss00ssmskccxckkcllsuiuksuuuu3ussmscccsmsmsxxlsllsxssu07>ucclsllllllllllkiksssst0>7sxcccccccccsccsmss07333>>9",
"1111ygkjgkjfiiddsssus07ssmccckckkccxlluukuuuuu3>uslccmcmscccccccsikskssu077uscllcclllllllkckukuus08>7sxlsccsscsssccsmsms07332239",
",116yjjkjkjiiidisuuu77ssmsmskckcckckluuuuuuu0730scsccscsmcmsmscmuklsssu073uscsllccllllllllziuuuu0739skllccccccccmcscssms0>3>32>4",
"1111ygjglgiuiiuuu907uuskcssmcxkxkkkllsuuuuu033usccsccccccssmcscsuuiiu00730scccllcccclklklkluuq9777usxlkxcccckkkkscmscsss63332225",
",116egkggkieyuuuuu73usclcmmsmsxkkcllllu099337uksccccccsccmmscmmsuuuuu073usxxcslllslcllllkccku077uskkxlklscsckkkjscsvsmms03323234",
"1116eggjgju6eueq977ssskksmcccxxxkklllks0>30uskcxcssclsscsmccsmcsuuuu737sscxxllccsclslklllllksssssxckkclkcckckkkkcccscscs03<32224",
",111egjgljy5qq95>usslcklmssmsmxxckkklkssuuskcklkccccccccmssmmssmu4<<3uskckkklllscccclkkklkllkccllxkxkkkksckcskkkcsscsmss93323338",
"=116ujgjggs44337uslkkkkkkkkllklkcslxcsxckkkkkkkkccsclscckkllkklxuuuuulkllklklkllcccclllkxxxkxklkllscccccccsckkkkgxjxjjgh93323228",
"1111ujgjjgju0qufskkkkkkkkkkkklklxllxclxckkkkkckkcsccccsckklxkklxsukkkkkkkkklklllllsllllcmckkxkxklkxccsscscscklklvxgjxxga93822228",
"1111wijjjggkgjjgkkklkkkkklkklkkkccmmmxxskkkkxkkkcccclcccllccclscllkklckkklkkkkllslslccmmmxsxkklkcsxlcccccccclcbmnxhgjjgh93332228",
"=111uggjjjgkljkgkkkskkkkkkkkkklzmmmmmsxxkkklkkkkcscsscscccmmckllllkllslkkkkkkksccccbbbmmmcsxklklclllcslsssccvMmmvxahjjhhr33222,6",
"1111uugfjjjjjjkgkkkkgkkgkkkkklzvmmmxssxccsslkkkkllslslkcmmmcxssxcclclllkkkkkkkkkkllbbbblsssscsccllllsccccclbbbmljhpphxha63322226",
"1111ugggjkjkjjjkkskkkkkkkkkkklzzccxlssscxlclkkkkcsclcccmmmclssxxlslssckkkkkkkkkkllvbbvlkss0slllscscclccsccbmbblkhp6pggjhr3332228",
"1111wijjjjjjjjkjkkskkkkkkkkkllccccksspcslsscskscclcscccmccxsssslscclcskskklikkkklvbvmclss9usllclcccsslslcvmmcckkar8ahhxa83322221",
"1=16ufjjjjjkgjkgkklklskgkkkkllclxxss0sxllcllckklslllcvmccxxs0pkjklsllllckkkkkkkzvzcclcssu3ulcscslsllccccvbvclksup89hxghir3332226",
"=111uiggulkkulslkkkkkkkklkiklzlksls00sxxkjkkjkkjkkkkllclkjs00sjlklkkkjljljkkjjklcccclsss77ssksclkklgjklzvvcckhst88pgjjja02322228",
"=116uugjklulkkkkukklslkklilzlikkssp7pscsjkkjjkkjkjklllkkjss00skjscskkjjkkkkkkklccclssss0>0xcklxlkkkgllzzvclkssp038agjjjd63332228",
"1111usggliukuullllkuikslilkkkkuusp07ssxskjjkkkjkjgllllkfsu070sclkkckkkjkkkjkkkllcxssss030sscscslkkgljlzzllkhss082akjjjhd93322224",
"=111ugjsuklklkkikskkllluukskikkus07sxlxcjkkjkjkjfkglggfuu070slljscskjkkkjkkjgkkkcsssss33scscllccjklgklzllghsp08>rhjjjjhs93322228",
"=111wgggkkuikkkkkkkkkluissllsssu070lxllskjkkggggskkkffuu007ujjkkckckksjjgkggggkgsssuu73usxlscllskljkkkzggjsut8>8hgghhkjd93212224",
"1111wujsukkkiuksululkukisssssuu070sslssljjjjggggjkssuuuu730fkjjjskskklkkggggukggsssu738sxslscskckjgjglkgssu09>7akhhkghha92822224",
"=111ugggukkukkkklkkiziuusssss0077sxllccljkfkkkfujussuuu970fkjjkjlckkkkkkgkfffgfusuu7>7skllklllssgkkjjjjssu0923pjhkhhjhkd93322224",
"=1<=usjskkskksiksgliliuussss0077ssslssxsjjkkkuufufuuuu9>7ujjjkjjksslslskkjguffuuu07>7skssxslscclkkgsjjsstt9>>tjjkhhkhjhi93122224",
"11=1uuiggkgsukkkllkkuuuuuuu5977ssxlsxkskjjjjjuuufuuu0777sjjkkjjkjjjjjkjjjjuuuuu597>7sklkjkkkkjjkkkiifuuuq723pjjkjjxghhga83323223",
"=116uuiggsgkkkkukuluu4uuu5u177uslsslskxjjjjkuuuuuuuu777sjkjjjjjjkkjkjjjjjjuuuuu43>9sskskjjjjjkjjkjuuuur5727pjjjjjjhhhxha83322226",
"=1=1uujjksskkukuukksuuuu5u,<uslsslcsslkkjjjjfuuu0u3>37sjjjjjjjjjjjjjjjjjjjuu05<:7usjklkkjkjjjkjkjjsuuq773rdjjgjjjjhghhhi83322223",
"1=16uugssksgkukkklsluu*4<>>ussklxslxkkssjjjjf55955<7usjjjjjjjjjjjjjjkjjjjju55555ujkjkssljjkjjjjkjks03779phhkjjjjhjggghhi83332228",
"=111uujgkskkukukkukkuuu55uslsllslslsxklkjjjjh073>50uskjjjjjjjjjjjjjjjjjjjjduuuusjgkjjjjjjkskgkjjjjfsuuusjjjjhkhhjjhhhhha88122221",
"=111uusggkukukkkklukukuuuuslcsslslslkssljjjjksu0uuskskjjjjjjjffjjjjjfjjjjjfjsfjjjjjjjjjjjjjkjjjjkkggsjkjkjjjgjgkjjhghggi82222228",
"==11wiigskuskkuuuullllkkslssscsllslsjslsjjjjjjfjsksskkkjjjffjjfjjjjjjjfjjjjjjffjjjgjjjkjjjjjjjjjjklvbckjjjjjhkhhhkhkhhha88222221",
"1111wigikukgukkkkkkukuullslkcslsslslslslhjskjlcccskkjsskjjjjfjjfffjjfjjjjjjjjjfjjjsjjjksjjjjjjjjkvmbbljsjjjjghkhghhhghhh82122228",
"1=16wfifffffffgfkxsxcsmskskkskksjjjjjffffjjlmmmmcjfjjfjffjjjfjfjjjffffklllkffkffjjjjjfkjjfjjgkglbbbccuuuscsxsxsxsxsxxsjs077>>>>7",
"=1=1wiffddfdffffssxscsmskksskkskjkujjjffjjlmmcmcksfjjjfffffjjfjjfjfjflbbbbkfffjfksjffjsjjjjfgglbbbclfuuucscscsxsxslssxss7>>>3>>7",
"1==1wuffdgffdfffkksmmmMmkskkskskjsjjfjffjlccccljspsjffffjfffffffjfjjlbbbblfujjfjjjjjjkjjjjfjgcvbvclluuuuscsxscsxsxskxsss7>77>>>7",
"=1=1uiufddfdffggskcxmmmmskskskksjjkuffffklcclljhppffffffdjffjfffffkccbbclfuufffffjjjjujjffjjzcbcllguu99ucscsxsxskskssxss07>><>>7",
"1=11wiiffgdffffgllvvccsssskskskkjjjsfugkkclkkjfs0pffffffjjfffffffkczbccljs0ufffjkjfjffffffgkzcllssss03usscsccsscsksxskss8323>>>5",
"=111wiffddfdfffgllclccssskslsksksjjjfflkkkkkjfp00pffffffdfffffffklcczljks00uffffsjjuffffjfklzzlksss073sscscssscsksjsssss833>3>:7",
"=1=1widdfdddiffllllgsssussksksksjsfsffgkkjkfssp70ssfsffffsfffffggllllgkss07uffffjjffffffffllzkgkssu77sssmssccsscskskxsjs82>3<>>5",
"==11widddfdfffggggkjssuuskskskskffjjfgggkfffs007pfffffffffffffjglllgggsu070fffffujfffffffllklgguss037sscsscscsscxskssjss9333>>:5",
"1=11uuiiifdgffgkljsssp7sskksksksfsukulggjfssp070fffffhfffdfdffgglkkkjsu077ssksjjfffjjfffjkllksuus0>>sscsccscscsshffhfhdy72322223",
"=1=16usgfddiifggjssss07sukukksskjjkugulusss0079sjsfsfsffffdffdggjkjsss0730kssksjfffuffffjjjjsuuu07;ussscsssssccsffdhddha93322223",
"=1=1uugsddiiigfgssss07pskskssksssfufuguusu0077tffsffsfhhsfffdfggjjssu0777sjjsjjsukfjfjffulsssuu77>0ssccssmcscssshhhhfdhp72322223",
"=111uugsfiiigfiisss070ssskskksksjuuugugup007>0fsfffffffsfffsdfgffssu00>7ussjksjjkufuujufgusuuu97>0sscsscssscssccgddffhdy83222223",
",,,16uiiduiissssuu079ssssjssskssuuuuuuuu00770sfjsffhffsfffsdddsfuuu0933usffjsjfskujfuuuuuuuu097>7scsscsscscsscsshdfdddhp832322=3",
",,,16ugiueuissuut077psjjksksjsjguuuuuuuu07>0sfssffsssfhhsffusfssuu00730sffssjsfjukfffuuuuuuu77:0sssssscscssssscsdhhfhdhp82322223",
",,=1uussueuuuuu0973tjjsjsjgjsjsjuuuuuuu<7>0sffsfshhfffsfsffuussuu097>0ssfssjsjsffufgufuuuu55>>uussccccssssscccssfddhdddy8222222<",
",,=*uukuweeuutt07>tsssjsksssjsjsu15u553:7pssfsfhsfsfssfsffueeutt977>usjjsfjsjsjsfufuguu5457:7uujssssssscsccsssscfdhddddp83222>24",
"=,,1uuuu66uu<u><<uuskssjsjsjjsjju<1473>7uuksssjssfsfsffsffu0tt057:7uusjsujuujsujjujfuuu5<>5uusjsjjsfhjsffdfffddhsshfshft833222>3",
",,,11uuu66u14433usssksjjjsjssjssuu<<37uusssskuksfsfsfssfssu5555<77ujsssjjujfujjuujufffuuuuusjsjsssjjhsjfdhfdfhfdfffsfhss73222>23",
",,,1uuuu165u3>7usjkssjsssssgjssjuuuuuuskssssksussfsfsfssddu55<75uussjssjskukjujjjfujfujfujuksjsjjsfsfssjfffhdfhhjsshfssp72222:23",
",,,,uuuu61<<7uuusgssjssjjgssssjsjuuuksssskskssukfsfsfsffsssuw0wuuufsssfsukssujujujjuffjujujsjsjssjfsfjfffsdfdhjjkjffshht733>2224",
"=,,1uuiiuuuuuujujsgksjsssjsgssssujsskssssjsjskusfsddsffsdsdsfssdfssfssjssjuussuusjlsuffujujsjjjsjssjfshfffshjkvbvlshshss82222:23",
"=,,,6uuiuuuuuusjssssssjkssjssjjsjussssksssssssjssssdsssssfsfsddsufssjsfsukskjjskcmbcjuufujujussjsjjsjsfssfjgvbmbchashsft8322>2>1",
"=,,16iiiuuufsujusgjsksssssjsllbbcssksssssjussssssfssfsffssdsdssffusfsfsfsssusklbmmcksuffjuujsjusjssjsffssfkcmmvckstssfst822222>3",
",,,,6uiiuujujjujjsssgssgjsjlbbbbcssssksssukssjsssfsfkcmcjfsdsfdssfsfssssuksukvbbcccsuufusujujukssjssfhsfhjbbvccksp9pfsss822222:4",
"=,,,uuuuuuukuuuksjssssssssmmmmmcsssususssjusjsjusfjcbbbcjsssfsfsssssfufufufkcbvcclsuuusssssssjsssjsjsfsjkvvvzljsp98pdiip822222>1",
",,,16ugguuugukgusssgsgsucmsMscsssusksksusujsusjsfjcbbccjssfssssssfsfufufufjccclkjss00ssssssssusjfssjjssgzvzzljspr30shshp83222223",
"=,,,5uuusuuuukuusgssssggcsmscsssuusssssksjusssusjccccljsstsfsffsufsfuuufuflcclkjsu07usssssssskksssssfsllzzkkgsst83tdshsp722222>1",
",=,,6ugukukuuuukssggsjggccsxcss00usssssssssssuslccclkjfu0psssssssssufufufklcccsusu97sssssssksssssjjssslcllkfdut936ashsit7232>222",
"==,15uuuufuufkuugussufjgkksksss00ussssssssuusukklkkjffp07sssssssssfussujglkkgfuu00>0ssssskksssssfusffgllkgjhpp032pshhhip8222>>>2",
",=,,5uuuuuffuuugssssisglsksssu77uusssssskssukkgkkkjffs070sssssssufuussufgkkkguuu073ssssssssssskssfsuflkkjfdatr320ahsahht8322>>,3",
"==,,5ufufufuufufgufugikssssss077usssssssuuukuggkfffsp097tsssssssssffssffgggfuuu97>0sssssssssksssssddgkggfsatr7>3pdshdiit3322;223",
",=,1uuuufuuufufusiuiifskssss073ussssssssuuuiigliffssp030ssssssssssuufujfgfuuuuu7>7sssssssssssssssfsigjgidatr822tdhssahip33222223",
"==,16uuufuuufuuufusiffffsust077tsusssssssssuffgfffsu09:0ssssssssfuuuuffgffssu005<5sssfssfssssssfssugggjfsuu03>>sssssssss77>>>3>3",
"=,,,6uuusuiffsfuufuussuuuut0570ussssssssssssffffsuut037ssssussssuufuuufffssu007:5usssssssssssssssffigiuuu073>>ssssssssss7>>7>>>3",
"==,,6uuifufsufufiieisssueww039ussssuusssussffsssuuw077tssusssussuuufufssssu005>7wssssssssssssfssssdiuuuuu77>>usssssssss077>>>>>3",
"=,=16uiuiuuuuissiieuustuww5:7ussssuussssssssfsssee55:0ssssssssssuuuuuusuut007>7tusssssssssssssssssuiuuuu03>>0sssxsssssss7>>>>>>3",
",==16uuuufuusssiueeeeutt0739tssssssusuuuuuuuuust097>9ussuusussssufuuuuuww057>70sssusssssssssssssuuuuuu553>30sssssssssss03322>>>>",
"==,,6uiusiuffssseweeew557:7tssussspsuusuutuuuew00>79tssuusuuuuususuewwww057:50uussssususssssssssuu5u655>30ussssssssssssp7222>>>3",
"===,5uiiusssiussewwwww57:9tsusussuususuutweuew593:9tpsuuuuusuuuuuuuu5w005::0uuususussususussssusuu537>>7ssssscsssxssssss7322>>><",
"==,,5usisisiuisuw5555<:<9usususususuuuupwwwwww5379tssuussusuussussue0<<>:50ssusususuusususususssuuuu58uusssssssssssssxss7222>>:4",
"==,,5ueiuuidssusw<<:3:70ssususssuuuussuu059557:39suuuuuuususuuuuuussu555wuuuuuusususuusuuussusssussussssssssssssssshhsst32222>>3",
"=,=,5eiiiuuussssu07390uuuussstusuuuuupup5<533>50sttsuuuuuuuuuuuuusuuuuuuuuuuususuusususususuussusssssssssssssssshsssssat732>>>>3",
"==,,5uuiususuuuuuuuuuuussspussuuuuuupuuuw53370uuussuuuuutsuuuuuuuuuuuusuusuuuuuusuususuusuuuusuususssusssssssssssssssssp72222:>2",
"===,5uuiuisidusduuususssuuusustuupuuuuuuuuttuuuuustsuuuuuuuuuuuuuuuuuuuuuuusuuuuuuuuuuusuuuusussssssssssssssssssssssssat3>2>2222",
"==,,6ueiiuuuiuuuuususuuuusuuuustuupuuuuusuuuuuuutsuuuuuustuuuusuuuwuuuuuuuuuuuuuuuuuusuuuuuusuuuusussssusssssssssssssssr322>22>2",
"==,,1uuuuuuusuuuuuuuuuuuustsuuusuputttttttwwtt0tt0t0t0ttttttt0ttwwwwwwwwwwwwwwwwwwwwwtwwwwuuuuuususuuussssssssusssssiasp3222>:22",
"===,5uuusuusuuuuuuuuuuststtsuustuut0990595550550055555555555555<55<55<55<5<55555555555555<9uuuuuususssusssssssssssssssat722>>>>2",
"===,5euuuuiuuuusuusuuusussuuuuusuu0>>>:337>>>>:::::3::::::::*************$*$*$$$$$$$$$$***:uuuuususususussssssssssasssst72>>>>>1",
"===,1wuuuuuuuuuuuuuutuuuuuuuuwuuuu7:>>:>::>>:>>:>>>>7:><>:::::::**::::********#**#**######*euuuusssus0susussssussassssst3>22>>>3",
"===,1uuuuuuuuuuuuuuuuuuuuuuuuusuu07>5099075057055595595505555557555557555555555575<5555<555euuuuus0sssususuussssahassps0322>>>;3",
"====5uuuuuuuuuuuuuuuuuuuuuuuuuuuu0779999559907999955595555555095555555555555555555555555555euuuuussusssssuususssaadassst73>2:223",
"====1uuuuuuuuuuuuuuuuuuuuwusuuuuu9775995005795755575555555555577555555555555555555555555555euuuuuppussps0ssususudadassat32>>22;3",
"=*==1uuuuuuuuuuuuuuuutwuustuuuuup0979955595507595555755755555555555575555555555555555555555tssuuupsussspsss0ususaasasss0322>::>2",
"*==,<uuuuuuuuuuuuuuuuuuuuusuuuuutt099900000599500950500599999955550555955055555550559955555tsussuspss0sssssssusuaisysas0322>2>22",
"===,1uuuuuuuuuuuuuuuuuuutsuuuuuutt099909505090500505055055995959559505555550555955555955555uuuutpuusss0sssssusuuasssssyt322>>>:2",
"===,<5uuuu5uuuuutuuuuuuusuuuuuuuuup99755757555557575777755755555557575555575555555555555555ssusuusupsssss0sssuuusaysyss03222>>21",
"$=,,5uuuuuuuuusuuuuuuuuutsupusuusss7777753553375775337<735<57<5<<555<5557357<3<377<573555<5usuuuuuuuuuuuuuuuuuuuuuussss0333>>>>2",
"$$$$,6659090000000000000000000000t07>::3:7::<<:7<:<3<7<:7<:<7:<<<<:<<<:<3:<<:7<<<<<:3:<<:<<uu090009000u5qu0qq09urr0q00082;;;;;->",
"#OO#***,:::::<<333333>:>>7:7>>:>>::3:>:3:::7::::::<:::::::::::::::::::::::::::::::::::::::*###*#*********:::*3:<>>>3>>:>;;;;---%",
"O##O#***::::::**:*:::::::>:::>:::::::::>::::::::::::::::*:::::::::::::::::::::::::*:::::::*####*#**#*****:*:*:::::::::>>>;;;;-%o",
".+++#***::*::::**:*:::::::::>:>::::::::::<::::::::::::::::::::::::::::::::::::*::*::*::*::********::*:::::::::::::>::>:>>;---%X ",
"..++O***:%:*::*:::::::::::::::::::::::::::::::::::::::::*:::*:*::::::**:*:**::*::**:::*::****:*:::::*:::::>:::>::::>>::>;;:-%o  ",
"  .O##**:::::*:::::*:::::::::::::::::::::::::::::*:::::*:::::::*:::**::*:**::*:*::::::*:::*:*::*:::::::::::::>>::::>>;::>;-%    ",
"  .OO#****:%::*:*::::::::::::::::::**:*:*:::*:*:***:*:*:*:*****:**:::::::::::::::::::*:::::::::::::::**:::>::::::>::::>>;;-     "
};
