/* XPM */
static char *tile10221695480483[] = {
/* columns rows colors chars-per-pixel */
"128 128 71 1 ",
"  c #0C0C0C",
". c #151111",
"X c #181515",
"o c #181518",
"O c #1A1818",
"+ c #282321",
"@ c #332D27",
"# c #342E29",
"$ c #36312D",
"% c #39322E",
"& c #373433",
"* c #3B3633",
"= c #3D3936",
"- c #39353B",
"; c #3E3C3A",
": c #403637",
"> c #413A36",
", c #413739",
"< c #443B3B",
"1 c #483D3E",
"2 c #45403E",
"3 c #48413F",
"4 c #433E46",
"5 c #483E41",
"6 c #464341",
"7 c #4A4443",
"8 c #4C4847",
"9 c #4D4649",
"0 c #4D4A49",
"q c #504846",
"w c #504749",
"e c #524C4C",
"r c #54504E",
"t c #4C4B54",
"y c #4F4D59",
"u c #534D52",
"i c #504D59",
"p c #565353",
"a c #5A5555",
"s c #5C5957",
"d c #57545D",
"f c #5A555B",
"g c #5E5B5A",
"h c #615E5C",
"j c #64605E",
"k c #575660",
"l c #595761",
"z c #5C5A64",
"x c #5E5C68",
"c c #615E62",
"v c #615E68",
"b c #666361",
"n c #696563",
"m c #6B6866",
"M c #65636A",
"N c #69666A",
"B c #6D6A69",
"V c #716E6D",
"C c #71706E",
"Z c #6D6C71",
"A c #706F71",
"S c #747374",
"D c #787777",
"F c #787877",
"G c #767579",
"H c #787779",
"J c #7C7B7B",
"K c #807F7F",
"L c #81807F",
"P c #817F81",
"I c #828182",
/* pixels */
"8pcCSSCSCSSSSSSSSSSSFFSFFFFFFFFFFFFFFFFFFFFJFJFJFFJJFJJJJJJJJJFJJJJJJJJJJJJJJJJJLFFJJJJJJJJJLFLFLJLFLFLJKKKVKKKCKKDKFKFJJFSNv0  ",
"pppcSSSSFFSFSFFSFFFFFFFFFFFFFFFFFJFJFJJJJJJJJJJJIJJJJJJJJJJJJIIJJIIJJJIJJIJJIIJIFLLLLLLLLLLLLLLLLLLLLLLLKKKKKKKKKKKKKKLKJCBNNd  ",
"6ppshSSFFSFFFSSFSFFFFFFFFFFFFFJJFFJFJFJFJFJJFJJJJJJJJJJIJJJJJIJIJIJIJIJJIJIJIJIJLLLLLLLLLLLLLLLLLLLLLLLLKKKKKKKKKKKKKKKFCBZBjt  ",
"=6pppbCSCCCSSSSSSSSSSSSSSSSSSFSFFSFSFFFFFFFFFFFSFFFFFFFFJFFFJFFFFFFFFJFFFJJJFJJJFLFLFJFJJJJFFLFLFFLFLFJFKKKKKCKKDKFDDKDVBBMzdt  ",
"&;6pphMnbnnMnMmbmmmmmMmmmmmmBmBmCbCBmmBBMZCBBBCBBBBBCBBCBCBBBCCCCCCCCBCCCBCCCCCBCCCCCCCCVVCCCCCCVCCCVCCCVVVVVVVVBVCCCCVBZMkkk8  ",
"&&;6gbbbbbbbbbbbbbbbbbbbbmbnMbbMBbbbmmmnBbBbbbbBmmmmBBmMmBmBmmMNmmmBmmBBmBmBCBBBBBBBBBBBBmBCBBBCBmVVBBBBVBVBVVVBBBBVVBVBjkkykt  ",
";&&;gbjbbbbbbbbbbMBbmbMbbbbbbmbmBbmbmmnmbBbBBBbbmmmmbBmmBBmBmmmBBmBBmmCBBBmBBBBBBBBBBBBBBBBBBBCCVBBBBVBVmVVBBVVBBBVVBBBmkddkyt  ",
"&&;;gjjbbbbbbbbbMFCbbbnmbmmnbMmbbbbbFCnMBbBbBbBBBbmmBBbBSCmmmmmBmBmmBmmmmmCSmBBBBBBBBBBBBBBBBCCjBBBVBBVBVBVBBBBVBDBjBCVmkkddkt  ",
";;&;hbbbbbbbbbgMFFzbbbbbbMbmbbmbMjMFFMbmnbMmBbbmbbBmMbmFSzBmmmBmmBBmmBBmbCFCkBBBBBBBmBVBBmmNGJmjBnnmnKjhKKhKBBBmFGbbBBBmzdddkt  ",
"&&;;gbbbhbbjjscSFMgbmbmbmbbbmbmbgzFFMkbmnmmbbmBBBBBbhMJFkMmmBmmmmmmBBmmjCFFkMBBBBBBBBBBBBNbSKBfjBKBmhKnKhjKhVnnDJMdnCCBBzdkddt  ",
"&&&;gbjjjbjhsgBCMkbbbbbmbmbmbbbsgCSMkbmbnmmmBbBbBMjgjSSzgMmmmmmmmBmBmbgMFSzkBnmBBBBBBBBCbjVJZkjmmmBKhnKnKjsKnnDKMkjBBVBmgdkddt  ",
"&&;;gbbjjbhkpjMjkkbbbbbmbbbMbbgpjmhkgbbmbmmbmmbmbbggmCzkjmmmmmBmmmmBmggCmzkbmBBBmmBBBBmjhnSNlfBBKmnnKnhhsKjrhVCckgBBBBBmkddkdt  ",
";&&;jbjbjjspphgkgjbbbbnnbmbbbgpkhzkgmbbmnmmmbmbBmgpgbgpgMmmmmmmmmmmmgshbgkgmBBBBBBBBBBmggMblsjBBnnmmKjnKjKnhjmnhdNBBBCBmkdddd9  ",
";&;;gbjjbs00pgtsjbbbbbbbbbbbgp0pgpsbbbmbnnmbmnBbgtpskpgmmmmmmmmmmBBgrpggpgmBmBBmBBmBmBgpshdpjmBCmmnjmnjKnhhshjasnBBVCBBBkkkkdt  ",
"&&;;gbbjg060ptsbbbbbbbnbbMmjr60ppkbmmbmmmbbmnmmj00rppgMmmmmmmmmmmBbp0ttpgBmmBmmBBBmBBb00pupbBBBBmnnKKmKnKhqqrranBBBVBBBNzdkddt  ",
"&&&;gbjbp;;00gjbbbbbbbbnbnbs;600gbbbmbbbmmbmmmbp;60rgmmmmnmmmmmmmBg;60pgmBBmmBmBmBBmmp17epNBBBBBmKmmjnjnsq3qqhnmBBBBBBBnzkdddt  ",
"&;;;kbbbp;6pkbbbbbbbbbbbbmmp;0phbmbbmbbmbnnmnmbp60pbnmnmmmBmnmmmmmp60snmmBmmmBBmBBBBm06rhjBBBBBBBBBBBBBBnq3rjBBBBBBBBVmmhakkdt  ",
"&&&;gbgbgpgbjbbbbbgmBbbbbbbbggbbbmmbbbMCmnnnmbmjgjnBmnmnbbBCNmmmmmbgbMmmBmmBnBCBBmmBBhjnmBBBBBBBmCBBBBBBBjnmBBBBBBBBBBVmhfdkkt  ",
"&&&;gbgbbbgbjbjbbbpsSSnbbmbbbmbmNbbbbpgFSnMnbmnnmnnnnmnmNpbFCNmmmmmmmmmmBmBmsbFCnmBmnBmBmBBmBBBnsBJNmBBBBBBBBBBBBBBBBBBmflfkkt  ",
"&&&;gbbbbbbbjbbbbbp;hJJBbbbbbbbbbbmmbg;hIFBbmbmmnnnnmMmnms;mJSnmNmmmmmmmmmmmg6mJSNmBBBBBBmBBBBmmp8VKVnmBBBBBBBBBBCBBBBBBzfkkd9  ",
"&&;;gbjjjjjbgjbbbbh6;bIJBbbbbmbbbmbbnb8;bIJBbnmbnnBnmnmnmb6;BIFmmmmmmmmBmBmBm36BICNmBBBBBBBmBBBBb66SJBnmBBBBBBBBBBBBBBBmkkdkkt  ",
"&&&;gbbbjjjbbbbjbbhk;;mJFCbbbbmbbbbmbbg;;MJFBnbmnnmnnnnmnmg;6BJCnMmmmmmmmmmmmg;6mFCMnBnBBBmBmmBBBg=0CCBNBBBBBBBBBBBVBBBmlkkkkt  ",
"&&&;gbbbbbbjbbbbbjbjp&;bFFMbbbbbbmmbnnbs&6nFSMnnbmnmmmnmnmmp;3mFCbmmmmMmmmmBmmp;6BSNbBBBBBmBBmBBBmp&rBCbjBBBBBBBBBBBBBBmlkkkdt  ",
"&&;;ggbgbbgbbjjbbbbbbr&6zSCbbmbbbbbnbnnbp&6gCMbnmbmbnnmnmmmbr&6jZbbmmmmmmmmmmmnp&8bNgbBBBmBBmBBmBBnr>qjnjnBBmBBBBBBBBBBmlkkkk9  ",
"&&&;kjjjgbbgbbkbbbbbbbp&;gBMjbmbbbnbmbnnnp;;sMjbmbmbmbmmmmnmbr;6kbzmmmmmmmnmBmmnp&2gcznBmBBmBmBBmBVjr23schNBBmBmBBBBBBVmzfkkkt  ",
"&&;;kbjjbbbbgbbbjjbbbbjp;6pMzbbbnbbnmbnnnbp6;szMbmmbmmmbnnmnnns;6pzbmmnmmmmmmmmBns23dgbmBmmBmBBmmBmBma33ffbmBBmBmBBBBBBnllkkkt  ",
"&;&;gbjjgbbbbgbbbbnjbbjbg66pzbmbbnMbbbmbnnbg86pzbmbmnmnmNmnmmmbs86pxnmmmmmmmBBmmmmh86djmmBmBBBBBBBBmBmh35fcmBBBBBmBBBBBnzlkkkt  ",
"&&&;gjjbbbbjbbbbbCCbbbjjbbsrgbbbnbbMCCMnnbnbbspgbBmbnnnbCCmnnmmnbspjmmmmmmMSBmmBmmmjspjmmmmmNBCNmmmBBBBjhacmBmBBmVVnBBBNzflfk0  ",
";&&;gbkjjjbjbbjgCFMbbbbbbbbnbbbbbbjCJBbmnnnnbbmbBbBbnjMSFMNmnnnnmmmmnmmmnnFFzNmmBmmBmmmBmmmMBJAjBmmmBmBmBmBmBBBnVHNcBBBnzklkkt  ",
"&&&;gbjbjbjjjggCFCkbbbbbbbbbbbbbgcCJZkbbbnnbBbbmbmbbbjFFMhnnBBnBmnmmmmMbbFFMgmNmmmmBBmmmmmbBJGkjmmBBBBmBBBBBBNnVKVzbmBmnzflkkt  ",
"&&&;gjjjjjjjgkMSCkjbbbbbbbbbbbbjgNSCkgbnbnnnmbbmmbbbgCFZkbnnmmnnnnmnmnbbSFZkbmmmmmmmmBmBmcNJGcfnmmBBnBBBmmBBbbVKAzfmBBBnfzkkdt  ",
"&&&;gjbgjjjgpgBbkkjjbbbbbnbbbbgscBBkkbnbnbnnbmbbmbggMCMkgbmnnmBnNmnmbjgmCMkkmmmmBmmmmmmnhbCSvdbmmBnBBmBmBBBnbBSAvdbmBBBnzklkdt  ",
"&&&;gjjjjjsppgbpkgbbjbbbbbbbngssgbkpbbmnnnbmbbnnbgfsbbdfbnmnnnnnmnmnjacNjksbmmmmnmmmmmmggnBzpjmmmBBmmmBmmBnhbBmvucBBBmBmcdllli  ",
"&&;;gjjjjgprpgkpgjjbbbhbbbbbgprphppjbbbnnbnbnnnnbppsgdajnnnnmnnnnmnbpphhppbmbmmmmmmmmmjaghfpgmmmmmmmBmBmBmhfgjfihmBmBBBmcdlll4  ",
"&&&;gbjbjp60ptrgjbjjjbbbbbbjp80pppgnbnbnbnMmnnnbp8epupbbnnnnnnmmnmmp0epudbmmmmmmmmmmnNreppysnBBmBBmBBmmmBbarapugmBmmBmmNllllv4  ",
"&&&;ggjgs;;00pgjjjbbjbjbbbbg6680pjbbnbbbnbbbnnbg86q0pbNNnnnmmbmbmng87q0pbmmmmmmmmmnmms87wuhnBmmmmmmmmmBmns8qeugBmmmVmmBnclllli  ",
"&&&;kMbbr&66pgbbjbjjjbbbbbbp&68pjMbnbbbnbbbbbbbr=20sbnmnnnnnnnmmnna;20sNnmmmmmmmmNnmB8<7ehNmBBmmmBmmmmBmnq11ajmBBmnBBBBnlllllt  ",
";&&;kMgjp8pgjbjjjjjMnbjbbbjs0rgbbbbbbbbmmbmbnMbsrsbbbnbnnnBmnnmbnnsrsbnBnmmnNmmmmmmnbarhnBmmnmmmBBmmBmmmjaahnmmmmBBmmmBnlllllt  ",
"&&&;gjjjbbjbbjjjbbphCCbbbbbbbbbbbbbbbsbCCMbmbbbnmbnbmbnmnfNSZnnmnmnnmnmnmnmngBFBnmmmnBnBnmmmmBCjjVBnmmBmmmmmBmmmmBmmBBmncllllt  ",
"&&&;gjgbbgjbgjjbhbp6CJCbgbbbbbbbbbbbbp8CJCbmbmbnbmbmbnbmnprCJVMbnnnmnnmmnmnmrrSFBmnmBnBnBBnmmnmmraKKmmmmmmBmBmmBBmmBmmmnlllllt  ",
"&&&;ghhbhbjbgjjbhbg;0SIFmbjhbbbbbbbbng;8SISnnnnnbmbbmbbbmh;rFJCbnnmbmnmmnmnmj2pFKNmmmmmmmmmmmmmmj3aLFmmmmmmBmmBmmmmmBmmNlllllt  ",
"&&&;ghbhbgjbbbbgbhhr&6SISbbbbbbbbbbbnnp&8SICbbnbnbmbbnmbmjr$pFJmbmmNmnnnmnmnjp=rGJBMnmmmmmmmmmmmjr*sFCNbmBBmBBmmmmBBmmBnvlllly  ",
"&;&;gbhjhjjghbbjbbbg0&8CFCbbbbbbbbbbbbb0&0CFCbbnbmbnmbmbjmnr&rCFNbnnnmnnnmnmmj0=rCCnMmmmbmmmmmjmBj32aCCjbBmmBnmmBmnBBmBnlllllt  ",
"&&&;gjbhbhhbbhbjhbhbg6&0CFmbbbbbbbbbbbbj6&0BSMbnnbmbbnbmmjjg8=rCZbnnmnnmmnmnmmh8=pmNjbmnmmmmmmmmmjj2<aBjbbmBmmBBmmBmBmmNlllllt  ",
"&&&;ghjjbhjbghbhjbhbjh6&0mBgjbbbbbbbbbnbh6;0bMbbbmbmbMnbbjmmh3=rMbbbnnnmnnmnmnnj6>rjjjMmmmmmmmnmmmBj22rjzjmmBBmmBmmBBmBnxllllt  ",
"&&&;gjjhgjjgbbbbbbbbjjh6&8MMjbbbbbbbbnbnbh8&6Mxjbmnbmnnbmmmjnh3=0zzbnnnnnmnBmmnmj3*0zjbmmmmmmmBmmmBBs2>rzgbBmmmBmmmBmmnnzllllt  ",
"&;&;gjhbbjhbhbgbbSSbjbhh0;6kzbbbbjbnSSnbbnbr;8kbbbmbbbbBFVjmmnjr;0kbnmnnmbBGBnmnnnr20djMmmmbnCGNmBmjjjr30dcnmmmmmCCnBBBnzllllt  ",
"&&&;ghjhjhbgbggbSFMhjjbjjs8pgbbbjjjFFbjbbbbbs0rkbbbbbbNGSbmjjnmjarrhnnnnbNJScnnmnnnh0rznmBbMSJNjjBmmBBjsepcmmmNbGGMbnmBMzllllt  ",
"&&&;gbgbjjjjggbCFMkbbjjbhbgggbbhhbSFMkbbnjmmjjjjjjjnhbFFccbnMbnnjjhjnmbhNJGzhmnmnmnmnjnnmnbCJAkbmnmmmmmmbjbmmnnFJNlbmmmncllllt  ",
";&&;gbbggjjgggMCMkgjjjjjbbbbbbhgsBSMkgbbjnjjmjmjmjjhbCFvdbnnjmnmmbmmmbjbSSvdbnmnmmmnnnnnnhCFCzdmmmmmmmnmmmBmbbSJNlgmmmmnzlllly  ",
"&&&;gggbjjjppgmbygjjjbjbbbjbbbssjNMkgbbnnjjnjjjmjjjgnBzpjbmbmjmjnnnnbghBBzdhnnnmnnnmmnmngbCmddjmmmmmmmmmmmNbcBAMdfnNBmmNlzllly  ",
"&&&;gbgbjjpppggpkgjjjjjjgbbbggpshgppbbbbnjnjjmmjjjpgjgysjmbnbmbmnnmbgphjgdsbnnBbnmnmnmnsgbjsshmnmmmnmmmmmmngjnbdujmBmBnmvllllt  ",
"&&&;gbbgbpr0psppgjgbjbbbjbbjgprpsrpjbbbbjnjnnjnjgreaftsjbnnbmjmjnnmgppafpsnmnnnmmnmnmnhpsgppgNnmmmmmmmmnmbgphsapbBBnBnBbxllllt  ",
";&&;gggbj068r0pgbjbjbgbgjjbhp66r0pjjbbbbnjnjjnjjr8qutsbnnnbmbmbmmjjr8rptfnnnnmnnnmnnnhr0rrrgmNmmjmmmnBmmnbrrrrrjBnnmnBBbxlxlly  ",
"&&&;gbjbp;;66pgjjjbjjjbjbjbs;;60shbbbbbbjnnjnjjs2289sjnnbnjmmjmbnng2280sbnnnnnnmmnnmnp626rjbmmjmmnnmBnmmnp683ajmnBnBBmmnxklxlt  ",
"&&&;ggjgr;60gbjjjjbgbjbjjjjr;60sbbbbbbbbnnjnjnjr;8rjnbnbnjmmjmbnnnr;6rjnnnmnnnmnnmnmm328sbNmmmmmnBmnnmnmj828snmnBnBnnBmnxklzlt  ",
"&&&;gjjjspsgjjjbjjgmbbbjjjjgpkhbjjbbbbnBbbbbbbngasbbnnnnnjBBjnnbnnjsjjnnnnnnbBBmnmmnngshnmnmmnnnnCmmmmmmngsjmmmmmmmnmmNnzlkxkt  ",
"&&&;gjgjjgjjjjjggjrgFFbbjjjbjbbbbbbjjpsFSMbjnbjnbbbbjnnjjsjFSbbmnnjnnnnnnnnnsMFCnnnmmnnmnnmnnmnngCFCjmnmmmmnmmmmmmmmmmmbxkzkzt  ",
"&&;;gggjgjjjjgjjjjp;bJFmjbbjjbbjbbjbbp6bIFBbnbbbjmbbnjjnja3CJSmnjnnnjnnnnnnms6CJCnnnnnmnmnmnmnmnr0FJVbmnmmmmmmmmmnmmmmmmxxkxzt  ",
"&&&;gjjjbjgjjjjjjbg;;mIJmjjjjbjjjjbjbg6;NIFNbbbbjjnbnjnnnj33CLFjnnnnnnnnnnnnj68CICnnmnnmmmnnmnnmj23FJCjmnmnnmmnmnmmmmmmbxkxkzt  ",
"&&&;kbjggbjjjggjjjjp;;bJFmbbbgbjbjbjbbs;;mJFjjbbmjnjnjmjjns=3BJCnnnnnnnnnmnnbs;2CFCnnnnnmmnnmnmnns&rCSnbmnmmmmnmnmmmnmmmxkzkzt  ",
"&&&;ggjggjjjjbjjbgjj0&6bFCbbbbjjjbbbbjjp&6jFCbbbmjjmnnjnjnjr=3nFNbnbjnnnnjnnnbr=3CCmnnmmmnnnnmnmmj0=rbVvbmmnnmmnnmmmmmmnzzzzkt  ",
"&&&;gjgjjgjjjjjjjgbgh0&6bCBbbbgbbbjbbbjhr&2jCMbbjjjjjjnjnmjjr23nBvbbnnnnnjnnnnjr%3bnjjnnmnnnmnnmnnj0&rjMhnnmmmnmmmmmmnNnzzzzzt  ",
";&&;ggjjjjjggbjjjjjjbh6&;bZkgbbbjjjjjbbbhr&2gNcbjmmjnnjmnjmjj3%3hMbbnmjnnmnnnnnjr%3hjjnmnmnmmnmnmnnj0=0ghhnnmmmnmbmmmmmMzzkzzy  ",
"&&&;ghhhhhjhhjjjjjjcjjh7*7zMcbbjbhjjbbbbjjq*5cbhjjnjmjnbjnnnnj320cvbbnnnbmnnnnnnj3>qhhcnmnmnBnnnmnjBjq2qczbnmmmmmjmmmBnncclxly  ",
"&&=;ghhhjjhhcjhjjjjhjjhhe>6gzhjjjbbcjbjjjjja<7dcnnjnjnjjnnjnnnn3;8gznnnnnbbnmbnnmja37dcnnnmnbmBnnmBjjjr2qfcmmnnmmmmmnmBnccllxt  ",
"&&&;ghhhhjhjjhjjjBVhhjjjjs0esbjjbjbbVVbjjbbjhqqhnjnjjmbMBmnjnnnjse0zbnnbnbmVmnnnnnjjeuhbnnnmbmVNmmjmBjjhrrjmnBnmnBVmnnBczllxly  ",
"&&&=gghhhhjhhjhgBJVjjjjhjjjghjbjbhhBJBcbjbbbbhjjjnjnjjbCLmnjnjjnbjjjmbnmbnSFnnnnnnnnbhbmnnnnBGSbjmmmmmmjjjjBmnnnBDVhnBnnclxllt  ",
"&&&;shhhjhhjjggmJGzhjhjjjhjjjjbjhhNJAzhbbbjnnjjnnnjnjjSJmjjjnnjnbnjmjmbbMSJZznnnmmjmnnnnnnbMJJMgnmnmnnnnnmmjmnbBKGccnnmmzxxllt  ",
"&&&;ghhhhjjhssbGAlfhjjjjjjjjjjjhsnGGzhbjbjjjjnnjjjjjgNJZsjjnjnnnbnmjjnjjBJZdhnnnjnmjnnnnnjbJJMdbmnmnnmnBnmnmbbBKGcfnnBBcxllxxy  ",
"&&&;gggjgjhsagnNzphjhjjhjjjjjjgsgBNzpjjbnjnjjjnjjjjhbVmssjnnjnnnnnnnmhsbSMkgbnbnnnnnnnnnhhCSMihnnnnnnmnmmnbNbNSScfhnmmmmxllllt  ",
"&&&;ghhgjhspphcfusjjjjjjjjjjjgsphbfuhbbjjjnjnjjjnhpgjbfrjnnjnnjjjnjnhhhbbfpjnnnnnnnnnnbhhbncigbnmnmnnnmnnnnjgmmcifcBmnmcxlxxly  ",
"&&&;dgbghgprrgfufhbhjhjjjjjjhhpahduhhbbjbbbnbjjnjppsgpuhnjmjnnnnnnbbhahhduhbbbnnnnnnnnhaajhuannnnnnmmnnnmnjsjjhehnnnmmnnxxlxlt  ",
"-&&;ggghha88rr0ahjhjjjjjhjjhaq8uuwajjjhbhnbhhnjhsr0ppehbjnjnnjnjbbbsweruugbbbBnnnnnnnjheaawrbnnnmnnnnmnmnnsraaqajnmmnnBbxzxlxy  ",
"&&&;ghhhs32380sjhhbjhjhbhjhh917eefjjjjbbbhbjnhnh8260uhbbjjjjnnnnnjh71qqrhbnNbnnnnnnnnh1q5wabnnnnmnnnmnnmjj333rsnnnnnmmBnzzzzly  ",
"&-&;ghhhr*26egjhhjhjjjjhhhhr=<7ehhjbnjjcbjbbhnha;28phbbbmjnmjnjnjna,57rhbnnnnnbnnnnnnw<15hnnnnnnnnnmnnnnjr33rhjnnnnnnmnnzzzzxt  ",
"&&&;sghhr2qpgghjjhjjbjjjhnhh1qhhjbjjhhnnjbjjnjja7qhjbbbbjmmjnjjnnjh3rhhnnbbbnBbbnnnnnq5ujnnnnnnnmmjmmmnmjr3sjBnnnnnBBnmnxllxlt  ",
"&&&;shhhsagjjjhhjhsMZmhjjjhhhhhjjjjbjhmCbjbbjjjjjjjnbjjnjsCCnnnnjmjhjnnnnnnmhCCBnnbnnjnnmnnnnnnjnCCmmjnnmjjjmnmnmnnnnnnnxxxlxt  ",
"&&&;ghhhgjjsjghjhj0pGJBbhhjjhhnhjjjjjreFKmjjjnmjjjjjjjjnjraFKjnjjnjnnjmjjnbbpgJGnnnnnnnnnnnnnnnb3jLCjjBnmjBmmnmnmmnmnnNNxxxlxy  ",
"&&&;shhhjjsjjjhjjhp=pFIBnjjhhhhjjjjbjs<eKLCmjjjjjjnjnnjjjr2aLLmnnjnnnnjjnnbbs>gJKnnnnnnnnnnnnnnnj3jLFmjBjBmnnnmnnnmnnnNvxllxky  ",
"&&&;shhhhhhhhjhjhhh3%rFLCjjjjjhhjjjjjj0&aFJBjjnjjnjjjjnjnj3>sLKnjnbnbnjmjnnjjq>sKKnnnnnnnnnnnnnnj8>bHAbnnnnmnnnBmmnmnmmnhclxli. ",
"&&&;shhhhhhhhhjgjhhh3*aDFmjjjhnhjjjjjjh2&aCFmbnjjnjmjnjnjnj3>smCnjbbnjnjnnnnnh3>smVnjnnnnnnnnnnnnh23jABcnnmnmnmjnnmnmnnnccxxx4  ",
"&&&;shhhhhhhhhjghjjhr>*aSSNhhbbhhjjjjjjg;=pVCMjjjjnjnnjnnnja%3rKBcbbjnjnnjnjnns>>sBnhnnnnnnnnnnnnns*7hncjnmnnnjBnnnnnmnnczzlxi  ",
"&&&;shhhghhhhhhjhjhhja>%pBNgjjhjjjjbjjjjs2=rNMjbnjjjjjnjjjjja3%ambbbnnnnjnnnnjns>>anhhnnnnnnbnnnnnba>1hchjnnmnmmnmnnmnnnvzzxxi  ",
"&&&;gghhhhhhhhhhjhhjhja>*ebvhchjjjjjjjjbja2=0Mchbjnnjbbbnjjjns3%uchjjnnnnjnnhnnnh:<rcccnnnnnnbhmjnnja1>acccnmjmjmnnnnnnnxlxxl4. ",
"&$$=gghhhhhghhhhhjjhhhja6>wvchbhjjjjjjjjjjs7=rzvjjjjbbjbjnjnjjs31uchnjnnjnjnnnnjhh31rchcnnnnbmmmmnjmhh31uhcnnnmmnnnnnnnnxxllxy  ",
"&&&;shhhhhhhhhhhhhjhjhhjse3wghbbjjjjjjjjjjjhe60gbnnjjbbbnnjnnjnhe7qhnjjnbnnnnbnnnnhe5whcnnnnnncmjmmmnnhr5ehbnnnnmnnnnmnnxxxxxi  ",
"$$&;sghhhhhhhhhhjBVjhjhjjhhagchhjjjjmBnjjjjjbhssjjjbjbbbVBnjjnnjjhahnnjnnbnVBbnnnhmchhhmnnnnnnAmmjmjnnBchhcnnnmnnBKjnnnmxxlxxi  ",
"&$&;shhjhhhhhhghZJZcjhjhhbjhjjjjchhVKVjjjjjjjjjjbbjnhjbSKnjjjnnjjnjnbbbnjbSJbjnjnnjnnnnnnnnjmHAcmjnnnnnnmjmmjBnnVHAcnnnnxllxxy  ",
"&&&;shgghhhghggBJZgghjhhhhjjjjjjhhBHBhhjjbbjnjjjjbbhhjAJnjjnnnjnjnnjbbbjbFJNhjjmnnjnjnnjnnjmHKccnmnnnnnnbmmjBjbCKGchnmnbxxxxly  ",
"$&&=shgjhhhhgsbCBfajjhhjjjjhjjjgsbGAdhjjjjbjjjjnjjjhhBHNahjjjnbjjnjnbjjhBJZdjnnnjnnnnnnnnhnKHvajnnnnnnnnmbnnjjBJAvacnmnNxlxxly  ",
"$&&=shhjhhhspsnmarjhhjjhjhjhjhgsgNNduhjjjjjjjjjjjhhabVNdahnjnjbbjjnjbjgbAbddjjnnnnnjjnnjhhBmvuhnnnnnnnnnbmbbjnSCvuhnmnmbxxxlxy  ",
"&&&=shhghhsppsgprsjhjhjjhhjhjgppjhfuhhnjjjjhjjjjhhahhjurhbjbnjnbnnnjjhhccupbbnnjnjnjnnjhhjchufbnnnnnnnnnnnnhhnchuhcnnnnnlxlxxy  ",
"&&&=shhhhsr0rsppahjjhhjjjjjjgprpspefjjhjjjjnmjjjhruahuuhbbjbjnjnnjjjrrfhupjbnbnnnnnnjjjsahheacnnnnnnnnnnnnhahhfufbnnnnnbxxxxly  ",
"&&&=shghhr00r0tshhsjjhjghjhhp89eeqfhjjjjjjjjnjnhh7wa5uhnjnbnjnjnnjnaeqreuhbbnjnjnjnjnjrqqrerhnnnnnnnnnnnbjpeuueajnnnbnNvxxxlly  ",
"&&&=sghgg6;28tshhhjhjhhjjjjs8179ehhjjjjjjjjjhjhhe155uhjjnjjjnjnjjnh337qehbbbjnjmjnnnns3qqqhhnnnbnnnnnnnjbsw7wwhjmnnnNbNxxxxxxy  ",
"&$&=shhhr@26rshhhhhhjjhhhjjr==6rhhjjjjhhjjjjjjjr>17ahjjbnjjhnjjnjnq>>qrjjnjjjhjjjnnnnq11qsjnnnnnjnnnnnnnjq11whjnnnnnKrKqshxxld..",
"&&&=shhhr2rrhjhhhhjjjjhhhjjr28sjhjjjjjnhnhjjjjjr7rhjhjjbhhBmmjnjnns1qhnjnjnjjhKhnnjnjqqqjnnnjjnnnmnbnnnnnwqajnnnnnnnqKqKchxzx4  ",
"$%&=ssshssshhhhhhhrnCCjjhhjhshjjjjjjjanKVjjjjjjjhjjjnjjnjhBCBhjjjnjhnnjnnjKrsKKhnjnjnjhnnjnjnnnjnVKjnnnnnjjnnnnnnnnnahKjcxzzxi  ",
"&&&=shhhhhhhhhhhhhr8CJCnhhhjjjjjhjjjjrqCKCjjjjjjjjjjhjjhherKKBjnnjnnjnnnjnjjqqKLnnnjnnnnjnnnjnnjehKVnjnnnnnnnnnnnnnnKhaqcxxzxi  ",
"&&&=shshhhhhhhshhhs=8CLCjhhhjjhjhnhjhh>3DLSbjjjjjbjbjhjjjh:rKKmjjjnjjnjjnnjnh>rLKnjjnnjnnnnjhjjjs>aKKnbnnnnnnnnnnnhKahqKxxlxxd  ",
"$&&;shhhshhhhhhhhhh8@6CLCnhjhhhhjhhjhhr:qCJCbhjjjjjjjnmjjbq%5BKjjnjnjnjnjjnjnq%qVKnnjnnnjnnnaKnnbe*aVVcbnnnnnnnnnnaKqKKqxxxxx4  ",
"&&&=sshhhhhshhhhhhhs6@rCFCjjhjjhjjjjhjh1%qBFBhhjjnjjhbhhhbh1:enKnjnjjnjnnjjnnhq%qKKhjnnnnnnjjjjqbj1:amVcjnnnnnnnnnjjKahKxlxxxi  ",
"$&%=shhshhhhhhhhhhhhh2@rBCnhjhjjhjhjjjjh3%ebSMcjjjbbbbhnnhhh1:qKmjjnnjnjjnjnjnh1%qnnjjjnjnjnhrKKbbh<<hmchjnnnnnnnnKaqKKqxxxxxi  ",
"&&&=shhhshshhhhhhhhhhs;%rnBhhhjhhjhhbjjjs1:5nNjhjnjjjnjjnbbja1:wnnhjnnjjKqKqhKjs1%qKshKrahjhKqKqbjnh3>qnnjnnnnnnnnnnnmnnxxlxxi  ",
"&$&;shshhhhhhhhhhhhhhjs2%6jnhjhjjjjjjjjjjh1:5cchjjjjjjjjjjbjja1:qjhjnjaKhqqKhqhrj1%qshhhKjKrqKhqnnjjs3>qhhjnnnjnnnnnnbnbxxxxxi  ",
"&&&=sshshhhhhhhhhhhhhhhs8=6sjhhjjhbchjjjjjhw,5hhjjjjjbbhjnjjjnhq>qhhqKhhqKhsjhjKnhq1qshKahjnKqKKjnnjjjq3wfhnnnnnnnnnnnnbxxxxxi  ",
"&&$;shshsshhhshhhjjhhhhhhr8rshjhhjhhbbjjjjjbs5wajjjjjjjhnnjjjjjjrqqhhhrKKqKaKrjjnjjrqqsqKjnnqKahnnnnnnjrwwhbnbnnnnnnnnnbxxxxxi  ",
"&&&=shhhhhhhhhhhjCCjhhhhhhssghhhhhhhBKjjjjjjjhahjjjjnjhnKnnhbjnjhqsjKjKrhKsKKnjjKjKhKqsKjnnnqKKKnnnnjnnjhhjnnbnnnmVnnnnnxxxxxy  ",
"&%&=ssshshshhhhhCLmhhhhhhhjjjhhjhhhSKmjjjjhjjjjjjjjjjhhKKnhnjbjnjKjjqhhhshKKsjnnrjqqqKKqnnjjKKsqnnbnnnjnbnbnnnnjKKBcnnncxxxxxy  ",
"&&%=shshhshhsssCJNphhhhhjhhjhhjhhhAPcfhjjjjjjjjjjjjhhhKKcfjjjjjjjjhhjjjhqKKKrjjnhjhKKhqKjjhnKKhKjbnbjjnnbbnnbbjVPZfcnncvxxxxxy  ",
"%&&=shhshhhsssjCMpghhhhhhhhhhjggfmANufhjjhjjhjjjjjhhhmVhuhjjjnjjjjrKjjhhKKrqqKnjjjqKqqKqjhnnK1qqnnjnnnnjnnnbjjBKZffbnmmvxxxxxy  ",
"&%*=ahhhhsharhcckpghhhhhhhjjhhsrsnbaahjhjjhbjjjhjjssaKhqajnjjnjjnjnjKqaKsarsnnjnjjnnnjjjhjKhhqKKnjnjnnnjKqaKwwKKfucbqKqKwaxxxi..",
"&&%=ahahhhaprhhutghhhghhhhsjhsrshheehhjjjjjjjjjjjsasahq1jjjjjjjjjjjjhsshhqqrnjjjnjjjjnjhsjjqqhahnnjnjnjhqKshKKqauhnnKqKqchxxxu  ",
"%&%>ahhasseeraeesghhhhhhhhhhhrrraeqhhjjjjjjjjhjjherarqqKjjjjjnnjhhjjarssqahKhrKannnjnjhsahrqsjnjnnnnnjKrKqsaqw1qsbnnqKKscxxxxi  ",
"&&%>ahhage75qwqahhhhhhhhhhhhr830qqhjjhjhjjjjjjjha5qwwrhhjjjjjjjjjsKqqqqqahjjKKhhjnjnjjqqqqqhjjnnnjjnnnjhKsawwq:KnnbnKhaavvxxzu  ",
"&&&=ahhha;>6qehhhghhhhhhhhss6;23rsjhhjjjjjjhjjja111qqKqhjrhhjjjnjjh111qqhqqKqqKqKrhjjr11qqqsjjnnjnnnqKqrqa11qqKqbnnnnjhKvxxxxi  ",
"$&&=ahhhe%>9rahhhhhhhhhhhhhr&;8shjjhjhhhhhjjjjjq:1qhhsKqjKjjnjjjjjq>1qsjjKhhhKqKjjjjKq>1qhKjrKjnnjjnKqhKh1:qqaqKnbnnnnhavxvxxi  ",
"&&&=ahhsr7ushhhhhhhhssjhhhhs3rhhhhhhhhhjjjjjjjhaqahhKqqKqKjKjjjnjjsqshjjjKKqhhhKhjqKrqqajhhhhKrjnnnnhKrKKqqhKqKqnnjjnajKvxxxvi  ",
"&&&&rshhhhhhahhhghhhjhhhhhhbbhhhhhhjhjjhhhjhjjjjhhhhhhhhhhhqjjjjjjjnjjnjjqhqKqKqrKhhrKqKKaKrjjjjjjnjrKhhahaKqKqKjnnnjKjhzxxxxi  ",
"$&&#=rsghhhhhhhhhhhhhhhhhshhhhhhhhhjhhhjjjhhjjjhhhhjhjjjhjjjjjjjjjjjjjjnjjKqjnjjKrhKrKKaqKqKqKqKjnnnnnnnKKqKqKKaaKaKnnjfizxxxl. ",
"$&$##2qeeqqqqqewewwwwrwwrrrrqreqeweeeerqqerweeuwrrrereeererrrrrqrrrqrrrqrqrrqaaqaqqrq1rqqaqqqaqqsqqqqsqqwwqqq1wqwawwuuuu4dxvx4  ",
"&$#@#*2><<<<<<<<<<<<1<<<22>><<1<:1:1111<111<111<1<<11<11<111111111111111111111111111:11111111111111111q1111111111111115wfffxxi  ",
"$#@#*>>>:<:<<<,<:<<,<<:<=2>><<<<1:111>:1<1<<<<<<<<<<<<<1<<<<>1>1111>11:111>>>111>1>11:1:11111111111111111:111111:11111155l5lxi  ",
"#@@%>,>>:<:<:<<,<:<<:<<<<<:<><<:<<<:<<<<<1<<<<,<<,1,<:1<<<<<1>1>>1>1:1:11>1:>11>:1>::11:111::11:1::11>111:1111:11:1111115duuid. ",
"@@$*>><,:<:<<<,<<<,<<<<:::<<<<:1<<:1:<<<<:<,<<1,<1,1<<1:<1<<>1>11>1>111:>1>11>11111111:11:1111:1111111>1111111111111,1,1555d44  ",
"+@*:::,=:::,:::::::::::::::::>:>::::::::<:::<,,,,,<,,,:::::<:11::1::1:1>>>::::>>1>:1:>1111:::::::::::1>>1111:11111::11,15,5444  ",
" .XOoOOoOOOOXXOOOOOXOOOOOOOOOOOOOOOOOOOOXOOXOXOOOXXOOOOXOOOOXXXOOOOXOXXOOO+XX+XXOOXOOXXXXXXX+XX+XX+XX.++XXXXX.OOXOOXOOOOOOo+oo  "
};
