/* XPM */
static char *light071695480475[] = {
/* columns rows colors chars-per-pixel */
"128 128 66 1 ",
"  c #050505",
". c #151515",
"X c #181617",
"o c #191817",
"O c #171618",
"+ c #181718",
"@ c #1C1B1B",
"# c #201E1F",
"$ c #20201F",
"% c #1F1E21",
"& c #211F21",
"* c #242224",
"= c #282526",
"- c #292827",
"; c #262629",
": c #292629",
"> c #2C2A2D",
", c #312F2F",
"< c #2E2D31",
"1 c #302F32",
"2 c #333235",
"3 c #353538",
"4 c #3C3C3D",
"5 c #3F3F40",
"6 c #403F41",
"7 c #424243",
"8 c #484747",
"9 c #474748",
"0 c #4B4A4B",
"q c #515152",
"w c #585758",
"e c #5B5B5B",
"r c #5F5F60",
"t c #636364",
"y c #686767",
"u c #676768",
"i c #686769",
"p c #6B6B6C",
"a c #6F6F70",
"s c #737374",
"d c #7C7B7B",
"f c #838283",
"g c #898888",
"h c #949394",
"j c #999798",
"k c #9E9E9E",
"l c #A2A2A2",
"z c #AEADAE",
"x c #AFAFB0",
"c c #B4B4B5",
"v c #BBBBBB",
"b c #BFBFC0",
"n c #C5C4C5",
"m c #C8C7C7",
"M c #C8C8C7",
"N c #CACACA",
"B c #D2D2D2",
"V c #D8D7D7",
"C c #DBDBDB",
"Z c #DFDFE0",
"A c #E3E3E3",
"S c #ECECEC",
"D c #EFEFF0",
"F c #F1F1F1",
"G c #F8F7F8",
"H c #FFFFFF",
/* pixels */
"*2122222132322121111<<<<<<<1111<>1<11212222222322322222,1221121:;2132232232222211111111<<<<<111<:1111111222222222322,,3,2211212:",
";2113222312121111111<,<<,<<1<<11<1112221222222222,,,1<<11,,<111<;1112222222222211111>,<1<<<<111111111313222222222<,<,,1,1<<,1111",
";11<<<<<1>>,>>>>>>::>>:::>>:>111<11>>>>,,1,>,:>=>:,>>:>>:::>,111;31<1><<>1>>>1>:>>==>>:<<<::>111<11>1,1>1,>>>,>,>>>>>>==:>>>1111",
"*22>:*&&&&&&&&&=&***=&&#&&&=>111>1<>=*&*&&&&&&&#&&&&&&&&#=$=>111&11<>&&&&&&&&&&&=&&#&&&&&&&&>111>11:=&&&&&&&&&&&&&&&#**#&&&=>11<",
"&11<&@@@o@@oo@@@@@@@o##XX@@@&>11<<<:&@X@@@#X#X###X####XXoo##><<;&32<&%++#X#+&#X+#o##o@@@#+#X&,11>11>&#X+@o#o@o@@###XX##X#X##:11:",
"&11>&OO.XXXXXXXXXXXXX..#XXXX&><1>2<;XXXOXXX@XXXo...#XXXXXo.o*><>&<1>%OOO...#O.XXXX..oX.XXXXX#:><>11&#XXXXXXXXXXX..XXXXXX...X&,>:",
"&1<&+@&&#**&#***&&&&#&&#&&&X+&>1:1>%X@**&&&&#&&&####=&##*$$o@;>;&<2&O%&&#&&&&&&&&=#=&=**&&&#X#,<:21&X#&&**#=&=**#***#########:>:",
"&1>&OsBBVBBBVBBBVBVVBBVVBVv:+@>>:1;@XeNBVBVBBVVBBBVBBBBBBBm3X$>-&<>%OaBBVBBVVBBVVBBBBBBBBBv=X#:,:1&+XeNVBVBBBBBBBBBBBBVVBBn3X&<:",
"%1;%<BHHHHHHHHHHHHHHHHHHGHGsO@=>;<%O*bHHHHHHHHHHHHHHHHHHHHHho@>-%<;O2BHHGHHHHHHHHHHHHHHHHHHaoO=<&1&+*vHHHHHHHHHHHHHHHHHHHHHhX@>=",
"%1%.dHHHHHHHHHHHHHHHHHHHHHHB:X*>;<%OeGHHHHHHHHHHHHHHHHHHHHHA3o>:%<;OdGHHHHHHHHHHHHHHHHHHHHHB>o*>>1%+eGHHHHHHHHHHHHHHHHHHHHHA3X:;",
"%<&1CHHHHHHHHHHHHHHHHHHHHHHGdX*>*<%*nHHHHHHHHHHHHHHHHHHHHHHHj@;;%<*<ZHHHHHHHHHHHHHHHHHHHHHHGso*>&<%&nHHHHHHHHHHHHHHHHHHHHHHHjo::",
"%1%rHHHHHHHHHHHHHHHHHHHHHHHHn#*>;<@7GHHHHHHHHHHHHHHHHHHHHHHHA;:;@<*rHHHHHHHHHHHHHHHHHHHHHHHHM%*>&<%6GHHHHHHHHHHHHHHHHHHHHHHHA;:;",
"%<;iHHHHHHHHHHHHHHHHHHHHHHHHB$*>;>@9GHHHHHHHHHHHHHHHHHHHHHHHS::;%<*uHHHHHHHHHHHHHHHHHHHHHHHHB$$>:1%9GGHHHHHHHHHHHHHHHHHHHHHHS>=;",
"%<&iHHHHHHHHHHHHHHHHHHHHHHHHN**>*<%0GHHHHHHHHHHHHHHHHHHHHHHHS>=;@<;uHHHHHHHHHHHHHHHHHHHHHHHHB%*>&1%0GHHHHHHHHHHHHHHHHHHHHHHHS>:*",
"%>&iHHHHHHHHHHHHHHHHHHHHHHHHB$;:;<@0GHHHHHHHHHHHHHHHHHHHHHHHS>-*%<%uHHHHHHHHHHHHHHHHHHHHHHHHB%;>;1%0GHHHHHHHHHHHHHHHHHHHHHHHS>:;",
"%>;iHHHHHHHHHHHHHHHHHHHHHHHHB$;:*<%0GHHHHHHHHHHHHHHHHHHHHHHHS-:;@<;iHHHHHHHHHHHHHHHHHHHHHHHHB$*;&1%0GHHHHHHHHHHHHHHHHHHHHHHHS>:*",
"@>*iHHHHHHHHHHHHHHHHHHHHHHHHB*;:*<%0GHHHHHHHHHHHHHHHHHHHHHHHS>:*@<;uHHHHHHHHHHHHHHHHHHHHHHHHB@*>*<%0GHHHHHHHHHHHHHHHHHHHHHHHS>:*",
"%<;uHHHHHHHHHHHHHHHHHHHHHHHHN*;>;<%0GHHHHHHHHHHHHHHHHHHHHHHHS>:*@<;uHHHHHHHHHHHHHHHHHHHHHHHHB*;>*<%0GHHHHHHHHHHHHHHHHHHHHHHHS>:*",
"@>;uHHHHHHHHHHHHHHHHHHHHHHHHB$=>*<%0GHHHHHHHHHHHHHHHHHHHHHHHS>:*@<;uHHHHHHHHHHHHHHHHHHHHHHHHB$=>*<%0GHHHHHHHHHHHHHHHHHHHHHHHS>:*",
"@>;iHHHHHHHHHHHHHHHHHHHHHHHHB*->*<%0GHHHHHHHHHHHHHHHHHHHHHHHS>:*@>;uHHHHHHHHHHHHHHHHHHHHHHHHN*-<*<%0GHHHHHHHHHHHHHHHHHHHHHHHS>:*",
"@>;rHHHHHHHHHHHHHHHHHHHHHHHHn$-<*<%7GHHHHHHHHHHHHHHHHHHHHHHHA-:*@>;rHHHHHHHHHHHHHHHHHHHHHHHHn&;<*<%7GHHHHHHHHHHHHHHHHHHHHHHHA->*",
"@>>2AHHHHHHHHHHHHHHHHHHHHHHGd%<<*<;;NHHHHHHHHHHHHHHHHHHHHHHHl;>*@;>2AHHHHHHHHHHHHHHHHHHHHHHGf%<<*<;;NHHHHHHHHHHHHHHHHHHHHHHHl*>*",
"@><*dHHHHHHHHHHHHHHHHHHHHHHB,=2<$2<$eGHHHHHHHHHHHHHHHHHHHHHA4:1*@;<*dHHHHHHHHHHHHHHHHHHHHHHB<;21%22%eGHHHHHHHHHHHHHHHHHHHHHA4>>;",
"@;<>3BHHHHHHHHHHHHHHHHHHHHHs*<22*22>:bHHHHHHHHHHHHHHHHHHHHHh:>1*%;<>2BHHHHHHHHHHHHHHHHHHHHHs*<31*23;:bHHHHHHHHHHHHHHHHHHHHHh=,>;",
"@;2<;sNNNNNNNnNNNNNNNNNNNNc2>222$232;eMMMMMMMMNMNNMNMNMNNNv7<11=@;22>sNMMMMNNNNNNNMNNNNNNNc2;311*232;rnNMMMMMNMNmNMNMmNNMNv7<22*",
"@<2222554444455556666666774>332<*2222<5777777777777776666651211:@><22<545545464557657776774>3331*2221<777777777777777776554<222;",
"O<<22221222222321333331322323322;223323332323323223332223133221:+<223222222222222222222322335131*22232223233323323232323222232,:",
"@<23533233333222311321332222222<=,2223222322222212,<<,221211222>%<222333332232222222222122221131;<2223232222222,2<1,,2112222222:",
"@<22<22<<>>>,>>::>>>>>>>>:;;;;><-<2,<>,>>>--:-=;==::>:>>>>>>>:1>%<11212<<<>>>>>>>:>>>><>>:::;;;<-<,22>2>>>--=;;=;=-:>>><>><::><>",
"#;;*%%%%##$$###&&&&&&&&&%%%O@@%%$%*%%$$@@@@@@@###*#**$**&&&&%%%&%;;**&$*%%#$#$#$&*&&*&&&&&&@%@O%***@@$@@@@$@@####$#*&&&&&&&%%@%*",
"........XXXXXXXXXX@XO.OO..................o..XXXXXXXXoXXO...OO.......X..O.oOXXXoXXXXXXX...............o....o.oXXXXXXXXXXOXO....O",
"..O..OOO.....X.X..XX....OO.............o.o.oo..o..O.O.....OO.O...........O...o..X.XOX..................o.o..X..X.O.X.OOO....OO..",
"@>>>1>>><>><>>>>>>>>>::::::::>:&:::>,:>>>>>>>>>>,>>>>,>>>>>1><>;@>><<>>>>>>>>>>>>>>>>:::;>::;<::$->>>->>>>>>>,1>>>><,>>>>>>>>>,*",
";2221333233222222111111111<<<<111111112232223333322221112111111>;2132333333132223111111,<<<<<<<<<<<<222222332231332231112111111:",
";2<>1111<<11<1<<,>>>>>>>>>>>><<1<11<111111111,1,,>,>>>>>>>:>>11<;11<11111111>1>>>>>>>>>:>>>><<1<<<,<<<<,111,11,1>>>>::=,>>:><<2<",
"*<2>:;;;;;;*;*;*=&=$==&=&;:&:<11>1>:>:&=====**;;==$$=*=***;=>11>*11:::;;:;;;*==*:&;=&==#:&&;;<<<><>>---====&==&;==*;===$=*==><<<",
"*<2<;%@&#####@##########&&##=><<>11;&&########@######@#@#@#$>,1:*<2<=#@@@@######&#######&###=<11>1>:*%@@#####@#######o##@@##>11>",
"*<<;%.O.XXXoXXXXooXX.XXoXO.X#><>>11&#+XX.XXXXXXXoo..XX.o...#*,>:*<<;&XXXXXXXXXXX+XXXX#.XOOXX#>>1>1<;@O.@ooXXXXXoXXooXXooXXX@*>>;",
"*<<;+:008000000000q00000006##&>,>1>&X&00000q000000q00000008o#=>:%<<;@:000000q0000000000q006X@*>>:1>&o*00q000000000000000007@#;>;",
"%<<%+fCCCCCCCCCCCCCCCCCCCCm,.#>>;1:@OiVCCCCCCCCCCCCCCCCCCCB8X$>=%<<%XfCCCCCCCCCCCCCCCCCCCCn,X#><:1:@oiVCCCCCCCCCCCCCCCCCCCB8@&>:",
"%<;@2AHHHHHHHHHHHHHHHHHHHHHfoo:>;<*O;NHHHHHHHHHHHHHHHHHHHHHl@%>;%<;%<ZHHHHHHHHHHHHHHHHHHHHHf.@->:1*X;NHHHHHHHHHHHHHHHHHHHHHl@$:;",
"@<;@hHHHHHHHHHHHHHHHHHHHHHHZ3o;>;<@OsHHHHHHHHHHHHHHHHHHHHHHG0@;;%<;@jHHHHHHHHHHHHHHHHHHHHHHZ3.*>;>%XsHHHHHHHHHHHHHHHHHHHHHHF0@:;",
"%<*3SHHHHHHHHHHHHHHHHHHHHHHHg@%>;>@>VHHHHHHHHHHHHHHHHHHHHHHHx@;;%<%3SHHHHHHHHHHHHHHHHHHHHHHHgo*>;>@:BHHHHHHHHHHHHHHHHHHHHHHHz@:;",
"@<*eHHHHHHHHHHHHHHHHHHHHHHHHM%*>*<@7GHHHHHHHHHHHHHHHHHHHHHHHA;;*%<%rHHHHHHHHHHHHHHHHHHHHHHHHN$$>*<@9GHHHHHHHHHHHHHHHHHHHHHHHA;:;",
"%<%uHHHHHHHHHHHHHHHHHHHHHHHHN$*-;>@0GHHHHHHHHHHHHHHHHHHHHHHHS--;%<;iHHHHHHHHHHHHHHHHHHHHHHHHB%$-*<+0GHHHHHHHHHHHHHHHHHHHHHHHS>-*",
"@<%uHHHHHHHHHHHHHHHHHHHHHHHHB%*>*<@9GHHHHHHHHHHHHHHHHHHHHHHHS>-*@<%iHHHHHHHHHHHHHHHHHHHHHHHHN$*>*<%9GHHHHHHHHHHHHHHHHHHHHHHHS>-*",
"%;;uHHHHHHHHHHHHHHHHHHHHHHHHB%*>*>%9GHHHHHHHHHHHHHHHHHHHHHHHS>;*@<%iHHHHHHHHHHHHHHHHHHHHHHHHB$*>*<+0GHHHHHHHHHHHHHHHHHHHHHHHS>;*",
"@<;uHHHHHHHHHHHHHHHHHHHHHHHHB$*>*<%0GHHHHHHHHHHHHHHHHHHHHHHHS::&@>*uHHHHHHHHHHHHHHHHHHHHHHHHB$*;*<%9GHHHHHHHHHHHHHHHHHHHHHHHS:;*",
"@<;uHHHHHHHHHHHHHHHHHHHHHHHHB#*;*<%9GHHHHHHHHHHHHHHHHHHHHHHHS:-*@<*iHHHHHHHHHHHHHHHHHHHHHHHHN$*>*<%0GHHHHHHHHHHHHHHHHHHHHHHHS>-*",
"@<;uHHHHHHHHHHHHHHHHHHHHHHHHN**>&<%0GHHHHHHHHHHHHHHHHHHHHHHHS>-$@<;iHHHHHHHHHHHHHHHHHHHHHHHHB$->*<@0GHHHHHHHHHHHHHHHHHHHHHHHS>;&",
"@>;uHHHHHHHHHHHHHHHHHHHHHHHHB**-*<%0GHHHHHHHHHHHHHHHHHHHHHHHS>-*@>;uHHHHHHHHHHHHHHHHHHHHHHHHB$=:*<%0GHHHHHHHHHHHHHHHHHHHHHHHS>-&",
"@>*uHHHHHHHHHHHHHHHHHHHHHHHHB$=>&<%0GHHHHHHHHHHHHHHHHHHHHHHHS>-$@;;uHHHHHHHHHHHHHHHHHHHHHHHHB$=>%<%0GHHHHHHHHHHHHHHHHHHHHHHHS>=*",
"@>;wHHHHHHHHHHHHHHHHHHHHHHHHv%;>%<%5DHHHHHHHHHHHHHHHHHHHHHHHC:>&@;;wHHHHHHHHHHHHHHHHHHHHHHHHv%=<*<%5DHHHHHHHHHHHHHHHHHHHHHHHC=-$",
"@;;;mHHHHHHHHHHHHHHHHHHHHHHGu@><%<*%xHHHHHHHHHHHHHHHHHHHHHHHf@>&@>;;NHHHHHHHHHHHHHHHHHHHHHHGu@>>%<*%xHHHHHHHHHHHHHHHHHHHHHHHf%>$",
"@;<%pGHHHHHHHHHHHHHHHHHHHHHn:*<<*2;%qFHHHHHHHHHHHHHHHHHHHHHC3*<&@;<%pGHHHHHHHHHHHHHHHHHHHHHn:*,<%<<%qFHHHHHHHHHHHHHHHHHHHHHV2;>*",
"@;<;<NHHHHHHHHHHHHHHHHHHHHGt*>2<%22;*xHHHHHHHHHHHHHHHHHHHHHf*>>*@;<;<NHHHHHHHHHHHHHHHHHHHHGy*><<*<2%;xHHHHHHHHHHHHHHHHHHHHHf*>>*",
"@;<<*rcccccccccccccccccccxj>;22<%<2<*0xccccccccccccccccccxl2:11*O;<<*ecccccccccccccccccccxj>;222%12<;9xcccccccccccccccccczl2>,,*",
"O-<2<;%*%****;=*;;=::=:::---23<<$222>;-;-;;----:::-:==-;;**-21,*@>11<*********;;:*::::-=--;;13<<*222<;-;=;=-----::--::=:*;*:,2<*",
"+;222<<<<<<<><>22<<222112222332<;22222,222222,22222<1211,,,211<;@>223<<>><<<<<<<111122,22222332<*2<2322<,2<22222222,2211,<,22<<-",
"@<22232323223333323333232322332<*<12333223323323223332212232321;@>222323232323333333332332323322*<22333333333222323222222222222-",
"+<1222222222<22><<,,>11<<<<<<>2<;<2221222<<<2,,>>>,>>>>,,<<<<<1<@<11222322222111,,11<<<<<<<<<<<<=2<222<22,1,,,,,>>>>>>11<<<<<2<>",
"%<<><:::;;--******=====*****%%%;;>>::=;;**$$%%$$*$$=====;;****;;@><>>:::==*;****=&&=*;*;***%&%&;;>::;;;;***#####$*$=;&=&**;***;;",
"O@@@@XX@++++o@o@@@@o@@@XO+OOOOOO@@X..X.o.o.oooooo@o#oo#oo@.@XOX@O@%@@oo@ooooooo$@@@@@@+@@OOO.O..@ooooo..XXXXXooo#oo#@@@@@X@OOOO@",
"                                                                                                                                ",
"O*****;&**;*****;&;&;&&&&%&&%&&&@*$*******;**;*;**;**;******;;&%O***=***;*;**;*;&;&***&&&&&&&&&&%&&&*******;**;*;**;****;***;;*%",
"*21333333333333233111111111<1<2>>>22222223222333333232222211<1<<%323333333332222133121111<<<1111><11322232333333333232222111<1<;",
";1<>2213221312111>1<<><<<:<:<>><,>>2,<222222221111<<>>:>>:>>><1:;<<<3131212212<<1<1><>>>>:<:<><<><>112211222221111<<>>>:>>>>>><<",
"*11>::;;;;;;;;;=&;=:&;&&&;:&;>1>>>>:::::::::==:=*;=*=:=*;;*;:<<>*2<;::;;;:::;;;;;;&=;*;;;;;;&><<>1>::::::::;===*;*;;====*:==:<<>",
"*<<:;&&&%&&%###&&&&####&&&&&=>1<><>:*##########&&##########&><>>%2<>;%&&#&##&&&&########&&#&=><<>>>:*&&####&#&#############*>11:",
"*<<:&XXXXXOXXXXX@++XXXXX%.+O&>>,><>;@@XXXXXXXXXXXXXXXXXXXXX#=>>:%<<;&+OXXXXXXXXXXXXXX@XXXOX@&>>,><,;@XoXXXXXXXXXXXXXXXX.XXX@;>>;",
"%<<;X6ffgggggggggggggggggga@o=>>:<>*X>dgggggggggggggggggggd&$=:;$<<;%4ffgggggggggggggggggga@#&>>=1>&X,fgggggggggggggfgggggd*&:::",
"%><&&vHHHHHHHHHHHHHHHHHHHHG0X#:>:>:@@jHHHHHHHHHHHHHHHHHHHHGp@*:;$<>%%vHHHHHHHHHHHHHHHHHHHHF0.#:>;1:XXjHHHHHHHHHHHHHHHHHHHHGp@&:;",
"%<>%wFHHHHHHHHHHHHHHHHHHHHHx#@=>:<;.4SHHHHHHHHHHHHHHHHHHHHHN:*:;%<:@wFHHHHHHHHHHHHHHHHHHHHHz#@:>;>&+3SHHHHHHHHHHHHHHHHHHHHHN:#:;",
"%>&%vHHHHHHHHHHHHHHHHHHHHHHSqo;>;>%XjHHHHHHHHHHHHHHHHHHHHHHGi@=;%<;%vHHHHHHHHHHHHHHHHHHHHHHSqo*>;>&+jHHHHHHHHHHHHHHHHHHHHHHGp@:*",
"%>&qGHHHHHHHHHHHHHHHHHHHHHHHzo$>;>X3SHHHHHHHHHHHHHHHHHHHHHHHB@=*@>&0HHHHHHHHHHHHHHHHHHHHHHHHx@$:&>%3SHHHHHHHHHHHHHHHHHHHHHHHB#:*",
"@>&uHHHHHHHHHHHHHHHHHHHHHHHHB$$:*>@9GHHHHHHHHHHHHHHHHHHHHHHHS-;;%>&uHHHHHHHHHHHHHHHHHHHHHHHHB$*::>+9GHHHHHHHHHHHHHHHHHHHHHHHS:*;",
"%:&uHHHHHHHHHHHHHHHHHHHHHHHHB$*:;;%9GHHHHHHHHHHHHHHHHHHHHHHHS:;*@>&uHHHHHHHHHHHHHHHHHHHHHHHHB%$-&<O9GHHHHHHHHHHHHHHHHHHHHHHHS:=*",
"@<;uHHHHHHHHHHHHHHHHHHHHHHHHB$$;*<+0GHHHHHHHHHHHHHHHHHHHHHHHS-**%>&uHHHHHHHHHHHHHHHHHHHHHHHHN$*-&>%0GHHHHHHHHHHHHHHHHHHHHHHHS:;*",
"@<%uHHHHHHHHHHHHHHHHHHHHHHHHN$*-*>@9GHHHHHHHHHHHHHHHHHHHHHHHS>;*%<&iHHHHHHHHHHHHHHHHHHHHHHHHB$*:;>%9GHHHHHHHHHHHHHHHHHHHHHHHS:;*",
"@>*iHHHHHHHHHHHHHHHHHHHHHHHHB**:&>@0GHHHHHHHHHHHHHHHHHHHHHHHS-**+>;iHHHHHHHHHHHHHHHHHHHHHHHHB%*=&1%9GHHHHHHHHHHHHHHHHHHHHHHHS-;&",
"@>*uHHHHHHHHHHHHHHHHHHHHHHHHB$*-;<%9GHHHHHHHHHHHHHHHHHHHHHHHS>=$%:%iHHHHHHHHHHHHHHHHHHHHHHHHB#*=%<%0GHHHHHHHHHHHHHHHHHHHHHHHS>;#",
"@>;uHHHHHHHHHHHHHHHHHHHHHHHHN%*-&<%0GHHHHHHHHHHHHHHHHHHHHHHHS>=%@>;uHHHHHHHHHHHHHHHHHHHHHHHHN*;=&<%0GHHHHHHHHHHHHHHHHHHHHHHHS>=#",
"%>%uHHHHHHHHHHHHHHHHHHHHHHHHB$;:%<%9GHHHHHHHHHHHHHHHHHHHHHHHS>=&@:;uHHHHHHHHHHHHHHHHHHHHHHHHB$;:*<@0GHHHHHHHHHHHHHHHHHHHHHHHS>=&",
"+;;uHHHHHHHHHHHHHHHHHHHHHHHHB$*:&<%9GHHHHHHHHHHHHHHHHHHHHHHHS::#+<%uHHHHHHHHHHHHHHHHHHHHHHHHN*;=%>%9GHHHHHHHHHHHHHHHHHHHHHHHS::#",
"+:;7DHHHHHHHHHHHHHHHHHHHHHHHl@=>&<%1ZHHHHHHHHHHHHHHHHHHHHHHHn@:$+;;9FHHHHHHHHHHHHHHHHHHHHHHHk@;>&<%<ZHHHHHHHHHHHHHHHHHHHHHHHb$-*",
"@:&%xHHHHHHHHHHHHHHHHHHHHHHF0@:>%<%%hHHHHHHHHHHHHHHHHHHHHHHHr@:#@;;%xHHHHHHHHHHHHHHHHHHHHHHD0@;:*>%@hHHHHHHHHHHHHHHHHHHHHHHHr@:@",
"+;>%7SHHHHHHHHHHHHHHHHHHHHHk@%>>&<;%<CHHHHHHHHHHHHHHHHHHHHHv%*>$X;;%7SHHHHHHHHHHHHHHHHHHHHHk@$><%<;$<CHHHHHHHHHHHHHHHHHHHHHc%*>*",
"@;<;*kSDSFSFFFSFDDDDDDDDFSC7*=<>&<<&%fDFSFSFFFSFDDFDDSDDSFAw%->$@;<**kSDDDDDDDDDSFSFFFSFDDC6*-<<%<<;*fSFFFSFDDDDFSFFDDSFDSAe%:>$",
"@;<>$4papaaaaaaaaaaspsaaaae;;11<%<2<*3aaspaaaaaaaaaaaaaappt=;>1;X*<<%5papapaaaaasaaaaaaaaar=;<2<%<2>*3paaaaaasaaaaaapapaapt-*<<$",
"O;11>***;;*;*-;-::::::->->==<3<<%<22>*=-::-=>->>:--:--===**;<1<&@;<<<%***;;*===>::>::::>-:==<2<<&122>;;-==::=:>=>>-::::*-***,<<$",
"@;1<2<:>:>>>><<<,,11<<2,<22<33<<*<<23<,<<2<2,2<,22112,,>,>,111>&+:<12<>>>>>>>>>><,<<12112,,233<<*2>23<<<,21,2,22,22>2,,,,,>,2<,*",
"@;<222322233232233333333333333<<$2<233333333333333322333322211<;+><2222222223333232333333333322<*<<23333333333333333333322222<<;",
"@<<<222323332222111121112<222<2<*<<2232322222222,1,,111122<212<:@<1132233333223222222111222<<22<;<22223212232222,2,,<<11121<22<;",
"@><<2><>>>>:>---==:::::;==*;**;<=,<<,>>>>>=-****=#====::==;-;;>:@>111<<><>>-;-::-=====;=-**;;*;>;<>,,>>>,-===$=$***;==;;:::;=->-",
"@***$#@@@@@@@@@@#@#@##O@@O@@..oo%@*%@ooo@ooooo$oo##@##@@@@@@O+@%X**&&&@@%+@@@@@@@@@##@#@@O@O+OO+$$@@@@@@.oooo#o#o##@@##@%@+@@O@%",
".........X......................................................................o...............................................",
".@@@$$%@#@%@@$%@@@@@@@@@@@@O@OO@O@@@@@@@$@$%#@@@%@$@@%@@@@@@@@%O.@@@@#%&$@%%@@%@@%@@@@@@%+++%+++.o@@@@%$##@#@*@%@%%@#@@@@@@@@@@O",
"%2<2222322232222221111<<<><<<<<<:><<2222222232332222222211212<2:%2222222222232222<2221>1<<<<<<1<:>,>222,222222222232223222222<2-",
"*2<2323333323322221111<,<><:>><;,>1122223333222333232<2<,<,><><:;2123322332232222211<<1,<<<>:>>>>>2222221332323322222121<>>>><<;",
"*<>><<><>>,>>>>>>;>;;;==;;;;;;<<>,:,>>,<>,>>>,>:>:::========;><:;>>><>,,><><><>:;;:::::=;&;;::>>>>>>>>>,>,,,>>>>>:>=====;;:=;;<<",
"*>>:*;****&**&**%;#*&*#*&&&*;:<<,>:==*********$=*$*$*%$*#$$=:><:*>>:=**&***&***&*&&*&&*#&&&==>><:,:=;******$*#****$*$*$$###*:<<:",
"&1>:*%=*;=======*;;;=======@*:<>:>>&#@=;=======*===*=====*=#:>>:*>>:*$==;;======;;======:;&#&><>>>>=$@=========;-*=*===*===#:>>:",
"&1>:@wkkkkkkkkkkkkkkkkkkkkg&@::::,>#X7kkkkkkkkkkkkkkkkkkkkh,*::;&1<;@wkkkkkkkkkkkkkkkkkkkkg&#=>>:,>#X7kkkkkkkkkkkkkkkkkkkkh,*::;",
"&>>*=mHHHHHHHHHHHHHHHHHHHHGeX*:::>:@@zHHHHHHHHHHHHHHHHHHHHHd#=:*&>>&;mHHHHHHHHHHHHHHHHHHHHGeX&=>:>:@@zHHHHHHHHHHHHHHHHHHHHHd@*:;",
"#>>%iGHHHHHHHHHHHHHHHHHHHHHv*@=:;:;O7GHHHHHHHHHHHHHHHHHHHHHC>$-;#>>%uGHHHHHHHHHHHHHHHHHHHHHv$@=:=<*X7GHHHHHHHHHHHHHHHHHHHHHV>$-;",
"@>;:BHHHHHHHHHHHHHHHHHHHHHHGyX=:;<%@vHHHHHHHHHHHHHHHHHHHHHHHg@-;&:;:BHHHHHHHHHHHHHHHHHHHHHHGyo*>*>&%vHHHHHHHHHHHHHHHHHHHHHHHg#;;",
"%:&wHHHHHHHHHHHHHHHHHHHHHHHHv@*:;;@5DHHHHHHHHHHHHHHHHHHHHHHHC*=*@>*wHHHHHHHHHHHHHHHHHHHHHHHHv@$:;>+5FHHHHHHHHHHHHHHHHHHHHHHHC*=*",
"@<&uHHHHHHHHHHHHHHHHHHHHHHHHB@#:;;+9GHHHHHHHHHHHHHHHHHHHHHHHS=;*@>&uHHHHHHHHHHHHHHHHHHHHHHHHB##=*:+9GHHHHHHHHHHHHHHHHHHHHHHHS-**",
"@<%iHHHHHHHHHHHHHHHHHHHHHHHHB%$=*:@9GHHHHHHHHHHHHHHHHHHHHHHHS:**@>%uHHHHHHHHHHHHHHHHHHHHHHHHB#$=*:%9GHHHHHHHHHHHHHHHHHHHHHHHS:;*",
"@>&uHHHHHHHHHHHHHHHHHHHHHHHHN*$;*;@0GHHHHHHHHHHHHHHHHHHHHHHHS:**%>&uHHHHHHHHHHHHHHHHHHHHHHHHB$$;;>+0GHHHHHHHHHHHHHHHHHHHHHHHS:**",
"@>%uHHHHHHHHHHHHHHHHHHHHHHHHB#$=*>@0GHHHHHHHHHHHHHHHHHHHHHHHS-;*@>%uHHHHHHHHHHHHHHHHHHHHHHHHN$$;&>+9GHHHHHHHHHHHHHHHHHHHHHHHS>**",
"@>&iHHHHHHHHHHHHHHHHHHHHHHHHN#*=*;@0GHHHHHHHHHHHHHHHHHHHHHHHS>*$@>*iHHHHHHHHHHHHHHHHHHHHHHHHB*$;*:%9GHHHHHHHHHHHHHHHHHHHHHHHS:*#",
"@<*iHHHHHHHHHHHHHHHHHHHHHHHHB****>@0GHHHHHHHHHHHHHHHHHHHHHHHS-*#@>%iHHHHHHHHHHHHHHHHHHHHHHHHN$**%<%0GHHHHHHHHHHHHHHHHHHHHHHHS>;#",
"@;*iHHHHHHHHHHHHHHHHHHHHHHHHN**;&<%9GHHHHHHHHHHHHHHHHHHHHHHHS>;#@>*iHHHHHHHHHHHHHHHHHHHHHHHHB%==*;%0GHHHHHHHHHHHHHHHHHHHHHHHS:=@",
"@;%iHHHHHHHHHHHHHHHHHHHHHHHHB$*;*;%0GHHHHHHHHHHHHHHHHHHHHHHHS>;@@;*uHHHHHHHHHHHHHHHHHHHHHHHHB%*=%>@0GHHHHHHHHHHHHHHHHHHHHHHHS>;#",
"@:*yHHHHHHHHHHHHHHHHHHHHHHHHN#*=%;%0GHHHHHHHHHHHHHHHHHHHHHHHS--@@;*uHHHHHHHHHHHHHHHHHHHHHHHHB$*=&>@9GHHHHHHHHHHHHHHHHHHHHHHHS:=@",
"@;*4AHHHHHHHHHHHHHHHHHHHHHHHg@*-$<%>BHHHHHHHHHHHHHHHHHHHHHHHc@;#@;%5AHHHHHHHHHHHHHHHHHHHHHHHg@*:&>%>BHHHHHHHHHHHHHHHHHHHHHHHc@=@",
"@;;+hHHHHHHHHHHHHHHHHHHHHHHZ3@-:$>%+sGHHHHHHHHHHHHHHHHHHHHHF8o=@X;;@hHHHHHHHHHHHHHHHHHHHHHHC3@=-&>%@sHHHHHHHHHHHHHHHHHHHHHHD8o-%",
"O;;+5AHHHHHHHHHHHHHHHHHHHHHg%@->%>;%<BHHHHHHHHHHHHHHHHHHHHHz%$:@@::%5ZHHHHHHHHHHHHHHHHHHHHHg@@=:%<*%<BHHHHHHHHHHHHHHHHHHHHHz%%-#",
"X;>%$gFFFFFFFDDFFFFFFFFFDDV3$*>>%<;$%sSDDFFFFFFFFFFFFFFFFDA0@;>#X*:&@gFFFFFFFFFFFDDDDDFFFFC3**<>@<;%$sSFFFFFFDDFFFFFFFFFDDA0@;:#",
"+;>;&<999999090990000000004**>,>@<2;*>900000000000000009877**:>#+%<;$:979099009000000000004*;>1:@<1;;>900000900900000808885$*>-$",
"X;><;&&%**;**=;;-->--:::==-->2,,@<2<;;;;*;;==:-=-;;-**-*;***>>:*+;<<;********;*;:::---;-==-->1<<%<21;**;;=;;------==;;;=;***>>>$",
"X;<<<;;;;:::>->>>><><<>>>>>>22<>@2<22;>>>><>>>,>>>,>>>>>>::,,,>*O;<<<-;;*;;;;>>>>>>,<><<>>>>32<>@1<2<>>>>>>>><<<><>,>>,=:-=><,,*",
"X:<122<21221222222223233333332<<$2>22333233333333333332222112>>;X:<<22212222222222132333333332<>*<<13233333333333232322322222<>*",
"O>1133322323333323323333222222<<$,<2233333232223222322221221111&+:<122332322322313223323223222<<$<>223332332222222323221222222>;",
"X><12<<211111>,><><>>>>><<>>>><>*<<<111111,,,,,:>>>>>>->>11><>1;+<1112112<2,1<1>,>,>>>>:<>>>><<<*,<,2<<<11,,,,>>>>->>:>>>>><>>>;",
"@>>>>;;;==*=*$*$$$$**&&*&*@*%%$;*>>*-****$$$$###$$$$$***&&&&&&;;@:>>>=;;;*=**$$$&=&***&***$$%@$*;:>>==***#*$##$#$$$$&&*&*&*&&*;*",
"O#@@@@++ooooo@o@@@@@@@X@XX@OOOOOo$+$+oo++o++oooo#oo@@+@o+@@+@+XX@&@@@oo@ooo@o@+%o@@@X@@@.@OOOOO@@@+@++oOoooooo@oo@@@@@@@@XX@XXX@"
};
