/* XPM */
static char *tile1371695480732[] = {
/* columns rows colors chars-per-pixel */
"128 128 64 1 ",
"  c #020202",
". c #070807",
"X c #080807",
"o c #070808",
"O c #0B0B0B",
"+ c #100F0F",
"@ c #0F100F",
"# c #10100F",
"$ c #0F1010",
"% c #131414",
"& c #171817",
"* c #181817",
"= c #161718",
"- c #171818",
"; c #1B1C1B",
": c #201F1D",
"> c #1F201E",
", c #20211F",
"< c #1D1F20",
"1 c #1F2121",
"2 c #232423",
"3 c #262826",
"4 c #292A27",
"5 c #252728",
"6 c #262929",
"7 c #2B2D2C",
"8 c #302F2C",
"9 c #2E312E",
"0 c #31322E",
"q c #2C2F30",
"w c #2E3131",
"e c #333533",
"r c #363936",
"t c #393A36",
"y c #343738",
"u c #363A39",
"i c #3A3D3A",
"p c #3E413D",
"a c #41433E",
"s c #3C3F40",
"d c #3E4241",
"f c #424542",
"g c #464945",
"h c #494B46",
"j c #454748",
"k c #474A49",
"l c #4A4C4A",
"z c #4D504D",
"x c #51524C",
"c c #4F5353",
"v c #535453",
"b c #545954",
"n c #5A5B52",
"m c #5B5B5B",
"M c #646464",
"N c #6B6B6B",
"B c #747474",
"V c #7C7C7C",
"C c #838383",
"Z c #8C8C8C",
"A c #949494",
"S c #9C9C9B",
"D c #A3A3A3",
"F c #AAAAA9",
/* pixels */
"-;<1254888q8q57758778857578555587777w777www88888q8qq588qww744q8qeq8q88q88q8q88q8766773447475558545454774454474q5755585545:::;===",
";;225558q88qq87q7787q88qq8q785887777ww770wq8888q8qqq88q88ww8qq88888q888q8qq88qqq7777748475447558585775545544775577475554525:;;:=",
";;,25q8we8ee8885qq7888yye888qq8799wqwweeeee0eee88888y8y88weqee88y8qy8ty8e88q8888779w887q778744q8q85788877777q7q78q8qq77558::;;==",
"5,,258weyeeey8yy888e8y88yeyye8eq9yywerrreeereyyeyyseyyyeyeeyrieyytyyyy8yyeyyyyyyw9wwwwewweww8eeqeee7575q778we8e88y88758q555::;::",
":22:5qeyssuyuuiiystttytyiiitiyiiwpppppppysapppiaiiyissisuiifdpppiiaiatytistisiyyeeurewwpyyreee0eweye8y8ywyuuuyeeyyty88885222;<:<",
":5:558eifaaffaiiisytiiiiaiisssisppppdpppljfjajghlfjffjjlkhdkkgdpsajjffisjjsfjsffpppdprppfssspssisffasfsiysffjjjsysasyy775551;:;<",
"58555yislfisfyusssatyyysiayiifssppddcdpphlaljjlhjljsjvjlpfddkzkdjfjjljaaiffsjfjfddppppppuafjjjjjjjjffjajsiskkzkksffyy8558452:552",
"225588isiyeyyeqyyeyyyyysiiyitsasppdpzpp9yiaaifjiiffsiayspppudkkdiiiisiitiifaiiytppdppeeeuufyuajisffsifajduuffdissjste877ww42555:",
"2555wqrre6q7745458858y8yyyiyytiyrpppp9pp9rpuprrpisiurddsuufipddwyiuiiyryitaiittyepyp97epuwrrrruryruippdpepyeyyyuew9w997wsw5235>2",
"5252eufuy6654222<::575qyyyy88j8ypwrpp9ppprpurrrriiysiffdfiduddppuwiiprrw8tiiteiyuppeeww9uywrrtueeeuswppeepyeqqwqq71679eeyeq622,,",
"8<224wrei6215::<;=:5555yyy8888ayppprpppprpprwprpyiasfjirue7wqeuprrwuuarr8yytyieeeee9www9eiuw9ew9eruiedpeppq944q77679wyeruww66,2,",
"25558uiy9521-=<:<<:5257qesty8ytiprrp9w9pw9upwurpuiaiuiiyuewypyyeeryyiuue8etiiyyyre79epeewprrrwwruriapppupee1547467661qetiuw52>>2",
"25125yuu7212<;:555<5228q88ayeyiewrpppupppwwuwurppiitriuiipupddpyywuywe8eweryrerrrrrrtrpuwwpirewereiffdud7q723744655164999974,>>,",
"2255q7jy92;:,4ee8885:<<5qyye878ewwwppppppwwuupppattfrtiupddfddppiiyreuwyy0788e80rweewwtuiwwrrrritifhffpy91269ew8952>,,246646>>>,",
"<<<5wyuu72257uvmjljq<<<5qyytyqqeurpwupwuupw9prrpaifapijfdhfpdppuiieetr8yy8ye40qewewurtrrruywr99iiuakldde1166dklgu93>>>,4979>>;>>",
"<<<1wuqw9226yjVAVl85q<558iseeq8ywwwuuduuwuuu9ppriifpujiauudppreuifi8ueywy8qrye0uttr99wwypiurriutuuihldw711uremCVmp92>>47794>>;>3",
"<<111pdw776qpBDAl7sve2=2tjjeeyrupp6ppppqwudpwupuepppeppppuiurrrwriuutrr7rw9wre99uuw96669wurirrttppdfjie5:2emfuBFZMf4::248642>;,2",
"<<11qwsq622qbCAd8mCl7<=<8sie88886p9ww6pwwppupuwrrpuurtpppipipwrrriir7e69were99w9ww79www9w7urpup9epzhgy72:5eMAfrBDBp6::27e74,>;,2",
"<<11qqdy616wzNppNDMy8<=:8ejiq45qwwpwpwqywuuppwp9reprrpppprippuuuiyere67er6errrww9ww97rprr7966wrr0tllue,;:58mSApyNMy4,,5407422>2,",
"1<11qwqq612pdppCFVj42==:8yairw48666w6wpwuuwwppr9eitwtupruiuuiirpuirerre7trewwrr999wie9rtrpwrw7e0tifkiq2;=:rvNSZyrvi7,288e773>,>>",
"111qqwwq611wwwMZBm85:=;:9phfwew7666qpwppuuwuqw7prrprprppfptiuttreeruiiyw9tupr99e0900973epiiir9rtrdkzfy2;::5epbCNqes8248rr94,,>**",
"1116wqyq61119pdpjf85===57riieyw7p66qwqpwuuwwqup9rerr9tppprr0w9wwweriuuuu9tetr999ppppp79werepurwrppkblr2;=::579pma58548ere992>>&>",
"111q6qepw11>1666452::=25wry7er7666qwp6qqwquqq99werettpppru997wrtue9ruuuue99w900rppppr9wew9weeiirpdckluq2:%=:2299e7:558rrre4,;;>>",
"1115qwpde9111111::==:8eeeri36erqqw66ywwpqqwuqwp7eee9rtrtwtrwwtrre767eewr97r9wret0ppe9eeprurwupirrdzkjae4::=:>>>,22588rrirr72>*>;",
"1<16uewyuq6661>;1111wywyw9r666w7wqp7pwwqw999974pr0w9prp0rttuppuurr97wrr97ww99rre9pppeepprppuiiuitpppgkp934>>>&>>>,8paa0ppr7,,>>>",
"<126wryswwwww6116666peyywwerqq76666qw7wp9769p97997049r0e0putppfperuereurwe9990rppppppr9wr9wpieirrrtiazpr04,,>,>>38ppaaapap0,3>>>",
"1117uiiywqwqupwppdpppw999ueu97q7166w77w66p394947499347499wuppprtrwwprrptr96674r9wwppudeee77rperr467rpaptpe9274470paaaxpppr88,>>>",
"167qeifdquuppuddpdppewwpwupew721>>316w7wp7p6pp9998733>3499rtpp9uyiipy9re9962>269ppp9wpdpeue7e9352,244pptpprrrppppppaappppp8,,>>>",
"111yyywy9q97pwppqpqqew7wp9wq3>>>-->1366p36p3wpw9044>>&>>>56wepeerruww96751>&>;17790ewe9pupr7w61;&>>,,0rtplgppkzgap0peppppp04>>>>",
"111177yppw776736q6pqe7eyepu71>&$$@&>16697pp67e9794>>%%%%&>537eewr96799625>&%%%>>247ppgppruuwww;;&&*&>,90ppppphapap0pppppap0,>,,>",
"11111yddpwppp766ww6q67wq6rew1-$$@O@&1339p6p69ee073>%@@O@%>337epw9779996;>%#@@@%=>34wpkdpkppr92;%@@#&&>49pppppr9epp8prrpaxp84>>>,",
"1111quziw97997qqwwq69wwee77w1%@O@@@%;1,p6p99eew97>&%OOOO@>349ew9wwwwr99>%@@.O@@%>7wppekpkpdu4;%%OO@@&>6rppapr097p0990pzxaa04,>>,",
"11166qpppy9w9wp900e77wrerww2;$OooOO%;11q7wwrr9r95;%OOXOOO%>39epwppee0w5>%OXooOO%;3wr99triie02%OXOOXO#;29rrfpriitrieeitthhg9,2>&>",
"11117ywdqywwpwpw9eer67qew67<;$o o O@%>17w79ee9e95-OXX  O#%;569ep99pe07>%OO o  O%*6et90rerre5<++. oXO#-,4erfppitiitueiiphzh02>>*>",
"1>16uedypwwww77pw7wwe7qe796<%Oo  OoO%;1697we99972%OO O OO#;266weppwe43>%@O o OOO&699urre9975;%O.o oX@&20weppfitrppfrptrgap99;;>;",
"16177ydsy66yppw6uwu6q77q6151OOo.o  O&1397ww99rw7-$O O X O#-,71w92ppww3>%O   O XO%,99rier0645-O .  o.O%,09ripprtrttiiitrrpt94>;;;",
"667eypdqppqqpp6dyuww67wqw61-Oo.    O%;59ee6qew91%$OX    XO=;67799pp472>%O X X OO&29r0e90e65;*OX.   oo#;9r9pppppr0rrrttppfue21;>;",
"119wpyddyqpppppdpwwwqqew771>$o.    O@;7wqqww3311=@o     X@%;576w49p733>$OX    XO%499rrrrr661-O .    O@>49rwptpe99rrpi9pppt04>2;>",
"116ppcdsyqqq7qppduywyw7wwq1%O..   oX@;4ewpeqq611-#O      O%;6w77097922;#Oo     O%290trrtr76;%OOX   oX#*49rerptprrrreprppppr65>;>",
"1116dddcddpp6pdquwukpwyyq11%@o.   oXO-37w6wyq771-%      OO%29w97p97p93;%X     OO@>407r0ttr75*O     oX#;099rrttpe0rtfi0tkfpr92>&>",
"6116pcdupdqywqyptjuierup7e;%OO  ....@&30qpppp>32;#X     .O>19ee649p993;@O      O%>79ererrr92&@X     X#*9rrr0pppreyppreepff9662>>",
"5616rddpddsdddddfarruufeit2%O    ...@&,49p3ppp93-OO     .O&160e6499699>@O      O%&7e000r9e9>&O      o@*2erdeeprrewppprppkl9342>,",
"167wydzpyyyppkkbiffpfphpue4-OO    ..@&,pp9pppp9>;@OX     @@>3wr9739677>@O      O%>200pe00e42&OX     oO;2e0pw9eewpeppepppafw22222",
"5>wwydzddddydppdlffaaagai67-OX    ..@,407p4pp9p1>OX     .O>137997p7396>@o      O#>69r9e9097,#@.     XO*2e0erwwpp9eeepppdppt536>,",
">>19pdlddwddked9yiihgrfhgi4:@      o@,30t0tpppp>;OO      O&1999779w73,>@O     .O%>30000p973>=O       O*3999epeeewpwweppkpr97,2,4",
"3115wdzkyppppgewypthfiiaur7;#      X@&,00t009403,#X     .O>37ee979w633>@O     ..@>307909e97>%O      OO*499wwpe7peppp9ppdat77,,,2",
"7636qygkppyyydyerii8ilaiir6;OO    .X@,400t000494*O       O%>87u0ew9636>$X     ..@>4700p90e72-O      XO;29ee9pp70p9ppappglr94226,",
",26ppdddeeeqpeyprrtreripre8*%      X%*400tt0p0,4>+O     .O%270t0e9q63>>@X     ..@>,7r90rer92%O      oO*3epeerpe09e9pgreaxp77,>,,",
"4740pglieryyryyieyfgirttt74&OO     O+;47rrriii84*#O     oO%,8e8rw94941>@O      O%-57707eer72%O      .@>4p9ppp9pppp9pp9paahp333>>",
",779gfauruuuyuuquyeraatrt94%O      XO-7errrtrt04:#O     oO%2888rp7w44>>@..      O*270799eee2&OX     .O&,48p0p49p0094wwphzpew>>>3",
"4339rfzhiiiuuusswytiaaiaa04%+X     O+;49rrt0t082*#X      O%,408r0p994>>@.     XO%;27r009077>&O      .O%,4pp99p4pp077ewpppp7>>%3,",
"2,66epazi7uiieuaeyrpttaitr5*OX      #>490e0e008,-#      oO%58eee79p97,%@.      o#;,90r9re992=O     ..@>3p0p94pp9p09997wpphw4>>>3",
"<125eiidttriieiir0rrtraat04%O      XO*90rterpr9,-OX     oO%:7eeep09993>@O      o%;29rtetr0r2;XX     .@>9848pp8097098p4pzkl03>>>>",
"22667ydiiiueiut048ttttttr62%O      X#-270rtt0042*OO     oo%:7weeppppp4>@X      o#;240rr9iu7>*O      .@%344089049p0p9pppdzgw>>>>>",
"6255ryuuuetwiia087rtr0r0952;OO     oO-246r9rr952;OO     .X$:5tee9pp043>@ X     O%,47r0r0tr92%OX     .@&4p0p090p849p449pwppt3>>>>",
"6326wiiyeerriah0000rrrrte7;-O      X#-40etr9r095;O      .O%<2r7e40p983>OO      O#,97atr9tt02*O      .@;,00009p9079994ppppgr91>>>",
"4445wupprwrrrpar0r70r000074&Oo      O*200t00er7>%Oo      O%>4rr7e7ur94-@O      O@>99ei9er093*OX      #;74p80p0p990w79epdgdp91173",
"5444wyuku6rtrttrur00per7r,>&Oo    o O&2900r9993>&OO      O%>49e7weire4;@O     O %>90tpre0ee3*OX     O%,7ppp00p99p99peppdpew3133>",
"2,40repkr99ettrpt779pre902,&O      XO%>9770re731-O       O%>67we970re2;@O      O%>00rpfirr02;#o     O#;24pp0ppp879yqwwpqpp7w34>1",
">4249repir9e0r7riw7er8r096>&O      oO&>20990w66;%Oo     oO$>377uw97re7>%X      O%,40errrrer7;OO     X%*,4p0p80ppppppb9qqppp67,>3",
"2>470tiiar690t00ir97990rr4,*@.      #-,r07w7w72;%O       O#>49679t6er4;@o      O%;6reiiar070*@O    oO#*2ppppp0ppppppzpppp99>,4>>",
"42200tue09274t0rppe749r474,&X.     o@;99et799e72%+      oO%>29e09r9977*@o      O%;707uatet08;%      O#*44pppppppp9ppppppp933,>>>",
"54>3ttir77747te9ei93490078,&X.     OO&26e0977793=+o      X%>477eer9674>OX      o%:6r8uur0ee0>#      .@>44p9ppappwp9ppphphp7>>>>>",
"22334iit79424009909799tr00,&O.      @%260ee97672&Oo     oO%;37009e9635>%OX     O%:8rr7ttrrr7*Oo     oO&40000pppap992w9pppp0,>>>>",
">>3w790e969367wu4pper79r04,*O       O&>300999963;O      .X#>60967r7732>%o.      %;39e6rrrre7=+o      O*49etrpprpprur4pppbp4,>&>>",
"1>>7eewer94,79ew0ee0r00pr7>%O      oO&22647rr911-$       .%>49777rr691;@o      O%-23ee0r7963%+o      $%26rttptppupdtpp8pxpp3>,&>",
"3>>1epr990r937777rp09e99002%OO     oO&257799996>*@O     oo%>2996399965;$o      o+&25367er572%O.     XO%54ttrerrppte9p49pp94,>&>&",
"1>>13pt990rt76w7r40prrpp7r2%O       O&2347w9941;&O      .X%>27465w0955;@o      o+-<766w7665,%X.      #*29tpte7w9pp9e94ppp04,>,,>",
">3>36rpt730r37eyee7e9ee9iw5%OX     OO%>62r0er96>&OX     .o$167696wrw65;@        $;57q5757w8:%OX     X+&,70tr94eerppr979800p,>,&>",
">33769tpr497977ww90pprp493,&O       @&;66279rr9>%Oo      O%>,77999yi65;@O      O+*700eq8uw72%OX     o@%279t99970rree9490pp4,>;,>",
">>39490pr96ee9r6ee9p99tr972&OO      O&,463469e6>&Oo      O%>599969rw95>@X      O+;70yriuyi72*Oo     o+-209tw9w69800900p9pp0,,,;>",
">>>999r9r976ruw67weer99w92>%O      OO&>69e4,699>&Oo     oo%>669997ee71&@O       +:50q8eer8e2%O      .#*279w7e0997499004pp003,,&,",
">>>39ppp9r776rr9q797ewee65;%O       O-5669w3699>&Oo     oo%<26w9w7et32;Oo       %-4000iru44,*OX     XO-2437tr0094p000404t004,,,,",
">>%>9ppp99r966req1epeerr761%Oo     XO%>563995591%@o      O%;5ww9779e72;%X      O+<24qyueie42%+      OO;743790tr00tp0p9pppa044,,4",
">>&>,pppee766wweu9qpp79e66<%O       O%>269ww9511=Oo      o$;59w9776775;#X.      +-548re8uu85%OX     O+*262769rr04p0049ppttt04,,,",
">>>>,ppptee797ewqq7pppe9q21%O       O%2699rwrw31;Oo     .X%<39r77q7977-+X     .O+-440rr8ir4:*O       %;6767740t043904900tt04,,,,",
">>>>,4ppr0r0ww79w969rr80r6<%O       +%176w999951;O      ..$;37eew77w63;+        +;548880er42%+XX    O%:4wre4560009990pp0993,;&;,",
"2>>13444rr0rwiu9rw79rp0776<%O      oO=1267679991=@o     .X$,47eeww7761;%O      O+;,878y88q5:%+       O256ree76e009993p30p93,;&&&",
"1222>pp37w7rww9rwe97rar0752%O      oO%167699w632;@X     .X%:770e77w792*%O      O%;:ew7eew78:%+X     OO%60t0we4iipt009p96p94,>&&&",
"332>273pwweeuw9www999pr0e6;%Oo     o@%16997w7931&O      XO%,777eww7772-%O      O+=2qqwyyiir:%+X     OO%2660r74270r00p6pppp34,;&;",
">-666wwpwp6epp7pe0eqqqre7q2%OO      O->5699w993>&OX      O%;8wweewwe72-%O      O%-258e9eite4:XX     .O%>99699933000000tttt43,>>>",
">>336pq9w7epppqpup0wq8eew8<%O       O*279669r772-OO      O%28ewwuww7e2*+O      O%;278errit84:X X   ..@&>9949p333990000tttt4343>&",
">3397eppw9ppppywfu8w77ey537%O       O%,999999742-#X      O%;70eeww8765;%O       %;87eritai05%OX    ..@&>699p0939449000rppt0,>,,3",
">>>,qypepwqe9pre7uywqw7ee6,%O      O@*279667796>*@X      O%168werq77e6*+X      O+;6r7rtaaf0,%OX    ..@>,6996p639994000rapp0,&>>,",
"->;16wep0uuutwwr0yew7e8ee65*O       O->97877w76;%@o     XO%1677eeeq774;+O      O%;80e0tiir0,%O      .@&,949p4034999990taat0,>,,,",
"1->16www07eyww7wyw75778ee66%OX     OO*17eru70e6<=Oo      O%;27w77q7874*%O     XO%:7eerteu7w2*#X     .@&,9pp4pp4494r000rapar,&&>3",
">->67wpy6wwerww7qw52eyqiw2<=O .     O&26rte86e72%$      OO%;269q7w7765;% X    XO%,70ee0ee704;+O     O@&>3p9900009400r00tpp09>&>>",
">11169epyeeeyrwwwyw56yye74;*$X     o%-2270r06472-OX      O%;37e7eee774-%O      O%280er0utr02%+O     O@;>34p9pp000940r00tr004&>>,",
"5224eeeiiwwqfirwsye7y0qq762*Oo     X#-27680r7773*$X     oO%:58qe8ee675&%oo     O%20rtirttt8,;OOX    O#%24909pp040969004rrt33>&>,",
"52558yauiryeeiuuwe88ww70e02-Oo    XO%%>36er7r642*+Xo    oo=:37w007ee72;@o     XO%,00t00att04-OO    OOO&,39999400r0969r00tr3,>>>,",
"8858wsuiiipiqsuruuwe4wwye54-OX     O+%257eir8872*$OX    oO%2278e796775-+Xo     O%,470088it04*#XX    O#;,4939p494999940rpp04>,,&,",
"2257esiiiaplfyiieyw7qqwu862*#XX    O%-2960ite772*#X     oO%<747qe77906;%Oo    XO%,40rt0rtt04*#      O#*23999pp0p99909rrrpp9>>>&>",
"2288ewyjiurpailjfu887ri76e;%OO     O%*24767ti0e3;#OX    oO=247q7ew8q73;%O   o oO%470itr00t88*#X    XX%*73994pw9999rrrrrrpp9,>&&&",
"2258qwyeeyrffuurerey7iieq82=%O     O%;56e979tr44;%O     o+;,788w7er777:*OXo .oXO*,7rrr008t04*#O     XO*4369p9rr9990rr0rrpr4,>>>&",
":<28yeywqeqrfie8iatgrqiaey6;%Oo O oO%2307w740074,%OO   XO+;5ww78eee9862*@o o oX#*27000r88807,&OX O OO%;239p969r969090rrr0r4,,,,&",
"2:18yyyyqwy7riy7tfiiy78ti762%OOO  O+*;27rw9977772%#O X XO%;588qq77eee85*@OO oXO#*24r4r08847,,*@.o XOO&;5690099999rr90r000rr,>>>&",
"<<<qfeyeeqewqwkuereuw9wp9e61>%OoOOO%-2537e07q7672*++OX O$%<547w08w7r874*%OXXXO+%:48qqe080e03:*%OOoOO#*;700rr0rw9wre700rrre8,-;;*",
"22<26uey7eewqwwfuyee7ywwpw95>&#OOOO%-6664777676e6,*$OOOO$;,747w8ewq88733*%+OO$%=5457eqe0ree86;*+%O+#%-,480400rirrrte800ree72;;;;",
"2<227iyy8rerywwweq6ewwep09w32;&@#%%&;24567q77qq673;%%+%%*-,7we87wr876756;=%%%%**:54ee8err00r82;*%%%%*,4484,8090e0rtte88tr80,>>>*",
"<<<57rrryeqwyiuyqr76qwqwee93>;&%%%-;25676eq667q7042-%%%%*<47yrr808ey77723;%=%*;,,48e8q0ree0rr6::%%-;;240t0t899eeetttrr80ee0:;**,",
"15157yuy77ywwufewewwwwq6w67661;%&-2256777ew66677776;--;;:5488e0ry0iue74572***:2757qe87w0trte002,,>>,240r0a0a888ertttt888rr02,*;,",
"52615qye877wuuupueiwqeqq6q66652>>;4477r7wqe7q7q77775<;25447qee8er88tq7743733222488ww00wuteeer78472,,4708t80treeetrira08rtr44***,",
";226776e8y0rufpireqwudwyuwq76661157748rr00r7q6q7676323257w8w8e08ew787877658344464e0q80ttrtter0re000080r0aaatttrihiitrt8rtt7,:;**",
"2;<27eyqwrieajfiryeyyddddyyww6766540000errre77qe40663447778ee7tyw8yw877634688w67800008rr08ttrrrr0ttprptaaaaaaaanxxaxa00tat42;*;;",
"2<;27quyerhpffuewqw9wuiyssyrw7w67679eer60irt8ee87776778e777ww0wrw8ee687667597077qee0e80eew7wreirttriaaaaaaatpggxanxnaa0tat0,,**,",
"<2<28qyyyyuhfie871197weesiuue977967w999970rr7r0e7767778e8e074yw7r6ee767q6566w777e8qe88q4767777wrtttaaaaaa0440ettataaaappit08,>,,",
"2;<<2wyydewry85:;;;>57weiydrw7q7979997797erueer8rwq70ye79qe7wwq787w87777q66qqqeeee80w0747767w7ww0taaaaar844,5:<,88t00aa8at8,,:,,",
":<<24wyihuw742::;===;157uyprw7w7e79ee09ew700eirytw7wwyrqe77rw6q6774u97q6q666677eeq0r0qqqwewq7wwurtaaaat04,:***-;:,,,400pat4,,**,",
"22:77euyue62:22252;%=-20rusdywww779trwrw76ere8rr7ewqere87eyew7776767r76756qeq7qweeir0yr0e07767r78rtair084,*#**:2,:*,,0rtaa84,:*:",
"5;224eyywe32,6ye7221*%-2wyfiuwq9667709eriwerrwueee79weeeewwwr77767657rwqqq670q7488e08reee77wqe788rrri08,:**,,087844,,48rat84,,:,",
"2,267uuq572375smjr662*-;5wdfeew977ewei0turyuiyiiwqwwee78r87ee877677660r7q6778r0q47e08tt0ewe7er8r0eiut08,*%,,8fkglp74,80ta0t,,,::",
":,22ewr42126ai8MZmjr7:--5rsdrewwewrieerfduuyruufew7eeuy8eee7eee8ew0777r0q577500yw78ereeqq8eeerrruasjrt7***,,rmVZMw888,88ta04,,:*",
";;214ww4:;:8pvyeCSBmy5::5ysjiyy78ueiafryaaityr0iywwqiat070r48eeee0777qwrtewq76wwuq7ew67weeeq08rahtiaay5;%:25lVFBuily424eye82::::",
";;114ew5<;:5yNBiuZSv8:==5eipi8888uisieyerutrqrey8ww4etuaq0qeqeuee09e7qrwee8ruyw7e8w7779eueee0teajsjsyq5<=25yBDM8lNxy7488aa52::::",
";;;157w2<<:5pBDViaZM85:=2ispy8qyeyiaur88eyrueeyi7qeq88eeqqq7e0er0ee7w77e8w47erwwweq66wwettttttaaaisff87:;28vVv8vACv85288ie8:5:=:",
"<=;15ww4=;:4fmZFViavy5;:8ijpyq85eeeiy8qqiq080w7y7yer788reuwq8qqw77977e60ee777ee6eqq66wwutr8r0ttttjissy82::8lyqvADNf7224eit8::::=",
";<1156qq:=<<qicNVme8y::4ixlpy5q8qq0ire0470e7ew8eerreeq8eiit8eq877670776q0it077eee6w767ei8t80et0ttaflyiy85:858vBABl855:28ite4::::",
"<;1156y7<<=;27yflja42::8ahfayeq8y00yq0r88we80ree7erieuqqreeeeq77767097767tutyeeeq7qewq8rt8tittrrtiiijfit7558fjfvly825544et42::=:",
"<=116q5521<=,25q7885::5yalsiseq8eqq8eqi8wwwwrryeqeriee878erte48e7q697rr5777trre7w7yqrqee8rrit008teisfhiiy8578e88e7:::88ita4:;;-;",
";<116667q5::;<222555555ypaiyeywq0qqeryit4w7qerirwe00y7eew8raeeqer77676erew70rrewq8w77eee0rrt088t8atiflviy5824555:::5:48iaa822;::",
"1<;116wy6722<;125425576wiyyyete8yqee8r8e7q6erei077q8wq4weerri8eqere6776yreq66rr0rqw7e8e7titee8eetettejhtae45822,,::44880te8::*::",
";;<11qwwq6555<2227787ewe8eeetau800qee0eee65qiiiuwqeq7888r0qr8eq847e77qqweyue7qqruer70re7iie8ete88tettjjifae48547844840attr84:*,*",
"<=1;16wyuqqe6q657r8ryyieye88riiiuy0yierre6qyayuaiyue0ewyieyuureeyy6wtrqq6etiwweyeer0rureaatiatiit8ytyftpugiw8e48tet00ttta4,4,,,,",
";%;;16qqeeereqewq0qyffaseeeyu8ey8qyyurueuqqiauyifuyuuerysiyiifriuy77yrywyw6wewwererr8euitettte0iiyhiss8tyujy0ft8taaatirat88,***:",
"%=%;111qqy76575q7770ee845eew78q74wq47780r0ereyeq7w00r7wr8urri78ir864wwe7qq6756qe77e78e8y888t0e0e8eyeyq88yyuwrre3ahitet8804:4:***",
"=%%;1111555252,222274822q5252444575523378655445775478844545884267235444542432<552565488w42552545558258q56544533228000788,2:**:*#",
"%%=;;11w22<2<,<-:222855255:22:::2,,2222240222554422228u43,522423325425242233524<222:2322:52,2512;55875:2q257,5328888e22,5,,:*%%%",
"%%%%%111<21<222<<,,544582552122:2,2525222,484245423,:5434222452486522,7522272365225225,2,5,25252::75255522247484:,0,83425,,,:*#%"
};
