/* XPM */
static char *tile2521695480740[] = {
/* columns rows colors chars-per-pixel */
"128 128 28 1 ",
"  c gray9",
". c #181818",
"X c gray10",
"o c #1B1B1B",
"O c gray11",
"+ c #1E1E1E",
"@ c gray12",
"# c #202020",
"$ c #222222",
"% c gray14",
"& c gray15",
"* c #272727",
"= c #282828",
"- c #2A2A2A",
"; c gray17",
": c #2C2C2C",
"> c gray18",
", c gray19",
"< c #313131",
"1 c gray20",
"2 c #343434",
"3 c gray21",
"4 c gray22",
"5 c #393939",
"6 c #3A3A3A",
"7 c gray23",
"8 c gray24",
"9 c #3F3F3F",
/* pixels */
"OO#*:,2,22226268888666668886,:##o   oO#*#*#####OOOooooooOoooooooooooooooooooooooO####**####Oo  oO#=,68886662688886622,2,22,:=##O",
"OO#*:,22,2,226688866666688822=*Oo  oO##*###*####OOOOooooOOoOooOOooooOOoOooOOoOOO###**####*OOo  oO*:268886666668886622222,2,:=#OO",
"###*:,2,22226288886626688886,:*Oo  oO####**##*#O#OOO#OO#OOO#O##O#OO#O##OO##OO#O###*##*#####Oo  oO*=2688886666688866222222,,:=##O",
"O##=:,22,22226668886666888862:=Oo oo##*#*#****=*****=*******###***#**#**=****#**#****#****##o  o#*:,688886666888666222,222,:=#O#",
"O##=:,22222226688866666888862:=#oo oO#*##*******======::=====*==**======:=======******#*#**OOooo#=:26888866266888626,22,22,:=#OO",
"#O#=:,,2,2,262668886626888882:=#oo O#*#*#******===:=:::::::========:=:::::::=:===******##*##o oo#=:268888666668866622222,2,:=###",
"O##=:,22222226668866666888862:=#Oooo###=*******==::::::::::====:=:==::::::::::=:==********##oooo#=:288888666688866262,2,22,:=##O",
"O##=:,,2,22,62688866666688882:=#o  OO*#*******==:=::::::::::====:=:::::::,:::::====******###o  o#=:268888626668886622222,2,:=##O",
"###=:,2,2,2226668886666888862:*#oo oO#******======:::::::::==:=::==:=::::::::=======*****#*Oo oO#*:28888866666886662222222,:=##O",
"O##*:222222262666866266889882:=Oo  o###*****=====:::::,::::::====:=:::::::::::=:====******##o  o#*:2688886626688882622,2,22:=##O",
"O##*:,22222226688866666889862:=#Oo o#*#****=====:=::::,::::==:=::==::::::,:::::======****#*Oo  o#*:26898866668886662222,2,,:=##O",
"#O#*:,,2,2,262668866666888882:*#O  o##*****======:=::::::::::====::=::::,:::::=:=====*****#Oo oOO*:288888666668866262,2222,:*###",
"O##*:,2,22,226668886266888862:*Oo  o###*****====:==:::,:::::===::=::::::::::::=======*****#Oo  o#=:268888666668886622,2,22,:*#O#",
"O##*:,22,22226688866666888862:=#oo o##*****======::::::::::=:====:=:::::::::::=:=====****###o  oO=:26888866266886662222222,:*##O",
"###*:,2,2,2222668866266888862:=Oo oOO******=====:=::::::::::===::==::::::::::::======***=#*Oo  o#*:268988666668866622222,2,:=##O",
"O##=:,22222266688886666889882:*#o  OO##***=======:::::,::::=:====:=::::::,::::=:======****##o oo#*:268988626688886622,2,22,:=#O#",
"O##*:,2222222266886626688886,:*Oo  oO*******====:=::::,:::::===::=::=::::,::::=:======****#OOo oO*:2688886626688666222222,,:=##O",
"#O#=:,2,2,2266688866666889882:*#o  oO##****=======:::::::::=:====:=::::::::::=:=======***###o ooO*:2889886666888666222,222,:=###",
"O##=:,22,22226668886666889862:*Oo  o#*#***======:=::::::::::===::=:::::::,::::=:======****##o  o#*:,68988666668886622,2,22,:=#O#",
"O##=:,2,22,22666886626688988,=*#oo o##****=======:::::,::::=:====:=::::::::::::=======****##o  oO*:268888662688866622222,2,:=##O",
"###=:,22,2,226688866666888862:*Oo  o###***======:=:::::::::=:==::==:=::::,:::::=======***#*#o  o#*=26888866666886662222222,:*#O#",
"O##=:,22222226668866266888862:*#o  o##****=======:::::::::::=====:=:::::::::::=:======***##Oo  oO*:,88888626668886622,,222,:*##O",
"O##*:,22222226668866666888882:*Oo  o###=**=======:::::,::::=:===:==::::::,::::========****##o  oO*:268886666688866622222,2,:*##O",
"#O#*:,2,2,222668888666668988,:*Ooo OO*#***========:=:::::=:==========:=:::::===*======**=#*Oo oo#*:2889886666688662622,222,:*###",
"O##*:,2,,2222666886666688888,:*Ooo oO#****===***=====*==**===*=*=***===*====******====****##o  o#*:,88888666668866622222,2,:=#OO",
"O##=:,22222226668866266888862:*#o  o###***===*****#****=**#######*####*************===***#*Oo  o##:288888626668886622,2,22,:=###",
"#O#=:,2,,2,22668886666688886,:##o  o#*#***===**#####*##*###O############*########=*===****#Oo ooO#:268888666668866622222,2,:=#O#",
"O##=:,22222226668866666889882:*Oo  o##****=****#O###O##O#####OO#OO######O###O#####**==****##o  o#*:28888866668886662222,22,:*##O",
"O##*:,22,22222668886666888882:*Ooo o###***==**###OO####O#O###OO#O##O#OO###O##OO###*******#*OO  o##:2688886626688866222,222,:*#O#",
"#O#*:,22222266688866626688862:*Oo  o##****==**#####OO######OO#OOO#O#############O***=***=###o  o#*:26888866666886662222222,:*##O",
"O##=:,,2,2,22666886666688886,:*Oo oOO*****===*###O###O*####O#OO##O#O######O##O##****==****##o ooO*:,88888666688866622222,2,:=#O#",
"O##=:,22222226668886666889882:*Oo  OO##****====*#*#*#*#*#*#*###O#*#*##*#***##*###=**=****###o  oO*:268988626668886622,2,22,:=##O",
"O##*:,222,2226688866666889882:*#o  o##****====**=**========**#******========**==**====****##o  oO*:,88888666688866262,2,22,:=##O",
"###*:,,2222262668886626888862:##oo oO*****=*======*=:=:::==*==*****====:::=:==========***#*#o ooO*:288888662668886622222,2,:=###",
"O##*:,2222222666888666688886,:*#o  o##*#****=====::=:::::::=====*=:::=:::::::==:======***###o  oO#:2888886626688662622222,,:=#O#",
"#O#*:,2,,2,262688866626889862:##o  o###*****====:=::::,::::::===:==::::::,:::::=======****#Oo  o#*:2689886666888666222,222,:=##O",
"O##*:,2222222666886666688988,:##oo oO*****=======:::::,:::::===:=:=::::::,::::=:======***###o  o##:26898866666888626,22,22,:*#OO",
"O##*:,2,2,2226668866266888862:*#o  oO##***======:=:::::::::=:===:==:=::::::::=:======***#*##o ooO*:26888866268886662222222,:*###",
"###*:,22,22222688866666888862:*Oo  o#*#***=======:::::::::::===:=::::::::,::::=:====*******Oo  o#*:288888666668866262,2,,2,:=##O",
"O##*:,2222,26666888826688888,:*Oo  o##****======:=::::,::::=:===:=:=:::::::::::=====******##o  o##:,6888866268888662222222,:=##O",
"O##*:,2,,22222688886666888862:*#o  o###***=======::::::::::::====::::::::,::::=:======***#*#Oooo##:2689886666688666222,2,2,:=#OO",
"#O#*:,2222,266668866626888882:#Ooo o##****======:=::::,::::====::==:=::::::::::=======***##Oo  o#*:,6888862666888662222222,:*###",
"O##=:,22,2,222688866626888862:##o  o###=**=======:=::::::::=:====:==:::::,::::=:======****##o  o##:26888666668888662,2,2,2,:=##O",
"O##=:,,222226668886666688888,:*#o  OO*#***======:=::::::::::===::=:::::::::::=:=======***#*#o  o#*:28888866666888662222222,:=##O",
"###=:,2222222668888666688888,:*#o  o##*****======::::::::::=====:==:=::::,::::=:=====*****#Oo  oO*:,88888666668886262222,2,:=#O#",
"O##*:,22,2,226668866666889862:*Ooo o##********==:=::::,::::::==:=:=::::::::::::===*******###o  oO*:288988666668866622,2,22,:*##O",
"O##*:,22222226688866626888882:*Oo  o###********==:::::,::::=====:==::::::,:::==:=*********##o  o##:2689886626688862622,222,:*##O",
"#O#*:,,2,22,62688866666888862=*#o  o##******#**===:::::::::::==:=::=::::::::::===**#****=#*Oo  o#*:2688886666688666222222,,:*###",
"O##=:,22222226688866666889862:*Ooo oO#*****#*****=:::::::::=:===:=::::::::::::==**##******#Oo ooO*:2889886666888666222222,,:=###",
"O##=:,22,2,226688886626889882:*#oo o###******#**==::::::::::===:=:=:::::::::::===********###o oo#=:26898866266888662,2,222,:=##O",
"###=:,2,222226688866666889862:*#o  oO***********:=:::::::::=:===:==::::::,:::::==*******=#*Oo  o#*:26898866666888662222222,:=##O",
"O##=:,22,22262688866666888882:*Oo  o###***=*****=:::::,:::::===:=:=:=:::::::::=:**********##o  oO*:,889886666688866222,2,2,:=###",
"O##=:,22222226688866666888862:*#o  o##*****=====:=:::::::::=:===:=::=::::,::::=======****##OOo o#*=28888866666888626,22,,22:=*OO",
"#O*=:,22,2,262688866266888882=*#o  oO*#***========::::,:::::===:=:=:::::::::::=:=====******Oo oO#*:288988662688886622222222:=###",
"O##=:,2,222226668886266888862:*Ooo o###=***=====:=:::::::::=:===:=:::::::::::::======*****##o  OO*:268886666668886262,2,222:=##O",
"O##=:,22,22,62668866666888882:=Oo oOO#*****======::::::,::::===:=:=::::::,::::=:=====****###o  O#*:2888886666688866222222,2::*#O",
"###=:,22,2,226688886666888862:*#oo o##*********=::::::::::=:====:==::::::::::::=====*****#*Oo oO#*:288888666668866622222222:=*O#",
"O##*:,22222226668866666888882:*OOoooO*#********====:::::::==**========:=:::=:=:==*********##O ooO*:2688886666688882622,22,2::##O",
"O##*:,22222226668866266888862:*#oo o###*#*****==**=====***==***=**===**==*****=*==*****##*##oo o#*=26888866668886662222,22,:**#O",
"#O#*:,,22,2226688886666888862=*#o  o###***##***###*###**#*#####O##O*##*#***##*####***##**##Oo  o#*:268888626668866262,222,,:=#OO",
"O##=:,2,,2222666886666688886,:##o  oOO#####*##*O#OOO#OOOO#OOOOooOooOoOOO#OOOOO###*#**##*#*OOo  o##=268888666668886622,2,22,:*#Oo",
"O##=:,2222222666888662668886,:*#o  oO##**#*#*##OOOooOOooOOooooooooooooooOoOoOOOOO####*#####O   oO*:268886662668866622222,2,:*#Oo",
"#O#=:,2,,2,226688866666688822:*Oo   O#########OOooo ooooo o o     o  o  ooooo ooOOO*#*##*##O   o#*=22888666268886662222222,:=#OO",
"O##=:,22222226668866626888862=#O    OO*##*#*##OOooooooo ooooo  ooooooooooo oooooOO####*####Oo  OO#:,688886666688866222,2,2,:=#OO",
"OO#*:,2222222268888626688882,:##o  oOO*#####*##OoooOooooooooooooooooooooooooooooO####**####Oo  oO#=,688866666688866222,2,2,:=#OO",
"OO#*:,2,2,2266688866666688862=*Oo  oO####*#*####OOOOoooOoooOoooOooooOOoOooOOoOOO###**####*OOo  oO*:26888866666888662222222,:=#OO",
"###=:,22,22226688866666888862=*Oo  o##*#*##**##O###OO###O#O#O#O#O#OOO##OO##OO#O###*##*#####Oo  oO*=268888666668886622222,2,:=###",
"#O#=:,2,22,226668886266888862:=Oo oOO###***#****#*#**=******##*#*#***#**=****#**#****#****##o  o#*:,68888626668886622,2,22,:*##O",
"OO#=:,22,2,226688866666888882:=#oo o##**##******=====:=:*=======*=======:=======******#*#**OOooo#=:268888662688866622,2222,:*#O#",
"###=:,22222226668886666689882,=#oo oO*#********====:::::=::==========:::::::=:===******##*##o oo#=:26888866666886662222,,2,:=##O",
"O#**:,22222226668866266888862:=#oo o##******=====::::::::::======:=:::::::::::=:==********##oooo#=:2888886666688866622,222,:**#O",
"O##*:,2,2,2226688866666888862:*#oo o####****====:=:::::::::::==::=:::::::,:::::====******###o  o#=:268886666668866222222,2,:*###",
"###=:,2222,262688866666688862:*OOo oO#*******====::::::::::=:====:=::::::::::=:=====*****#*Oo oo#*=268888666668866622222222:=*OO",
"O#*=,2,22,2226668866666888882:*#O  o##******====:=::::,:::::===::=::=::::,::::=:====******##o  o#*:2888886266888866222,2,22:=###",
"O##=:222222262888886666888882:*#o  oO##=****=====::::::::::=:====:=::::::,:::::=====*******Oo  oO*:26888866666888662222,2,2:**O#",
"###=:2,22,2226688866266888862:##oo o#*#*****====:==:::,:::::===::==:::::::::::=:====*****##Oo oo#=:288888666668886622222222:=##O",
"O##=:,2222,226688866626888862:=Oo  o##*****======::::::::::=:====:=::::::,:::=:=====******##o  o#*:288888666668866622,2,22,:=##O",
"###=:,222,2262668866666889882=*#oo o###*****====:=::::,:::::===::==:::::::::::=:====*****#*Oo  oO*:,6898866266886662222222,:=###",
"O##=:,2,22222666886666688886,:*Oo  oO*****=======:=::::::::=:====:::=::::::::::=====******#Oo ooO*=288888666668886622222,2,:=#O#",
"O##=:,222,2,62688866666889882:*#o  O###****=====:=::::,:::::===::=:=:::::,::::=:===*******##o  o#*:268888626688866622,2,22,:=##O",
"###=:,2,22,26286888666688988,:*Oo  o##*****=====:=::::::::::=====::::::::,::::=:======***###O  o##:288988666668866262,2,222:=#O#",
"O##*:,22,22226688866626888862:*Ooo oO*#=***======:::::,::::=:==::==:=::::::::::=======*****Oo  oO*:268988626688886622222,2,:=##O",
"O##*:,222,2262668866666889882:*#o  o###****=====:=::::::::::=====:==:::::,::::=:=====****###o oo#*:2889886266688662622222,,:*##O",
"#O#*:,2,222226668866666688862:#Oo  oO#*****=======::::,::::=:==::=:::::::,:::=:======*****##o  o##:,689886666888666222,222,:*###",
"O##*:,2222222668886626688986,:##oo oO#*****=====:=:::::::::=:====:=:::::::::::=:=====****###o  o##:26888866666888626,22,22,:*#O#",
"O##*:,2,,2,262668886666889882:*#o  o###****======:::::,:::::===::=::=::::,:::::======*****##o  o#*:,8898866666886662222222,:*##O",
"###=:,22222226668886666889862:*#o oo#*#****=====:=::::,::::=:====:=::::::::::==:=====****#*Ooo oO*:268886626688866262,2,,2,:*##O",
"O##=:,22,22,62688866266889882:##o  o##****========:::::,::::===::==:::::,::::::=======****#Oo ooO*:28898866666888662222222,:*###",
"O##=:,2,22,262868866666888862:*#o  o###***=======:::::::::::===:=:=:=:::::::::=:======****##o  o#*:2888886666688866622,2,2,:=##O",
"#O#=:,22,22226688866266888882:#Ooo o##****======:=::::,::::=:===:==::::::,:::=:=======***#*Oo  o##:26888862666886622222222,:=##O",
"O##=:,222,2262668866666888862:##o  o###=**=======:=:::::::::===:=:::::::::::::=:======****#Oo oo##:,68888666668886622,,2,2,:=##O",
"O##=:,,222222666888666668888,:*#o  OO*#***======:=:::::::::=:===:=:=:::::,:::::=======****##o  o#*:28888866268886662222222,:*###",
"###=:,2222222668888666688888,:*#o  o##****=======::::::::::=:==:=:=:::::::::::=:======***#*OO  oO*:,68888666668866262222,2,:*#O#",
"O##=:,22,2,262668866266889862:*Ooo oO#*****=====:=::::,:::::====:=:=:::::,:::::======***=###o  o#=:288888666668886622,2,22,:*##O",
"O##*:,22222226666866666888882:*#o  oO*#****======::::::::::=======::=:::::::::=:=====*****##o ooO*:2889886666888662622,222,:*##O",
"#O#*:,,2,22,62688866666888862:#Oo  o##****=======:==:::::::===*======:=:::::=:========***###o  oO*:,688886266688666222222,,:*###",
"O##*:,222,222668886626688886,:*#o  oO#********=======*==***=**#**=*=**=====***========****##o  oO=:288888662688866262,2,222:=#OO",
"O##*:,2,222226668866666888882:*Ooo oO*#****=*******=***=**####*#######*********=**===****#*#o  oO*:268888666668886622222,2,:=###",
"###*:,222,222666888626688886,:*Oo  o##****==****##*##*##*O####O##########**####****===***##Oo oo#*=,688886626688662622222,,:=##O",
"O##=:,2,22,262688866666888882:*Oo  oO*#***==*****OO#O###O##OO##O#OO##O###OO######***==*****Oo  oO*:2888886666888666222,222,:=##O",
"O##*:,222,2262668866666888862:*Ooo o###********######O###O###OO#O#O#O#########O##********###o  o##:26888866668888626,22,,2,:=#O#",
"#O#*:,22222226668866266888862:*Oo  o##****=****#*#O########OO#OO#OO##O#O#OO##O#**#******#*##o  oO*:26888866266886662222222,:*##O",
"O##*:,2,2,2226688866666888882:*Oo oO###***=****############O#####O######*#*O#####**********Oo  o#*:288888662668866262,2,22,:=#O#",
"#O#=:,2222,22666888626688888,:=Oo  O##*=**===****=##***=*##*###O##*###*#*=#*#*=*=**=******##o ooO*:,688886666688866222222,,:=##O",
"O##*:,22222226668866626888862:*Oo  oO##=**===*=*===*=======*****=*==*========*====*===****#OOo o#*=2688886666688866622,222,:=##O",
"###*:,22,2,22668888666688886,:*#oo oO*#***==========::::=:=*==**====*==:::::==:=======**=###o  oO*:,888886626888662222222,,:=###",
"O##*:,,22,2226668866666889862:##o  o##****======:=::::,::::=:==:=:==:::::::::=:=======***#*Oo  o##:268988666668886622,,222,:=#O#",
"#O#*:,22222226668886626889882=*#o  o##*****======:=:::::::::====:=::=::::,::::=:=====*****##o oo#*:2889886266688666222222,,:=##O",
"O##*:,,22,222668886666688886,:*Ooo o###***======:==:::::::::===::=:=:::::::::::=======***###o  oO*:,88888666668866262222,2,:*#O#",
"O##*:,22222226668866626888862:*#o  o##****=======:::::,::::=:====:=::::::,::::=:======*****Oo ooO*:268888662668886622,2,22,:*##O",
"###*:,22222226668886666888882:##o oO###***======:=::::,:::::===::=:::::::::::::=======***###o  oO#:2888886666888662622,222,:*##O",
"O##=:,2,,2,26268886666688888,=*#o  O##****=======::::::::::=:====:=:=:::::::::========**=*#Oo  o#*:2688886666688666222222,,:*###",
"O##*:,2222222266886666688886,:*Ooo oO#******====:=::::,:::::===::=::=::::,::::=:======****##o  oO*:,888866666888866222,2,2,:=##O",
"#O#=:,2,2,2266688886626688882:*#o  o###*******====:::::::::=:====::=:::::::::::===**==***#*Oo ooO*:26888866266886662222222,:=##O",
"O##=:,22,2222666886666688886,:*Oo  o#*#***==**==:=::::::::::===::==::::::::::==:==**==****#Oo  o#*:268888666668866622222,2,:=##O",
"#O#=:,2,22,226668866666888882:*Oo  o##****=======:::::,::::=:====:=::::::,:::::=======****##o  oO*:,88888666668886622,2,22,:=#O#",
"O##*:,22,2,226688886666888882:*Ooo o###***======:=::::,::::=:==::==:::::::::::=:======***#*OO oo#*=288888666668866622,2222,:=#O#",
"###*:,22222226668866626888862:*Oo  o##****=======:::::::::::=====:=::::::,:::::======***=###o  oO*:,6888862668886662222,22,:*##O",
"O##*:,2222222666888666688886,:*Oo  o###=***=====:=::::,::::=:==::=:::::::,:::==:=====*****##o ooO*:2688886666688866622,2,2,:*##O",
"#O#*:,2,2,2226688866266888882:*#oo OO*#****=======::::::::::=====:=:=:::,::::::======****###o  o#*:28888866266886622222222,:*###",
"O##*:,2,222262668886266888862:*Ooo oO*******====:=::::::::::====:==:::::::::::======*****#*Oo oo#*:288988666668866622222,2,:=#O#",
"O##*:,22,2,226668866666888862:*#oo oO#*#*******==:=::::::=============:=::::=::==*********##O ooO*:2688886666688882622,222,:*##O",
"###=:,2,222262888866666888882:*Ooo o#*#*##******=**==*==*=**=**=**===**=====**====*****##*##oo o#*:28888866668886662222,,2,:*##O",
"O##=:,22,2222666888626688886,:*#o  oO#*#***#***##*###*#**#####O###O*##*#*#*##*####***##**##Oo  oO=:,68888626668866262,2222,:*###",
"O##=:,22222226688866266888862=*Oo  oO#*##*#*#####OOO#O#OOOOOOoooOooOoOOO#OOOOO###*#**##*#*OOo  o##:268888666668886622,2,22,:*#O#",
"#O#=:,2,,2,262668886666888822:*#o   OO######*###OoOoOoOOooOOooooooooooooOoOoOOOOO####*#####O   oO*:,28886662668866622222,2,:*##O",
"O##=:,22222226668866266688862=#Oo   O##*##*###Oooo o oooo ooo     o  o  ooooo ooOOO*#*##*##Oo  oO*:26888666268886662222222,:=#O#",
"#O#=:,2,,22,62688866666888862:##o  oO###**####Oooooooooooo oo  ooooooooooo oooooOO####*####O   o##=,688886666688866222,2,2,:=##O"
};
