/* XPM */
static char *tile10071695480481[] = {
/* columns rows colors chars-per-pixel */
"128 128 69 1 ",
"  c #1F1818",
". c #231818",
"X c #271818",
"o c #231F18",
"O c #231F1F",
"+ c #271F1F",
"@ c #27231F",
"# c #271F23",
"$ c #271F27",
"% c #272323",
"& c #2A2323",
"* c #2A2723",
"= c #2A2327",
"- c #2A2727",
"; c #2D2727",
": c #2F2727",
"> c #2F2A27",
", c #2A232A",
"< c #2A272A",
"1 c #2D272A",
"2 c #2F272A",
"3 c #2A232D",
"4 c #2D232D",
"5 c #2A272D",
"6 c #2D272D",
"7 c #2F272D",
"8 c #2F272F",
"9 c #2D2A2A",
"0 c #2F2A2A",
"q c #2F2A2D",
"w c #2F2A2F",
"e c #2F2D2D",
"r c #312A2D",
"t c #312A2F",
"y c #312D2D",
"u c #332D2D",
"i c #312F2D",
"p c #332F2D",
"a c #312D2F",
"s c #332D2F",
"d c #312F2F",
"f c #332F2F",
"g c #352F2F",
"h c #31312F",
"j c #33312F",
"k c #35312F",
"l c #332F31",
"z c #352F31",
"x c #313131",
"c c #333131",
"v c #353131",
"b c #353333",
"n c #373333",
"m c #373535",
"M c #393737",
"N c #393937",
"B c #3A3939",
"V c #3C3A39",
"C c #3C3A3A",
"Z c #3D3A3A",
"A c #3C3C3A",
"S c #3D3C3A",
"D c #3D3C3C",
"F c #3E3E3D",
"G c #3E3E3E",
"H c #403E3E",
"J c #3E403E",
"K c #40403E",
"L c gray25",
/* pixels */
"NGKHKKKLLLLLLLLLLLLLLLLLLLLLLLLLLLLLLLLLLLKKKKKHGGGGGGGGGGGGGGGCNGGHKKKLLLLLLLLLLLLLLLLLLLLLLLLLLLLLLLLLLLKKKKKHGGGGGGGGGGGGGGGN",
"eMGKHKKKLLLLLLLLLLLLLLLLLLLLLLLLLLLLLLLLLLKKKKHHGGGGGGGGGGGAAGNfeMGKHKKKLLLLLLLLLLLLLLLLLLLLLLLLLLLLLLLLLLKKKKHHGGGGGGGGGGGGAKCj",
" ;MGKKKKLLLLLLLLLLLLLLLLLLLLLLLLLLLLLLLLLKKKKKHHGGGGGGGGGGGGKCeO ;MGKKKKLLLLLLLLLLLLLLLLLLLLLLLLLLLLLLLLLKKKKKHHGGGGGGGGGGGGGMeO",
"O.;MGKJKKLLLLLLLLLLLLLLLLLLLLLLLLLLLLLLLKKKKKHHGGGGGGGGGGGGGCeO@O.;MGKJKKLLLLLLLLLLLLLLLLLLLLLLLLLLLLLLLKKKKKHHGGGGGGGGGGGGANfO@",
"OO.;MGLKKKLLLLLLLLLLLLLLLLLLLLLLLLLLLLLLKKKKHHHGGGGGGGGGGGANfO@@OO.;MGKKKKLLLLLLLLLLLLLLLLLLLLLLLLLLLLLLKKKKHHHGGGGGGGGGGGGNf+@@",
"OOO.;MGLKLLLLLLLLLLLLLLLLLLLLLLLLLLLLLLKLLKKHKKHGGGGGGGGGGCfO@@@OOO.;MGKKLLKLLLLLKLLLLLKLLLLLLLLLLLLLLLLLKKKHKKHGGGGGGGGGACeO@@@",
"OOOO.-mCCCCCCCCCCCAAAAAAAAAAAAAAAAAAAACCCCCCCCCCCCCCCCCCCNr@@@@@OOOO.-mCCCCCCCCCCCAAAAAAAAAAAAAAAAAAAAACCCCCCCCCCCCCCCCCCNr@@@@@",
"OOOOOO0ffffffffffjjjjjjcccccccccvvvvvvvvvvvvvvvvvvvvkvvvks*@@@@@OOOOOO0fflffffflfjjjjcjcccccccccvvvvvvvvvvvvvvvvvvvvvvvvvf*@@@@@",
"OOOOOO0ffffffffffffjjjjjccccccccccvvvvvvvvvvvvvvvvvvvvvvvf*@@@@@OOOOOO0ffffffffffffjjjjjccccccccccvvvvvvvvvvvvvvvvvvvvvvvf*@@@@@",
"OOOOOO0fffffffffffffjjjjjjcccccccccvvvvvvvvvvvvvvvvvvvvvvj*@@@@@OOOOOO0fffffffffffffjjjjjjcccccccccvvvvvvvvvvvvvvvvvvvvvvf*@@@@@",
"OOOOOO0fffffffffffffffjjjjjjccccccccvvvvvvvvvvvvvvvvvvvvvf*@@@@@OOOOOO0fffffffffffffffjjjjjjccccccccvvvvvvvvvvvvvvvvvvvvvf*@@@@@",
"OOOOOO0fffffffffffffffffjjjjjjjcccccccvvvvvvvvvvvvvvvvvvvf*@@@@@OOOOOO0fffffffffffffffffjjjjjjjcccccccvvvvvvvvvvvvvvvvvvvf*@@@@@",
"OOOOOO0ffffffffffffffffffjjjjjjjjcccccccvvvvvvvvvvvvvvvvvf*@@@@@OOOOOO0ffffffffffffffffffjjjjjjjccccccccvvvvvvvvvvvvvvvvvf*@@@@@",
"OOOOOO0ffffffffffffffffffffjjjjjjjjccccccvvvvvvvvvvvvvvvvf*@@@@@OOOOOO0ffffffffffffffffffffjjjjjjjjccccccvvvvvvvvvvvvvvvvf*@@@@@",
"OOOOOO0fffffffffffffffffffffjjjjjjjjjcccccvvvvvvvvvvvvvvvf*@@@@@OOOOOO0fffffffffffffffffffffjjjkjjjjjcccccvvvvvvvvvvvvvvvf*@@@@@",
"OOOOOO0fffffffffffffffffffffffffffffffflllllllllcvvvvvvvvf*@@@@@OOOOOO0fffffffffffffffffffffffjsffffffffllllllllcvvvvvvvvf*@@@@@",
"OOOOOO0fffffffffq6666666666677777777776777886886fvvvvvvvvf*@@@@@OOOOOO0fffffffffq66666666666776777767776788686t1fvvvvvvvvf*@@@@@",
"OOOOOO0fffffffff0,4361666666666661666661666661,.rvvvvvvvvf*@@@@@OOOOOO0fffffffff0,4366666166666166616661666<66,.rkvvvvvvvf*@@@@@",
"OOOOOO0fffffffff<-fqttttttttttttttttttttttltft+.ykvvvvvvvf*@@@@@OOOOOO0fffffffff0-ftttttttttttttttttttttl7tflt+.fvvvvvvvvf*@@@@@",
"OOOOOO0fffffffff0-ftrrryf0fqyyyfyyyyfyyyyytff2+Ofvvvvvvvvf*@@@@@OOOOOO0fffffffff<-ettt0fyyyyftyyyfyytfyyftfft1+Ofvvvvvvvvf*@@@@@",
"..OOOO0fffffffff0-etrrryyyyyyyyyyyyyyyyyyyyyy1+Ofkvvvvvvvf*@@@@@..OOOO0fffffffff0-frrrryyyyyyyyyyyyyyyyyryyyu2+Ofjkvvvvvvf*@@@@@",
"...OOO0fffffffffq-frrrryyyyyyyyyyyyyyyyyyyyyu2++fkkkkvvvvf*@@@@@...OOO0fffffffffq;qrrrryyyyyyyyyyyyyyyyyyyyyu2++fkkkkvvvvf*@@@@@",
".....O>fffffffffq;ftrrryyyyyyyyyyyyyyyyyyyyyu;++fkkkkkvvvf*@@@@@.....O>fffffffffq;qtrrryyyyyyyyyyyyyyyyyyyyyu:++fkkkkkvvvf*@@@@@",
".....O>fffffffffq;ttrrryyyyyyyyyyyyyyyyyyyyyur++fkkkkkkkvf*@@@@@.....O>fffffffffq;frrrryyyyyyyyyyyyyyyyyyyyyyr++fkkkkkkkvf*@@@@@",
".....O>fffffffffq;frrrryyyyyyyyyyyyyyyyyyyyys2++fjjkkkkkvf*@@@@@.....O:jffffffffq;fqrrryyyyyyyyyyyyyyyyyyyyyy2++fjjkkkkkvf*@@@@@",
".....O>fffffffffq1qrrrryyyyyyyyyyyyyyyyyyyyyu2++fkjjkkkkvf*@@@@@.....O>kffffffffq1ftrrryyyyyyyyyyyyyyyyyyyyyu2++fkjjkkkkvf*@@@@@",
".....O>fffffffffq1trrrryyyyyyyyyyyyyyyyyyyyyu2++fkjjkkkkvf*@@@@@.....O>fffffffff01qtrrryyyyyyyyyyyyyyyyyyyyyu2++fkjjkkkkvf*@@@@@",
".....O;fffffffffq1frrrryyyyyyyyyyyyyyyyyyyyys2++fkjjjkkkvf*@@@@@.....O;kffffffffq<frrrryyyyyyyyyyyyyyyyyyyyys2++fkjjjkkkvf*@@@@@",
".....O:sffffffffq1fqrrryyyyyyyyyyyyyyyyyyyyys2++fkjjjkkkvf*@@@@@.....O:sffffffffq1qtrrryyyyyyyyyyyyyyyyyyyyys2++fkjjjkkkvf*@@@@@",
".....O:sffffffffq1ftrrryyyyyyyyyyyyyyyyyyyyys2++fvjjjjkkvf*@@@@@.....O;fffffffffq1frrrryyyyyyyyyyyyyyyyyyyyys2++fvjjjjkkvf*@@@@@",
".....O:kffffffff01qtrrryyyyyyyyyyyyyyyyyyyyys2+Ofvjjjjjkvf*@@@@@.....O;kffffffffq1trrrryyyyyyyyyyyyyyyyyyyyrs2++fvjjjjjkvf*@@@@@",
".....O;fffffffffq<frrrryyyyyyyyyyyyyyyyyyyyys2+#fkffjjjjvf*@@@@@.....O:sffffffffq1ftrrryyyyyyyyyyyyyyyyyyyyfs2O#fkffjjjjvf*@@@@@",
".....O:kffffffffq1ftrrryyyyyyyyyyyyyyyyyyyyyf2+#fsjffjjjkf*@@@@@.....O;fffffffffq1frrrryyyyyyyyyyyyyyyyyyyyys2+#skksfjjjvf*@@@@@",
".....O:sffffffffq1etrrryyyyyyyyyyyyyyyyyyyyyt1O&fkfffffjvf*@@@@@.....O:kffffffffq1qrrrryyyyyyyyyyyyyyyyyyyyys2O%skfkfffjvf*@@@@@",
".....O;fffffffffq1frrrryyyyyyyyyyyyyyyyyyyyys2+&qjffffffvf*@@@@@.....O:sffffffkfq1errrryyyyyyyyyyyyyyyyyyyyys2+%fjffffffvf*@@@@@",
".....O:kffffffffe1qrrrryyyyyyyyyyyyyyyyyyyyys2O%fjffffffzf*@@@@@.....O;fffffffyfe1frrrryyyyyyyyyyyyyyyyyyyyys2+&qjffffffzf*@@@@@",
".....O;susffffyse1ftrrryyyyyyyyyyyyyyyyyyyyus2+&fjffffffkf*@@@@@.....O;kysssffyke1fqrrryyyyyyyyyyyyyyyyyyyyus2O%fjffffffkf*@@@@@",
".....O;fuyfkffyke1qtrrryyyyyyyyyyyyyyyyyyyuss2O&yfffffffkf*@@@@@.....O;suufkffjue1ttrrryyyyyyyyyyyyyyyyyyyyss2+%efffffffkf*@@@@@",
".....O;kuussffjse1frrrryyyyyyyyyyyyyyyyyyysss2+&yfffffffkf*@@@@@.....O;kuuffffyf01f0rrryyyyyyyyyyyyyyyyyrysss2+&ffffffffkf*@@@@@",
".....O;suurffkyke1errrryyyyyyyyyyyyyyyyyrfsss2O&yfffffffsk*@@@@@.....O;suuutkujke<ftrrryyyyyyyyyyyyyyyyyffsss2+&0fffffffsf*@@@@@",
".....O;kyuusssuke<ftrrryyyyyyyyyyyfqf0feffsss2+&yfffffffsf*@@@@@.....O;syuusssjse1etrrryyyyyyyyyyyyyef0feftss2+&yfffffffks*@@@@@",
".....O;syuuussyfe0fqrryyyyyyyyyyyyefefqlftsss2+&yfffffffkj*@@@@@.....O;kyuuussyfe1ftrryyyyyyyyyyyyyyf0fqltsss2+&yfffffffsk*@@@@@",
".....O;syyuussuke<frrrryyyyyyyfeyyf0f0lqtssss2+&yfffffffff*@@@@@.....O;fyyuussufe<ftrryyyyyyyyyyyyyyqfqlsssss2+&yfffffffkf*@@@@@",
"......;syyuuusyfe0etrryyyyyyyy0fyyefqfqfsssss2+&yfffffffff*@@@@@......;tyyuuusuke0fqrryyyyyyyyyyyyyylelqsssss2+&yfffffffff*@@@@@",
".....o;syyuuuuuse0lqrrefrrrrfefeyfefelelfltfs>O&yffffffffk*@@@@@.....o;syyuuuuyfe<jtrryyqtrrfefeyyefeldlssfft1+&yfffffffff*@@@@@",
"......;syyyuuuyke<efyyyeyyyheheffefecelefefhsr+&yffffffffy*@@@@@......;syyyuuuufe0eeyyyyjeyhefefefceleddffcefrO&yfffffffff*@@@@@",
"......;uyyyuuuusq0jcjhchjcjhhhjjhjhhchxcxxcjcv;+yfffffffyh*@@@@@......;uyyyuuutfq0hhjjjhhhhjjhjjjchchchcxcxcjv>#yffffffffy*@@@@@",
"......;uyyyyuuyjbGJLJJLLJKJJLLLLLLLGLLJLLGLLJKHnyfffffffky*@@@@@......;uyyyyuufhbGLLLLJGLLLLLJLKJLJLGLJLJLJLGJLvyffffffffh*@@@@@",
"......;yyyyyuuusNACCCCAAAAACAACADDCCGCGCAAACCACCvsfffffffy*@@@@@......;uyyyyuuusNACCCHVVAAAHAAACDDGCCCAAAACCAACCkffffffffy*@@@@@",
"......;uyyyyyuuuftrrryyuqffyffyrfefef0ef0fffyfyyfkfffffffh*@@@@@......;uyyyyyuuuyrttyyyyyyyyyyfyf0fefffyyyyff0fffffffffffh*@@@@@",
"......;uyyyyyuuusskfffksfffffffffffffffffffffffffffffffffy*@@@@@......;uyyyyyuuuskksuskfffkfffffffffffffskfffffffffffffffh@@@@@@",
"......;uyyyyyyuussfftffkffffffffffffffffffffffffffffffffje*@@@@@......;uyyyyyyuustfsssfffffffffffffffffffffffffffffffffffy*@@@@@",
"......;uyyyyyyuussssssskffffffffffffffffffffffffffffffffff*@@@@@......;uyyyyyyuussssstffffffffffffffffffffffffffffffffffuh*@@@@@",
".....X;uyyyyyyyuusssssfffffffffffffffffffffffffffffffffffe*@@@@@.....X;uyyyyyyyuussssffkffffffffffffffffffffffffffffffffkh*@@@@@",
".....X;uyyyyyyyyusssssffffffffffffffffffffffffffffffffffff*@@@@@.....X;uyyyyyyyussssssssfffffffffffffffffffffffffffffffffy*@@@@@",
".....X;uyyyyyyyfusssssstfffffffffffffffffffffffffffffffffe*@@@@@.....X;uyyyyyyyysssssstfffffffffffffffffffffffffffffffffjy*@@@@@",
".....X:sssussssssskflffffffffffffffffffffffffffffffffffflf*@@@@@.....X:suusssssssssjfffffffffffffffffffffffffffffffffffffy*@@@@@",
"......&2222222r;2200000qqqqqqqqqqqqqqqqqqqqqqqqqqqqqqqeef0*@@@@@......&1r:2122r221r00000qqqqqqqqqqqqqqqqqqqqqqqqqqqqqqeef0*@@@@@",
"......$&&,&&,,,&&,&&,,,,,,,,,,<<<<<5666666666666666666655<-%@@@@......#,&&,,,&&&&,,&,,,,,,,,,,<<<<<5665666666666666666655<-%@@@@",
".....$&,,&,,&,&,,,,3,,,,,,,,,<<555555555566666665555555555<-%@@@.....#&,&,&,&,&,,,,,,,,,,,,,,<<5555555555666666655555555555-%@@@",
"....#&,&&,&,,&&,,,,,,,,,,,,,,<<55555555556666666555555555555-%@@....#,&&,&&,,,&,,,,,,,,,,,,,,<<55555555556666666555555555555-%@@",
"...$&,&,&,,&&,,&,,,,,,,,,,,,,<5555555555566666665555555555555-%@...#&,,,&,,&,&,&,,,,,,,,,,,,,<5555555555566666665555555555555-%@",
"..#&,,&,,&,,,,&,,,,,,,,,,,,,,<5555555555566666665555555555555<-%..#&,&&,,&&,,&,,,,,,,,,,,,,,,<5555555555566666665555555555555<-%",
".+&$,&,&&,,&&,,,,,,,,,,,,,,,<<55555555555566666555555555555555<-.#,$,&,&,,,,&,&,,,,,,,,,,,,,<<55555555555566666555555555555555<-",
"NGKHKKKLLLLLLLLLLLLLLLLLLLLLLLLLLLLLLLLLLLKKKKKHGGGGGGGGGGGGGGGNNGGHKKKLLLLLLLLLLLLLLLLLLLLLLLLLLLLLLLLLLLKKKKKHGGGGGGGGGGGGGGGN",
"eNGHHKKKLLLLLLLLLLLLLLLLLLLLLLLLLLLLLLLLLKKKKKHHGGGGGGGGGGGJGACfyMGKHKKKLLLLLLLLLLLLLLLLLLLLLLLLLLLLLLLLLLKKKKHHGGGGGGGGGGGGAKCj",
" ;MGKKKKLLLLLLLLLLLLLLLLLLLLLLLLLLLLLLLLLKKKKKHHGGGGGGGGGGGAACrO.;NGKKKKLLLLLLLLLLLLLLLLLLLLLLLLLLLLLLLLLKKKKKHHGGGGGGGGGGGGGMeO",
"O.;NGKJKHLLLLLLLLLLLLLLLLLLLLLLLLLLLLLLLKKKKKHHGGGGGGGGGGGGGCe+@O.;MGKJKKLLLLLLLLLLLLLLLLLLLLLLLLLLLLLLLKKKKKHHGGGGGGGGGGGGANfO@",
"OO.;MGLHKKLLLLLLLLLLLLLLLLLLLLLLLLLLLLLLKKKKHHHGGGGGGGGGGGGNfO@@OO.-MGKKKKLLLLLLLLLLLLLLLLLLLLLLLLLLLLLLKKKKHHHGGGGGGGGGGGGNf+@@",
"OOO.;MGLKLLLLLLLLLLLLLLLLLLLLLLLLLLLLLLLLLKKHJKHGGGGGGGGGGNfO@@@OOO.;MGHKLLHLLLLLKLLLLLKLLLLLLLLLLLLLLLLLKKKHKKHGGGGGGGGGACeO@@@",
"OOOO.-mCCCCCCCCCCCAAAAAAAAAAAAACAAAAAAACCCCCCCCCCCCCCCNCCMe@@@@@OOOO.-mCCCCCCCCCCCAAAAAAAAAAAAAAAAAAAAACCCCCCCCCCCCCCCCCCNr@@@@@",
"OOOOOO0ffffjffffjjjjjjjcccccccccvvvvvvvvvvvvvvvvvvvkvvvvvf*@@@@@OOOOOO0ffcfffffcfjjjjcjcccccccccvvvvvvvvvvvvvvvvvvvvvvvvvf*@@@@@",
"OOOOOO0ffffffffffffjjjjjccccccccvcvvvvvvvvvvvvvvvvvvvvvvvf*@@@@@OOOOOO0ffffffffffffjjjjjccccccccccvvvvvvvvvvvvvvvvvvvvvvvf*@@@@@",
"OOOOOO0fffffffffffffjjjjjjcccccccccvvvvvvvvvvvvvvvvvvvvvvf*@@@@@OOOOOO0fffffffffffffjjjjjjcccccccccvvvvvvvvvvvvvvvvvvvvvvf*@@@@@",
"OOOOOO0fffffffffffffffjjjjjjccccccccvvvvvvvvvvvvvvvvvvvvvf*@@@@@OOOOOO0fffffffffffffffjjjjjjccccccccvvvvvvvvvvvvvvvvvvvvvf*@@@@@",
"OOOOOO0fffffffffffffffffjjjjjjjcccccccvvvvvvvvvvvvvvvvvvvf*@@@@@OOOOOO0fffffffffffffffffjjjjjjjcccccccvvvvvvvvvvvvvvvvvvvf*@@@@@",
"OOOOOO0ffffffffffffffffffjjjjjjjjcccccccvvvvvvvvvvvvvvvvvf*@@@@@OOOOOO0ffffffffffffffffffjjjjjjjccccccccvvvvvvvvvvvvvvvvvf*@@@@@",
"OOOOOO0ffffffffffffffffffffjjjjjjjjccccccvvvvvvvvvvvvvvvvf*@@@@@OOOOOO0ffffffffffffffffffffjjjjjjjjccccccvvvvvvvvvvvvvvvvf*@@@@@",
"OOOOOO0fffffffffffffffffffffjjjjjjjjjcccccvvvvvvvvvvvvvvvf*@@@@@OOOOOO0fffffffffffffffffffffjjjkjjjjjcccccvvvvvvvvvvvvvvvf*@@@@@",
"OOOOOO0fffffffffffffffffffffffksffffffflllllllllvvvvvvvvvf*@@@@@OOOOOO0fffffffffffffffffffffffjsffffffffllllllllcvvvvvvvvf*@@@@@",
"OOOOOO0fffffffffq56666666667677767776777776888l30vvvvvvvvf*@@@@@OOOOOO0fffffffffq66666666666776777767776788686t1fvvvvvvvvf*@@@@@",
"OOOOOO0fffffffff0<4366616666616666666166666666,.fvvvvvvvvf*@@@@@OOOOOO0fffffffff0,4366666166666166616661666<66,.rkvvvvvvvf*@@@@@",
"OOOOOO0fffffffff<-ftttttttttttttttttttttltfettO.fjvvvvvvvf*@@@@@OOOOOO0fffffffff0-ftttttttttttttttttttttl7tflt+.fvvvvvvvvf*@@@@@",
"OOOOOO0fffffffff0-qrtrryyyrfyyyyyyyfyyyytt0ff2+Ofvvvvvvvvf*@@@@@OOOOOO0fffffffff<-ettt0fyyyyftyyyfyytfyyftfft1+Ofvvvvvvvvf*@@@@@",
"..OOOO0fffffffff0-ftrrryyyyyyyyyyyyyyyyyyyyys2+Ofkvvvvvvvf*@@@@@..OOOO0fffffffff0-frrrryyyyyyyyyyyyyyyyyryyyu2+Ofjkvvvvvvf*@@@@@",
"...OOO0fffffffffq;etrrryyyyyyyyyyyyyyyyyyyyyu2++fkkkkvvvvf*@@@@@...OOO0fffffffffq;qrrrryyyyyyyyyyyyyyyyyyyyyu2++fkkkkvvvvf*@@@@@",
".....O>fffffffffq;frrrryyyyyyyyyyyyyyyyyyyyyu;++fkkkkkvvvf*@@@@@.....O>fffffffffq;qtrrryyyyyyyyyyyyyyyyyyyyyu:++fkkkkkvvvf*@@@@@",
".....O>fffffffffq;qrrrryyyyyyyyyyyyyyyyyyyyyur++fkkkkkkkvf*@@@@@.....O>fffffffffq;frrrryyyyyyyyyyyyyyyyyyyyyyr++fkkkkkkkvf*@@@@@",
".....O>fffffffffq;ftrrryyyyyyyyyyyyyyyyyyyyyu2++fjjkkkkkvf*@@@@@.....O:jjfffffffq;fqrrryyyyyyyyyyyyyyyyyyyyyy2++fjjkkkkkvf*@@@@@",
".....O>fffffffffq1qtrrryyyyyyyyyyyyyyyyyyyyyu2++fkjjkkkkvf*@@@@@.....O:kffffffffq1ftrrryyyyyyyyyyyyyyyyyyyyyu2++fkjjkkkkvf*@@@@@",
".....O:kffffffffq1frrrryyyyyyyyyyyyyyyyyyyyyu2++fkjjkkkkvf*@@@@@.....O>fffffffff01qtrrryyyyyyyyyyyyyyyyyyyyyu2++fkjjkkkkvf*@@@@@",
".....O;fffffffffq1errrryyyyyyyyyyyyyyyyyyyyys2++fkjjjkkkvf*@@@@@.....O;kffffffffq<frrrryyyyyyyyyyyyyyyyyyyyys2++fkjjjkkkvf*@@@@@",
".....O:kffffffffq1ftrrryyyyyyyyyyyyyyyyyyyyys2++fkjjjkkkvf*@@@@@.....O:sffffffffq1qtrrryyyyyyyyyyyyyyyyyyyyys2++fkjjjkkkvf*@@@@@",
".....O:sffffffffq1ttrrryyyyyyyyyyyyyyyyyyyyys2++fvjjjjkkvf*@@@@@.....O;fffffffffq1frrrryyyyyyyyyyyyyyyyyyyyys2++fvjjjjkkvf*@@@@@",
".....O;fffffffffq1frrrryyyyyyyyyyyyyyyyyyyyys2++fvjjjjjkvf*@@@@@.....O;kffffffffq1trrrryyyyyyyyyyyyyyyyyyyyrs2++fvjjjjjkvf*@@@@@",
".....O:fffffffff01trrrryyyyyyyyyyyyyyyyyyyyys2+#fkffjjjjvf*@@@@@.....O:sffffffffq1ftrrryyyyyyyyyyyyyyyyyyyyfs2O#fkffjjjjvf*@@@@@",
".....O;sffffffff01ftrrryyyyyyyyyef0fef0f0f0fs2+#skfffjjjvf*@@@@@.....O;fffffffffq1frrrryyyyyyyyyyyyyyyyyyyyys2+#skksfjjjvf*@@@@@",
".....O;kffffffff01ftrrryyyyyyyyyf0f0f0fefef0s2+&skfffffjvf*@@@@@.....O:kffffffffq1qrrrryyyyyyyyyyyyyyyyyyyyys2O%skfkfffjvf*@@@@@",
".....O:sfffffffk01qtrrryyyyyyyyy0f0f0f0fefefs2O%fjffffffkk*@@@@@.....O:sffffffkfq1errrryyyyyyyyyyyyyyyyyyyyys2+%fjffffffvf*@@@@@",
".....O;kffffffysq<frrrryyyyyyyyyfef0fef0f0f0s2+%fjffffffsf*@@@@@.....O;fffffffyfe1frrrryyyyyyyyyyyyyyyyyyyyys2+&qjffffffzf*@@@@@",
".....O:sussffkyfe1qtrrryyyyyyyyy0f0f0fef0fyus2+&ejffffffkf*@@@@@.....O;kysssffyke1fqrrryyyyyyyyyyyyyyyyyyyyus2O%fjffffffkf*@@@@@",
".....O;kuuskfujke1frrrryyyyyyyyyfefef0f0f0rfs2O%ffffffffkf*@@@@@.....O;suufkffjue1ttrrryyyyyyyyyyyyyyyyyyyyss2+%efffffffkf*@@@@@",
".....O;fuutfffjue1ftrrryyyyyyyyy0fefef0feftts2+&0fffffffkk*@@@@@.....O;kuuffffyf01f0rrryyyyyyyyyyyyyyyyyrysss2+&ffffffffkf*@@@@@",
".....O;fuuufffyfe1etrrryyyyyyyyyf0f0f0fefqffs2+&ffffffffsf*@@@@@.....O;suuutkujke<ftrrryyyyyyyyyyyyyyyyyffsss2+&0fffffffsf*@@@@@",
".....O;kyuusssjfe<frrrryyyyyyyyy0f0f0fqffssss2+&0ffffffffk*@@@@@.....O;syuusssjse1etrrryyyyyyyyyyyyyef0feftss2+&yfffffffks*@@@@@",
".....O;syyuussuke0errryyyyyyyyyyfefef0lqtssss2+&ffffffffss*@@@@@.....O;kyuuussyfe1ftrryyyyyyyyyyyyyyf0fqltsss2+&yfffffffsk*@@@@@",
".....O;syyuussyfe1etrryyyyyyyyyy0fefefqlftsss2+&efffffffff*@@@@@.....O;fyyuussufe<ftrryyyyyyyyyyyyyyqfqlsssss2+&yfffffffkf*@@@@@",
"......;syyuuusuke0frrryyyyyyyyyyf0fefqfesssss2+&ffffffffff*@@@@@......;tyyuuusuke0fqrryyyyyyyyyyyyyylelqsssss2+&yfffffffff*@@@@@",
".....o;syyuuuuuse0etqtyyrrt0yeyyefqfleflsfftf1+&0fffffffff*@@@@@.....o;syyuuuuyfe<jtrryyqtrrfefeyyefeldlssfft1+&yfffffffff*@@@@@",
"......;tyyyuuuyfe1effeyyhefhyjefcefeeleefffff0+&ffffffffff*@@@@@......;syyyuuuufe0eeyyyyjeyhefefefceleddffcefrO&yfffffffff*@@@@@",
"......;fyyyuuuufq0jhhhjjjhchhcjhhhhhchhxxxhhjc;+0ffffffffh*@@@@@......;uyyyuuutfq0hhjjjhhhhjjhjjjchchchcxcxcjv>#yffffffffy*@@@@@",
"......;fyyyyuuufcGLJLLLKJGLLJLLJLLLLLLLLLLLLLLHvfffffffffy*@@@@@......;uyyyyuufhbGLLLLJGLLLLLJLKJLJLGLJLJLJLGJLvyffffffffh*@@@@@",
"......;uyyyyuuusCACCCAAAAAAAACCAGCGCGCGCACCAAAACkfffffffje*@@@@@......;uyyyyuuusNACCCHVVAAAHAAACDDGCCCAAAACCAACCkffffffffy*@@@@@",
"......;uyyyyyuuuetttyyyyyuyyffff0ff0ef0fffyyyyffffffffffff*@@@@@......;uyyyyyuuuyrttyyyyyyyyyyfyf0fefffyyyyff0fffffffffffh*@@@@@",
"......;uyyyyyuuukskfskffskfffffffffffffffffffffffffffffffy*@@@@@......;uyyyyyuuuskksuskfffkfffffffffffffskfffffffffffffffh@@@@@@",
"......;uyyyyyyuufstfstffksfffffffffffffffffffffffffffffffh*@@@@@......;uyyyyyyuustfsssfffffffffffffffffffffffffffffffffffy*@@@@@",
"......;uyyyyyyuuftssssfffffffffffffffffffffffffffffffffffh@@@@@@......;uyyyyyyuussssstffffffffffffffffffffffffffffffffffuh*@@@@@",
".....X;uyyyyyyyuusssssfkfffffffffffffffffffffffffffffffffy*@@@@@.....X;uyyyyyyyuussssffkffffffffffffffffffffffffffffffffkh*@@@@@",
".....X>uyyyyyyyuusssssssffffffffffffffffffffffffffffffffkh*@@@@@.....X;uyyyyyyyussssssssfffffffffffffffffffffffffffffffffy*@@@@@",
"......;uyyyyyyyyusssssssfffffffffffffffffffffffffffffffffy*@@@@@.....X;uyyyyyyyysssssstfffffffffffffffffffffffffffffffffjy*@@@@@",
".....X:ssuusssfttfflffffffffffffffffffffffffffffffffffffle*@@@@@.....X:suusssssssssjfffffffffffffffffffffffffffffffffffffy*@@@@@",
"......&2222222r22100000qq0qqqqqqqqqqqqqqqqqqqqqqq0qqqqeefq*@@@@@......&1r:2122r221r00000qqqqqqqqqqqqqqqqqqqqqqqqqqqqqqeef0*@@@@@",
"......#=,,,&&,&,&,&,,,,,,,,,,,<<<<<5666666666666666666655<-%@@@@......#,&&,,,&&&&,,&,,,,,,,,,,<<<<<5665666666666666666655<-%@@@@",
".....#==&,&,&,,&,,,,,,,,,,,,,<<5555555555666666655555555555-%@@@.....#&,&,&,&,&,,,,,,,,,,,,,,<<5555555555666666655555555555-%@@@",
"....#===&,&,,&,&,,,,,,,,,,,,,<<55555555556666666555555555555-%@@....#,&&,&&,,,&,,,,,,,,,,,,,,<<55555555556666666555555555555-%@@",
"...#====,,,&,,&,,,,,,,,,,,,,,<555555555556666666555555555555<-%@...#&,,,&,,&,&,&,,,,,,,,,,,,,<5555555555566666665555555555555-%@",
"..#=====,&,,&,,,,,,,,,,,,,,,,<5555555555566666665555555555555<-&..#&,&&,,&&,,&,,,,,,,,,,,,,,,<5555555555566666665555555555555<-%",
".+=$====&,&&,&&,,,,,,,,,,,,,<<55555555555566666555555555555555<-.#,$,&,&,,,,&,&,,,,,,,,,,,,,<<55555555555566666555555555555555<-"
};
