/* XPM */
static char *bluetile1695480730[] = {
/* columns rows colors chars-per-pixel */
"128 128 40 1 ",
"  c #041B2F",
". c #041E35",
"X c #041F38",
"o c #042037",
"O c #04243E",
"+ c #042542",
"@ c #042846",
"# c #042C4D",
"$ c #052E52",
"% c #053054",
"& c #083255",
"* c #07355D",
"= c #08355C",
"- c #073761",
"; c #073861",
": c #0A3A65",
"> c #0C3E6A",
", c #0E406C",
"< c #11426E",
"1 c #074375",
"2 c #094376",
"3 c #0D437A",
"4 c #0F497B",
"5 c #104473",
"6 c #134877",
"7 c #12467D",
"8 c #144A7C",
"9 c #184D7F",
"0 c #164680",
"q c #1A4784",
"w c #164B81",
"e c #1A4D85",
"r c #1E4D88",
"t c #165083",
"y c #195085",
"u c #1E5489",
"i c #214E8A",
"p c #21558C",
"a c #23598D",
"s c #245B90",
/* pixels */
"Xo.XO+@@#########%###%###$#$##$###%#######%##$##$##$##$###%#####$##$$##$#$$##$###########%###$##$#$##$###%######%####$##$#@Ooo .",
"X.XXO+@@##########################################################################%######################################@@Oo o ",
"o.oo+@@@######%#%#########$###$#######%#########$###$########%#####$######$###$#######%####$####$#####$#####%######%#$####@Oo  o",
"Ooo++@@$#%%%%%%%%%%%%%%%%%%%%%%%%%%%%%%%%%%%%%%%%%%%%%%%%%%%%%%%%%%%%%%$%%%$%%%%%%%%%%%%%%%%%%%$%%%%%%%%%%%%%%%%%%%%%%%%%$#OOooo",
"++O+@#$&&**=******%***%**%***%**%******-**%**********%************%******%***%********-***%******%***%**************%*%%*&$@OOOO",
"@@@#$&*-;,,,,,:,:,,,,,,,,,,,,,,,,,,::>>>,,,,,,,,,,,,,,,,,,,;>>>,,,,,,,,,,,,,,,,,,,,;:>>>,,,,,,,,,,,,,,,,:,,:>:>,,,,,,,,,:*=$@@+O",
"$###&*:,,4642442142415461545541124442213142416251145561145242222142615541545561142422214154415541545541145421222126412211,*%#@@#",
"%##%*;>3899t988w88884484848948848884w8wt8848448888488884888888ww4888448844t448848888w8ww4848448888494884888t88ww488848841,,=$###",
"%%#&*,,49uuuuttttttttttttttttttttttttttttttttttt9tttytttttttttttttyytttytttttttttttttttttttttttttttttttttttttttttyyuuuyw41;*%###",
"%#$&=:,8tuauuyyyyyyyyeyyttyyyyyttuettueyttututtetttyyyyyyyytyyyyyyyyyeyyytyyyyyytttrttyttrttetetttttyyyyytyyyyyyyyuuuuut42,*####",
"$$$%=,59uaaauuuyyyyyyyyyyyuyyyyyeeuetrtteetutrreyyyyyyeeyyyyyyyeyeyyyyeyyuyyyyyyeutuueyyeyututeryyyyyyyeyyyyyyyeyuuausuu84,*%###",
"$$$%=,59uaaapureyeeyeyeeuyteeeeeeetertreeeereeeeeyuueeeeeereeeeeeeyeeeeeutyyeeeeeeeeeeretrereeeeyyyuereereeereeruyuuusayt4,*%###",
"$$$%*>599aappieeeteewteeeeeeeeeewwweetwteteqeeqeeeeeeeeeeeweeeeeeeeeeeeeeeeeeeeewwwwtttwrteeqeereeeeeeweeeeeeeeerrrppppu83,*%###",
"%$$%*>599appp9eqwwwwww000000qqwq00ww00w0tqtq00wwwwwqq0w00ew0w00wwwe00w0w0e0wqqww00wwqw0wwqqqw0ww0eww00w0wwww000wqriippuet4,*$###",
"$#$%*>289pupyqq80000w000000400800000w00000000000770700000040000w000000000007707700000000100000000000000000300000qqriprutt4>*%#@#",
"%$$%*><89pyie98713033030300437740100000>000030337777473470300033303030437377777700010010000003337743034000030030qqqriryt84,*%###",
"%%%%&,<8eeyew00033333333330>0011333333333333333333333333333333333333330>01133333333333333333333333333333333333300qqrrreew4,*%###",
"#%#%=,58wyyrw00333133333330>0>333333333333333333333333333333333331313310>031333333333333333333333333333333333333>qqqruytw4,*%###",
"%%#%=,58eyyeww733331311323233111131311311333313333133131131331311133101011>031331313131313133313131311331331331300qryryyw3,*%###",
"%#%#*,588yeeww0333111211111113111311131111113>31113111111>31111113111>0>0>01111111111111311111111131111111131110300rreytt4,*$#@#",
"%$$%=,289yyew00433111111111111111111111111111111111111111111111111111111111111111111111111111111111111111111113>300eeeeyw4,*$###",
"%#$%=:<89yyeww03333111111111111111111111111111111111111111111111111111111111111111111111111111111111111111111110300ereyy83,*$###",
"%#$%=,589eyew0033121111111111111111111111111111111111111111111111111111111111111111111111111111111111111111111>0330teuett4,*$###",
"%$$%=>569yyew003333111111111111111111111111111111111111111111111111111111111111111111111111111111111111111110>0100wweyyy84>*$###",
"$$$%*>269yyee874333111111111111111111111111111111111111111111111111111111111111111111111111111111111111111111133770eryytt3,*%###",
"$$$%*>58wyyee003331111111111111111111111111111111111111111111111111111111111111111111111111111111111111111111113370eeeyy84,*%###",
"$$$%=:56wyeew07733111111111111111111111111111111111111111111111111111111111111111111111111111111111111111111113330weeueyt4,*%#@#",
"$$$%=>58wyyre07333311111111111111111111111111111111111111111111111111111111111111111111111111111111111111111311347qeeeytw4:*%###",
"%%%%=:58wtyew00333311111111111111111111111111111111111111111111111111111111111111111111111111111111111111111110>370eeuey84,;%###",
"%#%%;,58weyew003331111111111111111111111111111111111111111111111111111111111111111111111111111111111111111111113700eeeyyt3>*####",
"#%#%*:58tteeww03333111111111111111111111111111111111111111111111111111111111111111111111111111111111111111111123340eeuyyw4>*$###",
"%#%&=,<8teeew003333111111111111111111111111111111111111111111111111111111111111111111111111111111111111111113122000eeyyt84,*$###",
"%$$%=,5899yeew77331111111111111111111111111111111111111111111111111111111111111111111111111111111111111111111133370reuett0>*%###",
"%#$%=;589yyeq873333111111111111111111111111111111111111111111111111111111111111111111111111111111111111111111133370weeutt1,*$###",
"$$$%=,<89yyew077331111111111111111111111111111111111111111111111111111111111111111111111111111111111111111113133000eeuutw31*$###",
"%$$%=,589yyew07733331111111111111111111111111111111111111111111111111111111111111111111111111111111111111111>113100eeeett3>*$###",
"$$$%*>58weeee774331111111111111111111111111111111111111111111111111111111111111111111111111111111111111111111113300erertw6>*$$##",
"$$$%*><8yyyee003331111111111111111111111111111111111111111111111111111111111111111111111111111111111111111111131300qertut3>-$###",
"$$$%*>289yyew073333111111111111111111111111111111111111111111111111111111111111111111111111111111111111111111333000weretw4>*$###",
"$$$%*>269eeew007333111111111111111111111111111111111111111111111111111111111111111111111111111111111111111111113100ttuttw4>*$###",
"%%%%=;589yyeq803113111111111111111111111111111111111111111111111111111111111111111111111111111111111111111111113400ereyt84,*####",
"##%%=,5899yeww77101111111111111111111111111111111111111111111111111111111111111111111111111111111111111111111333370eeyye84,*%###",
"%%#&=,589yyew0730>>01111111111111111111111111111111111111111111111111111111111111111111111111111111111111111111330weyryyt4,*$###",
"%##%=,589yyew0070>011111111111111111111111111111111111111111111111111111111111111111111111111111111111111111111337qeeyytw4,*$###",
"%$$%=,,8wyyew0730>0111111111111111111111111111111111111111111111111111111111111111111111111111111111111111111133300weuey84,;%###",
"%#$%*:58eeyeew070>111111111111111111111111111111111111111111111111111111111111111111111111111111111111111111311307weeeyyt3>*####",
"$$$%=,289yyew04333131111111111111111111111111111111111111111111111111111111111111111111111111111111111111111>113300eeuyyw4>*$###",
"%$$%=,<69eeew007333111111111111111111111111111111111111111111111111111111111111111111111111111111111111111113333400eeyyt84,*$###",
"$$$%*>269yyew80333211111111111111111111111111111111111111111111111111111111111111111111111111111111111111111110>300werytw4,*%###",
"%#$%*>589eyee0733322111111111111111111111111111111111111111111111111111111111111111111111111111111111111111110>030weeuyyw3,*%###",
"%$$%*:589yyeqw773321111111111111111111111111111111111111111111111111111111111111111111111111111111111111111110>0300eeyytt4,*$###",
"%#$%*,<89eyeww733322111111111111111111111111111111111111111111111111111111111111111111111111111111111111110>0>0>300eeryyt3>*$###",
"%%$%=,,89yye0003333111111111111111111111111111111111111111111111111111111111111111111111111111111111111111111100300eeeyyw3,*$###",
"##$%=,289eyew0073333111111111111111111111111111111111111111111111111111111111111111111111111111111111111111111>0300ereyyt4>-$###",
"%%$%&,58yyyeww73312>1111111111111111111111111111111111111111111111111111111111111111111111111111111111111111110>33weeryt84>*$###",
"%#%%*,<8wyyew00333221111111111111111111111111111111111111111111111111111111111111111111111111111111111111111111300wteyyy84>*$###",
"%%#%*,,89tyyw003331111111111111111111111111111111111111111111111111111111111111111111111111111111111111111112133470eerytt4,*%###",
"%#%%=,589yyew074333111111111111111111111111111111111111111111111111111111111111111111111111111111111111111112113300eeyey93,*####",
"%#$%=:<89yyee003331111111111111111111111111111111111111111111111111111111111111111111111111111111111111111111133700eueyyt4,*%###",
"%$$%=,589eyew07733211111111111111111111111111111111111111111111111111111111111111111111111111111111111111111212334weeeyy84>*$###",
"$$$%*>589yyeew77331111111111111111111111111111111111111111111111111111111111111111111111111111111111111111111313000weeyyw4>*$###",
"$$$%*>589eyee773333111111111111111111111111111111111111111111111111111111111111111111111111111111111111111111113300eeuyyt3,*$###",
"%$$%*>2899yeqw7733111111111111111111111111111111111111111111111111111111111111111111111111111111111111111111113330weeeyt84,-$###",
"$$#%*>569yyee777>03111111111111111111111111111111111111111111111111111111111111111111111111111111111111111111111300eeuyt84>*$###",
"%##%=:<8wtyrw003331111111111111111111111111111111111111111111111111111111111111111111111111111111111111111111133300weeuet0>*%###",
"%%%%=,58eeyew003333311111111111111111111111111111111111111111111111111111111111111111111111111111111111111113113000eeuttt3,*$###",
"$#%%=,589yyeww03331111111111111111111111111111111111111111111111111111111111111111111111111111111111111111111131000eeeett3,*$###",
"%%%&=:269yyew003333111111111111111111111111111111111111111111111111111111111111111111111111111111111111111111133000eeeutw11*$###",
"$$$%=>599tyew003331111111111111111111111111111111111111111111111111111111111111111111111111111111111111111111111010eteut87>*$###",
"%#$%*>569eyee074333111111111111111111111111111111111111111111111111111111111111111111111111111111111111111111111000wtrett3,-$###",
"%$$%=>569yyeww033311111111111111111111111111111111111111111111111111111111111111111111111111111111111111111131>0>00trtetw4>-$###",
"$$$%=>569eyew077333111111111111111111111111111111111111111111111111111111111111111111111111111111111111111111100000werut84>*$###",
"$$$%*:389yyew87333111111111111111111111111111111111111111111111111111111111111111111111111111111111111111111110>470eryyyt4,*%###",
"$$$%->26eyyee0033331111111111111111111111111111111111111111111111111111111111111111111111111111111111111111111>0300eeeyt83,*####",
"$$$%=;59wterqw7733>111111111111111111111111111111111111111111111111111111111111111111111111111111111111111111100400eeyyyt4,*$###",
"%$#%=,<8wyyeww733311111111111111111111111111111111111111111111111111111111111111111111111111111111111111111110>>300eeuey84,*$###",
"%%#%=,,8weyew003333111111111111111111111111111111111111111111111111111111111111111111111111111111111111111111113300weuet93,*%###",
"%#%%=,58wtyew00333111111111111111111111111111111111111111111111111111111111111111111111111111111111111111111111330weeeyyt3,*$###",
"%#%%=,58tteeww03333111111111111111111111111111111111111111111111111111111111111111111111111111111111111111111113300eeuyt84>-$###",
"$%#%=,56teeeqw03333111111111111111111111111111111111111111111111111111111111111111111111111111111111111111111333400eeuyt84>*$###",
"%$$%=:2899iee77733>111111111111111111111111111111111111111111111111111111111111111111111111111111111111111111113330eeueyt0>*%###",
"$#$%*,5899yee877331111111111111111111111111111111111111111111111111111111111111111111111111111111111111111112113000eerytw1,;$###",
"$$$%*,589tyye777333111111111111111111111111111111111111111111111111111111111111111111111111111111111111111111133300eeyyyt4,*$###",
"%$$%&,589yyyq077331311111111111111111111111111111111111111111111111111111111111111111111111111111111111111111213300eryytt3>*$###",
"$$$%*>58eyyeqw733311111111111111111111111111111111111111111111111111111111111111111111111111111111111111111112333wweeeyew6>-$$##",
"$$$%*:<89eyeww74331111111111111111111111111111111111111111111111111111111111111111111111111111111111111111111113300eeeyyt3>*$###",
"$$$%;>289eeee07733311111111111111111111111111111111111111111111111111111111111111111111111111111111111111111111330wweyyyw4>*$###",
"$$$%*>569yeew07333311111111111111111111111111111111111111111111111111111111111111111111111111111111111111111113303wwryyyw4>*$###",
"%%$%=;589yyee077333111111111111111111111111111111111111111111111111111111111111111111111111111111111111111112113470eryyyt2,*%###",
"%#$%=,5899eew877311111111111111111111111111111111111111111111111111111111111111111111111111111111111111111112113300eeeyt84,*%###",
"#%$%=,589yyew073130111111111111111111111111111111111111111111111111111111111111111111111111111111111111111111133700eeyyyt4,*$###",
"%##%=,<89yyew00710>111111111111111111111111111111111111111111111111111111111111111111111111111111111111111112133370eeuyyt3:*%###",
"%%#%;,28wyeew0040>0111111111111111111111111111111111111111111111111111111111111111111111111111111111111111111113300wueyy84,*####",
"%#%%*:<8eeyee0030>111111111111111111111111111111111111111111111111111111111111111111111111111111111111111111211330weeeyew3,*%###",
"$$%%=,589yyrw043333111111111111111111111111111111111111111111111111111111111111111111111111111111111111111111133300eeyuyt4,*$###",
"%%#%=:569yyew003333111111111111111111111111111111111111111111111111111111111111111111111111111111111111111111213300eyyty83>*$###",
"$$$%*:289eyee703322211111111111111111111111111111111111111111111111111111111111111111111111111111111111111111313300teyyyt0,*%###",
"%#$%*>589yyee87733221111111111111111111111111111111111111111111111111111111111111111111111111111111111111111113130qqerytw3,*$###",
"$$$%=>569yyeew7300221111111111111111111111111111111111111111111111111111111111111111111111111111111111111111131300weryutt1,*$###",
"%$$%=>589eyeq777>>211111111111111111111111111111111111111111111111111111111111111111111111111111111111111111113300wqeeeyt3,-$###",
"$$$%=:289eyew003001111111111111111111111111111111111111111111111111111111111111111111111111111111111111111111113>0wqeretw6>*$###",
"%$$%=,589tyew0070>311111111111111111111111111111111111111111111111111111111111111111111111111111111111111111311300wtrettt3>*$$##",
"$#$%=>589eeeww73131111111111111111111111111111111111111111111111111111111111111111111111111111111111111111111133010weutuw4>-$###",
"%%$%=,<8eyyew003113111111111111111111111111111111111111111111111111111111111111111111111111111111111111111111113000weeet84>*$###",
"%#%%=,,899tyw0770>1011111111111111111111111111111111111111111111111111111111111111111111111111111111111111111133470eeryyw4,*####",
"#%#%=;589yyye773101>11111111111111111111111111111111111111111111111111111111111111111111111111111111111111111113300eeyyew4,*%###",
"$%%%=,589yyee07313>011111111111111111111111111111111111111111111111111111111111111111111110>1111111111111111110>300eeuyyt4,*$###",
"%#%%=,589yyre07731011111111111111111111111111111111111111111111111111111111111111111111110>01111111111111111111030weeeyy84,*$###",
"%#$%*>589eyye0073331>0>0111111111111111111111111110111111111111111111011111>111111111111111>111111111111111111>0400weyyyw4,=%###",
"%$$%*><89yyeqw773331310>11111311111111101111101111>011111111101111110>1111101131110>0>1111311111121011111101110>300eryyyw3,*$###",
"%$$%*:2899yee8073331113131111113>00>110>0>310>0>313>1111111>111113>031111111111111>00>0111313113201>10101>0>1000300eeyyt84>*$###",
"$#$%*,589eyyqq7703333131333333130>00>0>010>0>01031103333333313333100>1330>00>3313300>011313133113>103>0>33103>>0400eeyytt4>*$###",
"$$$$=>569eeieqq73333110333011333333333333333330>3133133333333333333310>1331133332330330>03330>013310330>100>0>>7000weyyyw4,*%###",
"$$$&=:59eqieqq7703300113330>33333330333303331010003130333333373333330101330>333733>0330>13331101331>31101>0030q7300eryyyw3,*$###",
"$$$&*>599iieiqw703031000000000030330003330030100303000030730777710001000000033073004001000000000030000000001007700weueytt4>*$###",
"$$$&=>599ieii0q0000000000001000040000300w30003003000300070707078000000000000000000400000000000000000000w003000780weruyuyw4,*$###",
"$$$%=,59iiiieeeq00qw0wqqw0w000www0www0w8w0ww0wwwwww0w0w00w0wwwww00wwqwqw000t000tw0w0w8q800wwww0wwww00w00000w8qwweeruupuyt7,*$###",
"$$$%&,599ipppyeetqetetteeeeewwteeeeweeeeeweeeeeewweteeeeweeeqeqetweetteteeereetqeeeeeeeetwetwrerwewreeeewteeeeeeerupapaut4>-$###",
"$$$%=,<99pppauuuerteerttteeueteeeyyeeeyyeeyeeeyeyeeeeyyeyeeeyyyyteeeetereeetteeeeyyeeeyywtteeeettreetrtrteteyyyyeyuasssuy6>-$###",
"$$$%=,<9pppaautyteeerttrrttrtrttyyyyyeyyyyytetyyytyeyyyyyyyeyyyuteyyerettteutteeyyyyyyyutteerttruteeutetuteeyytuyuusssspy4>*$###",
"$$$$-:269aaap9yyytyyyy9itttytyyup9yyyyyyytyyyy9iyyyyyyyty9ptyytyttyyyy9itutyyytyyyyyyyttyyyyyy9ittyyytytp9p9tutty9paassat6>*%###",
"$$$$*:269i9ppy99t9y99y99tttttttt999yt9ttt9y9t999ttee9tt99i99t999t99y9y99tttwtttty99y99999y9y9y99ttwttttt999999t99p9aaapiw3>*##@#",
"$###&*><<999688688668896ww0088666669966688669869088966886669988689669896ww0w688866999886866688960www888866698686989999994,;&#@#@",
"#@@##&==>>><<<,<<<,<,,<<>>>>>>,,><<<<,,<,<,,,,<<1>>>,<,,<><<,,,,<,,,,,<<>>>>>,>,<:<<,,,,,,,,<<<<>>>>>><>><<<,,<,,<<<<<<<:;=$@@@@",
"++OO@@$&&===&===&==&=&==&==&===&==&===&=&=&=&===&==&=&====&&===&&&=&&=&&=&&=*====&=====&&&=&&=&&&==&==&===&=&===&&====&=&&#@+OOO",
"X...OO+@#######$######@##@##@$@###@#@@###@@###@##@##@##@####@@##@#######@####@#@##@@@@###########@##@#@##@@#@@##@#@####@@@+OX...",
"X...XOO++@@@@@@@@@++++++O+++++++@OO@O++++++O++++O+++++O+++++O+++++O+++++++++++O+@OO@O+++++O+++++O+++++++O@@OO@+++OO@+++++OO..   ",
".....XO++++@+@@+@+@++OOOOOOOOOOOOOOOOO+OOOOOOOOOOOOOOOOOOOOOOOOOOOOOOOOOOOOOOOOOOOOOOOOOOOOOOOOOOOOOOOOOOOOOOOOOOOOOOOOOOOX.    "
};
