/* XPM */
static char *pezwall1695480475[] = {
/* columns rows colors chars-per-pixel */
"128 128 87 1 ",
"  c #060404",
". c #0A0605",
"X c #0D0807",
"o c #0E0909",
"O c #130C0B",
"+ c #180F0E",
"@ c #16110E",
"# c #19110E",
"$ c #140E12",
"% c #151113",
"& c #1C1413",
"* c #1D1915",
"= c #161119",
"- c #1C151A",
"; c #1D1B1B",
": c #211715",
"> c #231A16",
", c #20171C",
"< c #241B1B",
"1 c #291E1D",
"2 c #26211D",
"3 c #2B211E",
"4 c #1D1721",
"5 c #1E1B21",
"6 c #211B22",
"7 c #281E22",
"8 c #221F29",
"9 c #252324",
"0 c #2D2423",
"q c #2F2925",
"w c #25222C",
"e c #2B232A",
"r c #2D2A2A",
"t c #302626",
"y c #302926",
"u c #312629",
"i c #332C2B",
"p c #36302D",
"a c #38312E",
"s c #272330",
"d c #292533",
"f c #2D2A33",
"g c #2F2A38",
"h c #332D33",
"j c #322C3A",
"k c #363133",
"l c #3B3433",
"z c #3E3936",
"x c #35323B",
"c c #3B353A",
"v c #3E3A3A",
"b c #403A37",
"n c #423C3A",
"m c #46413E",
"M c #48433F",
"N c #3D3C40",
"B c #433D41",
"V c #454341",
"C c #4A4543",
"Z c #4D4946",
"A c #4B4749",
"S c #4E4B49",
"D c #504B47",
"F c #514D4A",
"G c #55514E",
"H c #4E4D50",
"J c #565351",
"K c #595654",
"L c #5C5956",
"P c #5E5B59",
"I c #615E5C",
"U c #63605E",
"Y c #656362",
"T c #696764",
"R c #6A6866",
"E c #6D6B69",
"W c #716F6D",
"Q c #72716F",
"! c #757472",
"~ c #787774",
"^ c #7B7976",
"/ c #7D7B79",
"( c #82817F",
") c #858482",
"_ c #888785",
"` c #8A8986",
"' c #8C8B89",
/* pixels */
"Q/(((())___```'''''''''''''''''`'``___)))((((//^^^~!!QQQWEERYHNAQ/(())))((('`('''''''''''''''''`'`____))(((((////^~~!!!QQEEEYHNA",
"GYQ!~~~^~^~^^^^^^^^///////////^^^^^^^~^~~~~!!!!!QQWWWERERRRYHNkVHYQ~~~~~//~//////^^/////////^^^^^^^^^~^~^Q~~~Q!QWWWWEEERTTTYHxjV",
"lVGPIUIIIIIUUUUUUUUUIIUUUIUIIIIIIIIUIIIIIIIIILILLLLILKLKKKKGNjfNkVGPIIIIIIIUUUUUIIUUUIUIIUUUIUIUIIIIIIIIIIIUIILLILLLLLLKLKJHNkfN",
"pzmSSDSDFDFFDDDDDFDDFFFFFDFFFDDDDDDZDDZDDDACDZZZSSAASASSZCVNjffvpzVSFDDSDFFDDDDDFFFFFFDFFDDDDFZSFFFFDDADDZDMZDZDSCSSZZZZAABNcffv",
"plbMZMmnnnmnnnnnnnnnnnnnnmnnnmnnmmbmnmnmnnnnnnmnnnnnbnnbvnvvxffkpkzMMMmbnnnnMmmbnnnnnnnnnnnnmnmnnnnmbnnmmmbmbmmmbnnnnnnnnnvvcffk",
"rlzbmzpqyiyyiyytyyyyyiyyqyyquyyyyyyyyytyytyyyyyyyyyquyulzvvzxksrppzzVVppiyiyqqqqyuyyiyyyyyyyyyqyqyyyuyyyyyqyqqqyyuyyyyillzvvxffr",
"rpzbnkqqyyyyttttytt0qq00000000003303330303333303303003qazzvvxfrrrpzmzprqqqqqqqqqtq0q00tttt030300q3330333333333330010330azzvvxkwr",
"rpznnliyuuyuuyuuyytyutttyqty0ttqqtt0qt00000t00303003333azzzvzfw9rpzzzzqquuyiyqiyyyuyuyttytytytt00qt0tt0y0q0000030303333pzzvzxfw9",
"3pznnzrrhiuuuiiiuiuuuuuuyytutttttt0t0qt000q3q3q300302>3azzzzkfw90pbbnzhuiiuiiuiuuiuuyiuyuyuttytyyttt0y0t3000q3qqq333323abzzckfw2",
"qrznnzkrihiiiuiiiuiuuyyuyutttytyyqtt00000y3qqq3q033322ymmazzkfw50ilnnbhuihhiiiuiuuiyiuyyyytytttytt0ttqt0tt003q3q33q322yzzzvcxfw5",
"2qzbnzhphihuuuuyyyttyyqqtttqttttqqqq0000003q33q3333<>qpzzzzzxdw;9qlnnzhhhiiuuuiuuuuuttttttq0t0q0y0t3q0qq0000q333332>>qpzbzzckfw;",
"9qzbnvkkhhiurqttttq0tt0qt0003003q33303033333332233222qpzbzzaks8;2qznnbkkhhurttttqqq0ttt3tt0000003003333333333333332>2qpbnzzlfrw;",
"9qzznzkvkhirr0rrtyqq0q0qqq0q000033q33q3qq33q2qq233322pambzzlkd9;2qlnnbbckhrruyrtrqqrqq0q0q0qq000000000093333q333q3332pabnllckdw;",
"2qznmnzvchiuiiriyuyyirryqrqqiqrqqqiqqqqqyyqqqqqqyyq32pznmzlzkd8;2qlnBncnchiruiyyriyyryriyyyqyqqryqrqqqqqyiqqqqqqyyq32pzmnvllkdw%",
"2qabnmbmckhiiiiiiiiiriiqiiqirqyiqqqqqqyyyyqqqqqqqqq3qpbMzllkhr8=2qannnnBckhiiiiiriiiyiiriryiiyyriqqqqqqqyqqqqqqqqqqqqpzmnllcks8%",
"*2anMnmNnxkhihiippihipipriprppqppyppqpypyyyypqrryiyyppbMmlpzfs8%;2pnBnBBnxkkpiphipipiiirpiiirpiiiiiipqpqiiiqpqrpyyyqrlbmnzklhww%",
">3abCnBBBcckakkkkpkpkpkpkpppkppppppippppppppppppppppabMMbbkkfsw%*2anMnmVBcxlkkkkkkkpkkapappkpppppppppppprpppppppappppzMMzzlzrf8%",
"*3abnBBABvvvbcbbvzzvzvzzvzzvzzzzlzzzzzzzkzzkzlllzlazlbMMnbkkhd8%*qpzMmVVBBbcbbvczzvvzzvzczzzzzzzzzzzllzzzzlzzlllzzzpzzMMbzpprr8%",
"*2abMnCBBAASSSDFSSSSSFSSSSSSSSSSSSSFSSSSZZZZDZZZMDMDMMMMnnkkfew$*2pzmVMVBBAASSSSSSSFFSSSSSFDSSSSSZSDDSDDZZZDZZCZDDMMMMDMMzppfsw%",
"@2annCBCSJPPIPIIIPIPPIPPPPPPIPPPILIIPPPPPIPIIPPPIPULJDDMnnphfd8$@2pzmVVVHKPPPIPIIPPPPPPPLIIIPPIPPPPIPPLUIIUPPPIILIIILDDMMzppfsw%",
"&2iznCAFPYYRERRERRRRRRRRRTRRRTRTTTTRTTTTRRRRRURRTRTTYIJCnbkhufs$@2pbmVZFPURTRERRRRRRERRRERRRRRRRRRRRUEUEURTRTTTRTTRTTLGMmzkprfw%",
"@2plnCAGLPUUIUIIUUIUUIIUUUUUUUIUIIIIIUIIIIIUUUUIIIUIILJCmblifds$@2plvVCGLIUUIUIUIUIIUIUIUIIIIIIIPYPIUUUUUUIUIIIIIUUUULLMmvkhffw%",
"@*yzbnCAFAAFDFDDSFFFFDFDSDFSDFSSDFDFFFDDDDDDDDFDDDMGFDDmbckiffs$@>ilnnCSDFFFDFDDFFFDSFSFDFFFDDDDDDSDDDFMFMDDFFDFDDDDDDDMvzkrffs%",
"@2ypbbbbbbbnbbnbvvzbbbbbbbbbbzbbbzbbbbbbbbbbbbznnbbbbzbbliihdgs&@2iazznbbbbbbbbbbnbbbznbbbbbbbbbbzznzzmzmmzzbbbnzzbbzzzzliprffs%",
"@*33qqqq00t00t0tttttttttqqyy0y0yttttyytyttiuttuuqqyyyuqyt7uuhgd$O*22q0qqqt3ytttttqq0tttttyyqt0ttqqqqqrttttttttttuutuuuuuq0uffgd$",
"@*>233330330030331030030300300003tt300ttt0tutttuqqttqtrqu7uufgd&@*223333333303333300t333300300003q0q00q0ttttttttt7u7tuuuqquuhfd&",
"@>2333333303303000t00tttttttttytuutuyuuyyuuuuuuhiyiiuiuuubuhjjg$@>2333333333033t0t00tttttttyttuuyyyyyuutuututuiiuiubuuuuiuihjjd$",
"@>>2>>22111133333303337t0t3ttttttttuttuuuuuuuuuuiyiiuiihuhhhhjd++>1><<111333131311031t70t3t0t0ttqqttttuuuuuutuiiuuuuubguuhhihjf$",
"&::>>>>><<>><<1>11111111173717t1707070u0ttttuuuuuuuuuuuuhuuhrgs%#>::><><><><1>>1111<1111117173777700tt3tuuuuuuueuuuuuuuuuuuuujg+",
"#####:#:&#:::::::>>>,,<<111,<1717777777737777777e7eeue7e8777eww%#+@@&#&##:&::>:::>>><<,1<<1717777777777777777777077eee7eee8s7ds+",
"<+XXXXXXOXOOOOOOOOOO$++++$&&&:&-,::,,,,,,66,4464446666668668865$<%XXXXXXOXOXOOOOOOOO++++##&#&&&,:::-:,,,,4444666667668666668666O",
"4%.XXXXX.X.X..o.ooooooOOOOO$+$$$$$&=&--==---4,,4,4444444444444;o<%.XXXX..XXXXX.XooooXooOOO$$$$$+=$&=-==--=,-,4-4,4444444444444=o",
"nVNvvNnNNmmmNVVVmmVVVVVVVVVVVVVVVVVVVVVVVVNVNNVNNnNNvvNvvvvvvkw9NVnvnNnnnNnVVmmmVVVmVVVVVVVMVVVVBCVVVCVVVVVNNVNNNNNNvvvNxvcxzfw9",
"CKPPLLPLPPPPPPPPIIIIIIIUIUUUIUUUIIIUPUIPPPPPPPLLLKKKJJJJHHHSNkw9VKPLLLPLPPPPPPIUPIIUPIIIIIUUUUIIIIIIPPPPIPPPLLLLPKKKJJJJHHGHVkwr",
"pMGKLLLLLLLLLLLLPPILLPLPPPPPPLPPPLPPPLLIPPLPLPLKLLLLKKJJJJHHNfw9kVGLKLLLLLLLLLLLLLPLLPIIPPPPPPILIILIPPPPLLLLLLLLLLKKKKJJKJHSNf99",
"rkmSFDDDDSDGGSSGFFFFSGFFFFHHFGFFGGSHFFFFSSSSSSSSFDDMSSSSSZZVvfw9rpMSSSFFDSGSSSFGGHFFGFFFGSFFGFGFFFDFFHSSFFFFSSSSSSSSFSSSSSSVNfs9",
"rpzMMMMMMMMMMMMVVMmmMMMMMMMMMVmmmMmVmmmmmmmmVmmmMMMMMMmmNmNnxf99rpbMCVmmMMMMMMMMMMMVmCmMMMVMVMVmmVmmVmmmMMmmMMMMmmMmmmMmmNVvxf99",
"qplzMmzalplapllpplllllaalapllalaapalakaaalallpplaaaaaaymzzzvxkw9qpzbnnbalplkaaalplplkklalpplaaallallkaalallaaaaapllpplaplzzvvfw9",
"qplzzlqqq3qq2qqq0000t0q023q303030303t330000390003q3q333alzzvvxw9qplzblqq0qqqtt0t000q000000003033030303003333333q0020000plzvvNfw9",
"qrlzzprqyyrqqqqqttyy0tttqqqq0q0q0q003tt3300333033q33333ylzzvxfw;9ppzzkyqrqqqttttytqqqqqq00q00tt0tt300t3003qq333q3003323plzzNxfw;",
"0ykzbliupruuuuuiuyyuuytttttt0tqqt0t000y3000000300303333ylzvzxgw;9qzzzzqpuuuiitittyyttttuttttttt0t0t03tt00000q303q333332pllcvxhw;",
"0yabblhhiiiuuiiyyuuyuuttttttttt0tt0t0qyq0000300333332>3plllvcgw;qqzzzpprhiiiiuutuyuuityutttttttt0t00ty000003q33033322>3alzzvxhw;",
"9qlbblihhhiiuiuiuuutttttttttttqq0t0000q3t03tt3333322>>yazzzxxfw;2qzzzlprhhhiuuuiuuuyyttttt0qttttt000000qt003q33q3033>>qallzcxgw;",
"2qabblhhhhiuuutttttttttttt00000000030033333330333222>3ymlkzvcfw*2qpzvzpphhuuuuutytytttttqt0q00000000303330333333332>>3ylzlzzxfw;",
"20pbbzhlhhhytttt0rtt0qqq000000000300q33q33333333332223ylblzlkjw-2qabbzklhhiyeqrqqqqqt0q00q00000000q33q3030333333333>22yzzlclkgw=",
"29pzbzlcjhiryyyyqr0rr0qqtq0qqqq0000033q3q3q3033q333223abbklcjfw%23abnzkvxhirtuqrrtrqtt0qqqq0q00q003qq30300303q3333322qpzzllcxfw=",
"23pznbcBchiiriyiiiyiruyiyyyqqqqqyqyqqqy3qq3qq0qq3q332qabblkljhw=;3plnvvvchhiyiiiuuryyyyiyyyyqqqytyq3qqq0tq00qq33q3332qpzblkkkfw%",
"*2pznncnckhhiiiyriiyyyyryriyqiqqqqqyqqqqqqqq0q00qq322yabblkcjfw$;2pznvvvchhiiiiiyyiiyriyrqirqrrqtyyyqqqqt0qqqqqqqqq33yanzllxkfw%",
"*2pzbzmbcjhiiiiiiiiiiriruuiyiyqryyqqqqqqyyyqqqqqqqqqqqzbblhhhfs$*3pznnnncxhhiiiiiiiiiyrirriiryiqryrryyqqqqqryyyyqqqqqpazzappkfw%",
"*2pzmznmBclhkkphpkkpppppkippipppppipppppyappiiprqpprqpzmblalhf8$*2pznnBBvckhkppkikkaihpppppppppipypppippprppiypyqypqqpzMzzzppfw%",
"*>plnnmVBBnnbnnnvnnvnnvnnnbbvvvzzzmznbzzbbbnzbzzbzzzpzzmbbkhhgs$*2plnnmVBNBnnvvnnnbbnnvvvnzvnzvzbzznzzzbzbzzzznbzzzzpazMMaapffw%",
"*2qznNCVABAFFFFHSSSHSHSSFADDSSGSDDSSSSSSDDDMDDSSDDDMmzMbbbhifgs$@2qlnnVCVASSSGSHDDFDFSSGSSSSSSFFHFSFSSDDFSDDDDDMDDDMMzMMzzppffw%",
"&>ylnnCSFKIKIKIILLLLLLLLIKIKIGIILLLLLLLLKKLLKKKILLLLGZMMnlihfgs$@2yzmmZDGJLIPPLLIKKIIKIKPLKLLLLLLLLLLKLKLLLLKIKKLLLLGDMMbzphffs%",
"@2ylnmCHIIIIIIIIIIIIIIIIIIIIIIIIPIPIPIPPIIIIIIIILILILLDMnblhfgd$@*yzzmMDKIIIIIIIIIIIIIIIIIIIIPIIPIIPLUPUIPPPIIIIILILLLDMnzkhfjs%",
"@*yabVCFKKGIFGKKJKJJJGJJIGGKDGGGJJGGGGGKKKKKGGGGGGGGGDDMbblufgd$@*qazmMMGJLJJJKJIKKKGGKKJGGGJJJJGGJGGGGGGGGJKGKKGGGDGDDMbzlrfjs%",
"@2yabnnnnnnnnnnnmnmnmmmmnnnnnnnbmmmnmmmmnnnnnnnnMMbMMmmmllhhfjd$@>qzzmmmnBnVnmnmnnnnnnnnmmmmnmnmMmmmmmMmMmmmnnnnMMMMMMMzlkkhfjs%",
"@*3yaaiaaaiaaaiaaiiaaaiaaaiabubbppipaaaaaiaiaaaappppkaaiutyhggd&@:0tiaiaaiiaiiaabtibuibttbtbtbubppppapaaaubaiaiaaaaaaihaiyuihjd$",
"O&223333330330300000t3333t7t11110000t0300ttt0t0tqqqqtuqqytrihjd$@:2330307t3000330303033003000001330300q0tt3ttttt00ttttt0qtufjjd%",
"@:231333333003000000t3t33ttttt7u0ttqtttuttttuuuuyyqquuuuuuuhhjd$@:1113330330033t000t0000000t007tqttttt0ttttttttutytuuuuutuuhhjd%",
"@>>211111311131131331t3tt0300ttutttttttuttttuuuuyyyquuuuuiuujjd&@:>1111>1111313310173000000000tuqy0tttttuututttuuuuuuuuuuiiuhjf$",
"+:>>>>>>>>>>>1>1<11111111111771717070777t3t7ttu70tuttueuuu7fujd$@:>>:>::>><>><1>1<111111101117u7777707t37t7tt00uttu0euuueuuuujd=",
"###&&&#&&::&::::>>:>::,<<<<<117,1<,1177777777177337777777777778$@###:#:::::::::>:::><>,,::11<<<<11171<1777717777777777777877778$",
"XXXXXXOOOOOOOOO+O+++$+++++&+:&&,::-,,,,6,,,,,,6<<66666668666864$XXOOOXXOXOOOOOOOOO+++++++++:+-&=&,,,,:,,,,,,,66,666666468646646O",
"....X............X..oXooOoOOOOOO$$$++$=+&====-==&===--=--4=444$................XXX..ooXOOoOOOO+++$$$$=$&=&========-=4=--4-=44-=X",
"rrppkpkpppllllabkkllllzzclzzzzbbvvvvvvvnvznbbbbbxxkxxxkxxgxgkk95qpprppppkppkppkkallkzlzzzxzvzzzvvvvvvvvvbbncvcxczxxkxxkxkkjjkf99",
"GPUUUUUUYRUURUURRTRRRRRRRRRRTRRTRRTTYTTYYTTUUUUUYUUIIPPLLLLKHNfrFPUUUUYYYYTYRRRRRRRRRRRRRRRRRRRRRRRRRRRYTRYYYYYYUUIUIPPPPLKPHNfr",
"NKUUYYURRRUERRRRRRRREEEREERWEEREEEEEEEEEEETTTTTTRYTYYYYIYPUPAxdrvJUYURRURRTTRRRRRRRREREREEEEEEEEEEEEERRERRRRRTTTTTTYYYYIIYIIHxf9",
"rzSKKKLLKKLKKLLILLLLLLLLLLLLLLIKLLLLLLLLLLLKLLKKKLKKKKKKJJLHNxrrrzSKJLLLKKKLKKLLKLLILLLLKLKLLLLKLKLKLLLLLKLIKLKKKKKKJKKLJJHHNxfr",
"rpbMDCCCMZZMMMDMSSZZCZZCZZZZDMDDCCAACCZCCZCCMDMMZZCCZVZCAVVVNgdrrazMMDMDMMDMMZMZCDCCACZCZZSZZZSZCCZCZZZVMDMMDMMMAAVZCZCCCCVVNxdw",
"qplmnnbbbbzmbbnbzzzzbbbbzznzbbnbbbbbbbbbzbbnbbMbzzzzbzbbNzvvNxdwqplbMmzzmmzzzzzmbbbbbbbbznbbzznbnbbbzzbbbbnnnbbmzznzbbbbzvvvNxf9",
"qppzbliyyyqytttiyyqqyy0yyqqyttttyytyyyyyyyyqayyyqqqqqqqplzvvvxd9qppzzlpqqypqpqrqytyyyttyqyyyqqyyyyyyyyyyyyyyyyyyqqqqyyyillxvNxf9",
"qqpllayty0qqtttt0q00t00000000000033t303303303333q200033qplzvvxs9qrpllpqqyq3qq3qq0tt3ttt12qq33q3330003303303303303002333yplzvNxs5",
"2qpzzpqquuuuttuttttttttttt70t000t300000033y33y3y3333333talbbcjd;3yiabuuuytiuttuttttttttt0t0tt03ttt3t0000030333333333323yklzccxs5",
"9qpzpppphuuututttttttttt0ttt0000tt000303y33333333333<>2yablcNjd;3tabbbahiyuutututtttttttt0t00tttt3t300033003333033333>2yllcccxs;",
"2qpzlkpphiiutttttttttttttt0t00001t000001333q33333331>>3ialzccjd-2qabahuhhiuiututtttttttt0tt000000300t33030303q333333>>3ylazvxxs;",
"29pzzkpphhiuiututyttttt0t0t00t00t330100033333333331>>2yalklcxjd=20iabbhhkhiuuuttuttttt00000t000000003y3303033333333>>2qalazlxgw;",
"23alzlpkkhhttruuqteq0tq0000000000003001033333323332233yaallzxgw;23pzbhihkhhyttttqtqt0y0tt00000000030303313333333333>23qaaklcvjs;",
"23plzlhcckhuuqqutttr000qqqq0000000000333q333333332223qyzlalcxgs%;3plbbhbckhyittytrr0q0ty0t0t00000003y3q330330333333>3qpalklcxjs%",
"*2ibblkvcxhiyyyyyyyyyyutyqqqqqqtq00yy0ttq3qqq3qq33323yymlkkcxxs%>2plbhhNnxhuiiyuyiyiyyyyttttyyyy0yqqy3y3t000y33333333yaalakkxgs%",
"*2ikbzcnBckihihiiiiiiiiyiyiiyyiiyyyyytttqqqqqqqqqqq3qyaalakkxgw%*2pabbcbBckpiuaiiiiiuyypyiyiuyyuttytyyyyttyyyyyyyqq3qyablllkxgs%",
"*2ilbcbBBcchihilhhaiilaiaiaiiaiippyppypypyiiipyyyyyyypazaaazxgs%*2plbbzmBNhbiahaiahaihaiiiaiaiiiprppipiiqppyiiyypqyqqpabzapazfs%",
"*2ylbbnBBNbcbllllllllllkklkkakaaaaaapapaaapapppaiaayyaamzapaxgs$*2qlbzvVBBbjhbbhllklllllkllkalkaplppppplapppaaaaapppyazbzapappw%",
"@2yzbbnBBBBnnnnnnnnbbnnbnnbbnvnnmmmzbzzbzzbzzzzzmbbbapaabapahgs%*2qlbvnNBBBBnBnnnnnnnbnbnnbbnbnbbbbbzzbbzmmzbbnbbbaaaazbzaaaxfs%",
"@2ypbnBmBBAHGFFAFAFFAFFFFFFFSSSFMFDMSSDDSSSSDDDDMMMMmmmmzlppjgs$@>qabvmVBBAAFFFFFAFFFFFFDDDCFSSSFDFDDDDDDMDDDMDMMDDMbbbbzaaakgs%",
"**qammMVBHJIIPPPIIIIIIIILLILILLLLLLPLPPLLLPLLLLLLLLKDMMnblikhjs%@2yabnBVAJKIIIIIKIIILIPPIIIIIIKIPPPPLPLLLLPLIKILLLLGDMMbzlphfgs%",
"@*qaamMMKIIIUUUUIIIIIIIIIYIIIIYIUUUUUUUUUUUUUUUUIIUILGMnblkhhgd$@>3aznBSJIIUIIIIUUIIUUUUIIIIIIIIUUIIUUUUUUUUIIIIUUUULGMbzlhpkgd%",
"@*qpammMKKIIIIPIIIIIIIIIILIIILILLULPLPLPLLPPLULLILLILKAnbbaijjs%@*tabnnFJKKIIKIIIPIIKIPPIIIIIKIIPLPPPLLPLLLLIKIILILLLLDMzzkhgdd%",
"@>qpmbmmFBCDBAABDnDBDnMMCCCCCCCCZMMZMZZMMMDMMMMMDMMMMMMbllaijjd%@>tabbnCCCCCCCDMABCCACACCDnCCMDnMZMZZMZMDDMMDMnnMMMDMMMMllhfgNd%",
"@>0yibbbbbbblllbbbbbbbbbbbbbbbbbbbbbbbbbmzbabbbabblblbbliiihjjd%@*2paabbbbabbbbbbblbbbbbbbbbbbbbzzlbllbabbbbbbbblzbllbblpihijjd$",
"@>330000t3tttt3ttt1001tt000t3t0t000t300tqqyy0yytiuttttuuuquihjd$@*23q0q03q00tt10ttt30t100001tt00qqyyyyyttt0001ttyttttttuyqrijjd$",
"@@23333313333033330113333310101t100000tt300q0q00t30tttt0truhhjd%+#22333333333303011t0033303010t73q3300t000t70t0tttttttttqquhhjd$",
"@:>>13111131133110103000100000tt000t0ttuqytt0ttttuuuttttutuujjd$+:>23<3331331310101110000300000ty3ttt0tttttutttttttuttuuutuuhjf$",
"@:>>:>>>>>>>>>11<1111111111117113110777777370t0370000t7tt0u7rgd$+>>>>>>>>>>>1>>>11<1111111111t171771033t7u7uu0707t0000u7uuu7ujd+",
"@#:#&#:&:::::>:::::::><>1>1:<,1<<1<11,11117711111777777777777w8$+####:&#&:&&>>::::>>:>,<><><:<<,1<1<>11<<<1<<777177717776777788$",
"XXOOoOOOO+OOOOO+++++#&++##&&+--&--::-,,:,,,,6,,,,6,,,,,66,6655;$OOXOOOOO+OOOO+O+++++++####:+:&:&:,----,,6,,,,,,,6,,,,6,,,66,466O",
".. ...............o..XXXoXoXooooOOOOO$$$$$$$$&$=$============%$ . . ................XXX.XXoXoOOoOOoO+$$O$$$$$$$=$=$===========$X",
"***%*%%%%%%**%*%;*;%**;%;;;*;;;;><<;4<;;5;5555558;;55555;45585;=;;***%%%%%%%**&&%;**=****=;;;-,:-,;;;;;;,6<555555555555555;555;=",
"VSSZVVVVmmMVVVVVVVVVZVVAZVZZVZVZDnCCAAVAZVVZVCVVVVVVNVNNBNNVVvkrVSZZVMVmVVCmVVVMVVVVVZVAZCAZCSCDSVACAAVACCCCAVVVVVVVNVNVNNNVVNkf",
"VJLLJGHHFGGFHGFGGGJJKGKJGGJJJGJJKKKKJJJJGJGJGFJFHGHHHHHHAAFHANdfVGLLJHGDGFSGHGGGJJGGKJGJJJJJJJKGJJJJJJJJGJGKHGHGGGHHSSSSSSSHVNfr",
"pnSFSSMZZCDDSZSZSZSSSZZSSSHSSZHHDDDGSSSSSHSSSSSFSSSSZZZZSSSANxgrrNSFSSMZZZZZSZDDZZSSSSSSZZDSSSDGAFFFSSSSFDDDSSDSSZSZSSSSSAAANxgr",
"qpzMVMmmnmMmMnnnVVMMMmMMMMmMVVVMMnDnMMMMMMMVMVmmMmMMMMMVBmBBxNfwrpzMMmmMmmmmnnMnVVVmmmmmMMMMbnnnmVmmCmmVbnnMMMMMVVCmmVmVmVVNNNdw",
"qqabbbbbbbbbnnnbzzbzznbbbbbmzmzzbbbnnbbbnnzmnnnnvnvnbnnzbbbnNxf9qrzzmblbznzzbbnnvvnznnnnnnbnbbnnbnnnnnnnbbnnbbbbnzznnvbbnnvvNgf8",
"qqppblppiaaiaaaapppppplpppaapplpbtabbaaapppppiaapaaappppklxNxxg8qqppmaaalpppbuubpppppappppppbbtbaaaaapppbbybbybapppppaaapzcvNgd9",
"qqpazpqqttttttttqqqq3q3qq33q3q2qt111t1tt000000000030q00qalzcjNg5qqpplpyy3q3q000033qq00q0000000100000030q00300333000003qyilxxNNd9",
"9qppaiyutuqtt3t3t0t000003y0000033t3333333133333333333333aabmNdd52qppppqqttttttt0yyt000003tt300000t100333333333333333333qilbccNd4",
"2qppaaiiyutttttttt0t0000y300030033t33t3333333333331132>qaaabNNd42qppppppuutttttty30000t03t3tt10001333033031033313>333>>qallcNjd4",
"2qpaliiruu0t3ttt1tt00000300110303303333333133333111<>>2qaabaNgd;2qpplprphutt7tttytt0000003t31100t3333333311331313333>>>yaazcNNd;",
"22qzlkhkhhuttttttt0tt000y000t001t333333333331333332>>>3ypaabNxd-22pplpppauuuttt7y30tt0000t30t00113t3333033103133113>>>3yialcNxd;",
"22pzappkkhhuuuttttt0q0000t0000003033303333333333312>>>3paalccjd-23ybappkhhautttutttt00t13t300000t3003003303333331>3>>23pailcjN8=",
"22qazapkcjhuttttt0tttttq000000000300033333333333332>23qappkzNjd=>3pallpkjhhutryuttttttttt0t00003t333033333333333333>23qaahacNgs=",
"*2qpzapzbjhiuuitutttyytttttttt003yy00y3y333033q3333223yyapalcjd&*2yabkkxcjhyyyyyyttytttttyyy0ttttt00030300333303333><3tabilljNd=",
"*2pzzalzbjauiiiiiiuuyiyyyytittttyyy3yyyyyy0y3qqy00332qymapalxjd=*2yallkvbckhiiiyiyiyiituyyyytyytttttyyyq0tttyt0yqq333tyabihxjjs=",
":1tblbcbBjbhbububiaiiiuiiiiiiiaitiittptyyyyyyyyyqqq330yybihlNgs%*2qpllcbBxbuhhbuahuuuaiiiiiiiiiiyypyyyyqyyyyyyytyyyqqqaaaaaazks%",
"::tubhbBBbbbaaabaaababbalaaaaaaatbbippaybyaapyayyaaqqybbaahxjjs=*2yablbBBBxbbhubhabblaaalaalaiaaaapybaayaaaiatbtayyqqyaaaaaaaps%",
":>ubblnBBBBbbbnbbnblnbbbbbbblllbbbbbbbbbbabapabaaayyaatbbiikjjd$*2yalbnnBBBnbbbbbbbbbbbblbblbbbbbbabbabbbaaababbaaaaaaaabaaaxjf%",
"#:uulbBBBBBFBBBBCBCnBBBBBBCnCCCnMnnnnMbMmmMmMMMMMMmmaabbbaahjjd$@23pbcnBBBBBBCCBFBBBBCBCCCCBCBnBMMMMMMMMMMMMmMnnMMbbaabbaaaajjs%",
"#<qpbbbBBBPLKKKJKKKKKJKKKGGIJJJJKKGKKGGKGKGKGKKKGGGMnbbbbaihhgd$@*qpbbnBBBJKIKKKKKKKGGIGJKJKKJGJGGKKKKKKGKKGKGKGGGGDbbbalpphkjs%",
"#>3pbbnBHLPIIIIIIIIIIIIIIIIIIIIIIIILLILILLLILLLLILILDnbbaaahhjd$@23plbmMLKPIIIIIIIIIIIIIIIIIIIIILUULLLLLLPPLKIKILLLLDMbbllhhfjs%",
"@>qpbbBKLYIIIIIIIIIIPIIIIIIIIIIIIIIIILIIUUIIUUPULIILIDnbbaahjjf$@*3plbmDLPIIIIIIIUIIIIIIIIIIIIIIIILUIIIIPIPPIIIILILLLDMbbaphjjd=",
"O>0ybnBBBBKBGGDGFFHFHFFGDDFFFFDADGDDGDDDDDDDMGDDMGGMDDBbbbihjjd$@*3pbbnMJBFHHFFFFFFFFFDDDFFFDFFFDGDDGGMKMGKMDDDDGDGDDMMMllphjgd%",
"+*3ybbbmnnnbnnbnbbbbnnnnnnnnbnnnnnnbbbbbnnbbnnnnMMMbmbbbaaahhjd$@:3abbbbBnbbnbbnnnnnnnbbbbbbnbnnnbbMbbbnnnnnnnbbnnnnnnnbaahijjd$",
"@*3yyyyyiaiatbiatbubiuaiaiiaautbauibbitbauaaaauaaaaayaaautuhjjd$@:300iaiubtbbttbiaaubibitbtbutbiiayaaptbiaautbbiaiaiaaiiuyihhjd$",
"@:>2333333311333330303t33t3303303t3t1000003tt3t333yy0t33t0uhhgd$@#>313331111101133331330103003033000t333300t0000t30t3t0uy0tujjd$",
"@#>21133311111333333303133t1000303tt330000t3tt0t3yy300t0u7tuhgd$@:>11111111t1111333313030100000t00003t3tt000000tttt3tt00tttihjd$",
"+&>>>>>>>>><>1><11111111111111117171773701t10077030703t07t00ufs@@::>>>>>>>>>1111<1<1111111111117173333307733370737t77t00007uefe$",
"+&&#:#:>:&>>::>::::::<><><<<1>>1<<<111111<11,7717177311177777ew%@###&&:::::::>::::>>:>>>1::1<<<<<<1,1111117171771711777177777e8$",
"OOXOOO++OO+O++O+++++####&+##&+:&&:=:&&=::=::::--,::,::>>6--6-,-oOO#@OOOO+OO+OO++++#+##++##+:&&&&::&::#::-&=:-&::--:,-,,,:,---66O",
" .     .     .  ....    .. .....  .  .. .... .  X .  ...  .  .           .  . ..  .   ......  .       ... X X. . X X .   ...    "
};
