/* XPM */
static char *tile2181695480739[] = {
/* columns rows colors chars-per-pixel */
"128 128 80 1 ",
"  c black",
". c #060606",
"X c #090909",
"o c #0C0C0C",
"O c gray6",
"+ c gray7",
"@ c gray8",
"# c #161616",
"$ c #181818",
"% c gray10",
"& c gray11",
"* c #1E1E1E",
"= c #202020",
"- c #222222",
"; c #232323",
": c #252525",
"> c #272727",
", c #282828",
"< c #2A2A2A",
"1 c #2C2C2C",
"2 c #2D2D2D",
"3 c #2F2F2F",
"4 c gray19",
"5 c #323232",
"6 c gray20",
"7 c #353535",
"8 c gray21",
"9 c #373737",
"0 c #393939",
"q c #3A3A3A",
"w c #3C3C3C",
"e c gray24",
"r c #3E3E3E",
"t c #3F3F3F",
"y c #414141",
"u c gray26",
"i c #434343",
"p c gray27",
"a c #464646",
"s c gray28",
"d c #484848",
"f c gray29",
"g c #4B4B4B",
"h c #4C4C4C",
"j c gray30",
"k c #4E4E4E",
"l c #505050",
"z c #515151",
"x c gray32",
"c c #535353",
"v c gray33",
"b c #555555",
"n c #565656",
"m c #585858",
"M c gray35",
"N c #5A5A5A",
"B c #5B5B5B",
"V c gray36",
"C c #5D5D5D",
"Z c gray37",
"A c #5F5F5F",
"S c #606060",
"D c gray38",
"F c gray39",
"G c #646464",
"H c #656565",
"J c gray40",
"K c #676767",
"L c #686868",
"P c DimGray",
"I c #6A6A6A",
"U c gray42",
"Y c #6C6C6C",
"T c #6D6D6D",
"R c gray43",
"E c #6F6F6F",
"W c gray44",
"Q c #717171",
"! c #727272",
"~ c gray45",
/* pixels */
"=22222222<222<<2222<2222<22222222222222222222222222422244244222222222222222222442222222222422422222242222222222222<2<22<22<22<2*",
"2yyyyyyyytyyyytttyyytyyyyyyyyyypyyyypyyyyyyppyyyyyyyypypyppypyyyppyyyyyyypypyyyyyyyppyypyyyyypyyyyyyyyyyyyyyyyyyyytttttttyytttt2",
"2yyyyyyyyyyyyttytyyyyyyypyyyppyppypyyyyyyyyyyyypppyyypypppppppypypyypyyyyyyyyppypyyyyyyyyyyyyyyyppyyypyyyyyyyyyyyyytttttttttttt<",
"2yytyyyyyyytyyyyyyyyyyyyypyyyyyypyyypypyyyyypyyyyyyyyyyyppyppyyyyypyypypyppyyypyypyppppypyyyyypyyyypyyyyyyyyyyyyyyyttttttttttty2",
"2yyyyyyyyyytyyyyyyyyyyyyyppytyyyyyppyppyyyyyyyyypyyyypyppypypppyyppypyyppppypypyyyyyyppyyyypyypyyypyyyyyyyyyypyyyyyyyyttttttttt2",
"4yyyyyyyypyyyyyyyyyyyytyyyyyytyppypypppyypyyyypyyyyypyyppppppypyyyyyypypyypyyyyppyppppppppypypyyppyyyyyyyyyyyyyyyyyyyyytttttttt2",
"2yyyyyyyyyyyyyyytyyyyytyyypyyyyypppyyypyyyyyyyyyyyyyyypyyppyypppppppyyyypypyyyyppyypyypppyyyyyppyyyyyyyyyyyyyyyyyyyyyyytttttttt2",
"2ypyyyyyyyyyyyyyyyyyyyyyyyyyyypyyyyypyyyyppypypyyyyyyyypypyypyyyyyyyyppyyyypypyyyypyypppyppypyyypypyyytyttyyyyyyyyyyyyytttttttt2",
"2yypyyytyyyyyyyyyyyyyyyyypypyyyppyyyyyyyyypypyyyyyyyypypyyyyypyppyyyypyypyppypypyyyypyyppypyyppyyyypyyytttttttytttyytttttttttty2",
"2yyyyyytyyyyyyyyyyyyyyyyyppyyyypypyyyyyyypypyyyyyyyyyyyyypypypyyypypyypppyyppyyypypyypypypypppyypyyyyyyttttttyyyttytyytttttttyy2",
"2yyyyyttyyMSSSSSCSSSSSSSSSSSSSSSSSSSSSSSSSSSSSSSSSSSSSSCSSSSSSSSSSSSSSSSSSSSSSSSSSSSSSSSSSSSSSSSSSSSSSSSSSCSSSSCSSSSSlyttyttttt<",
"4yyyyyyyyMHHHHHHHHHHHHHHHHHHHHHHHHHHHHHHHHHHHHHHHHHHHHHHHHHHHHHHHHHHHHHHHHHHHHHHHHHHHHHHHHHHHHHHHHHHHHHHHHHHHHHHHHHHHHytyyytyty2",
"2yyyyyyttMHHHHHHHHIIIHHHHHHHYIHHHHHHYIHHHHHHIIYHHHHHHIIIHHHHHHHYIHHHHHHIIIHHHHHIYIHHHHHIYIHHHHHHHYIHHHHHHIIIHHHHHHHHHHytyyttttt<",
"<tyyyyyyyCHHHHHHHIYddSHHHHIIddHHHHHYMpvIHHHHYvpMIHHHIYkdSIHHHIIddHHHHHYCpvHHHHIIddHHHHHYCplIHHHHWvpMIHHHIIkdSHHHHHHHHHyttttttty2",
"2yyyyyytyCHHHHHHHH*  <HHHHS@  4IHHHk. .lHHHIy  oMHHHH*  >IHHHS@  4IHHId. .lHHHS+  4HHHId. XlHHHIy  oMHHHH*  <IHHHHHHHHytttttttt<",
"2yyyyyyyyMHHHHHHHS   XSHHIv   %HHHY4   yHHHI=   dHHHC   XSHHHv   %HHHY4   tHHIv   *HHHY2   tHHHI=   dHHHC   XSHHHHHHHHytttttttt2",
"2tyyyyyytCHHHHHHHS%  =IHHHCo  4IHHIy  .lHHHIq  XMHHHS%  >HHHHCo  4HHHHp  .lHHHC+  2IHHHy  .lHHHIq  XMHHHS%  =HHHHHHHHHytttttttt2",
"2yyyyyyyyMHHHHHHHHC77CHHHHHC77SHHHHId2pIHHHHIy2kIHHHHS47CIHHHHC4qSIHHHId4pIHHHHM47HHHHHId2pIHHHHIy4dIHHHHC77CIHHHHHHHHytttttttt<",
"2yyyyyyyyCHHHHHHHHHIIHHHHHHHHIIHHHHHIHIHHHHHHHIHHHHHHHHIHHHHHHHIIHHHHHHHHIHHHHHIIIHHHHHHHIIHHHHHHHHIHHHHHHIHIHHHHHHHHHytttttttt2",
"<tyyyyyyyCHHHIWWIHHHHHY~YIHHHHHIWYHHHHHHWWIHHHHHIWWIHHHHHIWWHHHHHHIWYIHHHHIWWIHHHHHY~YHHHHHHWWYHHHHHIWWIHHHHHI~YHHHHHHyttttttty<",
"2ttyyyyyyCHHHIy>tHHHHHS42lIHHHIC22vIHHHYd<qSHHHHIy>tHHHHIS42lIHHHIC22vHHHHId>qSHHHIC22vIHHHId>tSHHHHIy>tHHHHHS42lIHHHHytttttttt<",
"2tytyyyyyMHHIy   dIHHI*  +SHHHH+  *HHHId   tIHHIt   kHHHH*  +SHHHH+  *HHHId   yHHHS+  *HHHHk   tHHHIy   dIHHI=  +SHHHHyttttttyy2",
"<tttyyyyyCHHY2   tHHHHX   CHHIC   oSHHYt   7HHHI2   tHHHHo   CHHHC   oSHHYt   4IHIS   XHHHIt   7IHHI2   tHHHHo   CHHHHyttttttyt2",
"2ttttyyytCHHHlX oMHHHH7  >HHHHS<  4IHHHvo XlIHHHlX oMHHHH7  >IHHHS2  4IHHHvo XlIHHS<  4IHHHMo XlHHHHlX oMHHHH7  <HHHHHytyyttttt2",
"2tttttyytCHHHHMpMIHHHHIkdSIHHHHHdkHIHHHHCpvIHHHHIMdMIHHHHIkdSIHHHHIdkHHHHHICdvIHHHHHkkHHHHHHCdvIHHHHHCpMIHHHHIkdSHHHHHytyyyttyt2",
"<ytttyttyMHHHHIHHHHHHHHHIHHHHHHHHIHHHHHHHIHHHHHHHHHHHHHHHHHHHHHHHHHHHHHHHHHHHHHHHHHHHHHHHHHHHHHHHHHHHHHHHHHHHHHHHHHHHHytttytyyy2",
"2tttttttyCHHHHHHHHIYIHHHHHHIYIHHHHHHYYIHHHHHIYYIHHHHHIYYHHHHHHIYIHHHHHIYYIHHHHHIYIHHHHHHYYIHHHHHHYYIHHHHSIYIHHHHHHHHHHyytytttyy2",
"2tttttttyMHHHHHHHIHtqCIHHHICqySHHHHYk7kHHHHHYd7lIHHHIHqtCHHHHISqyCIHHHIlqdHHHHICqySHHHHYl7kHHHHHYkqkIHHHIHttCHHHHHHHHHyyyyyyyyy2",
"<tttttttyCHHHHHHHH%  =HHHHC+  2HHHIp   kHHHIq  .vHHHH%  =HHHHC+  2HHHIp   kHHHS+  2HHHIp   kHHHIq  .vHHHH%  =HHHHHHHHHyttyyytty2",
"2ttttyyyyMHHHHHHHC   XSHHIv   %HHHI2   tHHHY=   dIHHC   XHHHIv   %HHHY2   yHHIv   %HHHY2   tHHHY=   dIHHC   XSHHHHHHHHytytyyyty2",
"2yytyyyyyCHHHHHHHS=  <HHHHS@  7IHHId. XvHHHHt  +CHHHS*  <HHHHC@  7IHHHdX XlHHHC@  7IHHHd. XvHHHHy  oCHHHS=  <IHHHHHHHHytyyyyyyy2",
"2yytyyytyCHCHHHHHHHtySIHHHHCtpHHHHHHltlYHHHHIdtvIHHHHHtySIHHHHStyHHHHHIltkYHHHHStpHHHHHIltlIHHHHHktvIHHHHHyySHHHHHIHHHyyyyyyyyy2",
"2yyyyyyyyMHHHHHHHHHIHHHHHHHHIHHHHIHHHIHHHHHHHHHHHHHHHHIHHHHHHHHHIHHHHHHHHIHHHHHHHIHHHHHHHIHHHHHHHHHHHHHHHHIHHHHHHHHHHHytyyyyyyy2",
"2yyyyyyyyCHHHI~WYHHHHHY~YIHHHHHYWYIHHHHHWWIHHHHHI~WIHHHHHY~YIHHHHHWWYIHHHHHWWIHHHHHYWYIHHHHHWWIHHHHHIWWYHHHHHY~YIHHHHHyyytyyyyy2",
"2yyytytyyCHHHH7@7SHHHHM=*dHHHHIl*=kHHHHIt%2CHHHIH4%7SHHHHM>*dHHHHIl*=kHHHHIt%2CHHHIl*=kHHHHIt%2CHHHHH7%4HHHHIM==dHHHHHttyyyyyyy2",
"2yyttyytyCHHIt   dHHHI%  oSHHHHo  @HHHHp   tHHHIt   dHHHI%  oCHHHSo  %HHHIp   tHHHHo  %HHHIp   tIHHIt   pHHHH%  oSHHHHytyyyyyyy2",
"2yyttttttCHHI4   tHHHHo   CHHHC   oHHHIt   4HHHI4   yHHHHX   CHHHC   oSHHIt   7IHHS   oSHHIt   7IHHI4   yHHHHo   CHHHHytyyyyytt2",
"2yyytytttCHHHv@ @CHHHHy  4IHHHS7  qIHHHC% +MIHHHv+ @CHHHHt  4IHHHH7  tIHHHC@ oMHHHH7  qIHHHM% +vHHHHv+ @SHHHHt  2IHHHHyyyypyyyt2",
"2yyytytytMHHHHSlCIHHHHIvvHIHHHHIvvHHHHHHSlCHHHHHISlCIHHHHIvvHIHHHHIvvHHHHHHHlCIHHHHIvvHHHHHHHlMIHHHHHSlCHHHHHIMvHIHHHHyyyyyyyyt2",
"2yyyyttyyCHHHHHIHHHHHHHHHHHHHHHHIHHHHHHHHIHHHHHHHHHHHHHHHHHHHHHHHHHHHHHHHHHHHHHHHHHHIHHHHHHHHHHHHHHHHHIHHHHHHHHHHHHHHHytyyyyyyy2",
"2tytytttyMHHHHHHHHHHHHHHHHHHHHHHHHHHHHHHHHHHHHHHHHHHHHHHHHHHHHHHHHHHHHHHHHHHHHHHHHHHHHHHHHHHHHHHHHHHHHHHHHHHHHHHHHHHHHytyyyyyyy2",
"2yyyttttyCHHHHHHHSIWYHHHHHHIWYHHHHHHWYIHHHHHHYYIHHHHHIYIHHHHHHYYYHHHHHHYYIHHHHHYYIIHHHHHYYIHHHHHHYYIHHHHHIWYHHHHHHHHHHytyyyyyyy2",
"2yyyttttyCHHHHHHHIHttCHHHHISqtCHHHHIkqdHHHHHYdqlIHHHIHttCHHHHICqtCHHHHYk7kHHHHICqtCHHHHYlqdHHHHHYdqlHHHHIHtqCHHHHHHHHHytyytyyyy2",
"2yyytttttMHHHHHHHH%  *HHHHSo  2HHHIp   kHHHIq  .vHHHH@  =HHHHS+  2IHHIp   kHHHC+  2HHHIp   kHHHIq  .vHHHS%  *HHHHHHHHHytytyyyyy2",
"2yytyttttCHHHHHHHC   XSHHIv   %HHHY2   tHHHY=   dIHHC   XSHHIv   *HHHY2   tHHHv   %HHHI2   tHHHI=   dHHHC   XSHHHHHHHHyttyyyyyy2",
"2ttyyyyytCHHHHHHHS=  <IHHHC@  7IHHId. XvHHHHy  +CHHHS=  <IHHHC@  7HHHHdX XlIHHS@  7IHHId. XvHHHIy  +CIHHS=  <IHHHHHHHHyttyyyyyt2",
"2yytttyytMHHHHHHHHHtySIHHHICtyHIHHHIltlIHHHHHktlIHHHHHtySIHHHHCtyHIHHHIltkYHHHHStyHHHHHIltlIHHHHIkqvIHHHHHyySIHHHHHHHHyyytyyyyy2",
"2tttyttyyCHHHHHHHHHHIHHHHHHHIHHHHHHHHHIHHHHHHHIHHHHHHHHIHHHHHHHIIHHHHHHHIHHHHHHHIHHHHHHHHHIHHHHHHHHHHHHHHHHIHHHHHHHHHHyyyyyyyyy<",
"2yyyyytttMHHHIWWYHHHHHYWYIHHHHHYWYIHHHHHWWYHHHHHIWWIHHHHHY~IIHHHHHYWYIHHHHHWWYHHHHHYWYIHHHHHWWYHHHHHI~WIIHHHHY~YIHHHHHyyyytytty<",
"2yyyttttyCHHHH4%4HHHHIM>*dHHHHIl*=kHHHHIq%2CHHHHI7%4HHHHIv>*pHHHHIl**kHHHHHt%2CHHHIl==kHHHHIq%2CHHHHH4%7SHHHHM>=pHHHHHyyyyytyyy2",
"2ttyyttttMHHIt   pIHHI@  oCHHHHo  %HHHIp   tIHHIq   pHHHI%  oSHHHHo  %SHHHd   tHHHSo  %HHHHd   tHHHIt   pIHHI@  oSHHHHyyyyyyyyy2",
"2yttttttyCHHI4   yHHHHo   CHHHC   oSHHIt   7HHHI4   yHHHHo   CHHHS   oHHHIt   4IHIC   oHHHIt   7IHHI4   tHHHHo   CHHHHyyytyyyyy2",
"2yttttyttMHHHv+ @CHHHHt  4IHHHH7  qIHHHM% ovHHHHv+ @CHHHHt  2IHHHH7  qIHHHC% +MHHHH7  qIHHHM% +vHHHHv+ @CHHHHt  4IHHHHyyyyyyyyy2",
"2tttttttyCHHHISvCIHHHHIvlHIHHHHIvvHHHHHHHvCIHHHHISvCIHHHHIMlHIHHHHIvvHIHHHHSlCIHHHHIvvHHHHHHHlMIHHHHISlCIHHHHIMlSIHHHHyyyyyyyyy2",
"2ytttttttMHHHHHHHHHHHHHHHHHHHHHHIHHHHHHHHHHHHHHHHHHHHHHHHHHHHHHHHHHHHHHHHHHHHHHHHHHHIHHHHHHHHHHHHHHHHHHHHHHHHHHHHHHHHHyyyyyyyyy2",
"2tytttttyvHHHHHHHHHHHHHHHHHHHHHHHHHHHHHHHHHHHHHHHHHHHHHHHHHHHHHHHHHHHHHHHHHHHHHHHHHHHHHHHHHHHHHHHHHHHHHHHHHHHHHHHHHHHHqtyyyyyyy2",
"2ttttyttttlCCCCCCCCCCCCCCCCCCCCCCCCCCCCCCCCCCCCCCCCCCCCCCCCCCCCCCCCCCCCCCCCCCCCCCCCCCCCCCCCCCCCCCCCCCCCCCCCCCCCCCCCCMt4yyyyyyyy2",
"2tttttttttt7424444444442444444424444424244422244244222244244224224424222424242442444444244444444444444444444442444424qyyttyyyyy2",
"<tttyytttttyyytyttttyyttttyytttyyyttttttttytttttttytttttttttttttytttttttytttttyttyttyyyyyytyyyyyyyyyyyyyyyyyyttyyyttyyyttttyyyy2",
"2tttyyttttyttyytttttttttyyttttttyttttttttttttttttttttttttttttttttttttttttttttttttttttyyyyyyyyyyyyyyyyyyyyyyyyyyytytttttyttttyyt2",
"2ttttttttttyyyytyttttttttttyttttttttttytttttttttttttttttttttttttttttttttttttttyttyyyyytttyyyyyyypyyyyyyppyyyyyyyttyyyttyytttttt2",
"<yytttyytttyyytyyttttttyyyyyttttttttttttttttttttttttttqtttttttttttttttttttttttytyytyyttttyyttyyyyyyyyyyyyyyyyyyyytyyyytyyttttty<",
"2tyyttyyttttyttytttttyyytyytttttttttttttttttttttttttttttttttqtttttttttttttttttttyyytyyyyyyytttyyyttyyyttyypyyyyytttyttyyttttttt<",
"2ttttttytttttttttttttttttttyyttttttytttttttttttttttttttttttttttttttttttttttttttttyyyyyyyyytttyyytttyyyyyyyyyyyyyytyyyytyyyttttt2",
"<tttttttttttttttttytttyytyyyyyyytttyttttttttttyytttttttttttttttttttttttttttttttttyyytttyyyyyyytyyyyyytyyyyyyyyyyyypyyyyyyyyyttt<",
"2tttttttyttttttyttytyytytytyyyytttttttttttttttyytyttttttttttttttttttttttqttttttttyytttttyyyyyyyyyyyttyyyyyyyyyyyyyyyyyyttyyytty2",
"<tttttttytttyyttttttyytttyytyytytttttttttttttttyyttttttttttttttttttttttttttttttttttttttttyyyyyyyyyyyyyyyyyyyyyyyyyyyyyttttttyty<",
"2tttttttttttyyytttttttttttyyyyytttttttttttttttttttttttttttttttttttttttttttttttttttttttyytyyyyyyyttyyyyyyyyyyyyyyyyyytttttyyyttt2",
"2tttttttttttttyttttyytttttyyttttttttttttttttyttttttttttttyttytttttyttttttttttttttttttyyyytttytyytttyyyyyyyyyyyyyyyytttyyyttttyt2",
"<tttttttttpkkkkkkkkkkkkkkkkllkkkklkkkkkkkkkkkkkkkkkkkkkkdkkkkkkkkkkkkkkkkkkkkkkkkkkkkllllkkkklllkkklkllllllllllkkkkkkyytytttyyy2",
"2ttttttttkHHHHHHHHHHHHHHHHHHHHHHHHHHHHHHHHHHHHHHHHHHHHHHHHHHHHHHSHHHHHHHHHHHHHHHHHHHHHHHHHHHHHHHHHHHHHHHHHHHHHHHHHHHHCytyyyyytt<",
"2ttttttttCHHHHHHHHHHHHHHHHHHHHHHHHHHHHHHHHHHHHHHHHHHHHHHHHHHHHHHHHHHHHHHHHHHHHHHHHHHHHHHHHHHHHHHHHHHHHHHHHHHHHHHHHHHHHptytyyytt2",
"<ttttttttCHHHHHHHHWWYIHHHHIWWIIHHHHIWYIHHHHHIWYIHHHHHWWYHHHHHHWWIHHHHHIWYIHHHHH~WIIHHHHI~YIHHHHHIWYIIHHHHWWYIHHHHHHHHHyttttttyt<",
"2tttttttyMHHHHHHHIp+@pIHHHItX%kHHHIS<X<SHHHIC=o2SHHHId+@pIHHHIto%kIHHHH<o>CHHHItX%kHHHHH<X<SHHHHC=o4SHHHIp+@pHHHHHHHHHytyttyyyt2",
"2ttttttttCHHHHHHHSX  @SHHHC   =HHHIq   yHHHI2   lHHHSX  @HHHHM   =HHHI7   yIHIM   =HHHI7   yIHHI2   kHHHSX  @HHHHHHHHHytyyyyyyy2",
"<tttttttyMHHHHHHHCX  oHHHHv   *HHHI4   yHHHI<   kHHHC.  oHHHIv   *HHHI7   yHHHv   *HHHI7   yHHHY<   kHHHC.  +SHHHHHHHHttyyytytt2",
"2ttttttttCHHHHHHHHy.XyIHHHH7 okIHHHC% *SHHHHv@ >IHHHHy.XyIHHHS7 XkISHHM% *HHHHSq okIHHHM% *HHHHHv@ >HHHHHy.XyIHHHHHHHHytttttyyt2",
"2tttttttyMHHHHHHHHICCIHHHHHHCCHHHHHHHCSIHHHHIHMHHHHHHICCIHHHHHICCIHHHHHHCSIHHHHHMCHHHHHHHMHHHHHHISMHIHHHHICCIHHHHHHHHHyttttttty<",
"<ttttttttCHHHHHIHHHHHHHIHHHHHHHHHHHHHHHHHIHHHHHHHIHHHHHHHHIHHHHHHHHIIHHHHHHHIHHHHHHHIHHHHHHHIHHHHHHHHIHHHHHHHHIHHHHHHHyttttyyty2",
"2ttttttttCHHHIYCHHHHHHWHCIHHHHIWHCIHHHHYWSSHHHHHIYCHHHHHHWHCHIHHHIWSCHHHHHYYCSIHHHIWHCIHHHHIYCHHHHHHIYCHHHHHHWHCHHHHHHyttttttty2",
"2ttttttttCHHHM+ @MHHHIt  2HHHHI4  7HHHHC@ olIHHHM+ @MHHHIt  2HHHHI4  7IHHHC@ +lIHHI4  qHHHHC@ +lHHHIM+ @MHHHIt  2HHHHHytttyttty<",
"<ttttttttCHHY4   yHHHHo   CHHHC   oHHHYt   7HHHY4   yHHHHo   CHHHC   oSHHIy   7HHHC   oSHHIt   4HHHI4   yHHHHo   CHHHHyyyyyyttt2",
"2ytttttttCHHIq   pIHHH%  oCHHHSo  %HHHHp   tHHHIq   pHHHH@  oSHHHSo  %HHHHp   tHHHCo  %HHHHp   tHHHIq   pHHHS%  oSHHHHyypyyyttt2",
"2ttttttttMHHHH4@4IHHHHv=*dYHHHHl%*lIHHHHq@2HHHHHH4@4IHHHHM=%dYHHHHl**lIHHHHq@<HHHHHv%*lIHHHHq%<HHHHHH4@4IHHHHM*%dYHHHHyypyyyyty<",
"<ttttttttCHHHHHHHHHHHHHIHIHHHHHHHHIHHHHHIHHIHHHHHIHHHHHHHHIHIHHHHHHHHIHHHHHIHHIHHHHHHIHHHHHHIHHIHHHHHIHHHHHHHHIHIHHHHHytyttttty2",
"2ttttttttCHHHHHHHHHHHHHHHHHHIHHHHHHHHHHHHHHHHHIHHHHHHHHHHHHHHHHHHHHHHHHHHHHHHHHHHHHHHHHHIHHHHHHHHIHHHHHHHHIHHHHHHHHHHHtttttttty<",
"2ttttttttCHHHHHHHHWIHIHHHHHWIHIHHHHYWIIHHHHHYWHIHHHHHWIIIHHHHIWYIHHHHHIWIHIHHHHWIIIHHHHIWHHIHHHHYWHIHHHHHWIHHHHHHHHHHHytttttttt<",
"<tttttttyMHHHHHHHIt.XtHHHHI4 opIHHHC% %CHHHHM@ =SHHHIt.XtHHHHH4 odIHHHC% %CHHHI7 XpIHHHC% *MHHHHM@ =SHHHIt.XtIHHHHHHHHytttytttt2",
"<ttttttttCHHHHHHHSX  oHHHIM   *HHHY7   yHHHY>   kHHHS.  oHHHHM   *HHHI7   yHHIM   *HHHI7   yIHHI<   kHHHS.  +SHHHHHHHHytttttttt2",
"2tttttttyMHHHHHHHCX  @HHHHv   =HHHI7   yHHHI<   kHHHCX  @HHHHM   =HHHI7   yIHHv   =HHHI7   pHHHI<   kHHHCX  @HHHHHHHHHyttttttyt2",
"2ttttttttCHHHHHHHHdo@dIHHHHyo@vIHHHS<X<HHHHHC=o2IHHHHp+@kIHHHHyo@vIHHHC<X>HHHHSyo@vIHHHS<X>HHHHHC=o4IHHHHd+@kIHHHHHHHHyttttttty2",
"<tttttttyCHSHHHHHHIHHIHHHHHISHHHHHHHHSHHHHHHHISHIHHHHISHHHHHHHHHHHHHHHHHSHIHHHHIHHHHHHHHHSHHHHHHHHSHHHHHHISSHHHHHHHHHHytttttttt2",
"2ttttttttCHHHHIIHHHHHHHIIHHHHHHIIHHHHHHHIIHHHHHHHIIHHHHHHHIIHHHHHHHIIHHHHHHIIHHHHHHHIHHHHHHHIIHHHHHHHIIHHHHHHHIIHHHHHHyttttttyt2",
"2ttttytttCHHHYIlCHHHHHWMlHHHHHHYMvHHHHHIIvCHHHHHYHlCIHHHHWClHHHHHHYMvHHHHHYIvMHHHHIYMvHHHHHIIlMIHHHHYIlCIHHHHWMvHHHHHHytttyytyy2",
"<ttttttttCHHHlX ovHHHI7  =HHHHH<  2IHHHMo .kHHHHlX ovHHHI4  =HHHHH<  2HHHHMo .kIHHH<  2IHHHMo XkHHHIlX olHHHI4  =HHHHHyttyyyyty2",
"2ttttttttCHHY4   tIHHHo   CHHIC   XSHHIt   4IHHY4   tHHHHo   CHHIC   XHHHIt   4HHHS   XSHHYt   4HHHY4   tIHHHo   CHHHHytttyyyyt2",
"2ttttttttMHHIt   dHHHH*  +SHHHS+  *HHHHd   tHHHIt   dHHHH*  +SHHHS+  *HHHHd   yHHHS+  *SHHId   tHHHIt   kHHHS*  +SHHHHytttttttt2",
"<tttttttyCHHHHt=tIHHHHC2>lIHHHHM>>MIHHHHp>7IHHHHHt=tIHHHHS<>lIHHHHM><MIHHHIp=7IIHHHM><MIHHHIp=7IHHHHHt=tYHHHHC<>lIHHHHytytttttt2",
"2ttttttttMHHHHHIIHHHHHHIHIHHHHHHHIIHHHHHHIHHHHHHHHHIIHHHHHHIIHHHHHHIIHHHHHHIIHHHHHHHIHIHHHHHIHHHHHHHHHHIHHHHHHIIIHHHHHytyytttty2",
"2tttttttyCHHHHHHHHHHHHHHHHHHHHHHHHHHHHHHHHHHHHHHHHHHHHHHHHHHHHHHHHHHHHHHHHHHHHHHHHHHHHHHHHHHHHHHHHHHHHHHHHHHHHHHHHHHHHytttyttty2",
"<ttttttttMHHHHHHHHHHHHHHHHHHHHHHHHHHHHHHHHHHHHHHHHHHHHHHHHHHHHHHHHHHHHHHHHHHHHHHHHHHHHHHHIHHHHHHHHHHHHHHHHHHHHHHHHHHHHytttttyyy2",
"2tttttttyCHHHHHHHHWIIIHHHHIWIIHHHHHIWHIHHHHHYWIIHHHHHWIIIHHHHIWYHIHHHHYWIHIHHHHWIIIHHHHIWHIHHHHHYYIHHHHHHWYHIHHHHHHHHHytttyyyyy2",
"2ttttttttMHHHHHHHIt.XtIHHHI4 odHHHHC* *CHHHIv@ =SHHHIt.XtHHHHI4 odHHHHC% *MHHHI7 opHHHHC% %CHHHHM@ >SHHHIt.XtHHHHHHHHHyyytyyyyy2",
"<ttttttttCHHHHHHHS.  oSHHIM   *HHHY7   yHHHY<   kIHHC.  oHHHIv   *HHHI7   yHHIv   *HHHY7   yIHHY<   kHHHS.  +SHHHHHHHHyyyyyytyt2",
"2ttttttttMHHHHHHHSX  +HHHHv   =HHHI7   yHHHI<   kHHHSX  @HHHHM   =HHHI7   yHHHM   =HHHI7   yIHHI<   kHHHSX  @HHHHHHHHHyyyyyyttt2",
"2ttttttttCHHHHHHHHdo@kIHHHHyo@vIHHHC<X<HIHHHC=o4ISHHHpo@kIHHHHyo%lIHHHC>X>HIHHSyo@vIHHHC<X>HHHHHM=o4IHHHHdo@dIHHHHHHHHytytyyytt2",
"<ttttttttCHHHHHHHHHHSIHHHHHHHSIHHHHHHSHHHHHHHHSHHHHHHIHSHHHHHHISSIHHHHHHSHHHHHHIHHHHHHHHHSHIHSHHIHSHHHHHHHHHIHHHHHHHHHyttttyyyt<",
"2ttttttttCHHHHIIHHHHHHHIIHHHHHHHIIHHHHHHHIHHHHHHHIIHHHHHHHIIHHHHHHHIIHHHHHHIIHHHHHHHIIHHHHHHIIHHHHHHHIIHHHHHHHIIHHHHHHytytyyytt2",
"2ttttttttCHHHYHlCIHHHHWCvHIHHHIYMvHHHHHIIvCHHHHHYHlCIHHHHWClHHHHHIYMvHHHHHYIvMHHHHIYMvHHHHHYIlCHHHHHYIlCIHHHHWClHHHHHHytttyyyty2",
"2ttttyttyMHHIlX ovHHHI4  =HHHHH<  2HHHHMo .kHHHIlX ovHHHI4  >HHHHH<  2HHHHM+ .kIHHH<  2HHHHM+ .kHHHHlX olHHHI4  =HHHHHytyyyyyty2",
"<ttttttttMHHY4   tHHHHo   CHHHC   XHHHIt   4HHHY4   tHHHHX   CHHHC   XHHHIt   4HHHC   XHHHIt   4HHHY4   yHHHHX   CHHHHytyyyyyyy2",
"2ttttttttCHHHy   kHHHS*  +SHHHS+  *HHHId   yHHHIy   dIHHH*  +SHHHS+  *HHHHd   tIHHS+  *HHHHd   tIHHHt   dIHHH*  @SHHHHytttttttt2",
"<ttttttttCHHHHt=tIHHHHC<>lIHHHHM><vIHHHHp=7IHHHHHt=qIHHHHC2>lIHHHHM<<vIHHHIp=7IHHHHM>>MIHHHHp=7IHHHHHt=qIHHHHC<>lIHHHHytttytttt2",
"<ttttttttCHHHHHHHHHHHHHIIHHHHHHHHIIHHHHHHIIHHHHHHHIIHHHHHHHHIHHHHHHIIHHHHHHHIHHHHHHHHIHHHHHHIHIHHHHHHHIIHHHHHHIIIHHHHHytytttttt2",
"2ttttttttMHHHHHHHHHHHHHHHHHHHHHHHHHHHHHHHHHHHHHHHHHHHHHHHHHHHHHHHHHHHHHHHHHHHHHHHHHHHHHHHHHHHHHHHHHHHHHHHHHHHHHHHHHHHHttytytttt<",
"<tttttttydHHHHHHHHHHHHHHHHHHHHHHHHHHHHHHHHHHHHHSHHHHHHHHHHHHHHHSHHHHHHHHHHHHHHHHHHHHHHHHHHHHHHHHHHHHHHHSHHHHHHHSHHHHHM2ttttyttt2",
"2ttttttttttttqtqttttqttqtqttttqtttqqtqqtttqtqttttttqttqqttqtqtqttqqtqttqtqqttttttqtqtqttttqtqttqttqtqtqttqttqttttttqt<qttytyytt2",
"2tttttttttttttttttqttttqtttqttttqtttttttqtttqtqttqqtqtttttqttttttttttttqqttttttqtqttttqtqtttttqttttttttttttttttqtttttttttyytytt<",
"<ttttttttttttttttttttttttttttttttttttttttttttttttttttttttttttqtttttttttttttttttttttttttttttttttttttttttttttttttttttttytttyttttt2",
"2tttttttttttttttttttttttttttttttttttttttttttttttttttttttttttttttttttttttttttttttttttttttttttttttttttttttttttttttttttttttttttttt2",
"2tttttttttttttttttttttttttttttttttttttttttttttttttttttttttttttttttttttttttttttttttttttttttttttttttttttttttttttttttttttttttttttt2",
"<ttttttttttttttttyyttttttttttttttttttttttttttttttttttttttttttttttttttttttttttttttttttttttttttttttttttttttttttttttttttttttttttyt<",
"2tttttttttttttttyyyyttttttttttttttttttttttttttttttttttttttttttttytttttttttttttttttttttttttttttttttttttttttttttttttttttttttttttt2",
"2tttttttttttttttyyytttttttttttttttttttttttttttttttttttttttttttttttttttttttttttttttttttttttttttttttttttttttttttttttttttttttttttt2",
"<tttttttttttttttttttttttttttttttttttttttttttttttttttttttttttytttttttttttttttttttttttttttttttttttttttttttttttttttttttttttttttttt<",
"2tttttttttttttttttttttttttttttttttttttttttttttttttttttttttttttttyttttttttttttttttttttttttttttttttttttttttttttttttttqttttttttttt2",
"2ttttttttttttttttttttttttttttttttttttttttttttttttttttttttttttttttttttttttttttttttttttttttttttttttttttttttttttqttttttttttttttttt2",
"=<22<22<22<22<22<22<22<22<22<2<><22<<22<22<22<22<22<22<<<22<22<22<22<22<22<22<2<2<<<<<<<><<<<<<<<<<<<<<<<<<<<<<<<<<<22<22<22<22*"
};
