/* XPM */
static char *tile1381695480732[] = {
/* columns rows colors chars-per-pixel */
"128 128 56 1 ",
"  c #151615",
". c #171817",
"X c #181917",
"o c #171818",
"O c #1C1D1C",
"+ c #201F1C",
"@ c #1F201E",
"# c #20221F",
"$ c #1D1F20",
"% c #1F2121",
"& c #232423",
"* c #262826",
"= c #292A27",
"- c #252728",
"; c #262929",
": c #2B2D2C",
"> c #302F2D",
", c #2E312E",
"< c #31322F",
"1 c #2C2F30",
"2 c #2E3131",
"3 c #333532",
"4 c #383735",
"5 c #363935",
"6 c #393A36",
"7 c #343738",
"8 c #363A39",
"9 c #3A3D3A",
"0 c #3F4037",
"q c #3E413D",
"w c #41423E",
"e c #3B3F40",
"r c #3E4241",
"t c #424542",
"y c #464945",
"u c #494B46",
"i c #454748",
"p c #474A49",
"a c #4A4C4A",
"s c #4D504D",
"d c #51524C",
"f c #4F5353",
"g c #535453",
"h c #545954",
"j c #5A5B52",
"k c #5B5B5B",
"l c #646464",
"z c #6B6B6B",
"x c #747474",
"c c #7C7C7C",
"v c #838383",
"b c #8C8C8C",
"n c #949494",
"m c #9C9C9B",
"M c #A3A3A3",
"N c #AAAAA9",
/* pixels */
"oO$%%-=>1>>11:::->:-::::->->--::::::1,;,,,,,>>>>>1>1::211<1:::>2>>1>:>1>1:1>>1>>:;;=:*-:=:-===:-:==--->--==-=:-->------=-$$++XXX",
"OO#--:::1>2>>::>>::>::>:>1:::-::::;13,,1,,,,1>21>1:>>>>><<>1>:2>31>111>1>>>111>1:;::==::=-::---:=:-:>=:-=-::=::-->>-:-:--&&$XXOX",
"OO##-:>>2><7>>2-:1:12>43>>>>>1:>111;,133<>3<<33>>>>2>7221<32>>>>4124244>2>3>11>1,,111=:1:::=1::1>>::>>>:::-1>:>:11>:>::--=&+X$$X",
"-#$--2>24<747>27>1>433>37777>4>>11qq2035337544437777777>333779777447434477347443,2,233333<<<<<<<>22:-->-1-<>>222>33>:->:---&$OOO",
"#$-$-:34ee4444e9794474479997e799q2qqqqqq4ewee0eeee89e9ee899tqqqqe49we944ee4ee44e2388211q77477<3115533433<38888733774>>>1-%%#O$$$",
"$-+-=>3ettettee99e979e9ee9eeee9eqqqrprrraitytiyuutteiiiaptrppprqteiiiw9eiiwtiewwqqrqqqqqwe9e9er9etrreee98eittite7ew777::::=+O&X+",
"->--:77eiteet48eeew7477eew49etweqqrssrqqaaeayyuiiaitisiaryrraaprttiiitww9tteitiirrrqqqqq4tiiitiiptittieue9epasipttte4>--::&-$--%",
"-%--:>9e973482>44474774e99494ew92qqqsq8559wt9yy99ti9et4eqqq8qppr9999we9999te9944qqrqq32048e99ttertie9ttt98erire9eie43>::2>>&&&&-",
"----21553;:1>:-:-1>-2<284477494780q8q0qq2508058099995err88t9rrr8898e9385949w88682qqq;;20q12q220q8399qqrq2q8288883,1,,1;1e1&&;*%&",
"-&-&38t88;;-=&#%+##-:-187773<i24558qq2qrq0888888997eettrr9r9rrr88389r552<49984850qq1q2217q22003<328r2qq23rq31:112:%::13872:;&&%%",
":$+&=3839;&%%$$OOo+----774>>15e40r8058088q88588839tette392:2:28q38289r38<74479352202122;1qq;122235898qq3q511=->::;::283883<:*@#&",
"-=-=:893,;%%OXO+O$$-%-:>7977<449r88852555,8q585q99e959988327q78837379893>3499838q2;;20q21q2q0218959rqqq8q31;--:=;:;;%,20e81&&@@*",
"&-$--388:&%%&O$---%%%%>:13951<93258q85qr5228588rqqq856899q9qrr878187231323527555q20020q212qq3322539yry8r11:&*::-;***==,::::*@@@#",
"&%--1:i7,&O%#-73>><-$$--;747<:132258rqqrr528880qw68w8699rrrrrrqq9934392352,,,2,23222227qq1:23q8q59ryyrq7,%&*:3>>:&%@##*=::*;@@@#",
"$O$:3387:&%&-8gkiii>%$$&2786311755828q288r2;q588q6wtq9ttqyyqrqq8q95595233253:,,,121qq33q2qq;321q99qaprr3%@*:tasi8:*@@@*=<:;#@@@@",
"O$$%1913,&&:4acnca>:1%&-39937:<5,5585r882e8858r5qqtq9trq97rqq32q9t8:933252,53329q201:2;qq2qq3q33889ypr3;@;523hvckq3%@@#=:<:@@X@*",
"o$$%;rr21;;1rzNna>ef>&O&4ii53468082q888525rr28q5;qqq1qrq2qq201013q98553201133321qq0;;*;22q3q30q0qqrttr3&$-7kt4xNblt-OO&=<:=*@X@&",
"$$$%;291;%;1hbbr>kva>&X$>985>:::,52252e288r885552qqq0qqrrqqqq1q139982,=,123311211:::122221q2r2q22qsay3:&+-3lnt4xMxe:#+&:<,=#@@@*",
"$$%%11r7;%;2fzrqzMl4-$ +14t9:;=1,,2,82;8288rr855q2q22qrqrqqqqqq193353:1,1;320222:22:;q002;1;;20338aa92&O+-3gmne4zl4=##&:<:*#&@#&",
"%%-%1211;%&qr0qvNci-&o $>7e95,:<;1,5228588228r552q022qq22q2q2qqq9983333:0q3:10q;:22q2;100q322;225qtp92&O+$8gzmb43ge:&&:><,=*@#@@",
"%-%;1221;*@,15lvxk3-$ X&,qpr3321;;1272q88882222800qq00qqqq02q1205357q972100q0,220202,:;0q0qq01223tyst3&oX+-4rkcz>4e:-=:55,=@@@XO",
"%%%;2171;%%%1qqqit:&O O-;5q833,:5;;;8788882222252201;qqqqqq2011123598977,010221,1q2q011;101q7q20qqsfa4-OXX$-=3ekw&>==>54<<,&@@O@",
"%$%1;1882%%@%;;;-:&+o$$-,55235,;;;22821121222,,22010qqqqq2;;;11q52,55q97<231,233qq2q0;0111222qq2rrsaa9<%$ +$*&;,4-&=-=445<=#@XOX",
"-%%-11qq31%%%@%%++oo+>4>359*:23,11;;52821282255,2211202q;0q2;q012,;122252:2:301q0qq0;01q1qq;qqq35rsaae3=++XXX@&&&&-=>44905:&@X@@",
"$$%;8323221;;%@@$$$%2212310%;1210;q12q7221;0,:;0q122qq02qq0q1qqq55112532,22313031q2q11qq0qqq7qqqqqqqpuq,&=@@XX@@@*,8q00803:#@@@@",
"$$&;357e22212;%%;;;1qq302233112;;1;22;721;;:0,:,2;2:202q1q1qqqr2358383q3333,20qqqrrqq012211qq7q35qqqysq0,,#&@*@@*,5qqpaqyq,**@@@",
"$%%:899821828q2rqrqqq211182q02q2111q2;2;;212;0::::2:100110qqqqq0323038qqq8333301q2rqqrq22;;0q3qq<<5qqpq065:*=:=:,0quqs0q03:=#@@@",
"%-::79rr102qq8qrqrqq3220,0q81222111;2q12201;00:2,00:2230qq2qqq1q88qq5,553553223qqqq022qqq2q;7013333q0rq09t535q0qqqqqq0qqqq,*#@@@",
"%%%77329222;255q17712213q22211202221;;;011212q2131q3320322202q103501,,;,23,2533qq10222qqqq2;q111258q3q08qau9qusyw85050qq00,*@@@@",
"%%%%::79q21;,,;;1;q131382rr111222;2q2q1220q1;12:322322100221102252;12,1,588580032122qrrq22qqqq133qq528839twt8tyqp33qq0qqtw,*@@@@",
"%%%%%7rr8205q,;;21;1;;22:qqq22301;;1q;120:0;;q10020322:1;1q212q2,1:,,3,;238331032:10rrrrrqrq30qq225q52539t9q9625q5,3550wuq,=@@@#",
"%%%%18s92115,,,1221;12222:3rr311q2q1q110;0121q222q3032110202101122,23532,;:,311,0102rqrrsrrrq12rqqr5q50qtqyt63,2q33538ssuw<,#X@#",
"%%%%::8qq72220322<3::,339289r72223q221;1:10222022q22011q201202q20q2,2q02;:::022,,388,,688q593,;5qr88<85399yq59965933q56uuy,#&@O@",
"%%%;173r;q223303,235;,232237r22322q2q;112:;10;2q201110;0q2:0;02q220022;;::::;;02556q,,5359522;528508366353rqq999669399qysu<&@@O@",
"%%%;82r8q222q2122,223:121278r0322222q;112;20;1q2010111100222;;1q8822;21;,::::22,3083q355,,5255225,0qr5qq55qqtq8390t8w68ywq,,.OOO",
";%%1:8r73;1311q2828-::121:7r1q233210qq23222,201q1;1;0001:20:2;;22q8,021;10:22022,25,50332:,323,,3,3<555033qqq55596q66655q6,=@OOO",
"%1138qr7r711qq1r7821;12122181220302223122q;1020%;10:;121020%11;1,q010;002010q22285883<,33:::,,,:2:,,223q559rrqq5335088qqt83&%O@X",
"%%2288rrq1qqqrqrq1221;72121qq87782,333201121%;;;;:1:0100001;1:;2;221;:1;020200qq3w6555555:1122::2:,,2585582q0q3<333q6,qqq83;@&@@",
"%%;8qfr711q111qqr83281123231%27rqr8232001q211;;111011;2211;11;;1520,%1,211111210<5538555532:2,535255<5<5303800q35852q5qqq05;*@X@",
"%%@;rprfrr2q;qr1q28pq327212:r7r732qq32220;1q1;;11011;0101110001;2,,50;021002q020<553,33653553580955<568w325288q2330rq,8utq3,&@O@",
"-%%-qfr9rr17217q5te9379q29::7ee5qqq02255;7qq8128012210;01qq2323;,2,002,2202201;23<55<5358080<80,23,55530q302qqr538qq555qtt2;;*X#",
"*:%-7rrrrrerrrrrtw3559t5et4>>3e9qp552,2,2q2qq8522;0;0101010q303:;2,,,8802:22,q015,55,<<3,3<555q55,23<55<08r23q8582qqq598ps:*=&@&",
"%;,23ra9777rqaph9ttwrqyq98094939rqqq85;qq222qq2210221q011q1:13<,;,,;,8,23,230q3153<5<53<,5<5<35,3:,3<<5,0202:382028q8qqqqt2*&&&&",
"%%227rsrrrr7rqqrattwtwuwt5ee9e98qqr50q002000q552q20012201q0031<,,22;,20202<11q3053<30,5,3<53<q5:,3,5<,<4q31q22q323388qqqqq5***@#",
"%@%,rtptr7rrp5r2599uy4tyuttaw55600200q000,0050050;0022;;222q82,,;2,,;,513:,35555q5<33,,8,,,,,33333,0,,,31120013q20225qqyq8,:&*#*",
";&%*2rsp88qqqr33898aye4w99wyq6587801,,;,,0,<5,50010;;00001qq353,,,,;;502q333<55333,3,,3<3<3<2,<533<<<,,00222r2233qq0,8rpw8,=##@#",
":;*;27ypq8827r82899>9aw9ww9yw969022q5050,0,,,,,0,,0;200010203<9<22,;;55223330333<0<,3,02<5859,,<54,,<<5520:1rq:103qqwq6pu8,=&&;#",
"#&;q9rqr5883828q566433ew99y9yw9tq22q50<<,00,0,;5001;%0,012226<6<02,1;;,21033333,,,,,8,3536523,82,8<6<5<<qq223q02232qp65ws0,=#@##",
"==*<wts93888583e37wy044665w55y99q20q101182q0qq3<00<,<33><<34<6<3,,,,::00;;:20012,,,,,,,3293532,3222<0110q1r301qq8330q25yqu3:*;@@",
"*::,ytt8388887918878y96696q359930q2q01q008555365400<6<4<>7366<<6222;::0;01&0::0,:,:,<:,,35952535q0,2:01320q20,3q333122rasq33@#%*",
"&**,5tau999888ee:799ww0wy69,9666q2qqq00103025<33,3q,<<<<53>4<<<60,,0;;;0;;1,,2:23,,,3<<<223332,,,<:32111,0q023200,;,23qrq0:@@.#*",
"&#*;3qws9:89918t<74966w99q6659t62q2q0qq12222<<3<<,,,<3<4643464<3;,0;2;;;0;11:110,,,,<5,5538335,,,,;;,qq2qq021q2,03:3222rru2;@O@*",
"%%%-398r685993893<6<65tw96q5<5q6r02211q00333q00,,5,,<:<3<7775332000112;02;12,:208<,,58<033w5q,<,:,,,220q2::<012:130:22qraa<*@@@@",
"&&-:,7r999939883:,6666695353,3q6q0qqq11;380812;2:,33<<3<<<><775300q20q2000110:1;3<,,<0<,q95<338<0;2<1;;q,,,021,:33,,0qqrsy<##@@@",
":%-&579783439qq3,:596<<33:3953933320222::3:0<3;2<,0<::<311:3:633;qq02;0220;01001558,535,69533353210,q000q20:1232:,<:,03qqr8;@@O@",
":*&;299733558wu,,3<666<632356333q2;0202023012002,,<5,;=<13<<:4:3;2q210;21qqq22q05582q85,6965655521:030220,020302,,0::3qqqr3:&@@@",
"===*299q32534005<3<<5<5<3,08293538:3,0,0303120,:;:*3,:,2,523,95:21q22,,,12qq23q8,5q<3q,38203300qqq330qqq03023002,32123qrprq,%%:*",
"&**:259p7:5856q5632,0<3,8,<3,2<38331,12,:<0:3,:;:2:,,:,<2,,,3<3:2;q0001:22202,q235850q5,31q0qqq10033rrq0qq02q22223103qqrq5,;%**@",
"&@*<359p9,,355508:,,055,3,55,;,53q0;;::23::331::,,;;:;3,,3,,2,,21:2q0;221,,,328q55053qrq85q80p30qrq8sqq1<0q30q012,0:21q2q523**@#",
"@**=,85r95,<<5,56,:35<5<2<,<31;:;202:::;,:131;::-;2;,,3<1,,,,,:521;3q202,11<3,82505<389558qqq0qqqqq0qq23302022q0r0qqf211qqq;:#@*",
"&@=:<689q6;,<6,<q5,:<,4<6<,58,,2;33333:q3:1:3::%-;,:-:1<,,<,,3:,20%3q0:23:3<33083555,qqq5<5uqrdq0qq0qq03urqq32qqqrrrrrrq3,:*#*@@",
"=&&<3685<,*==535qq2:=,<:,,05,,,,:1,q33q0<5:3,33;;:;1:;213,<,,<3<201122::,335<<203<55,8q83q5uuaq0qqrquq,q2q0qq0qq030qqqrrq,*##@@@",
"&=#*5665:,=*:4<,39,*=,<<,353,<,,12,0:,2,3<2::,031,:1;;22,,,,,,,,202;2001,23:31135835,503<5qprp3qqrru210<2q20qyqq2010q0prsq:@#@@@",
"&&**=996:::*=<<<,<,:,,65<033;<,,8;3<0;213<3<:;:3:,2;1;2::,,,,,3,,22;:223:0322:;2858q3,8q30qq3qq300110,:033330qqpq11;0<q0qq<#@@@#",
"@@%0:210,*3==,2512020%10,:,0021:0:;;01::10;;2;;0;0;;11;;:,,<:2,*:3:;1100;0222:;132333;3535qt9e874<3>72<75585qq8qq583100qhr;&@o@@",
";o@;02:30:;@;2222020002q00110,200111;;0;*;,00,;2112;1;;0::<,,0:::02:1111110:2;;;,2::<333,3393994<<1<1>>>,388q0qq5qqqq01rrq0*@@.@",
"%o$%,q2::<<,;1:110q;;12:3q222133q1;;11;;;,;,;2;;100*1;;1:*,:,,::*:,2;1;0:0;22;::-::;:;:38;35313<:<1<<=13,555355qq5,30:,0q0%%.@o@",
"*%$%;0q1:,50:;2:2;2q20qq:q0:10331201;;0;;:02;,1;*;1122;2:,:3,,*:*10,;0;11::2210;::-:;;,,::1<335>21>:13333qq821<,qq3,::00q0;@@@@@",
"%#&&;2qq:%<3;;33q1;010;2qq0;13q,;qrq;;;1*0;0,,2;;;,;10%;,,:2,:;,;2q1;21:,:1::2:1,3,21;::;35:3573u33937<:5,05::<<50q0:,,,;00#@@@.",
"%**::1000;,,,::2111qq00;11023332;:000;;1**;*022;;,1,;;;1::,,:,:::120120::,,;1:11,355311:8743<::33y3633:3<,5,<:,<30<<::,,00=@@@#@",
".@*0::300,:213q%2210;:q1122q232202%;;01;;**;20,,1,1;:0:2,,,,;:11:1012101,,:0;;0;><63539879474<393036<3333<0,33=,,3,,,<0,0q0@@@@@",
"@.@;::012,:;3q1;111q0:,0,:1:83r3;;1;;0;;0,**%0,;;;,;,:;::;,20,2;::2021;12,;0;0;;:3:3313533043:8344663333<,1:13<::;,:,<:000,###.@",
"@@O;00q010%;;08:;1;;q,01;,::338%0;1;:01;,,2**,2,2,,,;1;,;;123:0;2:39::>:,::12:::<<<7<>949:<74>><>353533,,*:65<4:220;1,220;:*@@@&",
"@@.&,0q0:301%;031;qr12201321330:;11;;;:;;;,,;;2,;,2;;;;1:13;:12,:::32:43::,;3,,,1>>1>74397<4<>7w33535559:;:,<64<20,001qqqq0;&&@;",
"&@oO*2qq22:::223q11qq;12:1,1:1q;1;::::;:;;22,;;22;;,1;;,;2::122,::::2233,:,,=::*-<>:>53>494413><,588855,:&:=,55<;0,,;,02002:;@@&",
"@@O@%0qq033,1122;;;0000,11222;,q11;1::21,,0,01;;0;,;,1;,::,2320;1:;,351::,,,<,,,:121334>94<74:<><3ytr9683;::=<6<;;*0;,10022*#@@@",
"@@@@;;000332;2:121;200;253121%*22;2:2::2;22,,,;;5,,,;1;2::::3>7<,::2:2313<3:<,,:-<<1>>:<49<2<0tt9<t998q6883==:<<0,;,0002:*;@@..#",
"*@@%*;;;351<2qq;02:22021:31;21--210:1:1:;,;1,,0,,,;,5,;53::23:3322::::323<<,,,,,1><<:>43:<273uw06<34:4a33533:;<<,;0,20%2q0*@@ ..",
"%%%*;2221,:021,0131:qr012133229:;q2,2;;,,;;,21,25,2;,51,1::33:<7::2:3;3433<,<<,<<>:3213<<>7>36w6wu66:;:539<:3=8900,,0111q1;&O...",
"*;;%;282222201:1311112013115122;*:0:22::2,,2;,;,,;2,,,;,3>3<32:33,1:2=3363<53,<57>-3<2779ew<46643936w3:3,=,51&-:;0,,1100q0*;@@.O",
"@@;;%22q27;qqq;r3<<1:<532833::1;*;20:<,::,2,2,,,::3:<::3<3<143:322133:>3643<3<<9<<1-<<24w9946403,,3tr0==32:12:*;,,0;,,0002***@@o",
"OO**%q2221q21q1q8w711:33351:333:;;::;322,;:,<,,,:33>331:<1<<95<<53<:4:<<46<34>332<>>2374w969w>4w5,8053,:31:20;**;,;0,,02q0;***@@",
"O%%11qqqq1q0q0q1t8:1::35::9<:4::;;;2,;:2,,,::3333>>3<31:<><17>3311<:12<736333>::334><599w0984<<6321505<<33100*;:;;;0,00qq22%@%@%",
"&@@*12q11q;q:qq2:88321:3732<:4<:;**010,1,;;,:<:;<<::>:>:37<2<3<35<:172<<<<<433332347<56wwy43>9<935,,,,,<311;0;*;,;;,,;,q0q2%O@@%",
"@OO%;000259872333832:7><82454::<1:;12<:0,,1:,,,%::33<:;;><<3:::3<>1:>37:<<4<344<3364<34994933:=<<<3::::,,<3<22;;,,*;0;0qq00#O@@%",
"%oo*;;11322811:233---1:7519>5:34,1:,,,21<35,,3,:-;>53:;::1:::>22:11<<<<><94<><34633373434:844t8:,,:<<2,,3<0<20;:,*0,0,;00q,#O.@*",
"@@o*;;q1;:22322:12-&73:93:13:1:70231:::;083,:331:=,<:<:-::1:::2:1<:<>3313333<333693633<57389w0455::=,<<:<<3301:;,*,*,,,0q0,*@.@@",
"@O%%;0qq7322q723313-:3771::7333:0:31220*,<3,;:,,1=;::2;;::::::3:>711<<:7:433<:3469463424964359w033,:3:03,33302000**00,005,0=.O@@",
"=%&:<37e9222r932983:33112223:32;,3552333;,<5::,3:1:::2::1112<113<<<13::3134:<336<9696w<64w6<83t95,,<66=<0;,,00::0;;222;205;;@@@#",
"-#=-15e495325q9833>,12:33q2q,33:1,2581;,,,5,5:,3<<2:1::::3>>:<<<<1311:1=::<34<436<646:<ww6468394635<<<:==,:,,:;0101;,20205;@.o@#",
"><&>2e499qq92e938833;22583032*<1,,,5,:1:,363,<,::><3::;2-><<:1<3::::>11-=:<43:><<3<<<4:<00665513<33<6<<,:,==012:;1;2;22q82;@#@.@",
"#-=:7e9e9wqat798272::228,115q:,,::,23::3=<983:3<><:>::;;1<1:<:::3::>7<<113<9313363354634306035:=:3356<<<=0,,q00:;0121000qq;@O@ @",
"&&>=318t9889e9att41:,3q2:81:53,33,:1<,3,:;,6936<3:>:11:-<2<2>1>13313:3<13:1493<:<663964<506w46:3,2,=:=<6,:,,q2,,::01205200;@@...",
"%-=>1373785tt9987474:892,3,:32:33<,,33::3::,55,<<<3<:::1><733<:<:35:>3372:35933393666<<<,5634<399,;,==,4*:,0,2010;10510200,@@@@.",
"#$->82771114w9219w6y5,qq3q5292,,3<,<3533,,:;,5<3<<3:3::-<><433::333>33<<::5363><5<<3<36>,,<66660q8,,,,=,;,0;;,01;111205520*@##@.",
"%##:9273118:69818t992:,9q2355,33<,<<3,:,52,,=:<33><7><11<7<<33::::33357:::5<36<<<<<6:<<<:,<<46<<<5<4:<::,1102:2:220;,5,,520#@@@.",
"%$%:t3713232:2p835383133<032955,3:3<>3:::32:11:33,:3<:=::<1<1133>1:53<<3,:><5635477>>33><34::34<<5<<,<,<<5<5532,,55:<<3663<#oOOX",
"-%%&:535:272222t88331313q282985:3<>::51:;::::;;33,:,3:=::<<4<-1<331>>::5<<<6<33:43:>1:<33635844396<,:=:,<,=<53q35363>33333:&OOOO",
"-$%-:8973325722231:1222q325233,::3<::::-;:2::1::552:3:31<1:<73>:<7::=1:5,:<<<33:::>73<356<46434<<56,<<<:,,=:,:3335663:>44<<O@O@O",
"$O%-:5573521788813::22:233,,:2:;:>71:1<::21;;:3:3,<:=:::>:33444><>55::1:3,:<3<43::<<1<>76<3694335565<<<65<4<,,33366663,<33<#OXX@",
"%-%--897::5128t3132222112;:;2:;;:3333,:::22:;;21:<3::1331<<733<473043:::33,<23683133:::<446366<353<5<<554646><>356464<>346<##XO#",
"&&;%-183,::3445w83e21311;1::;:2;::833<5<:23::::::13:;;:3<>>233<34>:5,::=,<<33>3<3<<<3<3663353<36935<4<3<4334<33<65040><366==XXX@",
"O&&;:1:123259te983138r178211:1;:;:53=<55333,:;11::::=1::373>>33:3>:::::=::3<33::1<3><<6666633695q6q65<6590000440y06346<366=&+OXX",
"&O$&:2412885qit957327rrrr8721;::1-=3333<5353:1:2-3:;:>:3<<>7<:83173<3::=*;:3<312:<<3<335,<666669690w0w00wwuwwwwjddydw336w6=#OXOO",
"&$O&=38727tqtt85222228889e722:2;:;:,333:3969:3<<=::-:1>3>::1<<16<<33=::=::*2,,:2<<<7><<332:23399595wwwdww000wyyddjdjww<0w6<##XX#",
"%&$&117788qpw93:;%%::2379e9972::,:22,,,,,<33:3331:;11>>3<3<::51:5-33:::2;-%122:,2>><<>::::::,:25699wwwww0<*=>36604wwuw99693=#@##",
"&O$%-137q5254>=+OOO@&:33e8t32:1;,:,,,::,:,393533531:273:::3:<::-::3:::::1--:,1233>><<3:-;:;:,:,2<wwwwww4<#=#-++$=>4<<w0<w4<=#+##",
"O$$&;279y7,,:#OOOOooO%&:73q57:2:3,,,3,,32:<<39555::2235<3:331:1:::-5::1=1;:::;:233773:1:232::227<6w60w64=@@@ooO+O+##=<<ww0###XX#",
"&&+:=57883=-%&-&&&O.oo&>58ee72,3,:,55332::235:53133:343>:373<:::;:;;3:::;;221::13363>55333:::232:69q95<=##X  O$%#+O+&<39w0<##+X#",
"&+&&-7732,*&$-7>:&&$o o&17t982::;;;,<,359255528533::<333131<4:::*::-232:1:-:31:::>33:4333::2:2:,,5559<>##XXO&:>:::&##=<<w0<>##X#",
"&&&-:491*:*&:-elt<-=#o.O;3tt332:::2239<9857885991131331>6>133>::;::=:<3,1;:;:4>:::3<<643223,253323996<>#@ O#:tyyae:&==<6634####+",
"#+&&3>31&%&=t4>lblt7:OoO-3er53233269335qr795887t32:3387:333:333122,:;:521:::&<333:<3333:2:3335559qet66=O X@*4kcbl3>>=#>>0w3=###X",
"O@%%&33=$+$-9k74vmxk7-O+&4ti9431:459wt58ww9557<932119953:<71:53533:::113653:::135113>::133313<5wa49te7:X O--acNc97a7=-=344>&+$+X",
"OO%%=31-++$:7lx49bmg>&oo-49w9>>1<49e478358561535231:546w1<><1>6<3<<2:<3333:54311331:;:,38333<6<wyei94:-$X&-7xMl>axg>==>>9w=-++++",
"OoO%;:1&O$+-9cMc9wbl2-OX&9ee722273we85::3358333q:1<<=33311::7335<<3,1::3<>-:352122:;;22346665<00w9ett2:$o&1gca>smvg>&&>>94=$%++O",
"$oO%-23=o+$-wkbNceeg4&O$:4ie422->7394>129:3>3,:32355::>5343::::3:,2=13=:331::3<:311:;22864<448666iet84>-+&3a41gnMzw:-&=394>#&&$X",
"OO%%&111$X$$19gxck4>>&+-wdd94::1113933<=:53:3217,333<3>5604:31:::;,,::;1<96<::331=<1::393<><<6<04tia447>-&>->gxnxi4-&+->043=&+++",
"O%%%&;2:$XX$#17eiiw=&$&:wtwi711151:4133:1:3<<5372389<41:473331::1=:,:::::69533231:12:3>86<6966444998iie4>&&>iitga7-&-&=:36:#++ +",
"%o%%;1--%$X$#&-1>3>-&+&4wa97t>1>313:5:9<3:22548<:34w431::568>:<1:::,:33=::,555323:313133<36063<<339wwie44>&><<>>4-&+&>>44w=+XOXo",
"o$%%;;1>:-$$O$&&--&&&--49we777>1311<5596;3::339433:33:723:5w37133:;;::3522:35332113::3<3<4664=>4<w69tgae7->+&==&&++&+->4tw>&-++#",
"%%o%%;121;&&$O%&&=&--::29474444<7>2<:4<4::;75593-11:3::>7>44835:352;:::3531;:333511:3<3:6q63<>3<44494ta4e3-==&&&#+#==>><6<>#+XO+",
"%o%%;122;;;-&%&&&::2:313>4334e4>3<<7<2332:-298082132::::3314:33:;22::1113883::25833>332,9633466<<6548ta9tw3:=:=:>====<w664>#+O#O",
"$o%O%;729117:1;-:4:3888577>>844947<7e7432:23e78w939733359387953353:2652:=289222873534533w969w496633449894yw134=>344<<666w=#=+#+#",
"ooOo%;1233333122:335t99t>72783751178484382:9r849t8384385e9899t3988::738372:232325335<38q9<666<<903i9ee7874y8<w4:0tt0003w6><&XXOO",
"oooo%%%115:;;:;1:::3>3>=;3<<::::=21=::><3,33373:::<38:<5:8348>>853;&215=11::-:12,:3::333<:<6<33<12839:133781743=wye430>>3=##+OX ",
"   o%%%%-;&&;%%&&&&;:>&---&--==:=---&&=:,:**=:=-:==:>:=====>>-&=:&-&==--=&&-%%-;&&;&=<:<=&=&%===--<&-:;;:=:-&==&#><<>::>###XOX  ",
"   oO%%2&%%%%%OO$&&&:=&---#&&#OO-#&=&&&&=,&&&--=:&&&&>8-=&-&&=&=&&==&-=&&&=-&&;#&&&#&=&%$&&&--O&O--:=-&&1&&:#--&=>>=>-&+=##+    ",
"   oo%%%$&&%&&&$OO&=&=:=-:-&$-##&%#&&-&#&&=,-=&=&&&-O&===&&&=-&:2=-&&&=&--&:&---&=&&&&&%&&&&&&-&+-:=&--&&$--::>=+&<=>=:&=###X   "
};
