/* XPM */
static char *tile10091695480481[] = {
/* columns rows colors chars-per-pixel */
"128 128 40 1 ",
"  c #1D1D1D",
". c #20201F",
"X c #1F1E20",
"o c #201F21",
"O c #252325",
"+ c #282626",
"@ c #272827",
"# c #292827",
"$ c #272428",
"% c #29262A",
"& c #2C2A2C",
"* c #302E2F",
"= c #31302F",
"- c #2F2C30",
"; c #312E31",
": c #353234",
"> c #383436",
", c #393837",
"< c #363338",
"1 c #393538",
"2 c #3C3A3B",
"3 c #403D3F",
"4 c #41403F",
"5 c #3F3D40",
"6 c #403E40",
"7 c #444243",
"8 c #484647",
"9 c #484847",
"0 c #494748",
"q c #474848",
"w c #4C4B4B",
"e c #504F4F",
"r c #4F504E",
"t c #50504F",
"y c #4F4F50",
"u c #504F50",
"i c #4F5050",
"p c #545353",
"a c #585656",
"s c #585858",
/* pixels */
"&:4222,221,<1,,11,1,111:,1,:,,,,33333&33&*=3;::::::=:==;=====---.=2,1,,,,2,2222222222222422227qw74,,222222222222222221222222222,",
"@&7trrrww0wwqq8wqqqqqq9qqq7877q700363333333333244224445524222,,:.@qwwqrwwrwwrwriewwwrrwwwrwrwwrwwwwwiywryyiirrwrirwreewwwrwwwww:",
"@&:tppipupuurwpwrwrrwwu0wwwwwwqq00006e6e8834888677q744446664552@.@,ripiiippppppppapaapppppippwptpprpppapapaaasppspaaaappappppr7&",
"$&=2wwwq0000qq888q7q8780787777777777666644836663422442554222,,:@.@@47qqqqwqq8wqww0q9wwqwwqwq8888qq8wwwqwqwwwqwwwwqwq0000wqqq87:@",
"+&*,443362225252225222512262666676703030836663132221,<<,11:<::-o.O@1,2222322222222232724263727746762224252554224222323322522,2-$",
"@#*:2222252522222222222252222256637300338366333>1<,1,,<<1<<:::;O.O@,,,,22222,2222222222222344223232722222222222222222222222222&$",
"@&*=222222222222222122222252226637773030666633332<<1<<2<<<:<:;=O.O@,1,,,2,2,2,2,2222222524222233322222222,2222222222222322222<-$",
"$#=:2222212552222212221222226557737603838666333>2121<<,21<<:<;-O..@,1,111,2622,2,2,222223227333242262222122122122222226622<212&$",
"$#*=222,22eai7,11212211225236666303030886666666221,<>3ww7:::;:-o.#.:>,>>,7wap8112<112222225222232225221122112,22,,2,3watq2,,2<-$",
"$&*=>2>22wppw62:111122222226666630038338w606662111,12asw7:&&:;-O..#>>:,>,7wrpi7<<,,2125224256622222222222112121,,,,29tpe86<,12&$",
"+&*=2>2,3wepw7:;;21212225636337633303383666666232<<2wapp7:&@&:-o..#,:>,=:2wapw71,,,,222225222223222212<22>2>1,,12,22724t82:<11-$",
"+#*=>2,234777,:&&121222226667737063338386666666222<2eet7,&@&$;:o...:=>===:49w721,12222224252322225222222,2,22,22,2,,22=37<--21&$",
"@#*=,,2>,===>*&%&:21222333434734444338336w66666222<2872>:&&$O&=O..*:>>*##&:<22<<:1,,22222242223525222221,2,21,2,22::444>1<-&<2&$",
"$&==2,,>=&*:,>;&%;1222336377443743403448666666322<<,2,;:<-@@O&-O.##==,##O#&<22<-:,21,52226243212222522211,2,<2121,=&3842<;&&;1-$",
"$&&=,,2*=*==>>*&%-1223336644474403434443866666632<<:,&=><::&.&-o..#:::&#O&-<2<<-;11222252422222225222222212,,1,,1,&&;751;-%%;1&$",
"$#*=2,,**#=3661&$;1223333637343734438443363066322::-:==,62:$o&-O..#==,#..*<q0q--=11,22225242522522222222221,211,,,&#*<5;--%&;<-$",
"$&*=2,3;%&;:><;-%;1226366666466674474747434766162>>***:1<<&OO&-..##=>:#.+**>3>--;<12222223232231216122212,2,,>21,,-##*>;&-%%<<-o",
"$#*=>,>>+++----o&;>222336666666666273334374366612>:;*&&;--%$$-&O..#::==..+#*;%&&;<1>>22223222222551322222212,1>1,<:@O+*;%&%-<<-%",
"$&**2,>>*o%%o--&&;>1233366664446666537676636636211>:&%%%%-$$&&-O..&==>=&.OO$%&&*;>22212221215122133121222121,1>,11:&OO%&%-%;;<-o",
"+#**,2>>:*o-o-$&;:11222663664646563672556363661211>>;&%&-%&&&;&..##:>===+OO$%%-*:>>>>222315215222113132221,12,>2>>:*+$$%-%-;<<--",
"$#*=:>3>:;&%$&--;:1122262766455566666666333322211111;;;&%%-%---O..#==>=*&+++%&&*:>1,>,2,2222522235122212,12<,111,1>:&&%%$-;;;>-o",
"$&==3;:>>;**&&&-;:11122222664455665663362322222111111;;--&%----O.+#>>==*&&&&&**:>>>,,11212222222123112,2,2,1111,,1>:;*&&*-*;<<--",
"+#**;3:33*;*--**;>11,222266256556366333122221211111<<;;;-----;-X.O#=>>==*&&&&**:>>>>111,1222212222122,22,,2<111>111::*&&-*;<<>-o",
"+#*=3;3:;3;;;**;::>12122222222543361313622211111<11;<;<;;;--;--O.+#===>>******::>::>>>11112122222212,<<,1,<<1>>>1>>>:*;**;;<<<-%",
"$&*=>>>>1><;;;;;;<>>1111,22222223<3613113;3<3-3;<><<<<<;-;;-;--o.+#=>=>>****;;:::>>::>>>>>>,2222122111>>>1:>:>>>:>>:>;;;;;;>>;-$",
"+#&*>>>>>1<;;<<;<<<<<1111,111122>3><>>11;3;<;3;3<>>>3;<<<<<<<;-O.##>;>>=>=>;;:::>=>=:::::>>>111111111>>>:::>>::::>:>>;>;<;>;<<-$",
"$&&=>;=>>;;;;;;;;;;<;;;1<;<<;<<1>>>><<>><<3<;33;<<<>;3<3<<<<<-&O.#&:<;<;;;*:;;;;=*==;:;;:::>;1:>1<<;;;;;:*;-;;;;;;;;***;*;;<<;-o",
"$&*+%%++%%%%&&$&&%%&%-%&&--&;-&------;-;--;;--;;<;<-;;;--<<<:-%O##*=;**-*&**&&-&&&&#%%+++%&&*&-&*&&&**%%%%%@%%%%%%+%%%$+$$&$o&&&",
"%#@$$$$$$$$$$$$$$$$$$$$$$%%+%&%%%%&%%%%&-%----&--------------&$$#**&*%&-&&&&%&&$+%$$$$O$$$$@+%@@%+++$$$$@$$O$$$@@O$$+$$$$$$%%%%%",
"%O$@$$$$@@$$$O$$$$$$$O$$$$$$o%o%+-%%%%%%$%%%&%%%%%%%%%-%%-%-%-%O#**%&%-%%%$&%$&$%+$$$O@O$OO$$$$@$$$@$$$$OOOOOOOO$$OOO$O$%o$$o-o%",
"$OOOOOOOOO.OOOOOOOo$OOOO$oo$o%%o%oo%%%%%%%%%%%%%%%%%%%%%-%%%%--O#*#&&&%%&&%%&$%$+%$$OOOOOOOOOOOO$OOOO.oO.OO.O..OO.oOO..Oo$o%%o%o",
"@+++O+.OOOOOOOOOOOO$OOOOO$$$$o$%o+%%o%$%%%%%+&%%-%-%%%%%%%%-%%&%##%%%%-%&&&$$&&$%%+@O+OOOOOOOOOOOOOO+OOOOOOOOOOOOOOOOOOOOO%$o%o&",
"78822<:1,::,:,,=3<>>>:::::::::=@,:==&&&&@&@&%&%&%%%$+$%+%+++&&-:::=&&@&@&@&@$&%&&&&=:::,1,11,1<-:,,,,1,11,,<11,,,,,<<112,,,,,:14",
"wtprw87q7q87777766677777744465,O:746222,,2222,2,333333>33>,2,,67q77221<,11:,,,:1,,244777qqqqqq1&4ww9qwqqqwwwwqwqqwwq88qqqqqq8qqq",
"ppppppppiiipiiiiuuuwwtwerwwww7&$=qirwiwwrwiwrwww6u0u6wwewwwwwww8qwwqqqw8qqqq7q877qqwwippappasq-@=ppsapsappapapaipppppppppppppppp",
"appppppppppppipiuuuwttttrrqrq<$$=2iippapppppipppauaaupuuepuewpteiiirrrwwrwrwwwewwwriiippaaasw:-$&4spaaasaaaaaaaasspaaapappsppaas",
"77666756656676653363333322252&O$=:47888wqq88qqqqu0006u668888878888777878777766067776557644552--&#=764467676676574466556666676766",
",<2222222222,222>33>>3;311,1<&$$==24246766777767666666666676367666766666665533664222,2,2,,12<--%#=1,111222322,22221222222222,2,2",
"2,2,<12,1111,<1,3<3;><3>111<1%o$&=,2373776737676666666336663636357556637666533332252222,1111<--%@=11,2,22,2,21,22<222,,,12,,2,2,",
"11111111<22<22<2;3;3;3;311<<<&%$*=,4232633362333666666333333333322623232262223122221,,1,1<<2;--%@&,,1111111111,,,,,<112<11111<<2",
"1111>1<1<11111113-33;333<<<<<%$o==12422470w73333666633333333333352623322522522132222785<1111;;&%#*:>>>>=3443<111<3<<1<1111111111",
"<1<1<1111111<11<*3-3uaa63><<<$$$*=,2,224wpte7232163133>313131313322222232222223112,8ppw811>1<--%#&:::>>3waat7::1><<>>11111>><11<",
"<><<11<1111<<><<3*3eaue6>-><<%o$&=,222248wt97,226116>333611331312232222222222212227rrpw82;>><--%#&:>:>,4wppe8<::>><6111>1<<><<>>",
">><1<11<<1<<>>><;333eaw3;--<<-$$#=2222:,:3ww2>:2616133>31631331322222122,21,12312,7qrpq2>;<>;--%#&>:::,33wt02:;;<>111<111<<<<<<>",
"><<<>>><<>><><<3;3336633--%;<$$$*=,22,:*&:,5,:&,61661661616131332,2,21,2>,,,22222,44422<;;;<<--&#&=,::==&=362:&;<3<<11>1><<<3<<<",
">><<>><<<>><<<<<3;;33;--;-%;<-$$#=,22:**:,<<<-&<1611611616161311,,>>111<11,222222,,>:;11;-;<;--&#&,=:=****=>1&&-->>>1>11><<><<;3",
"<111<<>><<-<3<<<;;3;%;3---%-<$$$&=,22=*:,222-&&:116111611616313111>>>><>>1>212222::&;,1:;--<<--o#&,::#*==:>*;-&&-;3;11><>>>>-33-",
"<1<1<<<>><3<;;3<3*+%%;;33;$-<$o$*=,22=#=472<--&-611611111111<<<<>>>::>::>>>>22222:=&=>22<-&;<--&#&=,:*#,,>:>;--&;<><11<<<<<<<<;3",
"<<<<<11<>1<<<<>><<-%%;>3>-$-<%$$&*,,3=##&333$$%;333;33<<<<<111<<:>=>>=>:>>,,,2223&&&;33;--%3<-%-++*33+++>63-;-%&33;3>>>>>>>>>>><",
"1<<><1<11<1<1<>><<%$;;>>;%$-;-$$&*,,,:+++33--%%;3;<3;<<<>><<><<>::>=:::::>>,2,223*+%**;--%%-<--o+.3+3+++%->3%-%;-;;;>>>>>>>>>><>",
"1>>>11<<<<>>1>><<;-$%%-%-%%-;%$$&=,,,,#++$&-%-%-;;3;<><><><<<<<<=>=>:=:::>>>>2123*%+%**%-%;;;-&&+++3+3+o$%;;-%&;;>3;>>>>>>>>><>>",
"<1>>11<<<<>>1>>><<-$+$%%%%-;<%$$&=,,2,*++$%&-%;3;3;3<>>><<<<<<<<::=:::=::>>>>1>>3;*++%+%%%-3<--%+*3*3++oo$%%%%&;3;>>>>>;>>>;>>><",
"<1<<<1<1>><<><<<>;>%++$$%%--;%$$**>,,2;*$$%%%-;><>>><><><<<<<<<<::;:::::::>>>>1>3**+$%++-;;3--&%+#33&**+$$$++&;;-;3;>>>>>>;>>>>>",
"111<1111>><<>><<>>;;-%%%--;>>%$o&*>22>>;--&&--;;><<><><><<<<<<<<:==::::::::>>>>>::-&&+&&-;;:;--%+*3+3+*&%$+$&;;>-3;;>>>>>>>>>>>>",
">>>>1<<1<<<<>>>>>>;>;%;;--;;>%$$*=>>12>>;;-;-;;;<<<<<<<<<<<<<<<;:::==::::=>=::>:::**&&&**;:;;--%+++3*3;-*&---&;;;;33>>>;>>>>>>>>",
">>>>>>><><<<><>>>>>;;;;;-;;;>%o$*=:2>11>;-3;;;>;-<<<<<<<<<<<<<<<=:=::==::::=:::::;****&**;;3<--%++3#*3;****-;;;;3-;;;>;3>><<>>;>",
">>>>;>>>;;>>>>>>>>;;>;;;;;;;;%$o*==>><<3<;;<;;>;-;<<<<<<<<;<<<<<3&+3;++3=:=>=>;;:;;***&*;;;>;--%++3#==*3**-***;>>;>>>>>;;>>;>>>;",
">>;<>>;>>>;>;;>>;>>>;;;;;;>;>%$$&=:>>><<<;<;;;;;>;;<<;<<<<<<>><<++3*;3*;====;;:;;;=*&***;;;<;--%+#**3+;+*****>;;;>;;;;>>>;>>>;;>",
";>>;>;>;;>>;>;>>;>;;;;;;;;;;;-o$*==>>>>><<<;;;3;<;<<>>>><<<;>;>>+33+*33+=====*=;***;**&**;;;;;-+##333*;;;;;;*>*>;>;>;;;;;;;;;;;>",
"----%----------;---;-;;-;-;;;%$$**=*---*------%-------------;---++*++o+&&&&&&&&&&&&*&&&&&-%-;;-+##+#+**+*&&&%-%**+&;&;;;--------",
"%%$$$$$$$$$$$$$$$$$$$$$$$$$$$%$$**$$$o$$o%%%$$%$$$$$%%$%$$%%%$$$o+o+.OOOOOOOOOOO+o$o%oo%oo+o+&*%+OoOoOOoo$OOo+o$++o+o+$+$$$$$$$$",
"$$o$$oo$o$o$$oo$$$$$$$$$$$$$$$$o&.+O$$$$o%%%$$$$$$$$$$$$$$$$$$$$ooooOooOooo.OoOoooo+oo%oo+o+OO&$.OOOoOOO$oOo$o$oo++o$$oooooo$$oo",
"$o$ooo$ooo$o$o$o$o$ooo$o$o$o$o$$.O+O$o$o%oooo$o$$o$o$o$o$$$o$o$ooo+ooOOoOo.OOooO..OO+ooooo+oOOOOOooOoOOoo$Ooo$o$ooo+oo$o$$o$$o$o",
"oXXXX X oXX     oXXXX   XXXXXXXX.       oXoXo   XXXXX   oo XX X          .           o  X Xo                    X            XXo",
"                     X                                 . ...          .                              .                          ",
"=,,1,::::<<=::=::============:============&=----&=-==----&-@&&&&333*=3>>>>,::,:,,:,:,,,,:,,:,::1,,<,,:,:>>::,:::,,=,:11,,:,,:,,&",
"=qq777775444446645555555422255225,,,2225,,22,,,,,,,,,,,2,,,:,=:&3433484848784qqq87787q7qqq77877877q7q7qq888687887q7q07q77q7774,&",
"&,wwqqq7qq777777q4777545445255425555552222222,,,222222,,,,,,,,=O+34300w0w999qqqq8ww0qqwqqqwq8wwwqwqwqqqq0e00qwqqqqqqqqqqqqqqq4&@",
"&=2iiiyuwqwwwwwwqqqqwqqqqqqq8878qq44q544444444454555225555,,1<&O+=wweeeeuwuerrtpuuppuuuuiiwiywuueuuuiippauaapppaipippyuuyyywq=@$",
"&=:qwqqqqq7q8777q7qq7777744543275555252542555225222,5,,,,,,,<:&.+&4444808888q8788880q0007q877877788qqqqq006w6000qq8888qq8q7q5-@$",
"&=:qq88q7q7q777745554444545533334,5,225222222225222,,5,55,,5::&o+&3444407777777788808768766675776777877qw0000086887q888777775&$$",
"#==47877774475764q5545454545332255,552,2222222222,22<555,<<<::&X.&33444466377324666666666655252266634747666688888778777776542&$$",
"&==4q777747734764556655533222232,55,55<5<,,,5<2<2,2,5qiiw2>,<:&o##,3343327epw7,2265666632522222223265656766068607777877776665&$$",
"&=:4777748ww7,,65555525533325222,,,,<,,<5,5<,,<52,,2qqii92:11<&o.&2332223wppw3,:22225222222,,21,21122252666666666778www766662&$$",
"#==467438ttw7,::4555332332222221,,,,<5,,5<<55,5,,,,2425iw1:;1:&o##2222217wtpw6:&:2222222212111111121225236666666686qwwq62<662&$O",
"&==467449w7tw,=&5552232332222222,,2,,,,,,,,,<,<,,2,<25:,61**:>&o.&,222,,233751=&&121111111,1111,12112122226666666628isw7<:,65&$O",
"#=:3767372,27,&&:633623322222222<<,,,,,,,5<,,,5,2,:=44q=1<-%;>&o##,42,2:,=&:::&%%:122,,11111111<11<11122133356666227ww7<:-;65%%o",
"*==3674242q41:&$&232332322232,,1<5,<,<,,,,,,5,<,,,==,q44;;%%*;&o.*,,2,,:=&=:1<;%$;1,111>11,1,<1111111,<2212213666>::1,,2:-&22%%%",
"#=:4743>28ww7;&O@13332322222>1,1,<<<,,,<<,<5<,,,2,&&=55,<-&$&;&o##,,,2,*&&::2;-&$;1,11>21211111,111111<,121233364==&&26,<&%25&$$",
"#*=3443=:6w71:&$@>2333322222,211<,5,,<<5,<,,,<,<,,=@&:2=;;$$&;&o.#::,,,=&*:555,%$;11111111111<1<<11<1111112216363=&&:,7w7&%<2-o$",
"#==4743==:47:&%@$:2232222222,21,,,<,,,,<<,,5<5<<>>;++*;<--o&&;&o#&:,,,2=+**>;>-%%;<1>1>2>11111,111111111<11216164*##*287>%%15%%o",
"&==3277&*&>>;&$$&>234262252,,,11,<<5<25<,,,,,,,,>>>$O+-*&$&$&;&o.#=,,,,>$+++-*%%-;<12>1>1<111><111111111<11131633:&#;:>:&&%22%%%",
"#==4447:&#*;-%&$->22242225222>11<,<<<,5,,,,<5,,53>3&+++&-oo-&;$o#&:,1,2>*+$$$$-%-;;1>2>1111><1<>1111111<<31113663>&#%&;-&%-12%$$",
"#==37652&##&-&&&;1363224222,2>21,,,,,,<25<,5<,,<>>:;+++&--%--*&o##=,21>>;++$$-&--;11>1111<111111<11111<1>>11612333&#$%&&-%;12&$$",
"&==24422:%&&----;1223>3<221222222,,2,2,,<5<5,,5<:3::-&%&-%&&--%o@#::,,,1<**$$&&**;<11>2>>111111>11111111<>16263332>%&%&-&;;12&o%",
"#*=474762;&&%%-->132>33325521212,2<22,,<,,,,,<,,3:>>3;-&%-&&-*&.O&=,,111;;**--&*;<>111>111111<11111111213>11223333,:&&%&&;125%%$",
"&==2466521:&-;-;133333<3225221222<<2<2,<,55<<55<3:3;;;;--&&--;+oO#:>,,11<<;**-;;;>>>111111<11<112122111113633333342::*&*;>165%o%",
"#==4266532<:;;;1122131332222222125,,2,25<<,,,,,,;3;3;3;-----&;&.@#:11111<1;;;*;;<<><<<<1<<<11>1111213133115113363332>::*>1222&%$",
"+**333333221;>>1<33<3<3<225215<5,22,2112,5<,<,<23;3;;3;;--&---%oO&,,,1111>:;;;:;;;>>1>1<<1>11112212222212313232333332><<12232%%o",
"+**333>3222221123<<333<312111<<<2,111<2<<<,,,<<<;3;33;3;3-3-;3%o.#=,>>>>:>>:;;;1<<>1>>1111111,2122222213132221322222231122221&%%",
"&*;33>332222222263<5<3<3212212-52<1111<<<<<<<<,<3;;3;3-3-33-;;-o.#,=:>>;;;;;;;;;;>>1>>,>21111121122,12213>2223231313221322221&o%",
"#*;>3<<321222>21<<<5<<3;11111155:<,<<:<<<=:::;<;;;;;-;-;-$;-;;%o#&==;;;*;&--;&;*;;;<:>>>>>>1:>>>11111121,>>>1111>>3>113112>11%%%",
"#***;;-----;-------------;-----------&-&--%-&&&&%-%;%-&%&-&--%%$###%#&%&&%%%&%%&&&*%*&*&%**%*%*&&&&*---&*&-*&--*-*---%--------oo",
"#*&%o-%-&%-%$--$%--%%-%--%---%-%-&&%&&&%%%%@%%&%%$%%%%%$$%$$%$%%+#@O$$++%%$%+++%$$+%+$%%%$%%%%%%%%%%$&%%+&$%%%$&$%&$-%%%--o-%-%%",
"&#&&--o-o;%&%&$--%%--%-%%%%%--%-&&&%%%$$$$O$$O$$$$++$$$$$$++$$$%OOOOOOOOo$$+%$++++%%%+%%+%%++%%%%%%%%%$%%%%%%%%%%%$%-%-oo---o--o",
"+&%%o---o-&%&$-$%%-%%-%%--%-%%-%$$&&%%$@$@O$@@$$++$+$$$+++++$%$%&#&@+O+O%+$$+%%%$%$+$$+$$++%%+%+%+%+%%%$%%%+%%%&%$&%%%%--oo--%--",
">>:&&&@&&&&&&@&#@@&@&@&@@@@@@@&@=*=:::,,,1,,12,,,,,5,,5,1133116678q421:::::&*&&&&@&&@&&&&@&@-@&@&&&&&@&&&&&&&&%&&&@&&&@&@&@&&&=:",
"99734,,,11,1,,1,,1,,,:,,1<,,1:=$,4478qwqqqwwwwqwwwqqqqwq0000u060rrprwwq8q777732342426242554444<@,3244422252442424254422222,4444q",
"wwwwqqwq0000qqq9qqqq7887q76445%$:rttpaaaaasapspaspsspsssaaaaauaapppppppurreewreewwrwrwwiiwiii7-@:rrrrrrruwuwwrrrrrwwwwwwrrrwwwww",
"ttwpiirieeeuwwwwqwwqqwwwq8q77=O@=3ttpppapaapapaapsppsppiuauauauapppppppppppwppueiipippppppppq;-%&4ppppppppppppipippippppiiiiiiii",
"77777777666666667776667645552&OO==33333345665555665555553333301335655555252663667777877777772;&&#:777878787q8878qq88878788777877",
"66666656666666632233232522<2<&O@==23,,>322,22,222212222<31111113,22,221,,,221233426627664455<&&@#=776767767675776666443723776666",
"66666756333366632723322222,,,%OO**,,>,,,<1,1,21,11212,113>1>113>2,11111<11112222242652555555<;&@#=764766744756446767556566666766",
"2633223233<3336122222232222<<%O$**2,,,>,111,111111,,<,1111>311>>111112121211>222222222225545<-&&#=232424562725264242273333623262",
"22522252222216152222qw72<2<2,@$$=*,>:,>>27w611111111>>><3>><111<11111111111111>22222qw862255<&&%#*222424qww762423224333223323322",
"3232222225226<61222qiiq4:;2<<%$$*==,:>>,waap8><<>111>>><>><<1<<11<>><>><<1<1112222,8pppq2522<&&%&=224224wrpw44242422222322232232",
"2222152222511616527rppw2:-=,,%o$**>>:>>4wipw72<1;<:1>>3;><<<<<1111<<<3<<1<111>212:27wpw84,22<&&%#=2322248rpq61224232222222223222",
"3522522226156161227wpi71&&@,<%O$*=:>>::328yw52;<><<>>>;-><<<<<1<1<<<<<<<111112,2,:,24ww2<;<2<&&%#=2242::=2w92::22222326132322232",
"22515215161512612,6772<==%@:<@$O*=,>::==&=,75;;<>>>:3;;3>><<<<<1>><<<3;<111111,2::,2422,;=;2<&&%#=222>==&=22,:-22222223332252322",
"22222252516116155<,:=:2<-@$-<&O$&*=::====&-<<;-;>>:>3:3->><<<<<<><<<<<;3<1<1,2,2==,>::<<=&;2:-&%#=,32=*=,2>::&&<2323232222222222",
"21522151161551312::&=:2::;O%2%o@==>>:&&==:::---;>>>>;3;3><1<<>><><>><<<3111<21,,=&==&:<;--&<<&&$#*,22&=,,22>-&&:3223222223222222",
"25222515515115152:=&&:5q2&$%<%o$&=>,:&#:21::;-%->>>>3-3%>111>>>><<>><<<;<1,2,2,,=&&&&;<22-&<:-&%#*,22=#=472:;-$<2222225222252225",
"316<6161611616122:&&*221;$$-<&o$*=>>>&#*=33*--%-;>>>>>>>>>>>>>;><>>><<<1<>13>311=&##*>33;-%<;-&$#*22,*+#-55<-%&:2222522515222252",
"16<61616161161312>&&*;;;&%o;<$o$*=>>:=.+#=>>--%<>>>>>>;>>>>>>>>>>><<<<11>>111111>#+#**;;-%;1<&&$#*,2,:++&-<---&>2222212222255151",
"6<515111611513132,&#%%%-%%%;:$$$*=,>>=#.$%*;-%*;;>>>>>>>>>>>>>>>11<<<1<<>111313>:&++++*--%;1:-&$#*2,2>++$$--%&-:2222251625121515",
"<6161561<65161312,>#%%%--%-;:$OO**,,>:*.O$o%%$*;>>>>>>>>>>>>>>>>111<111>>113>>31>*+OO$$&%;<1<&-$#*,22>=+$$%%-&:12225225122515151",
"6<3313156<6<2222,2>;%%&&&&-;:%OO==,,>>;&OO$%%&*;;>>>>>>>>>>>>;>>1<<>>><<;3;31113>:&#$$%%-;>2:&&&#*,22>:&+%%&&*:,2515151561151251",
"163<315116<32212221>;*&*&--;:$XO==3,,>>=*%%$-*;;;>>>>>>>>;>>>>>><<>><><<3;3>133>>::**&**;;12:-&%#=,22>:=&*&&&*:12252116111625115",
"<3<31331>3332122,22>;;;*;;;:<%OO*>,,3<<;*****-*;;>;>>;>>>>>>3*;3<>>><><<;3>3>3>>,::**&**;111<&&$#*,222>:;;**;:>22212661661611351",
"1>3>31>311><2<2,2>>1>;:;;:;:<$Oo>;,3>>><>*****;;>;>>><>;>>>;-3;;><<<>>>>>;>3>>>3>>:;:;;*1122<-&&#*,2,2,>::;;:>122222112161212212",
"3>3111212<22<2122<<25<--:::<:%o$=>33>>1<>;-<;-<<>>>>;>;;3-;-;33*>;;-3;;-;>-3-3;3,>>;>==>1111<--%#*,,2,21><;>>>2,2,,,21,,1112>22>",
"11111111<2,<1<<2<<2<<-55::1::%o$=>>>,>1>>>>><<-->;;>>>>>;-;3-&--;-33--33>>3-3-3*>>>>>>>>1111;&&%+*>,>,,11<11>>11112112,121211111",
">><>>>11<<<<<<1,<<<<<<5-<<::<$OO=>>3,,><>><<<;<<>>>><>;>;3%3;3&3;3;;;;3&;;33*3**>>>>>>>>1111<&&%#*>>>>11111111111,111,1111111:11",
"--;-;;-;--;-----------%5;;;;-&oO=>;-*;;;--------------------&-$&+$---%-%--$&+&*++*&**&%*&----&&%##*&&**;****&;*&-;;&;-;&;-;-;;*;",
"$&&$%%%%%%%&%%%&&&&&&%&%%%%%&%o$;;&%$---$-$--%%---%%$-$$%%%%$$$+O$o++$$$O$+OO$++O$$$$$$$%%$%%;&&++$$%$$$$$$+$$$@%%$%$&@%$$$%%%%%",
"$$$&%%%%&@&$%%%%%%&$%&%%--%&&&&$--&&-$$%-$-$%--%$%---$$-%%%%$$$$o$o$o$O++$$$++$$$$$$+$O$%o$$%%&%+$$$%%$$%+$$$$$%$%@%%+$$%@&%%$%%",
"$%%$$%%%$$$%%%$&$$$$$$%%%%%%%%&$o%%%$$%%%-$%%%%%$-%%%%%%$%$+$$$$+o$oo+$+OO+O+Oo++OO$$+$$$%$$$+%+O$++$$$$++$$$$%@%+$$$%++$%%$@%$%",
"&&&-&-&--&&&&-&&&&&-&&&&%-&&&&&<<<--%--%%%%--%-%%%%$--%%$$++O$+ooO+++++++&&&&&&-&&&*+*&&*%****:>>*&&&&&*&&&&&*&&&&&&&&&&&&&&&&&&"
};
