/* XPM */
static char *tile1391695480479[] = {
/* columns rows colors chars-per-pixel */
"128 128 73 1 ",
"  c gray6",
". c #151515",
"X c #181616",
"o c #161618",
"O c #181618",
"+ c #161818",
"@ c #1B1B1B",
"# c #201E1E",
"$ c #1E201E",
"% c #1E1E20",
"& c #201E20",
"* c #1E2020",
"= c #242424",
"- c #282727",
"; c #282827",
": c #272728",
"> c #282728",
", c #272828",
"< c #2B2B2B",
"1 c #302F2F",
"2 c #2F302F",
"3 c #30302F",
"4 c #2F2F30",
"5 c #302F30",
"6 c #2F3030",
"7 c #343434",
"8 c #393737",
"9 c #373937",
"0 c #393937",
"q c #393739",
"w c #373939",
"e c #3C3C3C",
"r c #413F3F",
"t c #3F413F",
"y c #41413F",
"u c #3F3F41",
"i c #413F41",
"p c #3F4141",
"a c #444444",
"s c #484747",
"d c #474847",
"f c #494947",
"g c #474748",
"h c #494749",
"j c #474848",
"k c #4B4B4B",
"l c #514F4F",
"z c #4F504F",
"x c #50504E",
"c c #4E4E50",
"v c #504E50",
"b c #4E5151",
"n c #535353",
"m c #595656",
"M c #565856",
"N c #585857",
"B c #575758",
"V c #585658",
"C c #565858",
"Z c #5B5B5B",
"A c #60605F",
"S c #5F5F61",
"D c #636363",
"F c #686767",
"G c #6C6C6C",
"H c #706F70",
"J c #6F7070",
"K c #747474",
"L c #787877",
"P c #7B7B7B",
"I c #838383",
"U c #8A8A8A",
"Y c #919191",
/* pixels */
"<7<777<7<77777<7e7e77778e8e7e7e777777<57787,7<778e57q<7ee7777e77e<777<7777777e7<77<7777e77777<78e7767e74777q77e77e77q7<77e2<7<77",
"777e7e7ee77ekaaeeaaae7ee7ueieeaaeaeeaiq7eeaekaegeegeee7eeyeeeeegaeeeae7eereeaiaraieeeepea77e7eeeaeeeee7e7aeeeee7ee8e9e8eeeeeee77",
"779agagaeegggkhkkkanhkgNjkagMkikkkkgkgkMfgkknkgkkgxnkgkknnVkvnknMnvnkkncknknMknkBnghakgkkggkaMgkMZvakcgknNNsnkankkkaegakegkyaee7",
"7agBknMnnkZDxMFZZMNnnnkNnjMnNNDFBMnMMDZnMvnnkZNvkkNMMSMFZZDNNDMNZFDDVsMGFDMMDDFDZNNNkcnNSZkkZMFGGFSNMnkMnDFNNnkBMMcnnnbakngkaee<",
"7ekklNDMnknZJGZNvVNnkMnnkkkMnVNMnMNnkkDNkMnZMnkMZNZMvkNZMMnMZMVMNZFZMZBMZZFZZVNZMZNMnNZZZNnNSNZKKGDGDZDMZZZDDFZZZZZNNNnntklkkkee",
"1rgMNkBnknkMSNkkkkgkknhNkknkckkVlghkkkgxnaMNnkkknMkagkkklgsnknnnkZMMnnnZNMNnMNMnxkvnZvMkNxnnMDDNMnSMNDZvMZNNnkDnNZnkBjgkkgkkgka7",
"7agnMNgkkkkhkkffkakkagkkhggkkkkkhgkMkkggngkgahekaseaaaggaggakkkkkkckkkkkvkkknkgkgfaakkkhnknkvkkvhkkkkkkkkkkkkkkMvkknnkgegkkkNnee",
"7rghkknkkglasMkknkkgekggkgkknnlkkaakfkhkkvkkiegkkgaaeeaaagaaggfkknkgaknvkgkkngggaggkkkkkMkNkggnzkiaghMkkkgkkagggsgeaaaaeakakkkke",
"<ekkDZMaagkgykgxgfkakhkkakxnnkkkaeaegeakgegeeaagaggrearkaaaggagggkkgaagkkakazaauiaakaaaakknkkklkaeaaakkjkkkaaayrlkkakaaagalkknge",
"ewkNNDnkgkgkakkgxkkckkkekkkakkkgaeeeaeeeeyeaeeeaaieaegegeeeeereeaayaaeasaaaeaaeaeaataeeigygaaefegeeeaknkgkakafkknfkakkgaaakkkkge",
"epeNDNMkkgasknkekkknkaakknkgggeaeq78ee7ee7e78e8eeeeee7e877e7777797ee8e7eqw7e7eeree78e7eaepeee79978eiyeeaakgaggagggkggkMkskgMnnaa",
"77nZDnvkggkkkgggkgkkakkkkkaay7e7777<<7e72777777777777877;<77777877<7<<797713477777777<7777777q77377eegeaggkaagfkxnaaxgnnnkkkkfNe",
"7aakMMnkkkMMvnkkkkkkgkgfggygee777,,1<17<77<77<37<771<<1<;,,<,<<<,<<<<<<<<<7,<7<771<<,1,,<3773;<<7<7eeyeffkkakgsankknkkkdakkkMke7",
"77gnDVvkkkkaMkksankkfkaaeu877e7<7<,1<7<<2<<73<<<,<<<-<-<,;-,,-,,<,<<--,-;<:-<<,,,<;;,,-::;<,<<<;,<<77aeafkakkkkkkkkgkkdgygeakkee",
"77kNDknvykgkskgagkkgaegge977717,,<,<<<2<,<7:1<-<,<,<<<<<,,-,----,--,-::<,,,<<,,,-,---=--,-,,=::=-<<<7egagggkkggkkzkgkkkdee7rkgr7",
"77gMVMNvnkgnkvgkkkkeaaayeee<5<,,,<<7<<<7,;;:<,-<<,,,,-,>,-=--,--:--:==-<-<-<-;<,-=-====:-=,<:::=-,:12eegaeyayaaaknkkrkkgkagakkh7",
"7qvSDnNkklkkknNnnkkge7ee9e7<<7<:.....++X+++X...+XXX@+++X..@.@+.O..@...++@@.@.@+++X.@...@+...@....,<<777eegaaerakgkkakaknnkfanka7",
"7ehZVNNknkgnVknnnMaggaee877<<<:.....++++#@++@.@+@+.X@@@+@@.@X@..@@@@@X#+@@@@@.@.@+@@@.@@@@@X@+@.@@<777777eeaaakkkkgzkkaggkagkka7",
"5ekMZnkMknMnNNgkkkksei977<7<<,...X+@@@#=#@@#+@#@@##@@#@@@@@==@@@@@@@#@@@@@@@=@@=@@@#@@@#@@@@@@@@@@.<7777re7eagkgnkgxkZkvaakknkge",
"7aaZZMnngnkcvkMnBkkeee77<7771.+.+@@@@###===#==::=:=====:=:@======#,:====@=@:==;:;==#=@===:&===#==@@.7<<7779eyagxnnMgkfnkkkkncNye",
"eesMVMnkkkknlMgngaeeee77777<@@@@@#===:-,;<,,<1<,<<<<,<<<<,<<<,7,,3<7,7<<,<7<,<-;<,<,<<:;,<<<<,-,:#@@@277,777aeakkkgxkkkkekhkZNae",
"7egknnnvnnknMfkggy77777777<@@##@=:::,<7<777778779e7ee8e77eeee77777ee79e8e97ee9779e877777<7717<<,,;=:#@<777777aaglkkkkkdskkkNZnge",
"7agnkSbngaknngaaee7777<777@@==:=,<5579eeeeeeeytraaaakggkkkkkhkeagagggrfggreraagaraeeeeeee97e78777<,-=#=7777qeegfkkkkkkkkagnNNkae",
"77knMMkMykgggyaae7<7<<777@=#=,;<<58eeeeasasskkgkknknvnMnVMMZnMVnnkknkknkkkkakkkkgkgakgeareeegeeeee7<,::,77797eeakkkakkkkegnZMge7",
"77skNkZkfeggge7e77<7<<<<=@=@:;<<77eereetgagakskkxknMMVNZNNMMNMMnnnkxkfNMngkkxnknkngaaaaaggaaggyeee71<,,,;799erakggggpanxngkDlnu7",
"17ekkkkkkeaeaee771,,<7,:=@===:<738e7eaegagagakgfngklkMVNnnMnnVkkkkkkkaknkkssgkkkkfgarkeageeaeaeeeee77,--;*7eeeefkkkkakggganZkkee",
"78ygkangyeyee77<11,,<<#@@$=:=-,5<79e77eee9eeaaagaakakahkggknnakaaseggeakagkagfaeasgyeeeeaeeeee9eeew71<<,::=eeeyagkkkakkakkMNFna<",
"3eegkkngggee773<::<,;@@@@=@@==:,7173777777e778eee797eqeeeegyi7qq79ae97eyee777e77e9777e7777777878777<11,,====eeegkkkkgnkgkgknZkae",
"87eMknfkgkae77<;==;=@@@@@@@@@=--;<<3<<<3777377977<77e77e377777,,<7<,77<<<77<3<<7,177<1,7777817773<7,7<-::@=#@aaskknkkMgknknnDNge",
"7ekkgkkggkee7<,;:==.X@@+@@@==:=:<,<<,,<,-<<;,,<,<2,<,<,<,:,;<,,---=:3<==;;2:<,1,,-><<,-<<,;,<<<<,,<;-,==:@@@@@kknnMxnhkkkkknNku<",
"weyNxfaeeky77<<=:#+...@X@@@@$=#===-:,<=;=:-:=;:;=:====,,<==::--:==:==:$::=-#<:===,,-,:-:,,;:,=,<;=::=====%@O.O.MVMMnkkkknnkZMke7",
"7akgnzkkaaeee7=:=..X...@..@$@#=:===::===#:=:#=======:===##:=#=-=:@===#==@,==>:==:@====#:=@===;====:=#==#*=@@@...DFZNnkkkkkvNMkke",
"<7evnnegkaat77,,........@@@::#=====,=-=======:=#:==;=-,,:-::::==#:=;@@@==:=:;,,====:#:====#=====::;-;-:====@X@..DFAMNknaicknMvae",
"77tkfkkkkaae77<,.....+@@@@==::=::=:<:,-:;;::;-,,,;:,<,<,:;;-,--;:=:,:====:--:<,<,;:-::>::-;;:::<::<,,<-:,,=#=@@@GGANMNkksknnnkg7",
"7eakggkfkgg771<<@@+@@@#===:;<<7,<<<<<<,<;<<7;<73<=<<377713<,1,,,<<,,<-:<;,:<<;<<<<,;<;,<,<<<:<<<<,33<<7<,<,,==@@GGGDDnnkgkfkkkr7",
"e7ekagakleae777,@@@@@#$==,,7<7<773177<373<2<<77777<17117e<777<1,<<73313<<,<<717<717<3<7<337<<11737778787778<::#:GKGSZkagkgklZkt7",
"<7eksgkknkea73<,@=#===-,<<77777787797787e8e797a77eqee7ee9e77ea78eye7777e37777qeeree7eqee8ee7e77eeee77e797e77<<<,GGFDZnkggkknnna<",
"7eeMsakcnkaa877<==@=#:;<7779eeeegereeeeeqgeagtagaaagaakagkgesaaagaaaiaggeaagikkgaaagakaaaegaaggkyeaegaeeeee7737<GKKDnMkngaxgNNe5",
"7aazhNNkkkkee77<==#=:;<79eeeeaeaaaaaakgkkfnkkknknnVMnVNnnnnMVnxnnMZNlnNZnxnMMMNZnnlkkknnkkkkvkkkgfkggaaraeee7777KPPFNZkkdgMvZkaq",
"<ekbNkvnkgkeq719===:,<77raraeeykakgkkkgknkknkMNnSNnZDDNZSNFDDSDFZZZZDZFDGSDMZDGZZNZMnnMZMnMnMnNknkkkgggaege7ee7eGPLGnncgkgkZnne7",
"7akkknknnkgee77,=#==:<78eeeeeeeaksakkkkkkkkkMnMnZDDNFZSNNNFZDFZFZFDDNGDZDDZMZSZDZZNZMnNNnknnnkkkkgkaaaaaeeae7788KIPGBknkfacMVne7",
"<7jkannNkzae87e7=$$=:-77e77eeeeeiaeaegyaggakknMNNNnnnMNkNBnMvMDNnnnNnMgNZZZNNZklknnkknvngkkkagkkgaaeergeeee777<eKIPGMnkkgdknMka5",
"2ernhgkkkka9e777#$@=:;77777ee7777qeta7eeeeerhghakksghggkgkgkkgklagakkgaaggkkfkgkkgggsaggegeyeeeyaeee9e7e97e77<,7KPIGNnxkkkfMZNe1",
"7eannnMkgeaee777@@@#=:<<7<<77717<7772777779777e797eeeee9eeeeee7yy77e7ee7aeeae77eee7e77ee7e777777797<777777<<,,<-KIPJZnngknxDDne7",
"<eeknMkdgaee8772@@@@@=,,<<<3,,<<,<<<<<7<<1<;<77<3<77737,<<7<<<,<<e31<77777327327<717<71<227<<77<<<3<7<7<1<;,--:=LIIJDkkvkknNSnr7",
"9eekkkkkaaeae747@@@@@==::;,,::,;::<<,::;-,,:<<,>;,,,<;<:,<,:<,1,;<,<<,,<<<<7<<,<<<<<,,7<;<;;;<<;<,<<<,-:,,:===@=KPIKNlkkkgnbDZge",
"<eaekNkkrga7e7<7@X+@@#$=#:====#===::;=#=::=:=-,:::=:,:====:==-===:--=:>,<<;:====:::-,,-=:=::::==;::;;==:-===@@@@KPILSkkyagknnkg7",
"<<akkkgkggee7<77+++@@@:@=@#==@=#@=#====##:====:=@#=========:===========:<:=====;##==-==:#===:=#===:@====:#=@@=#=LIPGNkxgkgssMk77",
"<7ekaxgkkgae77<7.@@@@===#$==:====#=:-==#:,:===:===-===:==;,::=;::::=,,==-:=,=-:-:=:=-:<-=:====::==,,=;=:=#:==#@@PIPHMBlggsgkkk77",
"77egkkkaage77737@@@@=@=:=:-;==:-:;,,=:::,1:-<:;;;:<,:;;-,::<-:,<>,:-,;<<71,,-,-<<,:<;-,,-<;:<,:;<<<,,,:==::-=$=@LIPGMnkgkggnkzy7",
"79ggkkkaayeee7<7.@@@#::;<<,:,,<,<,2<<<<<<,<<;<<:<<<<1<<<<<4<;,<:<;<<7,<<7<1<<7777<7<<<737<,<,<4<,1-<7<<7<<,,:=:=PIIHZbkkkgknkke8",
"7eyakkfgaaee7777@=@::<7<73<7<<<7<77<7773e<777<73977719<7e<47<77e777,,77773e7e97<77<77777777787711777777e773,;::<KIPHDnknkkkkkkee",
"77egkkkeaeee<777-=-,227777377777eee7eeeeeeueeqeeeeeeee7eee7877ea7eeeeegegeegaaerae7aeeee7eeee89e8e7eee78e977<7<<LUUHDZnngkkkNke7",
",7eakkgkgae777<<--,<<797eeeeeeeeeaadkkakkkakaekhkkkgkakkeaakgreakkakakkfkkgkkkkgkhagtaegkfiaageeaaeeeeyeeeee7777PUPJDnnknhnMMcge",
"<7eaagkgaeee7777,,<<77eeyasgggkffkkkkkknnkZvnnnMcckMnvnMnkcnnnkvknnnNNcnMlnnNnnxNnkkkknxknkkgfggkaaeaygeaeee7877PIIHDNBkgghnMke7",
"<7eyakfgke7777<<,<<,7eeaakggkgkkkngkxknxMnNMnBNBnnNNZVMMVMNMFMMnnMnlGVZZMNBNZFZDZSZnnMnkkknMkkgkkkgkgsgseaee7ee8PPPGZBvnkknVMka8",
"77eagkfgae877737,<1<3eeeaaaagskkkdkgknnzNMvknMnllnMBZkkMnkNNxMnnkNnnMMAMnkMZNSNMMkkNnklcgnMkakkggagkaaaeatgre77eLIKGSnZvlnMMMva5",
"<7egkkfee78777<<-,,<<7eeeeraakkkgkggkkgakkksgkkkkkkakdfkhknckfnhkkkkckkgkckgglkknkkkkkkkaggrgaakaaseeeeeeee77777PPPKSnnnkkznMhe7",
"77akkakgeeew1<17#==-1179ee7areyeeeeaa7eaeaeaeakr7a877eee7e7a97akeeaaeaadeeeaeaia9geaeeie7eaaaeee97e77e77777731<<LIPGZnnnknnnnkie",
"7eefkglkage7777,@===;,<<77<e7<737977777777e77797e777773377<e<77777<77e2e<e7e77qee7e757<77778e97ee7171,3<77<<<1,,PIPKSZZnnnnnNne7",
"7eagkgMsakee77,3@#@==:<<6<717<,77,<<,72:7713<3<<<6:;<;;<<<7,<<<<<,<7777717<<73<77<<3;3<,,3<71<372<;;,,<7<<<;=-@=LIPHnMhavkkMZge7",
"7<akkxkkree77737@@@=@::,<<<1->,<1-;:<<<;,,;,,,;,,<:;;=:=,,,<,<:<>,,:,:;;7<7<,::<<7<,:-,,<17,,<3:<3:=:-<,:;==::=@LIIGMnnknnMnnke7",
"73gfkkkneawe34<7@+@.@==:,<,,=:=:-<<::=:;,-::::#:=:@::=::::#,==@#=,-=====#:,<:==:1;<;@=;;=::-:;,1:,===#;<=#@:=@=@PIIFnMkkkNklkne7",
"77gaakfkaee77<7<X@.@@@@->,-<:=:=:;=:@:#;:-:=====&==:$:=#-:#=&#:=#@@==#@=:-===@#=;:==;@@=:#::#:-<,,=::#:-==:,#@@=IUPFSlvMknMNngp7",
"7eekkfgkkee7771<++.O@@#:==:====-,-==--:=:--;-=:=::::-==,::=:==:,=:==::#=$==-:===<-,::=-,<::,<:-,:-::===-::#@=@@#IYIGSnknkksMnaq1",
"<7ygBnkkke7727<<@@@@@=,:<=--:-<,3;,:;<:,=<,<,<<:;--<,-:,=--,,<1<<<::,:=;,=,,7-;:,<11,=;-=<<<,,<<;<-:,,:=,<<;1,=<IUUGZnkkklkMnke7",
"<9agkkkadae77,,7=@@@=::<7;,7,7,7787,<<<<777<33,773<<;,<5<<7,117,37<34<,,:-<,<1<7<7<7<<<873<<7<:73,2:7<<7<<<7<,:-IUUKNkcknkcknge7",
"77agNkngeae77777@=@===7<7917777e77<7<<,177717<,<7777777,77<7<177ee8e7777<<e91197778579777<87e79e77771973<1<<,<,,LIUGNMknkkkkkke<",
"7egakkxkae77<<<3=-::,77ee79ee7eeeeee77e7eeereeeeeeyeiuee77eeeaeeagkaetaee7erkkee7eaee9ee7e7eeeeee9e777e779777<<<PUUGNknkkjkknge3",
"57akknkaee7777<7,--,<577eeereaaeaeaagkkigagdaikgkksgkiaggaafankgknvnlgkkaskkckgaggaargakaagraeegeeeeeeeee7eae772PUIGNnkgkagMkse1",
"<7aknkkaae771<,,,,;;<778aeaegaaaaagkkkvvnnxnvnnNnvNNNMMvMNnnDZMZNDMDNDnMMnMnMMnnnknnkkkkkkfnkkkkskafgerageeew77eLIIGNMnhkkkknke7",
"77gknkkaee777<<7<,<<779egakfpakkgkkknZMnMnnMnnMkBMMNNNVnMZNDZSFGFGGZZZFZDZSMBFNNZnnMkkkkkknknnkkkkakggygagraee7ePIPGZnkakkkknke7",
"7eakMkkkaee77,<7,<:<1779aaaraakgayskkNnnMnnkkkknNMNVNMnNNNDNNZDDNZFSDFZnnnVMnNBZnnnknkkkfknkxkkkkaargeeaeeaeee7ePIIGZvnlkkknnna7",
"78gNMnhhae777<<<:--:,3187eeeeeaegaeaaknkdkgkakkkBvnknMncxknMnnnMZnZVMNnnvMkkkkvknkjkdkgaggkggagggeeayereeeee7877IYIHZMMnskkNkke7",
"77gknnkgee7<<<77=:=:,,377e7977ee79eeteeqeateeeeeeagaagkgfgakggaknkegkakgareaagteeaaeeeeeyeaeeeeaee7wee7ee7e777<7IYUHDNlkggnkkze4",
"<eeknkkkaa7777<7:##=-,<77<77<7777777777<e772<7eeie78eeeieeee5egee7aea7e77qeqe7q77778777e7e771773e77<377777777<<<PUUGZMMsgkknNke7",
"77akVkkgaee777<7@#=&===::<<3<<<77<7<<<<7<7<<17<,33<777<3<7<<7<<<677<<71<<37737,7<331<<2<<<<7<<73<7,7,<3,<7<77,,=IUIHSMknkhkkMka7",
"77aNnkkytr777777@@@@@=@=:=;,,<<;,<;,<<>,<<;<<<<<<<<;;,,-::::,,;;<,,,<<-<7;<;<,<,;,-,,<;:,,;:;<,,<:;,,;<:,:<<<,=:PUIHSkvknkkMnha7",
"<7ynnaggge7e7777@@@@@#==:====::=:-:=:;,>:=:::=:--,:=::,,==@=-=:::=:<,=,;=:=::-==@:=::::====:::::=::==--:=-,:;=#@PIPDZMkkngkkkke7",
"<eakkafgpeee7777@.X+X@@@#@====#==:@=#-:,==#=#@#==-==@=:-=@:$=#;@=#=:==;::=====@==$===#=====#$##====:;==-===@==@@PPKFVMvMMkgnkk7<",
"<7ckzkgaaeee7777@.X@.@@@=#==::#=:=:=,,:-,<-==#==-::=#=;,<,-=::#::=,<<=,-,;-:::-::=;====:=:@====-==:==;::=====@@=IIKFZnkkkgkMcg77",
"77aMlgkyeai77277@@@@@@:::=:=,,,,,,<,,,,;-<>:::,-,,:<;,:;;,:=,>,:;-;1-,1,,:-,<;-<,,;,,,---:,,:=,;==-,,,;;;:==:==#IPKFnnnahkgnck72",
"77adnkeaee77e7q7@@@@@==,<,,,<,<,13<<7<7<71,<<<337<,7377<<<1,5557<<71<1<7<77173<,131<,<<,<,3<-<<<<<<7<<<33;:::;::IPKDNnknkekMNae<",
",7klkakyee7e7e79=&=@:==,3<<7487777787<7737777777778<7777777357777e297778<7777777777377717<7<7<3773<77<773773<<7,IIKNMnbvneknnge<",
"<ekNnnkaaaee77<7-==:-<,1787e7q7ee7e7e8eeeee7eeeee8eee9ee7e7eeyeeaeeeaeeeeeeeee7ee9ee7ee7e78777ee7ee777777e7777<7IIGZAZvgkkgvkge7",
",eaSkgkagee7e777<<->,<7787eeeeeeryqagetaaeaiaeaagagggkaggkgkkkkkkgggggkkkkagkgkgagereaaaaeeeaee7eeeeeeeeeeeeee77PPJFNnngdkkNMae<",
"77knNkkga7e77777<<,-<<79eeeeeteyaaaagagkkkkkkkfkvnvMnvvnkknnMknnlNnMkZnNkkknnkkvkkgfgfgakfaagagaaeaayaaegyaaee7ePLFANMnnnkkMnk7<",
"<7gMkkkaeee78777<<<<777eeeeagaaaggfkkkxnkxnxkckknnMMNNZVlMDDVMNMNnFDDDMFnNVNNMMNMnkkkkgkkgkaagsfgyggagagkagggee9PKGSZbkkkkkZvke7",
"<7ankaxgg9e77777<<,<<77eeeeaygaaakeakkkkkkkknknMnknnknMNZMNNnNnnZMZVZNDNBnMMNnnnlngkkakagakagggaargegayeagareaeePLGDZNknkkkknke7",
"77alkrfkgee77777,:;,<<17eeeeeeeeeaeapeaaggagfgakkknkknkkkkMnknknkkknxnnkkkkgxkkkkkaaageaareagegyeeaeeaegagyeee77PGFZMNknnkllnne<",
"<98kkagkaare773<==:::;<7e78eeee9eeeeeearaaeaaeaeeaadehaaahkkkkkegrggaakgaeaeaaarageeeeeeeee77ee8eeee77eee7ee7777JGFBZkkkggfSNae<",
"<8gnkafkgae377<7=@===-,,<77<777773w6777e77e7777789987r7qe7eqeeeree77eee87e777e7777q73877<77772<3773777777177<7<<JFDZNnkgggMMNg77",
"<eegnkgaege777<7@@@$#:=,<7173873<77<7<<<3<32<7<<3<7<593<774<97777,<7<97<<77<<<7,:;,,<3<<<<3;,<<<<<,3,7<<73<<<,::GFDBZNkngkkknj76",
"<eekNkeagkke77e<...@@@#:,,;,,,,<,,<-;<,,<:;;,,;;;;,<<<,<<<<><<<-7,<<,<,-><,>,,,=;:::<,<,<<;;,<-:;<,<,<,,,,,-::@@KKFZnSnnkfggka77",
"<7akkkekyggee77<....@@@=:,==:=;;==::=#=:::::#::::=:=:-:=-:::-----;:<;====>:=:#:==@:=,;-=,===-====:-::::,==:@@@++LKGSMkznneankke7",
"77fnkfkgakaege87 . ...@@@@@==:====:====#====:===:=::=:#::=:===,-=:;=-,:=@=@=:========;=:=@=::=#:===-=====:##+@OOLLJANnxkaknxgkg7",
"<7aNkeaaakgeaee73. ...@@@@@:=:==-,;:,-::=-:=::=---,=-::#=;-=:-,,===,,,#::==,:-=:=#=:===:::=::==:#=:-=:====@@@+.GIPKDMZvvakkMnke7",
"<7hMgaaeygykeeee97. ..@@=:;,,;,;,,<<<,,,---:,<<<<,,-<3,,,,<,-,1,:=:--<,,;,;,=,:::=::=-,-:-,;--:,;=:1:=;#==@@@+GUIPGDZnnnaknlns77",
"7eglnaegggegaeee7e<...@#=:,<,3<7,,<7<<7<<3<2,<><,1377<7<,<,:,<3<<3<7<<<<1<<<<3<7<,<1<<7<<<<<<<<,,<<<<<;;=#%=@GIUIKGNMSMnkkkkDae<",
",7gnnkaaereegea7e7<5@@@=:;<<<<177877q7e777777777378777<777778877e7<717<ee3777787737777<7<7<7737773377<<<:==@FIUUPKFZNkknMgnnnae<",
"7ekkkagg9eaayeaaee777#==:7<7877e87877779eeee7ee7qe7eae9eeiieeai7e7eaqeaeagereeee9eee9e7793797<7e8e7767<<,,:FPIIPKFZNnjagkkgnnn77",
",7gMMgrgeyekaggeee7e7e:,,777eeeaeeeeaaeeeeyeyeaaaakkaagsaakakvkaakalkgkkxkgksyteaaeeeee7e88ee7eeeeee777<,,FPIIKJFZNnkkkakkkknge<",
"<7kZkgkkraakgkkkeeeeeet:<77eeeeteeaaereagyggfkkkgkkkknkkknNxMnnMMZnNnZNMMNnkkkgaagerryyeepeaeaeepeee7e72<FPIPKGDZNNzkbcagfnNDg77",
"<7gBZkkkngkeggnggedeeeaa<377eeaeaeaaaagaaagakknkkkkxknnlnnMSVSMnnZSZSNZZNNNnkkgkkkffaggegraaaeasegee97<<FPPPGGFNBngkknakkkZNAgee",
"7ekNMNcgkkgaggfnkfggeegag<<777eeeeaeeeaeyaagagkkkkkkffkkkknxnNlnnMZNkMnnNnnkkggadagaegeaeaeaeeeeaee777<FPPLGGZNVMMxfnnkggaNZDMe7",
"<7gZnlekkvkskfyaakksagggas;;<37797e777reeeareeegaygaeagaykkgaakaaakkagkvfksgaeayaeeeeeeee87e9ee7e777<<DKPKFFSSZZnngggkxakznNcga7",
",7aZZkeagkknaggkkkkkksksaga===,3<337777777e7777e77e7eeee7eeeaa9eeeea77eeaee99ee79e77e7797777q777<,,,,SLPKGSZZZNknnkgggkkgknDlgeq",
"74aNnkkgnsgnsgagMkgnskkkgggk@@===:;;-:<,<:<,,<<;<3<,<<,<77777<<1<7577777<<3<7<<7<7><<<7<7,;7<<,,:=:=DLLKFFSNMnNkggxkfkkgknkNzke7",
"5egkNcnkkkkkvgknkskxkkkkkkkkn@@@@@####======#==#:=::==:;::--<,:==,=,=,,>;::::::;;:,,;,-,,,=:====@@@GPPLFZBVnMNnnkgkMnkkkaggnka7<",
"<ekNDnkkkkkMjlkMnnMZkgvnknnnnN@.+.+@@@@@@@@@@#@@@@@@@@@##@=@::===&@@@@@=##@@#=@##:@@@@#=@@=#@@@...GPPGFZBBMknkMhknklndkkakkakha7",
"<7kZMncknnnkaggkkknVMMMgkkMVBZN.......@X+++.+@..@.@@@..+.++XX@@+X@@.@@@@+@@+@@.@@@@@@X@@.@@+O+...GPPGFNMnbxkkMVkknknxgggykkgkk7<",
"7eknZxkkNnkxkakngkMgVnVkknnBNNNN  . ..+X+X+X+@+@........+......+..@....@X+X+..@.++@...@.........FPKGFZMnbMnnncnkgkkkkakkgfkNnga7",
"78aMSMagnsafenfMnkkknnVnnvkncVNDZSFGFKLKKKLKKPKKPKKKKKKKKKKKKKKLKJPKHLKLPKPKPPLKKPPPPIPIPPPIUUIIPKGFSZnknnnsgnkklfkkgakkskzckge7",
"57aMZknkNkaakgkknklMNknncnnlNNZFDFFFJKLKLLLKLPPJPPKPKKPKPLLKPPPPPPPKPLPKPPPPKPPPPIIPIIIIIPUIIIIPKGDDMnvhkngknkkgkgkkaaksgaknxge7",
"17gnDkggnkkggnnMMkMnknnMMgkknnZDDDSFGDGJGJGFGJJJLGKKKGKKKGKKGKJKKPLKKKKKKKKKKKKKKLPPLPPPPIPPPKPGGZZZnvkknkkkfgkekaakggfgfkxlgae<",
"<qafknagkknkkkaagkgvnMkMkNkNNDNBZDZZNMSFZSSSDZDFAFDFFDZFDFZFZZFGGGFDSDDDSFFGFFFGFGGGFKLJJGGLGDFFZNNvnknknkkxffkabkgdgkaakfgnfue8",
"<7agBgngnaanlkkkkkgMknknkMVncknnvNMVZNnMSnnMvnknnZANNZBMnMMnnNNZNMNZZNMnNnZSBNZNDNZZFDZNSFVZDBMkZMcknnkkkkMkkagageffaaggggajae7e",
"77ecknggkggkkkkgkhgkaskNVNnMnMkkMNnkMvnkcMnnkkgnnnnvNvknncMknnZnknkkBnnnnMnnMMMnnlNMBZZMBnMcknkljnnnNMkMknkneakskkaagekkeggna7<<",
"<7tgNNaygarakkgkkkgkkknnkNnkxkkkNkggnkMlkkkkgfadkkknnnkkkkhcgkggggkkgkknckknnkvknkknkknkMnNMnkgkkblnkkknkkMkkkkdeaegfagkgakNke7<",
"<77aNkdgaaaaknknlkkkknkkkcMVkngnknknnkkngkaeagnknpkgkkknkkhhkfkkgaanhgkkkkhkkMkngnngcknknZkkVhkkkneakeaakgkgykgaeegafkaeffkkNa77",
"<7egnakgyaekgnkgkgfnkglkgMNngkvkngknkkkgksMkkaanageakkMkMnvkkkkkkfkakkkkkkskkkkxgbkggxkkksdgkknkaagaekkankkragegeaegkeeagannga7<",
"<7aknaaegddaakdaMkkaknnkkvkkMgkkkknkkksksknafagsaeankgkkkkkMvkkgkkngkgaakgkknkkakknkggkkgkfkhknngkkkkngekkgaykgfkadekereagNNker<",
"<7afgkkkagkkakkkrbgkskgaaknkMkMvhkkegkgkasgkakkraggkkkvnkkgnkkknkkkkhhkahgkkhkkkkkakxkkkMnkVnMvkgkkkxggkkngkgzNgedaeaaaaeeakaee7",
"<7eaakakrkgkkknnkknfgkakgknnMNkVMkknkafakkgkkkkkkkankVNMnNvMNnnknkkknkkkknnkvMngjnnkkkkkknMDVsMvlNNNnMxncNnMkkknknnkkkggfaanea77",
",19kkxnlnkggknkkNskkrkkakkvnkgcnnxaagkknkkkgakasgkknkMkknnNNMnnhvkMnMMvkMMnNnngnnNnANZDNDZDZGZMSGZZZkZNkZZNVnnknNMagMhkkkgkkda77",
"7<7eteeekazkeeekhkdaayaagkjfhkkagkeaaekaaaeaagaeeazaakkkknkkkkkkkggkhkhMkkkkkkkknsnBnNcMZNVNkkMZDcNkMnnkkkkkakkkkMagkpaergagea57",
">77777e77eaee77egea777ee77eeeeereee77,8e7777e7e77ee7qeeeeaeeee9eeereeeeiee7geee9aeaeeaageggaeteeikjjeeueaeeeee7e7e3ee7ea797i7<,,",
",,,<7<<277<7<<2777<77,,77377177e79377<77717e<7<79<<<7<575777517,7<7<<777777,7<77<7<7<57e7e7q77777e77<777777<7<7<<<<7<7<173<<<,71"
};
