/* XPM */
static char *tile10201695480483[] = {
/* columns rows colors chars-per-pixel */
"128 128 81 1 ",
"  c #28221F",
". c #272727",
"X c #2C2725",
"o c #2C2825",
"O c #2E2B2A",
"+ c #302725",
"@ c #312927",
"# c #332D2B",
"$ c #382F2F",
"% c #36312E",
"& c #38312F",
"* c #382F31",
"= c #373131",
"- c #3A3333",
"; c #3D3937",
": c #3E3739",
"> c #3E3B3B",
", c #403737",
"< c #403937",
"1 c #413738",
"2 c #443B3B",
"3 c #483D3E",
"4 c #44403E",
"5 c #48413F",
"6 c #443D41",
"7 c #493F41",
"8 c #444141",
"9 c #4A4344",
"0 c #4C4846",
"q c #4C454A",
"w c #4E4A4B",
"e c #504846",
"r c #50464A",
"t c #524D4D",
"y c #55504F",
"u c #58504F",
"i c #4C4750",
"p c #4C4950",
"a c #534D53",
"s c #584E51",
"d c #524F5A",
"f c #565253",
"g c #5A5555",
"h c #5E5957",
"j c #54515C",
"k c #5B565B",
"l c #5E5A5A",
"z c #605757",
"x c #605957",
"c c #60575A",
"v c #635D5D",
"b c #65605F",
"n c #5B5761",
"m c #5E5B63",
"M c #635E63",
"N c #635F69",
"B c #666262",
"V c #6B6565",
"C c #6D6867",
"Z c #66636A",
"A c #6A666A",
"S c #6E6A6A",
"D c #716D6D",
"F c #71706F",
"G c #6A6771",
"H c #6D6B71",
"J c #736F71",
"K c #747272",
"L c #787677",
"P c #767479",
"I c #787679",
"U c #7C7B7C",
"Y c #807E7F",
"T c #7E7D81",
"R c #807F82",
"E c #838384",
"W c #878788",
"Q c #888789",
"! c #8A8A8A",
"~ c #908F91",
"^ c #949494",
/* pixels */
".>wffffffffpffdfdffjllljlfjjlmllllllllllllp>>>>>>>>>>>>>44248>8>88>84488888>888>488>0mBBBBBlBvBBBlBBlBBmBBBMBMBvBBBBbvvBmBBllp>.",
"0tlAHAHHZFFFFFHFFFFFFFFFFFUFFFFFLFFPFPPPLUFFUEEEEETEWEEWEQEEEWWWEEEEE!EEEEEWEEWEEEELKUTUTTETYYTETTETTTTTYYUYTUTUTUUUUYTUUUUPFZmj",
"wptlZFHAFFFFFZFFFFFFFFFFFFFFFUUFFLLLUFUPPPFF^!^!^^^^^^^^^^^^^^^^^^^^^^^^^^^^^^^^^^~UTEEETTETYEEEETTTETEEYYYYTTYYTTUTYUUYUULFZZZl",
">0wwlZAFZFFFFFFFFFFFFFFFUFUFFFFULFLLPPUPUUFFW!^^!^^^^^^^^^^^^^^^^^^^^^^^^^^^^^^^^^WYETTEETEEYEYEEEEETETEYYYYTTYUUUUUUUYUUFZZZZlp",
".>wwwlVVFZFFBFFFFFFBFFFFFFFFFFFFFFFFFFFFFFFZU!!^!^^^^^^^^^^^^^^^^^^^^^^^^^^^^^^^^~ULYYYYUUUUUUUYUUUUUUUUYKYYLLLLLLLLULUUFZZZljdp",
".O>wflBBZBlBBBBZZZFBZBZBBZBFFZZFVSFVSSFFHFFlFEEEEEEEWEEWEEQQWEWEW!EWWWWQWWWWWWWWQLbFFDDLLFKKKLKKKKLKFLLFYKDDKKKJFFFKKFKKFZBmjddp",
"OO.>lBBBBBBBBBBBZZBBBBBBBFBBFBZZVSSSSSSZZZFffZFFFFFFFFFFKKKKFFKKFKKLKKKKKKKKKLLLKCxKDKKDFLFKKFFFKKFLFFFFKKKJJJDKFFFFKFKKFFmddddp",
"...>lBBBBBBBZBBBlZFZBFBFZlFBBBFZZSBZBFASFZZflFFZFFZFFFFFDDDDFDKDFFFFFFFFFKFKKKFFFbhDKDKKFFFKFFFKCFLFLLFLKDDKDJDDFFFSSKFKFZlddddp",
"OoO;BBBlBBBBBBBmBFUZBBBBFBBBFFBBAVBBFUZSZFZlfSSSBVFFFFFFFFFFKSKDKDFFDFJDKFKKFFKKKBgFFKKDKKFFASRGlSFFYDDYCDDYDDDSPUVVDFFKFFjjdddp",
".o.;lBBBBBBBBBllUUZBBFBBBBFBBBBFZllFTHBSSFZflZSSFFFVVAFLSFFSSFDFDDDFDKYULFFFFKKKFBkFFFKKDPSBFWPnBFKKDCDDDDDCDDSIEAfVDFFFFFmddddp",
"ooo;lBBBBBBBmflFEZlBBBBFFBBBBBBBllFEHjZSSZFflZFSBFBBflU!LSSFSKKSDDFSSY~~EAFFKKKKKvgKKKKDKSBSEImdSFKKDYCYDDDDDCIEPjbSDKFKFZlddddp",
"ooo%lBBBBBBlffZFZplBBFBBBBFBFFBlfBPHdlFASVZffFSAFFBllllUTSVFFFSKDKShfCLUFBAFDDKDKvkSFFKJSlVPPmaVKKFKKDDDYDDDCJIJjgDFDDFFFFmddddp",
"ooo;lBBBBBlfwlFZdlZBBBBFBFBFBBfflZHdlVBFSSBllFSSFBllVFBAFZBFFFKSDDV99gDIPAMDKKDKKvgKKDKSMlAScaMJFKFKKKDKCDDBVFAkkSFDFFKFFHljdddp",
"ooo%lBlBBlf0fBlffZBZBBBBBBBBBl0fBZffBVVVVSVffSSSVF00VFFZZmBFFSSFDFB48hDEQIMCDKDKJBgFDFDBfgbksvJJKFKKKDKDDDBvVBkkVSDKFFFKFFljdddp",
"ooo;lbbbBf88flwfBBBBFBBBBFBBB00flffBBFVSBZFflZSSFVw>lFLZnjBSSFSKFFB25sMLUZzDKDDYKvhDFDCfwtwpvDDKKFFKDKDDDVzhcggCDDJFFFFFFHjjdddp",
"ooo;Bbbbl>>0f0lBBZBBBBBBBBFBw>8f0fBVZBVBFFZffZSSVFB;8lFmdjVFSFFSDFSw,3uzMdVDDDDCDbhDKDv48qwVDKKKKFFFKDKKCueualADKDKDFFFFFZjfdddp",
"o..;lBBBwO>88lBBBBBBBBBFBBBl>>80fBBBFBBVVVFffFZFSSAg>4wwfBSSSDFFDSSB028ewkSDKDKDFvhSKDl2ehCDKJKDKKKFKDDDv9euvDDKDDKDCDDCYbjjdddi",
"o..%BlBlw;8flBBBBBBBBBBBBBFl>8wlBFFBVZFBFBZflVFASSABlffhBSSDFSDSFDSSBhaglSSKDFDKDBfKDDVBVDDDFDDKJDFDJFJKCfzVDDDDKDDKYDYCDVnddddi",
"oo.;lBBBllllZBBBBBlBFBBBBBBBllBFVVVVVFBBBFFflBSSACVBBBBBVSSDDSSFDSSSVBbVVSSDFKDDDvgDDDFDDKFDKJJDJSFKDDKDDCDDDDDKJJFDDDDDDVsddddi",
"oo.;lBBlBBBBBBBBBBf0FFFBBFBBFBBBBBFVVVZFBVZflBSSSVVBbbBBVSSSDDFSDDDSVBBBSSDKDDDFJbgDFJDFJDDKDJKDKbcIKDDFJDDJDKDKJKDKDCYCYbnddddi",
"ooo;lBBBlBBBBBBBBBl>0UEFFBBFBFBBBZVVFBBBFBFffFSSSVVBBBBVSSSSFSFSSSSFSVBVVSSSFDDDSbgDDDKDDDDDDKFKDS9bUKDJDDKDDKDDDKDKDYDYJAkddddw",
"ooo;llBBBBlBBlBBBBl8.lEEFBBBBBFBBFVVBBFFBFZflBSZSFAVVBVASSSSSSSFFFSSSVVVSSDKDDFFKBfDFDDDKDJJDDDDJJg5VUKSDJDKJJDKDDKDDCDCJAnddddp",
"ooo;BBBlBlBBBBBBBBBl>OlEWFBBBBBBBBVBBFVVBZVfjBFFCVFBVVVCSSSSASSFSDFSSSASSDDDFDFDSBgDDDFDDJDDFDFDDFC04BLJCDJJKJFDKDKDDCDYJAjddddp",
"oo.;llBBBBBBBBBBBBFBl>>lUWFBBFBBFBVVVBVBFBVlfFBZVFCVVAVGSSSSFVFVSSSSSASSSDSDDDFSSMgDKDKDDDKDKDDDDDFb85vKACDJDKDKDKDKDYDDDAkdddjp",
"ooo%lbbbBBlBBBlBBBBBBf%;lULBZVVVBBBBFBBFBBBBBBSBVVVVVZVVVVVBVVVFSAAACVSSSSASVSSCSVVFDDFFDDFDDFDDFDDFb53xAMBSJKKDJKKDDKKDKAnddddi",
"ooo;vbblBlBBBBBBBBBBBBf>>fFFBBVVFBFBVVVVFFZFVSVVSABSFAVSSAFFAFSSSSSSSSSSFSFSDDSFSFSFFDDDDFFDDFDKFDDKDb43hMmADDDJJDDKJDDKDAkddddp",
"ooo;lbbbBBBBlBBBBBBBBBBf>;fBZBBVBBBBVBBVBBBBFBVSSSSSAVFVFVVFFSSSSSSSSDSFSFSFFSSFDDSKDFDFDJDJDDFFJDJDDDb52ammSDJDDJJDDJJDDAkddddp",
"ooo%lBlbBlBBBBBBBBVVBBBBl0>ymBBVFBBZBFFBBFFVVVVVSVBSAFVSVVFCVASSSSSSSDSSSSSSFFSSDDFSDDDDDDFDFFFFDJDDFDFCt3qjADDJJDDDJDDFJAjjdddp",
"ooo;lBbllBBlBBBBBFFZBBBFBBlflBBVZBBBFLFVBFBVVVFFVSSSSASVAKFFSSSSSSSSSFSFFSAFFFSFDDDDDDDDDFDDDSSFDDDDDDFDDBggAKSKDDDDSSKHFAnddddp",
"ooo;lBBBBBBBBBlfFTFBBBBBZBBBBBVBBBBFLPBVVVFVVVZBSSBSACBVUIZVSSSSSSSSSSSSSCALUNASSDDDDDSDDDFDSCILBDDKFDDJDDDSDDKSDSLLmASKSAjddddp",
"oo.;lBlBBlBBBffFWFlBBCBVBBBBBBBVBlmUUmBVBBBBSVBSBSSBAlBUTmMSSSSSFSSSSSSSBBIEZkCSDSDDSDSDDDDVVTTNgSJDKDKDDFDDDDSSSUWNfSKSKAjddddp",
"oo.;lBlBBlBllfmPPjlBBBBBBBBVBBBBflUUmdBVVFVVBSZSBSSSllUUNfbSSSSSSSSSSSSBbLRHdMSFSDDDDDDDDDVBUEZdBDDDDJDDJDFDKDSSUQHpmDDKSAndjddp",
"ooo;lBllBBll0lFFldvBBBBBVBVBBBvffBFmdvBSBSSBSSBSCVBllVKNdvFVSCSSSSSSSSBlSIAdhSDFSDDDDDDDDBMKIGaxSJKDDDDDFDFDDSBPUJdjDDDDKCjjjddp",
"oo.%lBBBBll0flBfwlBBBBBBBBVBBbfyBZvdlVVVSBBSSBSBSBlfBVBpkBFASSSSSSSSSBfBSAjfVDSSDDSDDDDSBlCDAdfSDDSJDKDJDDDDVBSLSjaVJDDDDVnddddp",
"ooo;lBlBbl00flf0lBBBBBBBZVBBMf0yvlplBCVVBSBBVVBSVlwflmplBFVVSSSSSSSSBfgcMfgVSSFSSDDSSDSVglMMsabDDDDDDDFDDFDSlvVBkpBDFJKDDVnddddp",
"oo.;lbBBl080ff0lBBBBBBBBBBBVl08yf8lBBBZVBCVSAVVVbw0yfwlBCVVFVSSASSSSf0tgpaBSSSSSSDSDDSShwygaaBDDDDDDDDFDDKSbffhpqBDDDDDDJAjddddp",
"ooo;lbblf;>800lBbBBlbBBBBBBl0>80qkVBVVVVSBVVVVABy>800lVVVFCFVAFVSSSv8409fVSSSSFSDDSDSDv090qaVDDDFSDDDDDDDDAw0rqtBJDJDDDFFZjddddp",
"ooo%lbBl4O>8wBBBBbBBBBBBBVBl;;8wlBVBBVVBBVVVVVAB8;40lBSSVVCBFCVVSSAf-30kVSDSSSSSSDSDDCf;2wlCCDDDDDDDDDSKDDv229gADJDJKDDDFZnddndp",
"ooo;lbbbf00llBBBBBBBVBbBBBBl00lBVVBVVBVCAVVVVCABwwfBACCVCVAFVVAFSSSgwfMSSSSSSSFFSDDSDChtfMSDDDCDDSFFSDDDDDBesMAJJDJDDDJKFAjddddp",
"ooo%lbbbblBlBBlBBBflFSVbBVVBBlBBBBVBVMfFFAVVVBCCVBCAVCVCCBlFFFFVSSSVVSSSSSSSSvVFSSCDDDSCSDDDDDDDDBSIHSDDDDDSDDDDDDDDDDDDFAnjdddp",
"ooo;lBbBbvlBBlBBbMy>BELCVBBVVZVBBCVBBB>hUUFBVVZVAACACVASCB0fTUFVSSSSCSSSSSSSFgwLYFASSSFFDDSSDDDDDb0KYSSSFKSFDDDDJSSJJDJJSAnddddp",
"ooo%lBllbbBBbbbBbMl>>FWUABBBBBBBBBBVVC5;BWEAVVBSVVVVCAVCVCf=lETFVCSSSSSSSSSSSB4pUEFASSDSCDDDDDDDDS00LESASSDDDDDDDDJDSJSSHAnddddp",
"ooo;lbBBlbllbbbbbBBtO5KWUSBBBBVBBVVBBCv>>BWEFBVVVVVSVSVVCVV0;lEYABSSCSSSSSSSSSg;tTYSVDSDCDDSSDDDDDl>wKUSASDDDDDDDDDDDDDDFAjjdddp",
"oo.;lblBbbBBlBlBbbMv0O0FEUABBVBBBBBBVBBg%>BEUFBVVVVBVAVSVSCb;;bUUAASSSSSSSSSSSV0%gKIVVSSDDSDDSSDDDSf-tFKZVSDCDDDDDDDDDDDSSkdjdjp",
"ooo;blBBlBBBBBBBMbbbb8%0SEFBBBZBVBVBVVVBf%>bUFZAVSBSCVVSSSVSl>>hIHBVCSCSSSCSSSSV9;yDHmSSSSDDDDSDDDDCt-tVAmVSJSDCDDDDKSJDFZjjdddp",
"oo.%llBlBBllBllbbBbBbl4%0FPZBBBVBVVBBBBVBy%4lFZBVVSBSCVAVVSVVh>;lSNZSCSSSCSSSSSSV4-uVZMSSSDSSSDSSDDDV0<eBZkADDDDSDDDSFSJHZndjddp",
"ooo;lBbBbBBblBBbBBBBbbh8%0ZGBBVBBBBVBCCBVBf;8lFmBZSBVVVVCASVVVh>>gZmVCSCSSCSSSSSCb9;wZmBSDDDDSSKDDDSDCw-9kmMSDDDDDDDSSSSFZndjdjp",
"ooo;lbllBllBBBlbvFIVbBbbw-8mNBBBVBBBSUCCBVBf>>fmBSBSBSVVAIFVBFVv6;fnBSSSSSCALKSSSSBt-9jmCSSSDSAIDSSDDDCf>3jkADDDDSAPFSFFFVnjdjdp",
"ooo%lbbbMvvbvvllFTGmBBBvBl40fBBVBBlAEFmZCBCBbw4fvVBCCBBVEFNVFBCCVf8tmCSSCBAUUmBFSSSCl50fSSSSVSUPvVDCSDDCMw9aVDSSCSUImBDDDBnddddi",
"oo.;lbblvvbblllATHlvBBBBbBbhlBBBvlZTPlBVBBBCCBllBVVVBlBEImlAAVCSVVBcBSSVBVUTNkVASSFSSCbbSSSVSRTmkCDDDDDDDSBBSSKVSURZsADDDAnddddi",
"ooo;lbblMMBvlfBLFdlBvBBBBBbBBBBlflLKllBBBCVBBCVVVVVBlBLImdBCVVSVVSCCSVVvMKTZpMSSSSSSFSSSSSBVURZaBDCDCDCDDDDDSSVAUEGpcDDDDAnddjni",
"ooo%lvbbvvvfwlBAjfmvBBBvbbVBBBvflBFlplBVVBVCCBVVVVBglAFmpvCBSVVSCVCCSVvlFFNplFSSSSSSSSSSSBvFPZicSSDDCDDDSDDSSSBIUGpkCDDDDBndjddi",
"oo.;lbblvlfwwlMfwvBvBBbBbBBBBvttlBlpBBBSBVVBVVVVVbgflBlplCCSVVSCCCCCVlfbVMafVCSSSSSSSSSCvlVSMigASSDVDDSDDDDCVmSDMaaADDDCHZjjdjdp",
"ooo;lbbbBf00flywlbvBvBbbBBBbMy0ylk0lvBBBCBBCVBVVBhwfllplBBSVSSVCSVVCBfyvlpfVSSCSSSSSSSSBdfclaaBDDDDDCDDCSDDVckBcaaBDDDDDHGjjjjdp",
"ooo%lbblvw29ywylBvBbBbbBBBBBf84ytqlBBBBVCBBBVVVVl08tywfZSSBSBCSBVSVVw0waqfBSSSSSSSSSSSVgwyywaVSDDCCDSDSDDSSlssc7aBSDDDDDSAnjdjdp",
"ooo;llbbf=-88wllBBvbbbBbbBbl8;480lBBBSBBBBCVBVVBw>480lBBBSCVCCVSSVSl8498fVCCSCSSSSSSSSl0408gCSDACCDCDSSSSDVw777sVSDDDDDCSAjdjdjp",
".oo%lbbb5%>4fblbvvBvvBBvBBbg;;4yvBVBBVBVBVBVVVVb4-4wBBVVVACSVVCVSVVy->0lASSSSCSSSSCSCCy;3rMCSCDCCDDDDDCDYbz117zSDDDDSDSDDAddddjp",
"ooo%hvlbh5ylBlBBvBBBSBBBBBBlwylbBBVBBBBSCBVBVBBbyylBVVVVVVVSSSCSVSVltlVVCSCSSCDSSSSSSSlykMCDSDCCCCDDCCDCCCbszVCDSSDDDDDDSVndjjjp",
"ooo;lbvvblvbBblbbBffFFbBbBBBbbBBVBBBBvyFLSBVVVVBBBVVVVVVVBfFLSVCVSVVVVCCCSCCSlSIHSSSCSSVDCDCSSCDDvCYJCCSYbDCCDSDDSSDSDDDDVndjdji",
"ooo;lvvbbvbvlBBBblf>BWUVBbbBbbVBBBVBBv>gRESVBBVVVVVVVVVVVB0pYEFVSVSVVSCCCCSCSf0PWSVSSSCSDCSSSDCDDv9DEJASCDCCDSDCDSDSDSCDDVnddjdp",
"ooo%lbvvbllbbllBbll>%V!ESBBBBBBbBBbBBVw%hEWFBBVVVVVVVVVVVVl%fYWFVVSVCCCCCCCSCb50KQKVCSCSCCDCDADCSS04DEJACDCDCCCCSSDDDDCDGZnjjdjp",
"ooo;lvvvbbbBbBbbBBvf%>SWTSBBBBBBbVVBBBb4%lEEFVVBBVVVVBVVVVB0%fUESAVSVCVCCCCCSVh%9PYFVSSSCDDCCCCDDSv28DUANCDCYbYbDSDSCDDCHGjjdjdp",
"ooo&lvvvlbvlllBBvvvv0O8SWUBBvBBbbbBBVBVh;;lUUABVVVVVVVVVVBSB>%hLUAVACCVCCCCCCSBy%tSIAVCCSCCCSDCDSSSg-9SKVNCzcCCYCDCDDDSDSAjjjddp",
" oo%lvvbbvvbBbblvBBBb8O4VEFBBBBBBVVbBBBBy%;lIKBVVVBVVVVVBSVVl>;fKHBVCVSCVCSVSSSB0=fAFmVSSDADCDSSSDSCy-wBDcbYcYDCDCDCADDDSZjjjjjp",
"ooo;lvbvvvvbMvMvvBvbbbw=;lPZbBbBVbbbBBVBBl2-sSAMBBVBVVBSCBCVVb8%wAZMVACVSCVCCSCSVu&5vBMBSSSSSSSSSSDCSh;2hMnBSDDSDSDCDSDDDVjjdjd7",
" oo%lvlvvbvvvvMbMvbbbbvt-2gAZBBBbbVVVBBVVBh2*tNMVVVVVBSBVCBVVVB0-9mmBSVCVCCSCCSCCVu<3kmMASSSSSSSSDSSDCh22anmVDCDSSSDSSCCSVnjjdn7",
"ooo;lbvvvvvbbvMvbvbbbbbvf2;ambbBbVBBBBVBBBVcr,7MBVVVVVBCVVVVVVCBt28jmVVSSVCVSSCSCCCx3<akVCSSSSSSSDSDCDCb9,rdBCDCDSSSDSDCSNnjjjnd",
"ooo&hvvBvvvbvvvvvSKBbbbbBvy9alBBbbBBCIABBVBVvzervBVVVBSBVLFBVCBCVct0lVSVVSCSFFCCCDCCVg0aVCDCSSSFFSSSDSCDCcqtBDCDCSDJJCSDDVndjjj6",
"ooo;lvvlvvvvblllATKBbbvbvBvvbbbBVbbVITMBVBVVVVvvBCBCBBBBUUZBVCBCCVVBVCSVVVVPYZASCCDCSSVVSSSSSVIUVVDCCCSDDCCCSDSSSSIYNMSSGNjjjjji",
" oo%lvvvvbvvbllVTPmlBvbbbBBBbbbBbhBUTMMMBVVMbVVVBBVBZBBUTZlVVVCVVCVCVCVVBBPWSgVCCCCCCVSSSSSVBIEZjCCDSDDACDDCSSSSVYRGsCCDGGnjjjji",
"ooo;lvvvvvvvlflPIjfBBbbbbbbbbBBbkkFUMabbMVbVVVVVBVVBllFTZfBVVVVVVVCVCCVBlKRHalCCCCVDSCSSSCBBIWHdMCCCDCCDDASCSDSBYRPdcSDCHNjjjjji",
"ooo%lvvvvvvlagBDkplBvbbbbbbBBbvfdBFmtvVbVVvVvVVvVVBllBPmplVVCVVCVCVCVVbhVPAajCCCCCCCCSSSCBvSIAdfVDDCCCDCSCDDSVvKYVdrASSDDNjjjjji",
"ooo-hblblbhtplMkqlBvBbbbvbbBbbfflbcpgBBBVBVMVbVVVbhflBbwfVVVVVVVVVVCVBgvVBaaBCCCCCCCCDSVBlBDAstVCCDCDCDCSDCSVlVDGs7cbYCDDVjjjjj7",
"ooo&lbbxbh00yhawgBvvvMbbbbbBbf0yhhqfBBVBbVBVVVVVBlyyhlpfbVVVVVVVVVCVBffcMatvCACCCCDVCCSVghvMarMCDCCDCCCDDCDVvlBBssccCCDCDNnjjjjd",
"ooX-hllbly45ut9fvbvBvvbbBbvbh08ty9fbbbbVVbVMbvVVby5yf0ybVVVVVVVVVCVVfwtswwcCCCCCCCCSCCVxtysrrMCCCDCDSDSSSDCvffzr7MVYCYCDSVnjjjj7",
"ooX%hvbxg>-499hvMvbvBBvbvbBv0;289fBBVVbBbVbVVVVvy>458fbVBVVVSBVVVVVb8479tMCAVCCCCCCCCCve897tMCCDCCCCCDSSSSVt9r7qMDbYCcDCSVjjjjjd",
"ooo%vlbv0#-40lMvvvbBvvBvbbbg;-20lbbVbbbVBVvBVbVb4&<0hBVVVVVVbCCbVVVy-<8yBCVCCCCCCCCCCSf,28fVDVDVCCSSDCSSDSv<<7tMSDSDDCSDGGjjjdj6",
"ooo-hbvlw;0ylvvbMvvBBBvBbbbh48fvbbbbbVBVVBVVVVBv04ubBVbVVVVSCVCCVVCu4tcVCVCVVADCCCCCCVg5tcCCVDVDCDDSSSSSDCb5tvVDSSCCCDDCGGjjjjjd",
"ooo-llvvhhllbblbMlgvKSBbbvbbcvbbbbVbBllKDCvVbVVbbbbVCbVVVblLKCbCVVVBbVVCVCVCVvJLSCCCCCVVVCCACCCDCBJISSSSCCCbVCCCDCDCDCCDGNjjjjji",
"ooo-xvxvbbbbblbvbbt8DWPBbbbbbBbbbbbBbl4BEIDVvVBVBVVVbVVbVb5lEUFbVVVCVVCVCVCVCgaUYDVCCCVSCCSSCDCCSctIRSASDCDCCDCDCDCDCDDCDVjjjjji",
"oXX-lvvvvvxbbblbvvh;4L!LVbbbbbbbVbbVbb0;SWYCBVBVVvVVvVVbVbu,bWYSVVVCVVCVCVCCVv<fYESVSVVSCCCDCCDCCV3tIRSACDDCCDDCDCDAYcYzYzjjjjj7",
"XXo-hvvvvvbvxbbbbMlwO0L!UbbbbbbVbbbbVbh->SWUSBVBVVVVVVVVVVb<<bEUCVAVVCVCVCCVVVt-gUUSVSCSCCCCCCCCSSg-tLIAVCCCDCCDCDDCCczYYcnjjjjd",
"XXo-xvvvvvvvlblbvvbl4OtKWKbbbbbbbbbbVbby%4VEIABVVbbVVVVVVVVx<4bYLBVVVCVVCVCVVCv5&hKPVVCSCCCDCCCDSSVt-tDKMVSDCCDCDSCDCYcYcccjjjj7",
"Xoo-lxlvxvvvbblbMMvvh>%0FEFbbbbVbbbVbbVbw%4bIFVBVMVVVbbVbbVV5,<xLHBVVVCVVCVCCVCv<;hDHBVCCCCCDCCCCSCV0-uSSMVCCDCCSSDCCcYcYzsjjjjd",
"XXo-hvvvhbhbbbhbbvvvbg>%0HPAMbbbVbbbVbbbb0%5BPABVBVVVbbVCbCVbu44cAZBCVVCCVCVCCCCb;-uAZmVSVCCCDSCCSSSve,eNNMCSSCDSSCYcCcYNnnjjjdi",
"XXo-hlvvbxbbxblbvvvBvvg2%0AABbbbbbbVbbVbBve&4lZmBVVvVVVVVCbVCb5<2kZMbCVVVCVCCCBVVc3,wNmBCCCCCCCCSCCSCV7,7MMMSSDCSScYYCYCGTjjjdji",
"XXX-vlvxbhxbbxbbvbvbbbbh8#9mmMbbbbbbbbbbbVvt-2kmBBVVbVVbbVVVVVbx2-anbCVCVVCVBCCCCVv0-qkmVVCSCCCCCDCSCSMt,7djVSCDSCYCbCCCGNjjjjji",
"XXX&hvvvxbbhbbblvbbvbvvbby28jvbbbVbbVVbVVbBBh82acVbbVVVVCVbCbCCbvw2qhCCbVCVCCCVCVCABg29fVCCVSCCDCCCSSSSMz77aMSSCYccCCCYcSAjjdjji",
"ooo-hvvxbvbvxbhbvSKbvbbMvblfhbbbBBBBCKSbbbbbVblgvVVVVVBVCDYbCCVCVBvhvVVVCVVCKKCCSVCCCbzzVCYzCCALDSSCDCCCSCzzCCDCSSGTJCCDSVnjjjj7",
"Xoo%hxvvblxbbbhhSRPMbvvbbvbbbbbbBvvVTUBbbBVbbVbbbVVvVvbVYYxCbbVbVVCBVVVCVVVKEABCVCCVCCCCCCCVCVIUVCCCCCADSSSSSSSSCVPRAVDCSNjjjjjd",
"XXo-lvvvhvvbvlhBRPmlvvbvvBbbbbbbblMIUmbbVVbbbbCbVBVVbvbIYbxCCbVVVBVCVVVVBBPWHjBCVCVDCVCCVcCbBIWGkCASCCCCSSCDSCDCNYRGsVDCSNnjjjj7",
"XXo-hvhvvvvxhflPPjfvbbvbMvbbbbblggFTmfbbbbbVCbCbbVBbvcKTMuxCbCCbVVCBVVVblHESacVVCCVVCCCCYYbbPEGalASCCCCDCCCCSCVMIRT7cSSSSVndjjjd",
"XXX-xvvvlblgylBAktcBvbbvbbvBbbvgfBFmthbbbbbCbbbCVbblgBJMtkVVVbCVVVVVVVblVKAdaCVCVCCCVCCCzzcDLAaaVCCCDCCCSSDCCVbDYHjaVDCSGGjjjjdi",
"XXo-hlvxvlltwlBfqcvvbvbbvbvbbvftlBk0hbbbbCbbbCCbVblfcVMruvVbCbVVVVVVVvhcVBawvCCVCVVCCVCCbzMCVatMCCCDCCDCSCCCVvVJMs7MSCCSGNnjjdji",
"Xoo&hvxvvhwwthfqzvvvvbbvbvvVbgwtckqfbbbbCbbbbCbbBlatcletbVVbbCVbVbVVvffxcaqvCCCCVCCVCCCVzzxvarMCSCCCCDCCSSSVvlMMsrMSDCSCGNjjjjji",
"Xoo-hvvvlt63twqfvvvbbvvbvMvvh95tt8flbbCbbbbCbbbCvt9ttqtbVVbCCbVVVVVVg0tuqqvVCBVCCVCCCCbzuesrqcCCCSCCCCCCSSSlyysiqcCCCCDCDNjjjjji",
"XXo-hvvvg;-279gvvbvbblbbbbbx0;443ubbVbbbbzbbbVbbu5255uvVbVVVVbVVCbVx53e3uxYbYbxxzYYzYzze3333eYuYCCCCCCCDSCVs7e7rvCCCVYzbYznjjjd7",
"XXo&hvvxw@-2qhvvxbvvbbbbbbbg;%29zbbbbbbVYzbbbVVx5,<5gbVBVVVbbCVVbVVu&,3uxxzxxxYYbbzzzYu$13euYuYuCCCVCCCCCSc212tMCCSSzYYzYcjjjjji",
"XXX-hvlvt-8ulvvvlbbbbbbbbbbf43tcbbbbbbbbbCbCbVVx545bMVVbVVbVCVbVCbVu55xxYxxYxYzbYzzYYu33eYuYuYuYCCJDCCCCSSc3rzBSSSSSYcCCcccjjjji",
"XXX-hvhvxxvxvvvvblgvUSbbbxbblvbbbbbbbVbbbbbbbVbVbbbVVvVVVbCVbCCVbCCbbCxuxYxYxxYxCbYzuYYzYuYuYuYeCvJYDCCCCCCVVCCCSSCSVcYcYscjjjji",
"ooo-hlvvvxvvxbbxblt4SWKVbbvbbbbbbbbbbVbbbbCbbbbbbVVbbVvVVVVbbVVVCbCVYuxYxxYzYxYuCCCCuYuzYuYuYuYYCbwKEDVCCCSCCDSSSSYbCCCYGNjjjjji",
"ooo-hvvhvxvvbxbbbbg;4KWUCvbvbbbbbbbbbbbbbbbbbCVVVVbbVVVVbbVVCVVVVVbVxYYxYzYbxxuYCbCCYuzYeYuYuYuYCV5eLEDVCCCSCCSSSSCCCCcYGNnjjjji",
"XXo-hxvlvvxvvvxbllb0O0KWIBMbbbbvbbbbbVVbbzbbxzxxvvvbvvxvvbvvvvvvbbbbxxYxYxuxxYuYbxxYzYYuYuYuYuYuCCg-wKISMCCCCCCSDCDCCCCCGNjjjjji",
"XXo-hvxvvxbvxvbxbbbg4@0FEIBbvvbbbbbbbbbbYzbe3,,,,<-,,,,1,,<,,,,,<<<<,&+&+<<<,<&<3,uzYzuYuYuYzYuYCCVt&wSJVVCDCCCCCCCCYbCCCAjjjjdi",
"XXX%hhbvvvxvvvvbblxbx2#0SRDMvvBvVvvVvVVbbBBt0tttuuueyuuuuuyyuuuu5xxuuuuuuuuuuzuuueuYzxYzCYzzYzYuCCCb7,rCDMVCSCSDzYYzVNCDCNjjddj7",
"XXo-hbhvhvxvxvvvbbbbvg<%qAPNMvvVvvbbbvbbbbbargxhggxxxxhhhhhhxxvzxxxxxxxbxzxxxxxzzuuxxYYxVCbYYzzYCCSSV7,7NVcVCCCCYbzYCYCCCVnjjjjd",
"ooo-hxlvxvvvvvvvxbbxbxh2#9NAMvvBvVvbbbbbBbbatghzxxxxxhhlxxxxxxxzxxxxxxxxuuxxYxxuxuuzzYxbCVVCzYzzCCVCCV3,7nMMCCSCzYzVYcDCYNsjjdj7",
".oo-hvxvvvxvxvvvlbbxbbxx0#7MMVvvbbBbbbbVbBvaahxxxxxxxvccvxxvxxbbbxbxxbxbYxxuuuYuxzuYxbxYCCCCYzzYCCCCCCbs16adVCCSYzYcYVCCcVnnjjjd",
".oo-hlvxvxvvvxvvbbbbvvbvvu33sMvBbbbbvVVbbbbsaxcvvxxxvxvvxvvvxvvxbxxbbbbbuzzubbxzxuuCYCCCVCCCCCVVCCCCCCCVc77sMCSCzzYzVVCCNnjjdjdi",
"XXo-hvhvvvxvxbvvhSFbbvvbvvxugcMvbbbbSLVbVbbatxvxvvvvbDSSbvvvvvvvbbbbvbDDYzxYbbxzbuubxbbCCVCCCVSPDCSCCCCCCCccVCCCzYzYYCCCGTjjjddi",
".oo-hvxvvvxcvvxlGEKbvvvvbvvVbvbvvvvAYIBbbbbfavvvvvxhSWQEKMvbvvvbbbbbyhKQYzbbbbxYbzuCCCCCVCCCVVTRCNSCCCCCCCCCCCCCCCYYGNCCGNjjdjji",
" oo%hxvhxvvvvxhBRFklvvbbvbbvbbvbvlBUIMvbbBbauvvvvbxuSY!^WVvbVvVbbbbuyexDYYbbbCCbbzubCbCCCCCMMYRGsCCCCCCCCCCCCCCCVYRCsVCDSNjdjjji",
".oo-hxxvhvvlgfMJFpgvbhbxbbbbbbbxglKPnavVbbbzavvbVvttvDYQYYzzzuuYbVxuzvcvSGMvVMVVuuexbYxYxxxbJRGasYYzYVYCCCCCCCCMYRD7zYzYzznjjnj7",
"ooo%hvchvvlhfgBAjwlbbbbbbbbxxbbygMSktkvVbbvusvbbvv53uzCKYbzuYYzzbbx5zCSBnMcMVVbVYuuYxzuYYuuYJV7czzzYzVzCCCCCCVMDYc7szzYzYbjjj7jj",
".oo-hvxvvhhwwlcs9hvvbhbxxbbbbvyykvkrfvBbVvvsgvVbVbe11ezvzsuYuYYuCbb<3VDSdidVbCVCzueuYYxxbxxCbsebYzYzbYCCCCCCVzMDNj7GzYYzzcsjjjji",
"..o&hvvxvhw9thrqgvvbbxbbbbbbbuwwzs7zvvMbvBBsuvbVbbu,,33urruYzuzzbCb5,rVDn7cMCVCVYzeYzxxYxuxxs7bCzYzzYzCCCCCCczMMs7MJYbzYYzcjjjji",
" oo%hvxvhw44r99hvvxbbxxbbxbbg840r7svVvvVbbbsgvVbbbbu3,33scVbYuYYCbbb53553zzzVVCVzuexzYYz55u5tvCVYuYuCCCCCVScsts77MCCCCzVGNjjjjdi",
"o.o-hvvhg;-<29gcvvvvbbbbbbbh0;;43svvvVvbbbBsavbbVbbbzuuucbbCzuuzCCVbbzuuzbbYVVVVYueYYzue5555vCCCuYuYCCVCVCVt7727cSCCCCYCGGjjjdji",
".oo-hcxv0@=2ezvvvvvvxxbbxbvg-%>0ubbbvVbbVvvsfMbbbbbxbzzbbzbbuYYbbVbbxxbbbVzbbzVCzueuuzu$55ubCCCCYuYuCCVCCCc1777bSCCCCcCCGMjjdjji",
" ..-hxvv0-9yvxxzvxvvbbbxbbbg43yvbbbbbvbbvVbuaBVbbbbbzbzzbbbCYzuuVbbbbbxbbbzYbYVVYzeYzYe,5bCCCCCCuYuYVCCCCCv37cCCCCCCCYYcSNjdjjdi",
"o.o%gxvxcvcvvvvvvxvvvvvvxbvbvvbvvvbvvbbbbbMssbbbbbbzbxxbzbbzYubYuYzYzuzubYzYzzzYY33zYuuzYuYuuYuYYuuYuYuYCCCVCCCCCCCCCCCASMnnjjj6",
"o.oo4gxvvcvxvxvvvvvvvvvvbbbbvbvbvvvVbbvvbMBasbbCbbbbxbxbbbYzYzuYbbzxzYzYzuzYzYYzYzeYuYYYuYuYYuYYuYYYYuYuCCCCCCCCCCCCCCCVbs7jjjjd",
".oo+@2tyssuuuufsuusfuuusuuuuufugfgggzggfzgsq7usszuuuuuzuuzuzeuzzuuzzuuuuuzzzuzeuue,YuzzzeuYe3uzzuYeuzz3uccczccccccccccccs77dddj6",
" ooo+#;;*,-,;--,-;1-;,,,;;;;<,,<::::1,,,,,1133333333333333331333333333333333333331+1$11111111$3111$13131111111331311331677d7ddjd",
"XX++#*-$*,$***$$**-*-$*$-$$--&-*-*-**-*-*-*:13111313313313333131333333333333333333$+1$$111$$$$111$$1$,$$,*,,1**$1$,$*6**:66i6dji",
"X+++$$****$$,**$******,$$-*$&-$-*-*--*-*-**:133333333331333133333333131333333333331$$$,$$$$11$$$$1$$$$$1**$***,,,,$,***1*:66i6d6",
"XX+#*$-$$***$$*,$$-$-$-****--$-$-*-**-*-**-:133113313331133331333333333333333333333$$$1$$1$1$11$$11$$11$*,1*,*,$$,,$*6:**::66i6i",
" X#-*-**$$,**$***$,***$*$-**$-***-**-*-***::111111,,,111,,,111,,,1,,1111111111111111+1$1$$1$1$$1$$$1$$$1*,**,*$$,*$,*:**:***6i6*"
};
